<?xml version="1.0" encoding="utf-8"?>
<!-- Generator: Adobe Illustrator 15.0.0, SVG Export Plug-In . SVG Version: 6.00 Build 0)  -->
<!DOCTYPE svg PUBLIC "-//W3C//DTD SVG 1.1//EN" "http://www.w3.org/Graphics/SVG/1.1/DTD/svg11.dtd">
<svg version="1.1" id="Layer_1" xmlns="http://www.w3.org/2000/svg" xmlns:xlink="http://www.w3.org/1999/xlink" x="0px" y="0px"
	 width="25px" height="25px" viewBox="0 0 25 25" enable-background="new 0 0 25 25" xml:space="preserve">
<g>
	<g>
		<path fill="#FFFFFF" d="M11.928,14.714c0.166,0.166,0.356,0.249,0.572,0.249s0.406-0.083,0.572-0.249L24.664,3.122
			c0.166-0.166,0.249-0.356,0.249-0.572c0-0.216-0.083-0.407-0.249-0.572l-1.243-1.244c-0.166-0.166-0.357-0.249-0.572-0.249
			c-0.216,0-0.406,0.083-0.572,0.249L12.5,10.509L2.724,0.733C2.559,0.568,2.368,0.485,2.152,0.485S1.746,0.568,1.58,0.733
			L0.336,1.978C0.17,2.143,0.087,2.333,0.087,2.55c0,0.216,0.083,0.406,0.249,0.572L11.928,14.714z"/>
		<path fill="#FFFFFF" d="M23.421,10.286c-0.166-0.166-0.357-0.249-0.572-0.249c-0.216,0-0.406,0.083-0.572,0.249L12.5,20.062
			l-9.776-9.776c-0.166-0.166-0.356-0.249-0.572-0.249S1.746,10.12,1.58,10.286l-1.244,1.244c-0.166,0.166-0.249,0.356-0.249,0.572
			s0.083,0.406,0.249,0.572l11.592,11.593c0.166,0.165,0.356,0.248,0.572,0.248s0.406-0.083,0.572-0.248l11.592-11.593
			c0.166-0.166,0.249-0.356,0.249-0.572c0-0.216-0.083-0.406-0.249-0.572L23.421,10.286z"/>
	</g>
</g>
</svg>
