<?xml version="1.0" encoding="utf-8"?>
<!-- Generator: Adobe Illustrator 15.0.0, SVG Export Plug-In . SVG Version: 6.00 Build 0)  -->
<!DOCTYPE svg PUBLIC "-//W3C//DTD SVG 1.1//EN" "http://www.w3.org/Graphics/SVG/1.1/DTD/svg11.dtd">
<svg version="1.1" id="Layer_1" xmlns="http://www.w3.org/2000/svg" xmlns:xlink="http://www.w3.org/1999/xlink" x="0px" y="0px"
	 width="130px" height="130px" viewBox="0 0 130 130" enable-background="new 0 0 130 130" xml:space="preserve">
<g>
	<path fill="#E9E8E0" d="M85.728,0.407H18.775c-1.863,0-3.374,1.511-3.374,4.444v122.433c0,0.795,1.511,2.309,3.374,2.309h92.448
		c1.867,0,3.375-1.514,3.375-2.309v-96.94c0-1.605-0.215-2.119-0.593-2.501L87.166,1C86.781,0.622,86.264,0.407,85.728,0.407z"/>
	<polygon fill="#DAD7CB" points="86.913,0.754 86.913,28.089 114.252,28.089 	"/>
	<path fill="#EEB04B" d="M111.224,129.593H18.775c-1.863,0-3.374-1.514-3.374-3.375V90.377h99.197v35.841
		C114.599,128.079,113.091,129.593,111.224,129.593z"/>
	<g>
		<path fill="#FFFFFF" d="M60.434,98.955v18.104c0,1.092-0.199,2.013-0.6,2.757s-0.937,1.35-1.608,1.804
			c-0.672,0.448-1.444,0.764-2.318,0.946c-0.87,0.177-1.772,0.266-2.696,0.266c-0.464,0-1.003-0.051-1.621-0.146
			c-0.622-0.095-1.265-0.239-1.928-0.441c-0.659-0.195-1.296-0.423-1.904-0.675c-0.612-0.253-1.126-0.536-1.549-0.858l1.608-2.548
			c0.211,0.145,0.511,0.303,0.902,0.454c0.388,0.157,0.813,0.303,1.277,0.441c0.46,0.139,0.946,0.259,1.45,0.366
			c0.505,0.101,0.978,0.151,1.42,0.151c1.109,0,2.002-0.215,2.665-0.644c0.659-0.429,1.012-1.161,1.053-2.195V98.949h3.849V98.955z"
			/>
		<path fill="#FFFFFF" d="M79.269,116.302c0,0.839-0.177,1.659-0.523,2.441c-0.347,0.795-0.839,1.488-1.47,2.082
			c-0.631,0.599-1.407,1.078-2.334,1.438c-0.921,0.354-1.975,0.53-3.154,0.53c-0.505,0-1.021-0.025-1.564-0.076
			c-0.529-0.05-1.072-0.139-1.621-0.265c-0.545-0.126-1.065-0.303-1.561-0.523c-0.492-0.221-0.918-0.485-1.277-0.801l0.662-2.713
			c0.293,0.164,0.665,0.328,1.119,0.486c0.451,0.157,0.918,0.303,1.404,0.441c0.479,0.132,0.965,0.246,1.45,0.334
			c0.479,0.076,0.934,0.126,1.356,0.126c1.28,0,2.265-0.303,2.945-0.901c0.682-0.6,1.022-1.489,1.022-2.669
			c0-0.713-0.24-1.324-0.72-1.829c-0.485-0.505-1.091-0.959-1.816-1.369c-0.719-0.409-1.508-0.819-2.347-1.229
			c-0.845-0.41-1.634-0.896-2.365-1.451c-0.738-0.555-1.35-1.211-1.829-1.968c-0.485-0.757-0.726-1.703-0.726-2.839
			c0-1.034,0.189-1.942,0.567-2.744c0.379-0.801,0.887-1.481,1.53-2.037c0.64-0.555,1.385-0.984,2.242-1.274
			c0.846-0.296,1.747-0.441,2.693-0.441c0.965,0,1.949,0.089,2.934,0.265c0.983,0.177,1.785,0.467,2.396,0.871
			c-0.126,0.271-0.277,0.567-0.441,0.896c-0.17,0.328-0.328,0.631-0.473,0.921c-0.146,0.277-0.271,0.518-0.379,0.707
			c-0.107,0.188-0.17,0.296-0.189,0.315c-0.126-0.063-0.271-0.146-0.422-0.253c-0.164-0.101-0.392-0.208-0.682-0.315
			c-0.297-0.101-0.688-0.177-1.167-0.221c-0.485-0.044-1.104-0.031-1.86,0.031c-0.43,0.045-0.82,0.164-1.199,0.366
			c-0.385,0.202-0.719,0.441-1.009,0.738c-0.303,0.296-0.53,0.624-0.7,0.99c-0.171,0.366-0.246,0.726-0.246,1.06
			c0,0.839,0.239,1.514,0.719,2.031s1.085,0.972,1.798,1.362c0.713,0.392,1.495,0.77,2.334,1.136
			c0.839,0.365,1.621,0.813,2.353,1.337c0.726,0.523,1.325,1.187,1.817,1.968C79.022,114.05,79.269,115.06,79.269,116.302z"/>
	</g>
	<g>
		<path fill="#EEB04B" d="M45.392,44.238v-9.229c0-1.271,1.035-2.306,2.306-2.306c1.277,0,2.309-1.035,2.309-2.306
			c0-1.274-1.031-2.309-2.309-2.309c-3.816,0-6.92,3.106-6.92,6.92v9.229c0,2.545-2.068,4.614-4.614,4.614
			c-1.273,0-2.305,1.035-2.305,2.306c0,1.274,1.031,2.309,2.305,2.309c2.546,0,4.614,2.069,4.614,4.614v9.226
			c0,3.813,3.104,6.923,6.92,6.923c1.277,0,2.309-1.034,2.309-2.309c0-1.268-1.031-2.303-2.309-2.303
			c-1.271,0-2.306-1.041-2.306-2.312V58.08c0-2.769-1.252-5.229-3.188-6.923C44.14,49.467,45.392,47.007,45.392,44.238z"/>
		<path fill="#EEB04B" d="M63.846,39.624c1.911,0,3.46,1.552,3.46,3.459c0,1.912-1.549,3.463-3.46,3.463s-3.46-1.552-3.46-3.463
			C60.386,41.175,61.935,39.624,63.846,39.624z"/>
		<path fill="#EEB04B" d="M91.531,48.852c-2.549,0-4.618-2.069-4.618-4.614v-9.229c0-3.813-3.104-6.92-6.919-6.92
			c-1.274,0-2.303,1.035-2.303,2.309c0,1.271,1.028,2.306,2.303,2.306c1.273,0,2.309,1.035,2.309,2.306v9.229
			c0,2.769,1.249,5.229,3.186,6.919c-1.937,1.694-3.186,4.154-3.186,6.923v9.226c0,1.271-1.035,2.312-2.309,2.312
			c-1.274,0-2.303,1.035-2.303,2.303c0,1.274,1.028,2.309,2.303,2.309c3.815,0,6.919-3.11,6.919-6.923V58.08
			c0-2.545,2.069-4.614,4.618-4.614c1.273,0,2.309-1.034,2.309-2.309C93.84,49.886,92.805,48.852,91.531,48.852z"/>
		<path fill="#EEB04B" d="M63.846,55.771c-1.274,0-2.306,1.035-2.306,2.309V65c0,1.274,1.031,2.306,2.306,2.306
			c1.277,0,2.309-1.031,2.309-2.306v-6.92C66.154,56.806,65.123,55.771,63.846,55.771z"/>
	</g>
</g>
</svg>
