<?xml version="1.0" encoding="utf-8"?>
<!-- Generator: Adobe Illustrator 15.0.0, SVG Export Plug-In . SVG Version: 6.00 Build 0)  -->
<!DOCTYPE svg PUBLIC "-//W3C//DTD SVG 1.1//EN" "http://www.w3.org/Graphics/SVG/1.1/DTD/svg11.dtd">
<svg version="1.1" id="Layer_1" xmlns="http://www.w3.org/2000/svg" xmlns:xlink="http://www.w3.org/1999/xlink" x="0px" y="0px"
	 width="130px" height="130px" viewBox="0 0 130 130" enable-background="new 0 0 130 130" xml:space="preserve">
<g>
	<path fill="#E9E8E0" d="M85.704,0.481H18.829c-1.862,0-3.371,1.509-3.371,4.439v122.292c0,0.794,1.509,2.306,3.371,2.306h92.343
		c1.864,0,3.37-1.512,3.37-2.306V30.384c0-1.604-0.214-2.117-0.592-2.498L87.141,1.074C86.756,0.696,86.239,0.481,85.704,0.481z"/>
	<path fill="#FEC151" d="M111.172,129.519H18.829c-1.862,0-3.371-1.512-3.371-3.37V90.348h99.084v35.801
		C114.542,128.007,113.036,129.519,111.172,129.519z"/>
	<g>
		<path fill="#FFFFFF" d="M46.722,122.607l8.125-23.193h3.749l8.068,23.193h-3.907l-1.67-4.82h-8.727l-1.701,4.82H46.722z
			 M53.243,115.235h6.931l-3.434-10.018L53.243,115.235z"/>
		<path fill="#FFFFFF" d="M75.453,122.607h-3.844V99.39h3.844V122.607z"/>
	</g>
	<path fill="#C8BDB8" d="M86.889,25.829v1.062c-7.076,2.23-12.677,7.794-14.982,14.838c-1.582-1.279-3.566-2.076-5.753-2.076
		c-4.285,0-7.86,2.949-8.891,6.915h-7.239v-4.609H36.197v13.824h13.827v-4.609h6.729c-0.775,6.137-4.574,11.47-10.112,14.202
		c-1.541-2.945-4.59-4.984-8.137-4.984c-5.085,0-9.218,4.133-9.218,9.221c0,5.078,4.133,9.212,9.218,9.212
		c4.942,0,8.956-3.919,9.173-8.809c6.118-2.656,10.708-7.807,12.73-13.997c1.579,1.273,3.56,2.07,5.747,2.07
		c4.278,0,7.856-2.949,8.89-6.915h7.24v4.609h13.823V41.958H82.283v4.609h-6.755c0.876-6.959,5.633-12.706,12.028-15.021
		c1.367,3.393,4.675,5.803,8.55,5.803c5.085,0,9.218-4.133,9.218-9.218v-2.303H86.889z M45.415,51.173h-4.609v-4.605h4.609V51.173z
		 M38.503,74.218c-2.542,0-4.609-2.066-4.609-4.605c0-2.546,2.067-4.612,4.609-4.612c2.539,0,4.605,2.066,4.605,4.612
		C43.108,72.151,41.042,74.218,38.503,74.218z M86.889,46.568h4.612v4.605h-4.612V46.568z M66.153,53.479
		c-2.542,0-4.609-2.066-4.609-4.609s2.066-4.609,4.609-4.609c2.539,0,4.605,2.066,4.605,4.609S68.692,53.479,66.153,53.479z
		 M96.106,32.741c-1.67,0-3.119-0.895-3.925-2.221c0.535-0.047,1.07-0.082,1.625-0.082h6.288
		C99.301,31.812,97.814,32.741,96.106,32.741z"/>
	<polygon fill="#DAD7CB" points="86.889,0.828 86.889,28.132 114.195,28.132 	"/>
</g>
</svg>
