<?xml version="1.0" encoding="utf-8"?>
<!-- Generator: Adobe Illustrator 15.0.0, SVG Export Plug-In . SVG Version: 6.00 Build 0)  -->
<!DOCTYPE svg PUBLIC "-//W3C//DTD SVG 1.1//EN" "http://www.w3.org/Graphics/SVG/1.1/DTD/svg11.dtd">
<svg version="1.1" id="Layer_1" xmlns="http://www.w3.org/2000/svg" xmlns:xlink="http://www.w3.org/1999/xlink" x="0px" y="0px"
	 width="130px" height="130px" viewBox="0 0 130 130" enable-background="new 0 0 130 130" xml:space="preserve">
<g>
	<path fill="#E8E7E0" d="M85.727,0.407H18.775c-1.864,0-3.375,1.511-3.375,4.444v122.433c0,0.795,1.511,2.309,3.375,2.309h92.449
		c1.866,0,3.375-1.514,3.375-2.309v-96.94c0-1.604-0.216-2.119-0.595-2.501L87.166,1C86.781,0.622,86.264,0.407,85.727,0.407z"/>
	<polygon fill="#DBD7CB" points="86.914,0.754 86.914,28.089 114.252,28.089 	"/>
	<path fill="#AA5BA4" d="M111.225,129.593H18.775c-1.864,0-3.375-1.514-3.375-3.375V90.377H114.6v35.841
		C114.6,128.079,113.092,129.593,111.225,129.593z"/>
	<g>
		<path fill="#FFFFFF" d="M83.377,116.302c0,0.839-0.17,1.659-0.518,2.441c-0.348,0.795-0.832,1.487-1.463,2.082
			c-0.639,0.599-1.414,1.077-2.334,1.438c-0.932,0.354-1.98,0.529-3.158,0.529c-0.504,0-1.025-0.025-1.562-0.076
			c-0.538-0.05-1.078-0.139-1.623-0.265c-0.55-0.126-1.069-0.304-1.564-0.522c-0.492-0.222-0.918-0.486-1.277-0.802l0.662-2.713
			c0.296,0.164,0.669,0.328,1.12,0.485c0.451,0.158,0.918,0.304,1.404,0.441c0.481,0.133,0.965,0.246,1.451,0.334
			c0.481,0.082,0.934,0.126,1.355,0.126c1.279,0,2.266-0.303,2.945-0.901c0.688-0.6,1.027-1.488,1.027-2.668
			c0-0.713-0.238-1.324-0.725-1.83c-0.486-0.504-1.092-0.959-1.814-1.368c-0.725-0.409-1.51-0.819-2.352-1.229
			s-1.627-0.896-2.362-1.451c-0.737-0.555-1.347-1.211-1.829-1.967c-0.485-0.758-0.726-1.703-0.726-2.84
			c0-1.033,0.189-1.941,0.567-2.744c0.378-0.801,0.89-1.48,1.529-2.037c0.641-0.555,1.389-0.983,2.239-1.273
			c0.853-0.297,1.751-0.441,2.696-0.441c0.969,0,1.943,0.09,2.934,0.266c0.99,0.177,1.785,0.467,2.396,0.871
			c-0.133,0.271-0.271,0.566-0.441,0.896c-0.17,0.328-0.328,0.631-0.473,0.921c-0.146,0.277-0.271,0.518-0.379,0.707
			c-0.107,0.188-0.164,0.296-0.189,0.314c-0.125-0.063-0.264-0.146-0.428-0.252c-0.158-0.102-0.379-0.209-0.676-0.315
			c-0.297-0.101-0.688-0.177-1.166-0.222c-0.486-0.043-1.107-0.03-1.865,0.031c-0.42,0.045-0.816,0.164-1.198,0.366
			s-0.716,0.441-1.009,0.738c-0.297,0.296-0.527,0.624-0.697,0.989c-0.167,0.373-0.249,0.727-0.249,1.061
			c0,0.839,0.24,1.514,0.723,2.031c0.485,0.518,1.085,0.972,1.798,1.361c0.713,0.393,1.494,0.771,2.334,1.137
			c0.845,0.365,1.627,0.813,2.352,1.337c0.727,0.522,1.332,1.187,1.811,1.968C83.131,114.044,83.377,115.061,83.377,116.302z"/>
		<path fill="#FFFFFF" d="M100.471,116.302c0,0.839-0.17,1.659-0.518,2.441c-0.354,0.795-0.832,1.487-1.463,2.082
			c-0.637,0.599-1.412,1.077-2.34,1.438c-0.928,0.354-1.976,0.529-3.148,0.529c-0.51,0-1.027-0.025-1.564-0.076
			c-0.541-0.05-1.078-0.139-1.627-0.265c-0.543-0.126-1.065-0.304-1.563-0.522c-0.492-0.222-0.914-0.486-1.272-0.802l0.662-2.713
			c0.297,0.164,0.661,0.328,1.115,0.485c0.454,0.158,0.921,0.304,1.407,0.441c0.485,0.133,0.965,0.246,1.45,0.334
			c0.484,0.082,0.935,0.126,1.355,0.126c1.281,0,2.264-0.303,2.945-0.901c0.688-0.6,1.029-1.488,1.029-2.668
			c0-0.713-0.24-1.324-0.728-1.83c-0.487-0.504-1.092-0.959-1.812-1.368c-0.729-0.409-1.514-0.819-2.358-1.229
			c-0.838-0.41-1.627-0.896-2.358-1.451c-0.736-0.555-1.351-1.211-1.828-1.967c-0.486-0.758-0.727-1.703-0.727-2.84
			c0-1.033,0.189-1.941,0.566-2.744c0.38-0.801,0.891-1.48,1.533-2.037c0.638-0.555,1.389-0.983,2.232-1.273
			c0.857-0.297,1.754-0.441,2.701-0.441c0.965,0,1.941,0.09,2.932,0.266c0.99,0.177,1.785,0.467,2.398,0.871
			c-0.133,0.271-0.271,0.566-0.441,0.896c-0.172,0.328-0.328,0.631-0.475,0.921c-0.145,0.277-0.271,0.518-0.377,0.707
			c-0.107,0.188-0.164,0.296-0.189,0.314c-0.127-0.063-0.266-0.146-0.43-0.252c-0.158-0.102-0.379-0.209-0.676-0.315
			c-0.295-0.101-0.688-0.177-1.166-0.222c-0.486-0.043-1.109-0.03-1.867,0.031c-0.416,0.045-0.814,0.164-1.199,0.366
			c-0.377,0.202-0.713,0.441-1.008,0.738c-0.291,0.296-0.523,0.624-0.695,0.989c-0.164,0.373-0.252,0.727-0.252,1.061
			c0,0.839,0.24,1.514,0.727,2.031c0.484,0.518,1.084,0.972,1.798,1.361c0.713,0.393,1.487,0.771,2.334,1.137
			c0.846,0.365,1.627,0.813,2.354,1.337c0.725,0.522,1.329,1.187,1.811,1.968C100.225,114.044,100.471,115.061,100.471,116.302z"/>
	</g>
	<g>
		<path fill="#AA5BA4" d="M45.393,44.238v-9.229c0-1.271,1.034-2.306,2.306-2.306c1.277,0,2.309-1.035,2.309-2.306
			c0-1.274-1.03-2.309-2.309-2.309c-3.816,0-6.92,3.106-6.92,6.92v9.229c0,2.545-2.069,4.614-4.614,4.614
			c-1.273,0-2.305,1.035-2.305,2.306c0,1.274,1.031,2.309,2.305,2.309c2.545,0,4.614,2.069,4.614,4.614v9.227
			c0,3.813,3.104,6.922,6.92,6.922c1.277,0,2.309-1.033,2.309-2.309c0-1.268-1.03-2.303-2.309-2.303
			c-1.271,0-2.306-1.041-2.306-2.313V58.08c0-2.769-1.252-5.229-3.188-6.923C44.141,49.467,45.393,47.007,45.393,44.238z"/>
		<path fill="#AA5BA4" d="M91.531,48.852c-2.549,0-4.617-2.069-4.617-4.614v-9.229c0-3.813-3.104-6.92-6.92-6.92
			c-1.275,0-2.303,1.035-2.303,2.309c0,1.271,1.026,2.306,2.303,2.306c1.273,0,2.309,1.035,2.309,2.306v9.229
			c0,2.769,1.248,5.229,3.186,6.919c-1.938,1.694-3.186,4.154-3.186,6.923v9.226c0,1.271-1.035,2.313-2.309,2.313
			c-1.275,0-2.303,1.035-2.303,2.303c0,1.273,1.026,2.309,2.303,2.309c3.816,0,6.92-3.109,6.92-6.922V58.08
			c0-2.545,2.068-4.614,4.617-4.614c1.273,0,2.309-1.034,2.309-2.309C93.84,49.886,92.805,48.852,91.531,48.852z"/>
	</g>
</g>
<path fill="#FFFFFF" d="M46.074,122.589l8.125-23.193h3.749l8.068,23.193h-3.907l-1.67-4.82h-8.727l-1.701,4.82H46.074z
	 M52.595,115.216h6.931l-3.434-10.018L52.595,115.216z"/>
<path fill="#FFFFFF" d="M41.933,116.647c0,0.838-0.17,1.658-0.518,2.441c-0.348,0.795-0.832,1.486-1.463,2.082
	c-0.639,0.598-1.414,1.076-2.334,1.438c-0.932,0.354-1.98,0.529-3.158,0.529c-0.504,0-1.025-0.025-1.562-0.076
	c-0.538-0.049-1.078-0.139-1.623-0.264c-0.55-0.127-1.069-0.305-1.564-0.523c-0.492-0.221-0.918-0.486-1.277-0.801l0.662-2.713
	c0.296,0.164,0.669,0.328,1.12,0.484c0.451,0.158,0.918,0.305,1.404,0.441c0.481,0.133,0.965,0.246,1.451,0.334
	c0.481,0.082,0.934,0.127,1.355,0.127c1.279,0,2.266-0.303,2.945-0.902c0.688-0.6,1.027-1.488,1.027-2.668
	c0-0.713-0.238-1.324-0.725-1.83c-0.486-0.504-1.092-0.959-1.814-1.367c-0.725-0.41-1.51-0.82-2.352-1.23s-1.627-0.895-2.362-1.451
	c-0.737-0.555-1.347-1.211-1.829-1.967c-0.485-0.758-0.726-1.703-0.726-2.84c0-1.033,0.189-1.941,0.567-2.744
	c0.378-0.801,0.89-1.48,1.529-2.037c0.641-0.555,1.389-0.982,2.239-1.273c0.853-0.297,1.751-0.441,2.696-0.441
	c0.969,0,1.943,0.09,2.934,0.266c0.99,0.178,1.785,0.467,2.396,0.871c-0.133,0.271-0.271,0.566-0.441,0.896
	c-0.17,0.328-0.328,0.631-0.473,0.92c-0.146,0.277-0.271,0.518-0.379,0.707c-0.107,0.188-0.164,0.297-0.189,0.314
	c-0.125-0.063-0.264-0.145-0.428-0.252c-0.158-0.102-0.379-0.209-0.676-0.314c-0.297-0.102-0.688-0.178-1.166-0.223
	c-0.486-0.043-1.107-0.029-1.865,0.031c-0.42,0.045-0.816,0.164-1.198,0.367c-0.382,0.201-0.716,0.441-1.009,0.738
	c-0.297,0.295-0.527,0.623-0.697,0.988c-0.167,0.373-0.249,0.727-0.249,1.061c0,0.84,0.24,1.514,0.723,2.031
	c0.485,0.518,1.085,0.973,1.798,1.361c0.713,0.393,1.494,0.771,2.334,1.137c0.845,0.365,1.627,0.813,2.352,1.338
	c0.727,0.521,1.332,1.186,1.811,1.967C41.687,114.39,41.933,115.405,41.933,116.647z"/>
</svg>
