<?xml version="1.0" encoding="utf-8"?>
<!-- Generator: Adobe Illustrator 15.0.0, SVG Export Plug-In . SVG Version: 6.00 Build 0)  -->
<!DOCTYPE svg PUBLIC "-//W3C//DTD SVG 1.1//EN" "http://www.w3.org/Graphics/SVG/1.1/DTD/svg11.dtd">
<svg version="1.1" id="Layer_1" xmlns="http://www.w3.org/2000/svg" xmlns:xlink="http://www.w3.org/1999/xlink" x="0px" y="0px"
	 width="130px" height="130px" viewBox="0 0 130 130" enable-background="new 0 0 130 130" xml:space="preserve">
<g>
	<path fill="#E9E8E0" d="M85.714,0.451H18.807c-1.863,0-3.373,1.51-3.373,4.441v122.351c0,0.795,1.51,2.307,3.373,2.307h92.386
		c1.866,0,3.372-1.512,3.372-2.307V30.368c0-1.604-0.214-2.118-0.593-2.5L87.151,1.043C86.767,0.665,86.25,0.451,85.714,0.451z"/>
	<polygon fill="#DAD7CB" points="86.899,0.797 86.899,28.114 114.219,28.114 	"/>
	<path fill="#EF3E3C" d="M111.193,129.549H18.807c-1.863,0-3.373-1.512-3.373-3.371V90.359h99.131v35.818
		C114.565,128.037,113.06,129.549,111.193,129.549z"/>
	<g>
		<path fill="#FFFFFF" d="M40.69,99.406v23.229h-3.782V112.17H26.854v10.465h-3.845V99.406h3.845v10.18h10.054v-10.18H40.69z"/>
		<path fill="#FFFFFF" d="M85.071,99.406h3.845v23.229h-3.845v-15.98l-5.207,12.922h-3.341l-5.232-12.922v15.98h-3.842V99.406h3.842
			l6.909,15.885L85.071,99.406z"/>
		<path fill="#FFFFFF" d="M98.586,99.406v20.359h10.691v2.869H94.741V99.406H98.586z"/>
	</g>
	<g>
		<path fill="#EF3E3C" d="M53.95,38.011c-0.901-0.901-2.357-0.901-3.259,0L36.857,51.844c-0.901,0.901-0.901,2.357,0,3.259
			l13.833,13.83c0.451,0.453,1.04,0.682,1.629,0.682s1.182-0.229,1.629-0.682c0.901-0.898,0.901-2.357,0-3.259L41.749,53.474
			L53.95,41.27C54.851,40.369,54.851,38.913,53.95,38.011z"/>
		<path fill="#EF3E3C" d="M95.446,51.844l-13.83-13.833c-0.907-0.901-2.357-0.901-3.265,0c-0.896,0.902-0.896,2.358,0,3.259
			l12.203,12.204L78.352,65.674c-0.896,0.902-0.896,2.361,0,3.259c0.453,0.453,1.046,0.682,1.633,0.682
			c0.592,0,1.178-0.229,1.632-0.682l13.83-13.83C96.349,54.202,96.349,52.746,95.446,51.844z"/>
	</g>
	<path fill="#FFFFFF" d="M44.655,122.617l8.125-23.193h3.749l8.068,23.193h-3.907l-1.67-4.82h-8.727l-1.701,4.82H44.655z
		 M51.176,115.244h6.931l-3.434-10.018L51.176,115.244z"/>
	<path fill="#EF3E3C" d="M61.237,64.063l-3.664-2.567l13.038-18.608l3.664,2.567L61.237,64.063z"/>
</g>
</svg>
