<?xml version="1.0" encoding="utf-8"?>
<!-- Generator: Adobe Illustrator 15.0.0, SVG Export Plug-In . SVG Version: 6.00 Build 0)  -->
<!DOCTYPE svg PUBLIC "-//W3C//DTD SVG 1.1//EN" "http://www.w3.org/Graphics/SVG/1.1/DTD/svg11.dtd">
<svg version="1.1" id="Layer_1" xmlns="http://www.w3.org/2000/svg" xmlns:xlink="http://www.w3.org/1999/xlink" x="0px" y="0px"
	 width="130px" height="130px" viewBox="0 0 130 130" enable-background="new 0 0 130 130" xml:space="preserve">
<g>
	<path fill="#E9E8E0" d="M85.727,0.407H18.775c-1.864,0-3.375,1.511-3.375,4.444v122.433c0,0.795,1.511,2.309,3.375,2.309h92.449
		c1.867,0,3.375-1.514,3.375-2.309v-96.94c0-1.605-0.215-2.119-0.594-2.501L87.166,1C86.781,0.622,86.264,0.407,85.727,0.407z"/>
	<polygon fill="#DAD7CB" points="86.914,0.754 86.914,28.089 114.252,28.089 	"/>
	<path fill="#3492D0" d="M111.225,129.593H18.775c-1.864,0-3.375-1.514-3.375-3.375V90.377H114.6v35.841
		C114.6,128.079,113.092,129.593,111.225,129.593z"/>
	<g>
		<path fill="#FFFFFF" d="M54.803,120.308c-0.861,0.839-1.842,1.476-2.933,1.893c-1.088,0.416-2.268,0.631-3.529,0.631
			c-1.391,0-2.665-0.253-3.832-0.757c-1.167-0.505-2.189-1.249-3.06-2.246c-0.874-0.984-1.558-2.221-2.05-3.715
			c-0.495-1.495-0.741-3.224-0.741-5.173c0-1.955,0.246-3.678,0.741-5.153c0.492-1.489,1.176-2.726,2.05-3.709
			c0.871-0.984,1.896-1.741,3.075-2.259c1.18-0.517,2.451-0.77,3.816-0.77c1.261,0,2.441,0.208,3.529,0.631
			c1.091,0.416,2.072,1.047,2.933,1.893l-2.618,2.334c-0.527-0.612-1.107-1.054-1.75-1.325c-0.644-0.277-1.309-0.409-2.003-0.409
			c-0.779,0-1.517,0.145-2.224,0.435c-0.707,0.303-1.337,0.795-1.892,1.502c-0.555,0.706-0.994,1.614-1.309,2.725
			c-0.312,1.123-0.482,2.485-0.504,4.1c0.022,1.577,0.186,2.928,0.489,4.037c0.306,1.117,0.725,2.025,1.261,2.731
			c0.54,0.707,1.148,1.218,1.83,1.546c0.685,0.328,1.403,0.492,2.164,0.492c0.757,0,1.466-0.14,2.129-0.417
			c0.662-0.265,1.265-0.713,1.813-1.324L54.803,120.308z"/>
		<path fill="#FFFFFF" d="M73.377,116.302c0,0.839-0.17,1.659-0.518,2.441c-0.347,0.795-0.832,1.488-1.463,2.082
			c-0.638,0.599-1.414,1.078-2.334,1.438c-0.931,0.354-1.98,0.53-3.158,0.53c-0.504,0-1.025-0.025-1.561-0.076
			c-0.539-0.05-1.079-0.139-1.624-0.265c-0.549-0.126-1.069-0.303-1.564-0.523c-0.492-0.221-0.918-0.485-1.277-0.801l0.662-2.713
			c0.296,0.164,0.669,0.328,1.12,0.486c0.451,0.157,0.918,0.303,1.404,0.441c0.482,0.132,0.965,0.246,1.451,0.334
			c0.482,0.082,0.934,0.126,1.356,0.126c1.28,0,2.265-0.303,2.946-0.901c0.688-0.6,1.027-1.489,1.027-2.669
			c0-0.713-0.239-1.324-0.725-1.829c-0.486-0.505-1.092-0.959-1.814-1.369c-0.725-0.409-1.51-0.819-2.352-1.229
			c-0.842-0.41-1.627-0.896-2.362-1.451c-0.738-0.555-1.347-1.211-1.83-1.968c-0.485-0.757-0.725-1.703-0.725-2.839
			c0-1.034,0.189-1.942,0.567-2.744c0.378-0.801,0.89-1.481,1.53-2.037c0.64-0.555,1.388-0.984,2.239-1.274
			c0.852-0.296,1.751-0.441,2.696-0.441c0.969,0,1.943,0.089,2.934,0.265c0.99,0.177,1.785,0.467,2.396,0.871
			c-0.132,0.271-0.271,0.567-0.441,0.896c-0.17,0.328-0.328,0.631-0.473,0.921c-0.145,0.277-0.271,0.518-0.379,0.707
			c-0.107,0.188-0.164,0.296-0.189,0.315c-0.125-0.063-0.264-0.146-0.428-0.253c-0.158-0.101-0.379-0.208-0.676-0.315
			c-0.297-0.101-0.688-0.177-1.166-0.221c-0.486-0.044-1.107-0.031-1.865,0.031c-0.419,0.045-0.816,0.164-1.198,0.366
			c-0.382,0.202-0.716,0.441-1.009,0.738c-0.297,0.296-0.527,0.624-0.697,0.99c-0.167,0.372-0.249,0.726-0.249,1.06
			c0,0.839,0.24,1.514,0.722,2.031c0.486,0.518,1.085,0.972,1.798,1.362c0.713,0.392,1.494,0.77,2.334,1.136
			c0.845,0.365,1.627,0.813,2.352,1.337c0.727,0.523,1.332,1.187,1.811,1.968C73.131,114.044,73.377,115.06,73.377,116.302z"/>
		<path fill="#FFFFFF" d="M90.471,116.302c0,0.839-0.17,1.659-0.518,2.441c-0.354,0.795-0.832,1.488-1.463,2.082
			c-0.637,0.599-1.412,1.078-2.34,1.438c-0.928,0.354-1.975,0.53-3.148,0.53c-0.51,0-1.027-0.025-1.564-0.076
			c-0.542-0.05-1.078-0.139-1.627-0.265c-0.543-0.126-1.066-0.303-1.564-0.523c-0.492-0.221-0.914-0.485-1.273-0.801l0.662-2.713
			c0.297,0.164,0.662,0.328,1.116,0.486c0.454,0.157,0.921,0.303,1.407,0.441c0.485,0.132,0.965,0.246,1.451,0.334
			c0.484,0.082,0.934,0.126,1.355,0.126c1.281,0,2.264-0.303,2.945-0.901c0.688-0.6,1.029-1.489,1.029-2.669
			c0-0.713-0.24-1.324-0.727-1.829s-1.092-0.959-1.811-1.369c-0.73-0.409-1.514-0.819-2.359-1.229
			c-0.838-0.41-1.627-0.896-2.358-1.451c-0.737-0.555-1.351-1.211-1.829-1.968c-0.486-0.757-0.726-1.703-0.726-2.839
			c0-1.034,0.189-1.942,0.567-2.744c0.379-0.801,0.89-1.481,1.533-2.037c0.637-0.555,1.388-0.984,2.232-1.274
			c0.857-0.296,1.754-0.441,2.701-0.441c0.965,0,1.941,0.089,2.932,0.265c0.99,0.177,1.785,0.467,2.398,0.871
			c-0.133,0.271-0.271,0.567-0.441,0.896c-0.172,0.328-0.328,0.631-0.475,0.921c-0.145,0.277-0.271,0.518-0.377,0.707
			c-0.107,0.188-0.164,0.296-0.189,0.315c-0.127-0.063-0.266-0.146-0.43-0.253c-0.158-0.101-0.379-0.208-0.676-0.315
			c-0.295-0.101-0.688-0.177-1.166-0.221c-0.486-0.044-1.109-0.031-1.867,0.031c-0.416,0.045-0.814,0.164-1.199,0.366
			c-0.377,0.202-0.713,0.441-1.008,0.738c-0.291,0.296-0.524,0.624-0.695,0.99c-0.164,0.372-0.252,0.726-0.252,1.06
			c0,0.839,0.24,1.514,0.727,2.031c0.484,0.518,1.084,0.972,1.797,1.362c0.713,0.392,1.488,0.77,2.334,1.136
			c0.846,0.365,1.627,0.813,2.354,1.337c0.725,0.523,1.33,1.187,1.811,1.968C90.225,114.044,90.471,115.06,90.471,116.302z"/>
	</g>
	<g>
		<path fill="#3492D0" d="M45.392,44.238v-9.229c0-1.271,1.035-2.306,2.306-2.306c1.277,0,2.309-1.035,2.309-2.306
			c0-1.274-1.031-2.309-2.309-2.309c-3.816,0-6.92,3.106-6.92,6.92v9.229c0,2.545-2.069,4.614-4.614,4.614
			c-1.274,0-2.305,1.035-2.305,2.306c0,1.274,1.031,2.309,2.305,2.309c2.545,0,4.614,2.069,4.614,4.614v9.226
			c0,3.813,3.104,6.923,6.92,6.923c1.277,0,2.309-1.034,2.309-2.309c0-1.268-1.031-2.303-2.309-2.303
			c-1.271,0-2.306-1.041-2.306-2.312V58.08c0-2.769-1.252-5.229-3.188-6.923C44.14,49.467,45.392,47.007,45.392,44.238z"/>
		<path fill="#3492D0" d="M91.531,48.852c-2.549,0-4.617-2.069-4.617-4.614v-9.229c0-3.813-3.104-6.92-6.92-6.92
			c-1.275,0-2.303,1.035-2.303,2.309c0,1.271,1.027,2.306,2.303,2.306c1.273,0,2.309,1.035,2.309,2.306v9.229
			c0,2.769,1.248,5.229,3.186,6.919c-1.938,1.694-3.186,4.154-3.186,6.923v9.226c0,1.271-1.035,2.312-2.309,2.312
			c-1.275,0-2.303,1.035-2.303,2.303c0,1.274,1.027,2.309,2.303,2.309c3.816,0,6.92-3.11,6.92-6.923V58.08
			c0-2.545,2.068-4.614,4.617-4.614c1.273,0,2.309-1.034,2.309-2.309C93.84,49.886,92.805,48.852,91.531,48.852z"/>
	</g>
</g>
</svg>
