<?xml version="1.0" encoding="utf-8"?>
<!-- Generator: Adobe Illustrator 15.0.0, SVG Export Plug-In . SVG Version: 6.00 Build 0)  -->
<!DOCTYPE svg PUBLIC "-//W3C//DTD SVG 1.1//EN" "http://www.w3.org/Graphics/SVG/1.1/DTD/svg11.dtd">
<svg version="1.1" id="Layer_1" xmlns="http://www.w3.org/2000/svg" xmlns:xlink="http://www.w3.org/1999/xlink" x="0px" y="0px"
	 width="130px" height="130px" viewBox="0 0 130 130" enable-background="new 0 0 130 130" xml:space="preserve">
<g>
	<path fill="#E9E8E0" d="M85.703,0.481H18.829c-1.862,0-3.371,1.509-3.371,4.439v122.292c0,0.794,1.509,2.307,3.371,2.307h92.343
		c1.865,0,3.369-1.513,3.369-2.307V30.384c0-1.604-0.213-2.117-0.592-2.499L87.141,1.074C86.756,0.696,86.24,0.481,85.703,0.481z"/>
	<path fill="#5989C4" d="M111.172,129.519H18.829c-1.862,0-3.371-1.513-3.371-3.371V90.347h99.083v35.801
		C114.541,128.006,113.037,129.519,111.172,129.519z"/>
	<g>
		<path fill="#FFFFFF" d="M40.541,122.606h-3.78V99.389h6.676c0.986,0,1.962,0.157,2.93,0.473c0.964,0.314,1.83,0.787,2.599,1.417
			c0.769,0.631,1.386,1.387,1.858,2.281s0.712,1.896,0.712,3.012c0,1.172-0.202,2.243-0.602,3.2
			c-0.397,0.952-0.955,1.759-1.669,2.407c-0.715,0.649-1.575,1.153-2.583,1.512c-1.005,0.354-2.12,0.536-3.339,0.536h-2.804v8.38
			H40.541z M40.541,102.255v9.199h3.465c0.46,0,0.917-0.082,1.371-0.239c0.451-0.157,0.866-0.409,1.245-0.775
			c0.378-0.353,0.684-0.851,0.914-1.486c0.23-0.643,0.346-1.437,0.346-2.382c0-0.378-0.053-0.819-0.157-1.311
			c-0.107-0.491-0.321-0.964-0.646-1.411c-0.328-0.454-0.784-0.832-1.371-1.135c-0.589-0.302-1.367-0.46-2.331-0.46H40.541
			L40.541,102.255z"/>
		<path fill="#FFFFFF" d="M68.982,116.242c0,0.839-0.17,1.657-0.517,2.438c-0.347,0.794-0.835,1.487-1.466,2.079
			c-0.633,0.599-1.408,1.078-2.331,1.437c-0.926,0.354-1.975,0.529-3.15,0.529c-0.504,0-1.024-0.024-1.559-0.075
			c-0.539-0.051-1.078-0.139-1.623-0.265c-0.548-0.126-1.068-0.303-1.56-0.522c-0.495-0.221-0.92-0.485-1.279-0.801l0.662-2.709
			c0.293,0.164,0.667,0.327,1.118,0.485c0.451,0.157,0.917,0.302,1.402,0.44c0.482,0.133,0.964,0.246,1.449,0.334
			c0.482,0.076,0.933,0.126,1.354,0.126c1.279,0,2.262-0.302,2.946-0.9c0.68-0.599,1.021-1.487,1.021-2.665
			c0-0.713-0.239-1.323-0.721-1.828c-0.485-0.504-1.09-0.957-1.812-1.367c-0.725-0.409-1.509-0.818-2.35-1.229
			c-0.841-0.409-1.629-0.895-2.36-1.449c-0.737-0.554-1.345-1.209-1.827-1.966c-0.485-0.756-0.725-1.701-0.725-2.835
			c0-1.033,0.189-1.94,0.567-2.74c0.378-0.801,0.888-1.481,1.528-2.035c0.64-0.555,1.386-0.983,2.237-1.273
			c0.851-0.296,1.748-0.44,2.693-0.44c0.967,0,1.944,0.088,2.93,0.265c0.986,0.176,1.783,0.466,2.395,0.869
			c-0.127,0.271-0.274,0.567-0.441,0.895c-0.167,0.328-0.328,0.63-0.473,0.92c-0.148,0.277-0.273,0.517-0.378,0.706
			c-0.104,0.188-0.167,0.296-0.188,0.314c-0.127-0.063-0.268-0.145-0.426-0.252c-0.161-0.101-0.384-0.208-0.677-0.314
			c-0.296-0.102-0.684-0.177-1.166-0.221c-0.485-0.044-1.106-0.031-1.859,0.031c-0.422,0.044-0.819,0.164-1.2,0.365
			c-0.381,0.202-0.715,0.441-1.008,0.737c-0.296,0.296-0.526,0.624-0.693,0.989c-0.17,0.365-0.252,0.725-0.252,1.059
			c0,0.838,0.239,1.513,0.725,2.029c0.479,0.517,1.081,0.97,1.792,1.36c0.715,0.391,1.493,0.769,2.334,1.134
			c0.838,0.366,1.623,0.813,2.347,1.336c0.725,0.523,1.326,1.185,1.809,1.966C68.742,113.993,68.982,115.001,68.982,116.242z"/>
		<path fill="#FFFFFF" d="M91.797,110.352c0,1.909-0.209,3.541-0.617,4.902c-0.41,1.348-0.926,2.482-1.557,3.402
			c-0.631,0.913-1.342,1.632-2.129,2.154c-0.789,0.529-1.551,0.92-2.281,1.185c-0.738,0.265-1.412,0.429-2.016,0.504
			c-0.611,0.069-1.059,0.107-1.355,0.107h-8.789V99.389h6.993c1.954,0,3.667,0.314,5.153,0.933c1.475,0.617,2.711,1.437,3.68,2.47
			c0.984,1.026,1.709,2.199,2.193,3.509C91.551,107.617,91.797,108.966,91.797,110.352z M80.582,119.834
			c2.564,0,4.41-0.819,5.545-2.457c1.133-1.639,1.701-4.014,1.701-7.12c0-0.964-0.121-1.922-0.348-2.866
			c-0.232-0.945-0.68-1.803-1.336-2.571c-0.668-0.762-1.563-1.386-2.695-1.853c-1.135-0.479-2.609-0.712-4.411-0.712h-2.205v17.579
			H80.582z"/>
	</g>
	<path fill="#C8BDB8" d="M90.102,26.204c-1.064-0.693-2.494-0.394-3.188,0.671c-3.303,5.06-9.168,11.899-11.959,14.69l-6.426,6.424
		l-6.516-6.518l6.42-6.427c4.077-4.08,14.447-12.538,18.701-14.06c0.094-0.013,0.207-0.035,0.258-0.044
		c1.197-0.271,1.902-1.424,1.695-2.634c-0.215-1.212-1.418-2.041-2.635-1.877l-0.648,0.145c-5.62,1.871-17.188,11.77-20.631,15.216
		L48.619,48.344c-0.221-0.01-0.438-0.032-0.658-0.032c-6.846,0-12.589,4.896-13.786,11.559l-0.249,0.167l-0.047,1.235
		c-0.079,2.17-0.696,9.334-5.396,10.475c-1.194,0.296-1.979,1.442-1.827,2.652l0.372,2.117h16.083h0.047l0,0l4.808-0.063
		c7.759,0,14.072-6.313,14.072-14.075c0-0.444-0.025-0.882-0.069-1.317l16.241-16.24c3.012-3.009,9.047-10.043,12.563-15.431
		C91.463,28.327,91.166,26.9,90.102,26.204z M47.963,71.842h-8.616l0.035,0.069h-3.828c2.044-3.093,2.675-6.997,2.867-9.318
		l0.189-1.162c0.491-4.852,4.511-8.512,9.356-8.512c0.277,0,0.539,0.057,0.816,0.082l0.385,0.051
		c2.407,0.309,4.505,1.509,5.989,3.251c0.135,0.158,0.274,0.312,0.394,0.479c0.189,0.252,0.359,0.523,0.523,0.794
		c0.113,0.198,0.224,0.396,0.328,0.602c0.145,0.29,0.284,0.583,0.4,0.892c0.069,0.183,0.12,0.375,0.177,0.567
		c0.104,0.34,0.211,0.677,0.277,1.037l0.013,0.06c0.095,0.539,0.164,1.084,0.164,1.648C57.427,67.596,53.18,71.842,47.963,71.842z
		 M59.276,54.049c-0.016-0.022-0.029-0.041-0.047-0.063c-1.393-1.868-3.235-3.374-5.372-4.366l4.893-4.89l6.515,6.515l-4.772,4.77
		C60.146,55.325,59.736,54.667,59.276,54.049z"/>
	<polygon fill="#DAD7CB" points="86.889,0.828 86.889,28.132 114.195,28.132 	"/>
</g>
</svg>
