<?xml version="1.0" encoding="utf-8"?>
<!-- Generator: Adobe Illustrator 15.0.0, SVG Export Plug-In . SVG Version: 6.00 Build 0)  -->
<!DOCTYPE svg PUBLIC "-//W3C//DTD SVG 1.1//EN" "http://www.w3.org/Graphics/SVG/1.1/DTD/svg11.dtd">
<svg version="1.1" id="Layer_1" xmlns="http://www.w3.org/2000/svg" xmlns:xlink="http://www.w3.org/1999/xlink" x="0px" y="0px"
	 width="130px" height="130px" viewBox="0 0 130 130" enable-background="new 0 0 130 130" xml:space="preserve">
<g>
	<path fill="#E9E8E0" d="M85.713,0.456H18.81c-1.862,0-3.372,1.51-3.372,4.441v122.342c0,0.793,1.51,2.307,3.372,2.307h92.379
		c1.865,0,3.373-1.514,3.373-2.307V30.37c0-1.604-0.215-2.117-0.594-2.499L87.148,1.048C86.766,0.67,86.248,0.456,85.713,0.456z"/>
	<polygon fill="#DAD7CB" points="86.896,0.802 86.896,28.117 114.215,28.117 	"/>
	<path fill="#E47E26" d="M111.189,129.545H18.81c-1.862,0-3.372-1.514-3.372-3.373V90.357h99.125v35.814
		C114.563,128.031,113.055,129.545,111.189,129.545z"/>
	<g>
		<path fill="#FFFFFF" d="M49.923,116.264c0,0.84-0.173,1.658-0.523,2.439c-0.346,0.795-0.832,1.488-1.465,2.08
			c-0.63,0.598-1.406,1.078-2.332,1.438c-0.927,0.352-1.973,0.529-3.151,0.529c-0.505,0-1.025-0.023-1.561-0.076
			c-0.536-0.049-1.078-0.139-1.623-0.264c-0.545-0.127-1.068-0.303-1.56-0.523c-0.495-0.221-0.917-0.484-1.276-0.801l0.662-2.711
			c0.293,0.166,0.665,0.328,1.115,0.486c0.454,0.156,0.917,0.301,1.403,0.439c0.485,0.133,0.964,0.246,1.45,0.336
			c0.485,0.082,0.933,0.125,1.355,0.125c1.282,0,2.263-0.301,2.946-0.9c0.681-0.598,1.024-1.488,1.024-2.666
			c0-0.713-0.239-1.324-0.725-1.828c-0.485-0.504-1.087-0.959-1.812-1.369c-0.722-0.408-1.507-0.818-2.348-1.229
			c-0.842-0.408-1.629-0.895-2.364-1.449c-0.734-0.555-1.342-1.209-1.828-1.967c-0.485-0.756-0.725-1.701-0.725-2.836
			c0-1.035,0.189-1.941,0.568-2.742c0.377-0.801,0.889-1.48,1.528-2.035c0.643-0.557,1.39-0.984,2.241-1.273
			c0.848-0.297,1.749-0.441,2.694-0.441c0.965,0,1.942,0.088,2.928,0.266c0.986,0.176,1.783,0.465,2.395,0.867
			c-0.126,0.271-0.271,0.57-0.441,0.896c-0.167,0.328-0.325,0.631-0.473,0.92c-0.145,0.277-0.271,0.518-0.375,0.705
			c-0.107,0.189-0.17,0.297-0.189,0.316c-0.129-0.064-0.268-0.145-0.429-0.252c-0.158-0.102-0.381-0.209-0.678-0.314
			c-0.293-0.102-0.681-0.178-1.166-0.221c-0.485-0.047-1.103-0.031-1.859,0.031c-0.422,0.043-0.819,0.162-1.198,0.365
			c-0.381,0.201-0.715,0.439-1.012,0.738c-0.293,0.295-0.526,0.623-0.693,0.988c-0.167,0.373-0.252,0.727-0.252,1.059
			c0,0.84,0.239,1.514,0.725,2.031c0.482,0.516,1.084,0.969,1.796,1.359c0.712,0.393,1.491,0.77,2.333,1.137
			c0.841,0.365,1.623,0.813,2.348,1.336c0.729,0.521,1.33,1.184,1.813,1.965C49.674,114.008,49.923,115.023,49.923,116.264z"/>
		<path fill="#FFFFFF" d="M60.071,122.756l-7.22-23.354h4.318l5.389,20.045l5.708-20.045h4.285l-7.563,23.354H60.071z"/>
		<path fill="#FFFFFF" d="M94.203,110.654v8.982c-0.486,0.605-1.027,1.109-1.621,1.492c-0.604,0.391-1.234,0.713-1.891,0.967
			c-0.668,0.252-1.348,0.428-2.055,0.535c-0.705,0.107-1.4,0.156-2.092,0.156c-1.387,0-2.66-0.252-3.834-0.756
			c-1.159-0.506-2.18-1.248-3.05-2.244c-0.869-0.982-1.563-2.219-2.056-3.711c-0.49-1.496-0.736-3.223-0.736-5.17
			c0-1.955,0.246-3.676,0.736-5.15c0.492-1.486,1.187-2.723,2.056-3.705c0.87-0.984,1.891-1.74,3.069-2.258
			c1.18-0.518,2.453-0.768,3.814-0.768c1.26,0,2.439,0.207,3.529,0.629c1.09,0.418,2.066,1.047,2.924,1.893l-2.607,2.332
			c-0.506-0.611-1.086-1.053-1.74-1.326c-0.645-0.275-1.324-0.408-2.018-0.408c-0.77,0-1.514,0.145-2.219,0.436
			c-0.707,0.303-1.336,0.795-1.891,1.5c-0.555,0.707-0.996,1.613-1.306,2.723c-0.314,1.123-0.485,2.484-0.511,4.098
			c0.025,1.574,0.189,2.943,0.492,4.098c0.303,1.158,0.725,2.105,1.261,2.836c0.542,0.738,1.147,1.285,1.827,1.639
			c0.682,0.359,1.4,0.535,2.162,0.535c0.234,0,0.537-0.018,0.928-0.043c0.391-0.039,0.781-0.088,1.172-0.166
			c0.385-0.068,0.756-0.168,1.115-0.295s0.617-0.309,0.789-0.535v-5.736h-3.941v-2.586h7.691V110.654z"/>
	</g>
	<path fill="#C8BDB8" d="M105.34,51.168v-13.83H91.512v4.611H77.683v-9.221H54.628v9.221H40.796v-4.611H26.963v13.83h13.833V46.56
		h8.178c-10.526,6.077-17.4,17.492-17.4,29.963c0,1.271,1.031,2.305,2.307,2.305c1.273,0,2.304-1.033,2.304-2.305
		c0-12.09,7.444-23.045,18.443-27.647v6.902h23.055v-6.902c10.991,4.602,18.437,15.56,18.437,27.647
		c0,1.271,1.027,2.305,2.307,2.305c1.273,0,2.301-1.033,2.301-2.305c0-12.472-6.871-23.887-17.396-29.963h8.182v4.608H105.34z
		 M36.185,46.56h-4.611v-4.611h4.611V46.56z M73.068,51.168H59.236v-8.651v-5.179h13.833v5.179V51.168z M96.119,41.949h4.607v4.611
		h-4.607V41.949z"/>
</g>
</svg>
