<?xml version="1.0" encoding="utf-8"?>
<!-- Generator: Adobe Illustrator 15.0.0, SVG Export Plug-In . SVG Version: 6.00 Build 0)  -->
<!DOCTYPE svg PUBLIC "-//W3C//DTD SVG 1.1//EN" "http://www.w3.org/Graphics/SVG/1.1/DTD/svg11.dtd">
<svg version="1.1" id="Layer_1" xmlns="http://www.w3.org/2000/svg" xmlns:xlink="http://www.w3.org/1999/xlink" x="0px" y="0px"
	 width="130px" height="130px" viewBox="0 0 130 130" enable-background="new 0 0 130 130" xml:space="preserve">
<g>
	<path fill="#6D4D1E" d="M101.867,129.666H28.129c-15.352,0-27.796-12.439-27.796-27.799V28.129
		c0-15.352,12.444-27.796,27.796-27.796h73.745c15.352,0,27.793,12.444,27.793,27.796v73.744
		C129.667,117.227,117.226,129.666,101.867,129.666z"/>
	<g>
		<path fill="#FEBC2F" d="M76.639,97.334h-8.058l-6.865-22.482H41.024l-6.567,22.482h-7.758l20.492-69.64h8.257L76.639,97.334z
			 M59.926,67.488l-8.655-28.254l-8.357,28.254H59.926z"/>
		<path fill="#FEBC2F" d="M93.551,30.775c0,1.127-0.398,2.09-1.193,2.886c-0.796,0.793-1.743,1.19-2.836,1.19
			s-2.059-0.41-2.886-1.241c-0.834-0.831-1.244-1.774-1.244-2.835c0-1.064,0.41-2.008,1.244-2.839
			c0.827-0.827,1.793-1.244,2.886-1.244s2.04,0.397,2.836,1.193C93.152,28.688,93.551,29.648,93.551,30.775z M92.957,97.334h-7.168
			V47.491h7.168V97.334z"/>
	</g>
</g>
</svg>
