<?xml version="1.0" encoding="utf-8"?>
<!-- Generator: Adobe Illustrator 15.0.0, SVG Export Plug-In . SVG Version: 6.00 Build 0)  -->
<!DOCTYPE svg PUBLIC "-//W3C//DTD SVG 1.1//EN" "http://www.w3.org/Graphics/SVG/1.1/DTD/svg11.dtd">
<svg version="1.1" id="Layer_1" xmlns="http://www.w3.org/2000/svg" xmlns:xlink="http://www.w3.org/1999/xlink" x="0px" y="0px"
	 width="130px" height="130px" viewBox="0 0 130 130" enable-background="new 0 0 130 130" xml:space="preserve">
<g>
	<path fill="#393787" d="M101.867,129.667H28.129c-15.352,0-27.796-12.441-27.796-27.8V28.129c0-15.352,12.444-27.796,27.796-27.796
		h73.745c15.352,0,27.793,12.444,27.793,27.796v73.745C129.667,117.226,117.226,129.667,101.867,129.667z"/>
	<g>
		<path fill="#90D0F2" d="M30.576,97.333h-7.162v-69.64H47.39c6.498,0,11.326,2.021,14.478,6.069
			c3.148,4.042,4.723,9.35,4.723,15.914c0,2.324-0.066,4.329-0.198,6.018c-0.133,1.696-0.547,3.817-1.245,6.369
			c-0.694,2.558-1.642,4.642-2.835,6.271c-1.193,1.63-3.015,3.051-5.472,4.275c-2.454,1.231-5.371,1.838-8.753,1.838H30.576V97.333z
			 M30.576,67.488h16.615c2.387,0,4.411-0.468,6.069-1.39c1.658-0.935,2.867-1.926,3.631-2.994c0.761-1.061,1.358-2.583,1.791-4.572
			c0.433-1.993,0.666-3.483,0.698-4.48c0.031-0.992,0.05-2.419,0.05-4.275c0-10.082-4.215-15.125-12.636-15.125H30.576V67.488z"/>
		<path fill="#90D0F2" d="M73.651,84.696l6.972-0.297c0.259,2.45,1.49,4.364,3.676,5.722c2.191,1.364,4.711,2.04,7.565,2.04
			s5.317-0.65,7.407-1.938c2.091-1.295,3.139-3.151,3.139-5.57c0-2.425-0.896-4.345-2.689-5.772
			c-1.794-1.427-3.979-2.551-6.568-3.385c-2.583-0.82-5.185-1.705-7.806-2.633c-2.627-0.929-4.926-2.388-6.915-4.377
			c-2.456-2.323-3.682-5.153-3.682-8.506c0-3.35,1.339-6.47,4.029-9.355c2.684-2.886,7.048-4.326,13.085-4.326
			c2.122,0,4.104,0.25,5.968,0.749c1.851,0.496,3.183,0.979,3.979,1.44l1.193,0.694l-2.286,6.271
			c-2.122-1.658-4.913-2.488-8.361-2.488c-3.447,0-6.018,0.647-7.704,1.942c-1.692,1.291-2.539,2.933-2.539,4.922
			c0,2.191,1.062,3.909,3.184,5.172c2.121,1.263,4.509,2.323,7.161,3.183c2.652,0.865,5.292,1.825,7.906,2.886
			c2.621,1.062,4.844,2.722,6.669,4.97c1.825,2.262,2.734,5.242,2.734,8.955c0,3.72-1.49,6.953-4.478,9.7
			c-2.98,2.754-7.345,4.13-13.085,4.13c-5.734,0-10.23-1.357-13.477-4.079C75.482,92.028,73.79,88.682,73.651,84.696z"/>
	</g>
</g>
</svg>
