<?xml version="1.0" encoding="utf-8"?>
<!-- Generator: Adobe Illustrator 15.0.0, SVG Export Plug-In . SVG Version: 6.00 Build 0)  -->
<!DOCTYPE svg PUBLIC "-//W3C//DTD SVG 1.1//EN" "http://www.w3.org/Graphics/SVG/1.1/DTD/svg11.dtd">
<svg version="1.1" id="Layer_1" xmlns="http://www.w3.org/2000/svg" xmlns:xlink="http://www.w3.org/1999/xlink" x="0px" y="0px"
	 width="130px" height="130px" viewBox="0 0 130 130" enable-background="new 0 0 130 130" xml:space="preserve">
<g>
	<path fill="#C3E3F6" d="M129.762,65c0,35.769-28.995,64.763-64.762,64.763C29.231,129.762,0.238,100.769,0.238,65
		C0.238,29.233,29.231,0.237,65,0.237C100.767,0.237,129.762,29.233,129.762,65z"/>
	<path fill="#FFFFFF" d="M113.686,81.872c-0.104,1.208-0.668,2.263-1.367,3.213c-0.834,1.132-1.846,2.132-2.889,3.065
		c-4.045,3.591-8.664,6.438-13.695,8.429c-5.682,2.25-11.721,3.504-17.778,4.136c-6.548,0.688-13.196,0.691-19.754,0.15
		c-5.65-0.47-11.303-1.409-16.709-3.176c-4.667-1.52-9.166-3.686-13.065-6.703c-1.831-1.42-3.523-3.015-5.024-4.781
		c-0.752-0.885-1.46-1.813-2.111-2.766l-0.275-0.41c-0.119-0.185-0.112-0.294-0.112-0.516c0-0.464,0-0.916,0-1.381
		c0-0.854,0.196-1.734,0.331-2.578c1.063-6.582,2.78-13.068,5.271-19.268c2.34-5.818,5.371-11.385,9.163-16.396
		c3.575-4.722,7.828-8.995,12.723-12.367c2.502-1.714,5.185-3.195,8.018-4.306c1.42-0.554,2.875-1.018,4.351-1.374
		c0.745-0.181,1.497-0.324,2.256-0.45c0.399-0.059,0.794-0.113,1.19-0.171c0.431-0.046,0.865-0.03,1.299-0.03c0.946,0,1.9,0,2.843,0
		c0.495,0,0.988,0,1.48,0c0.39,0,0.782,0.099,1.161,0.176c1.494,0.288,2.975,0.645,4.434,1.083c2.688,0.803,5.311,1.88,7.779,3.227
		c4.661,2.534,8.723,6.016,12.205,9.99c3.732,4.267,6.948,9.011,9.552,14.035c3.079,5.933,5.341,12.277,6.826,18.792
		c0.122,0.548,0.263,1.102,0.401,1.646c0.386,1.501,0.794,3.005,1.1,4.525C113.564,79.039,113.799,80.462,113.686,81.872z"/>
	<path fill="#77BA67" d="M98.172,64.748c-1.451-2.356-3.134-4.532-4.878-6.663c-1.796-2.186-3.669-4.301-5.644-6.324
		c-2.266-2.326-4.67-4.536-7.264-6.493c-0.338-0.255-0.7-0.489-1.006-0.781c-0.269-0.263-0.574-0.478-0.912-0.631
		c-0.617-0.279-1.326-0.354-1.975-0.143c-1.42,0.465-2.477,1.851-3.469,2.895c-2.421,2.544-4.467,5.401-6.584,8.193
		c-1.925,2.556-3.951,5.147-6.437,7.195c-0.901,0.752-1.984,1.584-3.196,1.655c-0.839,0.053-1.667-0.125-2.425-0.471
		c-1.646-0.755-2.936-2.142-4.129-3.468c-2.103-2.32-4.821-6.089-8.453-4.921c-2.583,0.829-4.577,3.059-6.202,5.126
		c-0.997,1.276-1.887,2.632-2.758,3.998c-0.853,1.332-1.708,2.656-2.548,4.005c-1.685,2.72-3.258,5.521-4.292,8.557
		c-0.272,0.779-0.509,1.588-0.697,2.391c-0.1,0.432-0.195,0.866-0.272,1.298c-0.035,0.199-0.003,0.272,0.084,0.447l0.185,0.359
		c0.522,1,1.141,1.947,1.831,2.826c2.969,3.797,7.251,6.318,11.692,8.023c5.312,2.048,10.997,3.055,16.644,3.585
		c6.25,0.578,12.583,0.594,18.843,0.162c6.055-0.421,12.174-1.468,17.854-3.657c4.719-1.819,9.5-4.602,12.15-9.056
		c0.086-0.158,0.18-0.315,0.25-0.478c1.492-3.024-0.016-6.119-1.514-8.803C101.416,70.641,99.93,67.619,98.172,64.748z"/>
</g>
</svg>
