<?xml version="1.0" encoding="utf-8"?>
<!-- Generator: Adobe Illustrator 15.0.0, SVG Export Plug-In . SVG Version: 6.00 Build 0)  -->
<!DOCTYPE svg PUBLIC "-//W3C//DTD SVG 1.1//EN" "http://www.w3.org/Graphics/SVG/1.1/DTD/svg11.dtd">
<svg version="1.1" id="Layer_1" xmlns="http://www.w3.org/2000/svg" xmlns:xlink="http://www.w3.org/1999/xlink" x="0px" y="0px"
	 width="130px" height="130px" viewBox="0 0 130 130" enable-background="new 0 0 130 130" xml:space="preserve">
<path fill="#FFFFFF" d="M119.91,65.186c0-5.688-0.879-11.194-2.474-16.353l-24.515,63.622
	C109.069,102.9,119.91,85.314,119.91,65.186L119.91,65.186z"/>
<path fill="#FFFFFF" d="M47.66,117.234c5.458,1.834,11.3,2.818,17.384,2.818c6.357,0,12.446-1.076,18.124-3.066L66.419,73.564
	L47.66,117.234L47.66,117.234z"/>
<path fill="#FFFFFF" d="M12.409,49.676c-1.449,4.917-2.241,10.121-2.241,15.51c0,20.561,11.32,38.476,28.051,47.863L12.577,50.02
	L12.409,49.676z"/>
<path fill="#FFFFFF" d="M40.363,46.137l-2.357-0.105c-5.142-0.085-4.572,5.252-4.572,5.252l18.243,45.757l12.265-29.295
	l-6.847-17.433c-2.742-4.609-9.432-4.561-9.432-4.561v-2.428h38.36l-0.057,2.693l-3.992,0.248c-4.971,0-3.965,4.729-3.965,4.729
	l16.646,44.467l4.771-12.313c8.463-19.188,3.242-33.389,3.242-33.389c-8.476-17.438,2.234-19.94,2.234-19.94
	c0.678-0.097,1.313-0.151,1.936-0.179C96.776,17.813,81.784,10.311,65.047,10.311c-22.631,0-42.07,13.714-50.455,33.281l25.68-0.265
	L40.363,46.137L40.363,46.137z"/>
<path fill="#FFFFFF" d="M126.678,65.004c0,34.003-27.67,61.677-61.665,61.677C31,126.682,3.33,99.008,3.33,65.004
	C3.33,30.991,31,3.33,65.013,3.33C99.008,3.333,126.678,30.991,126.678,65.004z M65.013,0.489c-35.57,0-64.515,28.945-64.515,64.518
	c0,35.573,28.945,64.504,64.515,64.504c35.564,0,64.489-28.931,64.489-64.504C129.502,29.434,100.577,0.489,65.013,0.489z"/>
</svg>
