<?xml version="1.0" encoding="utf-8"?>
<!-- Generator: Adobe Illustrator 15.0.0, SVG Export Plug-In . SVG Version: 6.00 Build 0)  -->
<!DOCTYPE svg PUBLIC "-//W3C//DTD SVG 1.1//EN" "http://www.w3.org/Graphics/SVG/1.1/DTD/svg11.dtd">
<svg version="1.1" id="Layer_1" xmlns="http://www.w3.org/2000/svg" xmlns:xlink="http://www.w3.org/1999/xlink" x="0px" y="0px"
	 width="130px" height="130px" viewBox="0 0 130 130" enable-background="new 0 0 130 130" xml:space="preserve">
<path fill="#FFFFFF" d="M30.046,70.422L16.828,16.584L0.246,16.49l0.864,2.538l22.779,83.494l3.219,11.838h7.35l2.972-11.992
	L47.23,62.77l-5.749-24.793l-1.303-4.542l-9.75,37.545L30.046,70.422z"/>
<path fill="#FFFFFF" d="M52.607,41.003l-12.14-3.005l6.762,24.771L52.607,41.003z"/>
<path fill="#FFFFFF" d="M63.582,69.297l-13.6-52.712L33.67,16.367l0.705,2.022l5.342,19.606l6.762,24.77l10.672,39.131l3.392,12.463
	h6.865l3.253-12.555l18.17-69.98l17.686-0.147L86.33,67.596l10.863,0.902c0.516,0.051,13.592,1.428,16.75,12.373
	c2.397,8.285,0.754,15.607-4.373,19.613c-3.924,3.051-9.078,3.361-13.463,0.811c-3.682-2.148-4.253-4.541-5.219-8.512
	c-0.15-0.615-0.301-1.254-0.474-1.902l-13.532,3.574c0.147,0.51,0.27,1.049,0.409,1.631c1.173,4.834,2.935,12.148,11.753,17.287
	c9.297,5.414,20.723,4.689,29.126-1.855c9.655-7.527,13.201-20.76,9.227-34.523c-3.345-11.602-12.054-17.239-19.075-19.962
	c0,0-5.246-2.033,0,0l17.24-30.68l-0.51-9.764l-47.135,0.179L63.951,69.857L63.582,69.297z"/>
</svg>
