<?xml version="1.0" encoding="utf-8"?>
<!-- Generator: Adobe Illustrator 15.0.0, SVG Export Plug-In . SVG Version: 6.00 Build 0)  -->
<!DOCTYPE svg PUBLIC "-//W3C//DTD SVG 1.1//EN" "http://www.w3.org/Graphics/SVG/1.1/DTD/svg11.dtd">
<svg version="1.1" id="Layer_1" xmlns="http://www.w3.org/2000/svg" xmlns:xlink="http://www.w3.org/1999/xlink" x="0px" y="0px"
	 width="130px" height="130px" viewBox="0 0 130 130" enable-background="new 0 0 130 130" xml:space="preserve">
<g>
	<path fill="#5598D2" d="M129.921,65c0,35.856-29.066,64.921-64.921,64.921c-35.856,0-64.921-29.064-64.921-64.921
		C0.079,29.145,29.144,0.079,65,0.079C100.854,0.079,129.921,29.145,129.921,65z"/>
	<path fill="#FFFFFF" d="M64.72,112.569L36.282,95.057v-5.369l9.553,5.17l18.882-15.52v33.231H64.72L64.72,112.569z M17.781,75.359
		l17.11-14.524l27.857,16.913L46.237,92.077L17.781,75.359z M35.092,57.851L16.385,42.525l29.651-18.306l18.681,15.521
		L35.092,57.851z M95.541,95.057l-28.434,17.513V79.338l18.885,15.52l9.549-5.17V95.057L95.541,95.057z M85.598,92.077
		L69.077,77.748L96.93,60.835l17.117,14.524L85.598,92.077z M96.736,57.851l-29.629-18.11l18.684-15.514l29.645,18.303
		L96.736,57.851z"/>
</g>
</svg>
