<?xml version="1.0" encoding="utf-8"?>
<!-- Generator: Adobe Illustrator 15.0.0, SVG Export Plug-In . SVG Version: 6.00 Build 0)  -->
<!DOCTYPE svg PUBLIC "-//W3C//DTD SVG 1.1//EN" "http://www.w3.org/Graphics/SVG/1.1/DTD/svg11.dtd">
<svg version="1.1" id="Layer_1" xmlns="http://www.w3.org/2000/svg" xmlns:xlink="http://www.w3.org/1999/xlink" x="0px" y="0px"
	 width="130px" height="130px" viewBox="0 0 130 130" enable-background="new 0 0 130 130" xml:space="preserve">
<g>
	<path fill="#010101" d="M121.229,33.992c-5.807-9.95-13.685-17.827-23.633-23.633c-9.95-5.807-20.813-8.709-32.597-8.709
		c-11.781,0-22.647,2.903-32.596,8.709c-9.95,5.806-17.826,13.684-23.634,23.633c-5.806,9.95-8.709,20.814-8.709,32.594
		c0,14.15,4.128,26.875,12.388,38.177c8.258,11.303,18.926,19.124,32.003,23.464c1.522,0.282,2.649,0.084,3.382-0.592
		c0.733-0.675,1.1-1.521,1.1-2.535c0-0.169-0.015-1.69-0.043-4.565c-0.029-2.876-0.042-5.385-0.042-7.524l-1.945,0.336
		c-1.24,0.228-2.805,0.324-4.693,0.297c-1.888-0.027-3.847-0.225-5.876-0.593c-2.03-0.364-3.918-1.21-5.665-2.534
		c-1.747-1.325-2.987-3.06-3.721-5.2l-0.845-1.945c-0.564-1.296-1.451-2.734-2.663-4.312c-1.213-1.579-2.438-2.649-3.679-3.213
		l-0.592-0.424c-0.395-0.282-0.761-0.622-1.099-1.016c-0.339-0.395-0.592-0.789-0.761-1.184c-0.17-0.396-0.029-0.72,0.423-0.975
		c0.451-0.254,1.268-0.378,2.452-0.378l1.69,0.253c1.127,0.227,2.521,0.9,4.186,2.029c1.662,1.127,3.029,2.593,4.101,4.396
		c1.297,2.312,2.86,4.073,4.692,5.285c1.832,1.213,3.679,1.817,5.538,1.817c1.86,0,3.467-0.141,4.82-0.422
		c1.352-0.281,2.62-0.705,3.805-1.269c0.507-3.778,1.889-6.681,4.143-8.71c-3.213-0.338-6.102-0.846-8.667-1.522
		c-2.564-0.677-5.214-1.775-7.947-3.299c-2.735-1.521-5.004-3.411-6.808-5.665c-1.804-2.255-3.283-5.215-4.438-8.878
		c-1.155-3.665-1.732-7.893-1.732-12.683c0-6.822,2.227-12.627,6.68-17.419c-2.086-5.129-1.889-10.878,0.592-17.248
		c1.635-0.508,4.059-0.127,7.271,1.141c3.214,1.269,5.566,2.355,7.061,3.256s2.692,1.664,3.594,2.283
		c5.244-1.465,10.655-2.198,16.235-2.198s10.992,0.733,16.236,2.198l3.213-2.028c2.197-1.354,4.792-2.594,7.777-3.721
		c2.988-1.127,5.272-1.438,6.852-0.929c2.536,6.37,2.762,12.119,0.675,17.248c4.453,4.792,6.682,10.599,6.682,17.419
		c0,4.791-0.58,9.032-1.733,12.724c-1.155,3.693-2.648,6.651-4.479,8.879c-1.834,2.228-4.117,4.102-6.851,5.623
		c-2.734,1.521-5.385,2.621-7.949,3.298c-2.565,0.677-5.453,1.186-8.666,1.524c2.93,2.535,4.396,6.538,4.396,12.006v17.84
		c0,1.013,0.353,1.859,1.058,2.535c0.704,0.675,1.817,0.874,3.34,0.591c13.079-4.34,23.747-12.16,32.005-23.463
		c8.257-11.303,12.387-24.027,12.387-38.177C129.937,54.805,127.032,43.941,121.229,33.992z"/>
</g>
</svg>
