<?xml version="1.0" encoding="utf-8"?>
<!-- Generator: Adobe Illustrator 15.0.0, SVG Export Plug-In . SVG Version: 6.00 Build 0)  -->
<!DOCTYPE svg PUBLIC "-//W3C//DTD SVG 1.1//EN" "http://www.w3.org/Graphics/SVG/1.1/DTD/svg11.dtd">
<svg version="1.1" id="Layer_1" xmlns="http://www.w3.org/2000/svg" xmlns:xlink="http://www.w3.org/1999/xlink" x="0px" y="0px"
	 width="200px" height="81px" viewBox="0 0 200 81" enable-background="new 0 0 200 81" xml:space="preserve">
<g id="Elements">
	<g>
		<g id="shadow">
			<g opacity="0.25">
				<path opacity="0" fill="#010101" d="M193.161,7.427L3.527,6.152C2.146,6.142,1.009,7.198,1,8.492L0.532,78.174
					c-0.009,1.296,1.113,2.367,2.494,2.376l189.634,1.275c1.383,0.012,2.524-1.045,2.532-2.342l0.471-69.681
					C195.672,8.507,194.543,7.437,193.161,7.427z"/>
				<path opacity="0.0625" fill="#010101" d="M193.428,7.105L3.793,5.83C2.413,5.82,1.276,6.875,1.267,8.17L0.799,77.852
					c-0.009,1.296,1.113,2.367,2.494,2.376l189.634,1.275c1.383,0.012,2.524-1.045,2.532-2.342L195.93,9.48
					C195.938,8.186,194.81,7.114,193.428,7.105z"/>
				<path opacity="0.125" fill="#010101" d="M193.694,6.783L4.06,5.508c-1.381-0.01-2.518,1.046-2.527,2.34L1.065,77.529
					c-0.009,1.296,1.113,2.367,2.494,2.376l189.634,1.276c1.383,0.011,2.524-1.046,2.532-2.342l0.471-69.682
					C196.205,7.863,195.076,6.792,193.694,6.783z"/>
				<path opacity="0.1875" fill="#010101" d="M193.961,6.461L4.327,5.186C2.946,5.176,1.809,6.231,1.8,7.526L1.332,77.208
					c-0.009,1.296,1.113,2.367,2.494,2.376l189.634,1.275c1.383,0.012,2.524-1.045,2.532-2.342l0.471-69.682
					C196.472,7.542,195.343,6.471,193.961,6.461z"/>
				<path opacity="0.25" fill="#010101" d="M194.228,6.139L4.593,4.864c-1.381-0.01-2.518,1.045-2.526,2.34L1.599,76.886
					c-0.01,1.296,1.113,2.367,2.494,2.376l189.634,1.275c1.383,0.012,2.524-1.045,2.532-2.342l0.471-69.681
					C196.738,7.219,195.609,6.148,194.228,6.139z"/>
				<path opacity="0.3125" fill="#010101" d="M194.494,5.817L4.859,4.542c-1.381-0.01-2.518,1.045-2.526,2.34L1.865,76.563
					c-0.009,1.296,1.113,2.367,2.494,2.376l189.634,1.275c1.382,0.012,2.524-1.045,2.532-2.342l0.471-69.681
					C197.005,6.897,195.875,5.826,194.494,5.817z"/>
				<path opacity="0.375" fill="#010101" d="M194.761,5.495L5.126,4.22C3.745,4.21,2.608,5.265,2.6,6.561L2.131,76.242
					c-0.009,1.295,1.113,2.366,2.494,2.375l189.634,1.275c1.382,0.012,2.524-1.045,2.532-2.342l0.471-69.681
					C197.271,6.575,196.142,5.504,194.761,5.495z"/>
				<path opacity="0.4375" fill="#010101" d="M195.027,5.173L5.393,3.898c-1.381-0.01-2.518,1.045-2.526,2.34L2.398,75.92
					c-0.009,1.295,1.113,2.366,2.494,2.375l189.634,1.276c1.382,0.011,2.524-1.046,2.532-2.342l0.471-69.682
					C197.538,6.253,196.408,5.183,195.027,5.173z"/>
				<path opacity="0.5" fill="#010101" d="M195.293,4.851L5.659,3.576c-1.381-0.01-2.518,1.045-2.526,2.34L2.665,75.598
					c-0.009,1.295,1.113,2.367,2.494,2.375l189.634,1.276c1.382,0.011,2.524-1.046,2.532-2.342l0.471-69.682
					C197.805,5.932,196.675,4.86,195.293,4.851z"/>
				<path opacity="0.5625" fill="#010101" d="M195.56,4.529L5.926,3.254c-1.381-0.01-2.518,1.045-2.527,2.341L2.931,75.275
					c-0.009,1.296,1.113,2.367,2.494,2.376l189.634,1.275c1.382,0.012,2.524-1.045,2.532-2.342l0.471-69.681
					C198.071,5.609,196.941,4.538,195.56,4.529z"/>
				<path opacity="0.625" fill="#010101" d="M195.826,4.207L6.192,2.932c-1.381-0.01-2.518,1.045-2.527,2.34L3.198,74.953
					c-0.009,1.296,1.113,2.367,2.494,2.376l189.634,1.276c1.382,0.011,2.524-1.046,2.532-2.342l0.471-69.682
					C198.338,5.288,197.208,4.216,195.826,4.207z"/>
				<path opacity="0.6875" fill="#010101" d="M196.093,3.885L6.459,2.61C5.078,2.6,3.941,3.655,3.932,4.951L3.464,74.632
					c-0.009,1.295,1.113,2.366,2.494,2.375l189.634,1.276c1.382,0.011,2.524-1.046,2.532-2.342l0.471-69.682
					C198.604,4.965,197.475,3.895,196.093,3.885z"/>
				<path opacity="0.75" fill="#010101" d="M196.359,3.563L6.726,2.288c-1.381-0.01-2.518,1.045-2.527,2.341L3.73,74.31
					c-0.009,1.295,1.113,2.366,2.494,2.375l189.635,1.276c1.381,0.011,2.524-1.046,2.532-2.342l0.471-69.682
					C198.871,4.644,197.74,3.572,196.359,3.563z"/>
				<path opacity="0.8125" fill="#010101" d="M196.626,3.241L6.992,1.966c-1.381-0.01-2.518,1.045-2.526,2.341L3.997,73.987
					c-0.009,1.295,1.113,2.366,2.494,2.375l189.635,1.276c1.381,0.011,2.524-1.046,2.532-2.342l0.471-69.681
					C199.138,4.321,198.007,3.25,196.626,3.241z"/>
				<path opacity="0.875" fill="#010101" d="M196.893,2.919L7.258,1.644c-1.381-0.01-2.518,1.044-2.526,2.341L4.264,73.666
					c-0.009,1.295,1.113,2.366,2.494,2.375l189.635,1.275c1.381,0.012,2.524-1.045,2.532-2.342l0.471-69.681
					C199.404,4,198.273,2.928,196.893,2.919z"/>
				<path opacity="0.9375" fill="#010101" d="M197.159,2.597L7.525,1.322c-1.381-0.01-2.518,1.045-2.526,2.341L4.53,73.344
					c-0.009,1.295,1.113,2.366,2.494,2.375l189.635,1.276c1.381,0.011,2.524-1.046,2.532-2.342l0.471-69.682
					C199.671,3.677,198.54,2.606,197.159,2.597z"/>
				<path fill="#010101" d="M197.426,2.275L7.792,1C6.411,0.99,5.274,2.044,5.265,3.341L4.797,73.021
					c-0.009,1.295,1.113,2.366,2.494,2.375l189.635,1.276c1.381,0.011,2.524-1.046,2.532-2.342l0.471-69.682
					C199.938,3.355,198.807,2.284,197.426,2.275z"/>
			</g>
		</g>
		<g id="keyboard">
			<path fill="#F2F2F2" d="M199.929,4.649c0.009-1.294-1.122-2.365-2.503-2.375L7.792,1C6.411,0.99,5.274,2.044,5.265,3.341
				L4.797,73.021c-0.009,1.295,1.113,2.366,2.494,2.375l189.635,1.276c1.381,0.011,2.524-1.046,2.532-2.342L199.929,4.649z"/>
			<g>
				<path fill="#21374D" d="M20.63,17.166c-0.002,0.338-0.278,0.611-0.617,0.609l-9.37-0.064c-0.337,0-0.61-0.277-0.608-0.614
					L10.1,7.727c0.001-0.339,0.277-0.612,0.615-0.609l9.371,0.063c0.336,0.003,0.61,0.278,0.607,0.618L20.63,17.166z"/>
				<path fill="#21374D" d="M39.963,30.196c-0.002,0.343-0.276,0.617-0.618,0.614l-9.37-0.063c-0.337-0.003-0.607-0.279-0.606-0.622
					l0.063-9.369c0.002-0.334,0.276-0.607,0.614-0.605l9.37,0.063c0.342,0.002,0.612,0.281,0.608,0.614L39.963,30.196z"/>
				<path fill="#21374D" d="M42.931,43.122c-0.002,0.341-0.279,0.607-0.617,0.604l-9.369-0.063
					c-0.333-0.001-0.611-0.272-0.608-0.613l0.062-9.373c0.002-0.329,0.283-0.604,0.617-0.603l9.37,0.063
					c0.339,0.002,0.611,0.283,0.608,0.612L42.931,43.122z"/>
				<path fill="#21374D" d="M36.527,55.979c-0.002,0.335-0.278,0.611-0.616,0.609l-9.369-0.063
					c-0.334-0.004-0.608-0.282-0.606-0.618l0.063-9.368c0.003-0.336,0.281-0.613,0.615-0.611l9.369,0.063
					c0.337,0.002,0.609,0.283,0.607,0.619L36.527,55.979z"/>
				<path fill="#21374D" d="M20.272,70.403c-0.001,0.336-0.278,0.61-0.617,0.606l-9.37-0.063c-0.338-0.002-0.611-0.276-0.607-0.616
					l0.072-11c0.004-0.331,0.28-0.608,0.617-0.606l9.371,0.063c0.338,0.003,0.61,0.282,0.608,0.614L20.272,70.403z"/>
				<path fill="#21374D" d="M33.136,70.489c-0.003,0.337-0.279,0.611-0.615,0.607l-9.368-0.063
					c-0.335-0.001-0.609-0.277-0.608-0.615l0.075-11.002c0.002-0.33,0.279-0.609,0.616-0.604l9.365,0.061
					c0.34,0.004,0.611,0.286,0.609,0.617L33.136,70.489z"/>
				<path fill="#21374D" d="M46.006,70.574c-0.002,0.339-0.281,0.61-0.618,0.609l-9.37-0.064c-0.338,0-0.609-0.278-0.608-0.614
					l0.075-11.002c0.003-0.329,0.277-0.608,0.614-0.606l9.372,0.063c0.336,0.002,0.611,0.283,0.608,0.615L46.006,70.574z"/>
				<path fill="#21374D" d="M155.908,71.313c-0.002,0.34-0.283,0.612-0.619,0.611l-9.372-0.064
					c-0.334-0.002-0.607-0.277-0.604-0.614l0.074-11.003c0.002-0.331,0.279-0.609,0.613-0.606l9.372,0.063
					c0.335,0.004,0.612,0.284,0.611,0.616L155.908,71.313z"/>
				<path fill="#21374D" d="M168.807,71.402c-0.002,0.338-0.28,0.61-0.616,0.608l-9.364-0.063c-0.343-0.003-0.618-0.278-0.617-0.616
					l0.034-4.89c0.002-0.332,0.281-0.609,0.624-0.607l9.364,0.063c0.337,0,0.609,0.281,0.606,0.615L168.807,71.402z"/>
				<path fill="#21374D" d="M194.609,71.575c-0.001,0.34-0.28,0.611-0.618,0.608l-9.368-0.063c-0.334-0.002-0.613-0.276-0.608-0.618
					l0.032-4.887c0.001-0.334,0.283-0.611,0.618-0.608l9.366,0.063c0.341,0.004,0.614,0.282,0.612,0.617L194.609,71.575z"/>
				<path fill="#21374D" d="M62.23,70.685c-0.002,0.338-0.277,0.61-0.611,0.607l-12.735-0.084c-0.337-0.003-0.606-0.278-0.603-0.618
					l0.074-10.999c0.003-0.33,0.275-0.609,0.611-0.607l12.736,0.085c0.332,0.003,0.605,0.284,0.604,0.615L62.23,70.685z"/>
				<path fill="#21374D" d="M143.006,71.229c-0.003,0.337-0.28,0.609-0.62,0.607l-12.73-0.087c-0.333-0.001-0.611-0.277-0.607-0.616
					l0.074-11c0.002-0.329,0.282-0.608,0.617-0.606l12.73,0.085c0.338,0.003,0.611,0.284,0.609,0.615L143.006,71.229z"/>
				<path fill="#21374D" d="M126.742,71.118c-0.002,0.338-0.282,0.61-0.62,0.607l-60.973-0.409
					c-0.334-0.001-0.613-0.278-0.611-0.614l0.073-11.004c0.003-0.328,0.287-0.607,0.62-0.605l60.974,0.41
					c0.338,0.003,0.613,0.284,0.611,0.616L126.742,71.118z"/>
				<path fill="#21374D" d="M49.427,56.066c-0.002,0.335-0.274,0.612-0.613,0.607l-9.373-0.063
					c-0.329-0.001-0.605-0.281-0.604-0.616l0.064-9.369c0.002-0.335,0.283-0.61,0.614-0.609l9.372,0.063
					c0.336,0.003,0.606,0.282,0.604,0.616L49.427,56.066z"/>
				<path fill="#21374D" d="M62.328,56.152c-0.002,0.336-0.277,0.611-0.61,0.61l-9.37-0.063c-0.338-0.001-0.612-0.281-0.609-0.618
					l0.063-9.368c0.002-0.335,0.28-0.612,0.618-0.609l9.368,0.062c0.334,0.004,0.606,0.283,0.604,0.62L62.328,56.152z"/>
				<path fill="#21374D" d="M75.231,56.239c-0.002,0.337-0.277,0.611-0.617,0.609l-9.368-0.063
					c-0.334-0.003-0.613-0.281-0.612-0.617l0.064-9.365c0.002-0.337,0.287-0.616,0.619-0.612l9.367,0.062
					c0.34,0.004,0.611,0.284,0.611,0.619L75.231,56.239z"/>
				<path fill="#21374D" d="M88.132,56.327c-0.002,0.336-0.279,0.612-0.613,0.608l-9.368-0.062c-0.335-0.003-0.612-0.283-0.61-0.618
					l0.064-9.37c0.002-0.335,0.282-0.611,0.617-0.607l9.37,0.063c0.331,0.001,0.605,0.281,0.604,0.617L88.132,56.327z"/>
				<path fill="#21374D" d="M101.035,56.413c-0.004,0.336-0.279,0.61-0.615,0.608l-9.37-0.062c-0.334-0.002-0.608-0.281-0.604-0.618
					l0.064-9.368c0-0.336,0.278-0.612,0.611-0.61l9.372,0.064c0.333,0.001,0.606,0.282,0.605,0.617L101.035,56.413z"/>
				<path fill="#21374D" d="M113.938,56.499c-0.002,0.337-0.278,0.612-0.614,0.608l-9.372-0.061c-0.337-0.002-0.61-0.281-0.61-0.617
					l0.063-9.367c0.003-0.337,0.279-0.614,0.618-0.612l9.372,0.063c0.336,0.003,0.608,0.283,0.605,0.618L113.938,56.499z"/>
				<path fill="#21374D" d="M126.841,56.587c-0.002,0.336-0.282,0.613-0.621,0.608l-9.367-0.061
					c-0.337-0.007-0.607-0.284-0.605-0.618l0.064-9.371c0.001-0.334,0.276-0.61,0.611-0.607l9.369,0.063
					c0.337,0.003,0.614,0.283,0.609,0.617L126.841,56.587z"/>
				<path fill="#21374D" d="M139.74,56.675c-0.001,0.335-0.278,0.61-0.617,0.609l-9.369-0.064c-0.332-0.003-0.612-0.281-0.609-0.615
					l0.063-9.371c0.002-0.335,0.286-0.612,0.619-0.607l9.368,0.061c0.338,0.003,0.61,0.283,0.609,0.618L139.74,56.675z"/>
				<path fill="#21374D" d="M152.641,56.762c-0.003,0.335-0.274,0.611-0.614,0.606l-9.371-0.062
					c-0.337-0.002-0.609-0.28-0.606-0.617l0.063-9.367c0.002-0.337,0.276-0.614,0.614-0.611l9.371,0.063
					c0.339,0.002,0.607,0.283,0.606,0.619L152.641,56.762z"/>
				<path fill="#21374D" d="M165.544,56.849c-0.001,0.336-0.281,0.609-0.616,0.606l-9.369-0.061
					c-0.338-0.003-0.611-0.281-0.609-0.618l0.063-9.369c0.003-0.334,0.28-0.611,0.619-0.608l9.366,0.063
					c0.336,0.001,0.612,0.284,0.61,0.618L165.544,56.849z"/>
				<path fill="#21374D" d="M194.604,57.043c-0.004,0.336-0.279,0.611-0.617,0.609l-25.528-0.173
					c-0.336-0.002-0.611-0.281-0.607-0.615l0.062-9.371c0.004-0.334,0.281-0.61,0.616-0.607l25.527,0.172
					c0.339,0.002,0.613,0.281,0.611,0.617L194.604,57.043z"/>
				<path fill="#21374D" d="M55.829,43.207c-0.003,0.342-0.273,0.609-0.61,0.606l-9.375-0.063c-0.334-0.002-0.606-0.272-0.604-0.613
					l0.063-9.373c0.003-0.33,0.28-0.605,0.611-0.604l9.375,0.063c0.338,0.003,0.607,0.282,0.603,0.614L55.829,43.207z"/>
				<path fill="#21374D" d="M68.734,43.294c-0.003,0.342-0.28,0.609-0.618,0.607l-9.371-0.063c-0.333-0.002-0.606-0.273-0.603-0.614
					l0.063-9.372c0.002-0.332,0.277-0.606,0.61-0.605l9.373,0.065c0.335,0.001,0.611,0.28,0.607,0.611L68.734,43.294z"/>
				<path fill="#21374D" d="M81.632,43.382c-0.003,0.34-0.275,0.608-0.611,0.606l-9.371-0.063c-0.336-0.003-0.609-0.275-0.606-0.617
					l0.062-9.369c0.004-0.333,0.278-0.605,0.615-0.605l9.372,0.063c0.337,0.002,0.605,0.279,0.602,0.611L81.632,43.382z"/>
				<path fill="#21374D" d="M94.535,43.468c-0.002,0.34-0.278,0.61-0.611,0.606l-9.376-0.063c-0.332-0.002-0.605-0.274-0.603-0.614
					l0.062-9.373c0.003-0.33,0.28-0.605,0.612-0.604l9.373,0.065c0.334,0.001,0.608,0.28,0.607,0.611L94.535,43.468z"/>
				<path fill="#21374D" d="M107.437,43.554c-0.002,0.343-0.281,0.611-0.615,0.607L97.452,44.1
					c-0.332-0.003-0.612-0.275-0.609-0.615l0.063-9.372c0.003-0.332,0.286-0.607,0.619-0.604l9.367,0.064
					c0.337,0.002,0.61,0.279,0.608,0.61L107.437,43.554z"/>
				<path fill="#21374D" d="M120.336,43.642c-0.001,0.343-0.279,0.609-0.614,0.606l-9.366-0.063
					c-0.337-0.003-0.611-0.273-0.609-0.614l0.063-9.372c0.002-0.331,0.279-0.606,0.614-0.604l9.369,0.063
					c0.335,0.002,0.611,0.282,0.608,0.612L120.336,43.642z"/>
				<path fill="#21374D" d="M133.237,43.729c-0.003,0.341-0.274,0.609-0.614,0.607l-9.37-0.063
					c-0.335-0.003-0.607-0.273-0.604-0.616l0.063-9.371c0.003-0.331,0.277-0.605,0.613-0.602l9.37,0.062
					c0.339,0.002,0.609,0.282,0.607,0.613L133.237,43.729z"/>
				<path fill="#21374D" d="M146.141,43.816c-0.002,0.34-0.28,0.608-0.613,0.606l-9.372-0.063c-0.336-0.003-0.608-0.275-0.605-0.613
					l0.063-9.374c0.003-0.33,0.279-0.605,0.615-0.602l9.37,0.062c0.335,0.003,0.608,0.281,0.606,0.611L146.141,43.816z"/>
				<path fill="#21374D" d="M159.045,43.903c-0.004,0.341-0.28,0.609-0.616,0.605l-9.373-0.063
					c-0.337-0.001-0.607-0.273-0.607-0.614l0.065-9.372c0-0.332,0.277-0.607,0.613-0.604l9.374,0.063
					c0.336,0.003,0.609,0.281,0.607,0.612L159.045,43.903z"/>
				<path fill="#21374D" d="M171.943,43.988c-0.002,0.341-0.278,0.61-0.615,0.609l-9.367-0.064
					c-0.337-0.001-0.611-0.275-0.608-0.616l0.064-9.371c0.001-0.332,0.275-0.607,0.616-0.603l9.366,0.063
					c0.338,0.002,0.607,0.279,0.606,0.611L171.943,43.988z"/>
				<path fill="#21374D" d="M184.845,44.076c-0.002,0.34-0.278,0.609-0.613,0.607l-9.375-0.063
					c-0.334-0.002-0.604-0.276-0.602-0.616l0.063-9.371c0.004-0.332,0.276-0.606,0.61-0.604l9.375,0.061
					c0.334,0.003,0.606,0.281,0.606,0.614L184.845,44.076z"/>
				<path fill="#21374D" d="M52.863,30.282c-0.001,0.343-0.278,0.616-0.616,0.614l-9.371-0.063
					c-0.336-0.002-0.611-0.278-0.608-0.622l0.063-9.369c0.002-0.334,0.28-0.607,0.618-0.605l9.37,0.063
					c0.338,0.003,0.61,0.28,0.608,0.612L52.863,30.282z"/>
				<path fill="#21374D" d="M65.765,30.37c-0.002,0.343-0.28,0.616-0.618,0.613l-9.372-0.064c-0.333-0.001-0.605-0.278-0.604-0.621
					l0.063-9.369c0.002-0.334,0.28-0.607,0.615-0.604l9.37,0.062c0.337,0.002,0.612,0.279,0.609,0.613L65.765,30.37z"/>
				<path fill="#21374D" d="M78.666,30.458c-0.002,0.343-0.279,0.615-0.617,0.613l-9.369-0.064c-0.334-0.001-0.605-0.277-0.603-0.62
					l0.063-9.369c0.002-0.334,0.279-0.606,0.611-0.604l9.368,0.062c0.339,0.003,0.611,0.281,0.61,0.614L78.666,30.458z"/>
				<path fill="#21374D" d="M91.563,30.543c-0.002,0.343-0.279,0.617-0.609,0.613l-9.373-0.063c-0.336,0-0.609-0.277-0.606-0.62
					l0.063-9.369c0.001-0.333,0.278-0.607,0.616-0.604l9.37,0.062c0.332,0.003,0.605,0.279,0.604,0.613L91.563,30.543z"/>
				<path fill="#21374D" d="M104.468,30.63c-0.003,0.343-0.278,0.616-0.618,0.613l-9.366-0.063
					c-0.337-0.002-0.608-0.278-0.605-0.621l0.06-9.368c0.006-0.334,0.28-0.607,0.615-0.605l9.368,0.063
					c0.34,0.002,0.612,0.279,0.61,0.613L104.468,30.63z"/>
				<path fill="#21374D" d="M117.366,30.717c-0.001,0.343-0.275,0.616-0.613,0.613l-9.371-0.062
					c-0.336-0.003-0.61-0.281-0.606-0.622l0.063-9.37c0.002-0.333,0.279-0.606,0.616-0.606l9.372,0.064
					c0.337,0.002,0.606,0.279,0.603,0.613L117.366,30.717z"/>
				<path fill="#21374D" d="M130.268,30.805c-0.002,0.342-0.271,0.614-0.612,0.613l-9.374-0.064c-0.33-0.001-0.605-0.278-0.604-0.62
					l0.065-9.37c0-0.333,0.28-0.607,0.611-0.605l9.372,0.064c0.34,0.001,0.606,0.279,0.605,0.613L130.268,30.805z"/>
				<path fill="#21374D" d="M143.174,30.891c-0.002,0.342-0.279,0.617-0.62,0.613l-9.368-0.063c-0.337-0.002-0.609-0.277-0.606-0.62
					l0.061-9.371c0.005-0.333,0.279-0.606,0.617-0.605l9.369,0.063c0.34,0.003,0.612,0.281,0.611,0.613L143.174,30.891z"/>
				<path fill="#21374D" d="M156.071,30.978c-0.002,0.344-0.28,0.617-0.611,0.613l-9.371-0.063
					c-0.339-0.003-0.607-0.279-0.605-0.622l0.063-9.369c0.005-0.333,0.276-0.607,0.614-0.606l9.371,0.064
					c0.333,0.002,0.605,0.279,0.603,0.612L156.071,30.978z"/>
				<path fill="#21374D" d="M168.975,31.065c0,0.343-0.277,0.614-0.617,0.612l-9.369-0.063c-0.332-0.001-0.608-0.278-0.606-0.622
					l0.064-9.369c0.001-0.332,0.281-0.606,0.614-0.603l9.368,0.063c0.339,0.002,0.612,0.279,0.61,0.613L168.975,31.065z"/>
				<path fill="#21374D" d="M181.874,31.151c0,0.343-0.277,0.615-0.61,0.613l-9.371-0.062c-0.339-0.002-0.61-0.278-0.607-0.622
					l0.063-9.369c0.003-0.333,0.275-0.605,0.615-0.604l9.372,0.063c0.335,0.003,0.606,0.28,0.604,0.613L181.874,31.151z"/>
				<path fill="#21374D" d="M27.061,30.11c-0.002,0.342-0.279,0.614-0.616,0.611l-15.888-0.106c-0.338-0.002-0.61-0.278-0.608-0.622
					l0.063-9.368c0.002-0.334,0.279-0.607,0.617-0.605l15.887,0.107c0.338,0.001,0.611,0.279,0.608,0.612L27.061,30.11z"/>
				<path fill="#21374D" d="M194.865,18.339c-0.002,0.339-0.279,0.611-0.615,0.609l-15.891-0.107
					c-0.331-0.001-0.608-0.279-0.604-0.616l0.063-9.368c0.002-0.34,0.282-0.61,0.612-0.609l15.891,0.106
					c0.336,0.002,0.609,0.278,0.607,0.619L194.865,18.339z"/>
				<path fill="#21374D" d="M30.027,43.034c-0.002,0.341-0.276,0.609-0.617,0.606l-18.939-0.127
					c-0.338-0.003-0.613-0.274-0.609-0.615l0.063-9.372c0.001-0.33,0.278-0.606,0.618-0.605l18.939,0.128
					c0.341,0.002,0.611,0.283,0.608,0.612L30.027,43.034z"/>
				<path fill="#21374D" d="M23.63,55.893c-0.003,0.334-0.282,0.611-0.617,0.609l-12.629-0.086c-0.339-0.002-0.612-0.28-0.608-0.617
					l0.063-9.367c0.001-0.337,0.278-0.612,0.617-0.61l12.626,0.084c0.338,0.002,0.614,0.283,0.61,0.617L23.63,55.893z"/>
				<path fill="#21374D" d="M33.53,17.253c-0.002,0.338-0.277,0.61-0.619,0.607l-9.365-0.063c-0.335-0.002-0.61-0.279-0.607-0.616
					l0.063-9.367c0.002-0.339,0.28-0.61,0.615-0.609l9.367,0.064c0.341,0.002,0.611,0.277,0.61,0.617L33.53,17.253z"/>
				<path fill="#21374D" d="M46.432,17.34c-0.002,0.338-0.279,0.61-0.616,0.608l-9.371-0.063c-0.334-0.001-0.605-0.278-0.603-0.616
					l0.063-9.368c0.002-0.34,0.277-0.612,0.611-0.609l9.371,0.062c0.338,0.002,0.609,0.279,0.608,0.619L46.432,17.34z"/>
				<path fill="#21374D" d="M59.338,17.428c-0.002,0.337-0.286,0.61-0.622,0.606l-9.37-0.062c-0.335-0.003-0.607-0.279-0.605-0.618
					l0.063-9.367c0.003-0.339,0.279-0.612,0.613-0.609l9.372,0.064c0.336,0.001,0.616,0.276,0.613,0.616L59.338,17.428z"/>
				<path fill="#21374D" d="M72.234,17.515c-0.002,0.337-0.277,0.61-0.615,0.607l-9.372-0.062c-0.335-0.003-0.61-0.278-0.607-0.616
					l0.063-9.37c0.002-0.337,0.281-0.61,0.616-0.609l9.371,0.065c0.336,0.001,0.612,0.277,0.61,0.617L72.234,17.515z"/>
				<path fill="#21374D" d="M85.133,17.601c-0.004,0.339-0.275,0.61-0.613,0.609l-9.372-0.064c-0.336-0.001-0.608-0.278-0.606-0.615
					l0.064-9.368c0.003-0.34,0.279-0.611,0.613-0.61l9.372,0.064c0.339,0.003,0.606,0.278,0.603,0.618L85.133,17.601z"/>
				<path fill="#21374D" d="M98.035,17.688c-0.003,0.338-0.278,0.61-0.614,0.609l-9.365-0.064c-0.341-0.003-0.61-0.279-0.606-0.617
					l0.06-9.367c0.002-0.34,0.278-0.611,0.618-0.609l9.364,0.062c0.339,0.002,0.608,0.279,0.606,0.617L98.035,17.688z"/>
				<path fill="#21374D" d="M110.935,17.775c-0.003,0.337-0.273,0.61-0.613,0.607l-9.367-0.063c-0.34-0.002-0.611-0.278-0.609-0.616
					l0.063-9.368c0.001-0.34,0.277-0.612,0.617-0.609l9.368,0.062c0.34,0.001,0.605,0.279,0.604,0.618L110.935,17.775z"/>
				<path fill="#21374D" d="M123.839,17.862c-0.002,0.338-0.278,0.608-0.62,0.607l-9.368-0.062c-0.338-0.003-0.61-0.28-0.607-0.617
					l0.063-9.368c0.001-0.339,0.278-0.612,0.613-0.61l9.373,0.064c0.34,0.002,0.61,0.278,0.609,0.617L123.839,17.862z"/>
				<path fill="#21374D" d="M136.736,17.946c-0.001,0.339-0.272,0.611-0.61,0.61l-9.367-0.063c-0.341-0.002-0.614-0.278-0.612-0.616
					l0.064-9.368c0.002-0.34,0.278-0.611,0.617-0.61l9.367,0.064c0.339,0.003,0.605,0.277,0.604,0.618L136.736,17.946z"/>
				<path fill="#21374D" d="M149.642,18.034c-0.003,0.338-0.281,0.612-0.613,0.61l-9.373-0.063
					c-0.333-0.003-0.608-0.279-0.604-0.617l0.063-9.367c0.004-0.341,0.279-0.612,0.612-0.611l9.375,0.063
					c0.331,0.002,0.606,0.278,0.603,0.618L149.642,18.034z"/>
				<path fill="#21374D" d="M162.545,18.122c-0.003,0.337-0.279,0.611-0.616,0.608l-9.371-0.063
					c-0.338-0.002-0.613-0.279-0.611-0.616l0.064-9.368c0.004-0.339,0.281-0.612,0.62-0.608L162,8.136
					c0.337,0.003,0.607,0.278,0.607,0.618L162.545,18.122z"/>
				<path fill="#21374D" d="M175.441,18.209c-0.002,0.338-0.275,0.611-0.61,0.608l-9.376-0.063
					c-0.334-0.001-0.605-0.278-0.603-0.615l0.063-9.369c0.002-0.338,0.278-0.612,0.611-0.608l9.377,0.063
					c0.333,0.001,0.605,0.277,0.603,0.617L175.441,18.209z"/>
				<g>
					<path fill="#21374D" d="M171.149,66.264l-0.034,5.153c-0.002,0.159,0.057,0.317,0.173,0.436
						c0.119,0.12,0.279,0.181,0.434,0.182l9.372,0.063c0.156,0.001,0.309-0.058,0.433-0.18c0.12-0.111,0.182-0.271,0.183-0.43
						l0.035-5.154L171.149,66.264z"/>
					<path fill="#21374D" d="M181.747,65.645l0.036-5.157c0-0.15-0.059-0.31-0.177-0.43c-0.121-0.121-0.275-0.184-0.429-0.185
						l-9.374-0.062c-0.153-0.003-0.314,0.059-0.434,0.179c-0.12,0.115-0.18,0.274-0.181,0.428l-0.034,5.153L181.747,65.645z"/>
				</g>
				<path fill="#21374D" d="M184.86,21.193c-0.153-0.001-0.31,0.055-0.43,0.177c-0.119,0.117-0.176,0.271-0.179,0.428l-0.064,9.369
					c0,0.16,0.055,0.317,0.173,0.438c0.12,0.118,0.275,0.183,0.429,0.183l2.447,0.017l-0.084,12.286
					c0,0.159,0.061,0.316,0.178,0.434c0.12,0.123,0.274,0.181,0.433,0.183l6.313,0.043c0.157,0,0.313-0.057,0.436-0.177
					c0.122-0.115,0.181-0.272,0.183-0.43l0.15-22.273c0.001-0.158-0.059-0.313-0.178-0.433c-0.121-0.123-0.275-0.181-0.433-0.181
					L184.86,21.193z"/>
			</g>
		</g>
		<g>
		</g>
	</g>
</g>
</svg>
