<?xml version="1.0" encoding="utf-8"?>
<!-- Generator: Adobe Illustrator 15.0.0, SVG Export Plug-In . SVG Version: 6.00 Build 0)  -->
<!DOCTYPE svg PUBLIC "-//W3C//DTD SVG 1.1//EN" "http://www.w3.org/Graphics/SVG/1.1/DTD/svg11.dtd">
<svg version="1.1" id="Layer_1" xmlns="http://www.w3.org/2000/svg" xmlns:xlink="http://www.w3.org/1999/xlink" x="0px" y="0px"
	 width="115px" height="210px" viewBox="0 0 115 210" enable-background="new 0 0 115 210" xml:space="preserve">
<path opacity="0.1" fill="#010101" d="M130.957,217.301c0,0-37.707,13.668-61.912,6.416c-24.207-7.252-26.41-76.748-3.787-124.994
	c-0.516-0.229-1.01-0.447-1.518-0.668l3.9-8.977l-4.219-1.834c5.424-1.225,13.807-9.937,18.617-16.644
	c5.105-7.11,9.363-16.946,15.586-23.555c6.221-6.609,0.42-9.716-0.504-8.608c-0.924,1.109-15.396,14.345-15.396,14.345
	S92.939,37.077,98.146,32.37c5.205-4.706,4.232-8.634,2.301-9.725c-1.934-1.094-5.234-1.271-8.127,2.279
	c2.324-3.336,3.869-7.363,1.76-8.983c-2.109-1.621-4.713-1.112-8.064,2.992c1.393-2.002,3.939-5.331,0.689-6.188
	c-3.254-0.854-6.146,2.922-6.146,2.922l0.029-1.464c-4.158-0.763-10.158,5.993-17.5,12.271c-7.341,6.277-11.143,4.623-13.048,15.297
	c-1.751,9.803-3.796,34.002-4.116,37.871l-4.184-1.816l-4.199,9.667c-1.155-0.416-1.809-0.642-1.809-0.642
	s-35.696,77.899-28,113.532c7.698,35.629,32.233,78.666,32.233,78.666s56.56,20.537,79.952,23.414
	c0.393,0.049,0.775,0.066,1.148,0.064c0.117,0,0.23-0.014,0.346-0.021c0.252-0.012,0.504-0.027,0.748-0.063
	c0.129-0.018,0.254-0.049,0.383-0.074c0.223-0.043,0.441-0.094,0.656-0.156c0.125-0.037,0.25-0.08,0.373-0.123
	c0.211-0.076,0.418-0.16,0.619-0.252c0.115-0.053,0.229-0.107,0.34-0.166c0.211-0.109,0.414-0.229,0.613-0.359
	c0.098-0.061,0.195-0.121,0.289-0.186c0.225-0.156,0.439-0.332,0.654-0.514c0.063-0.053,0.129-0.102,0.189-0.156
	c0.564-0.506,1.092-1.096,1.584-1.768c0.01-0.014,0.018-0.027,0.027-0.039c0.232-0.318,0.455-0.654,0.672-1.008
	c0.041-0.066,0.08-0.139,0.121-0.207c0.184-0.309,0.363-0.625,0.535-0.957c0.047-0.09,0.09-0.18,0.135-0.27
	c0.166-0.328,0.326-0.666,0.48-1.016c0.041-0.094,0.082-0.189,0.123-0.283c0.158-0.369,0.311-0.748,0.457-1.139
	c0.031-0.08,0.063-0.16,0.092-0.238c0.164-0.445,0.322-0.902,0.473-1.373c0.01-0.029,0.02-0.061,0.029-0.092
	c0.5-1.566,0.932-3.273,1.299-5.094c0-0.004,0.002-0.008,0.002-0.012l0,0C137.279,262.373,130.957,217.301,130.957,217.301z"/>
<rect x="47.375" y="71.546" transform="matrix(0.9172 0.3985 -0.3985 0.9172 35.7805 -18.1263)" fill="#F8FCFF" width="28.239" height="10.928"/>
<g>
	<path fill="#F3AC3E" d="M139.938,205.848c0,0-37.705,13.67-61.91,6.414c-24.208-7.25-26.411-76.746-3.789-124.994
		c-16.985-7.559-29.524-11.871-29.524-11.871s-35.697,77.898-28,113.531c7.698,35.631,32.233,78.668,32.233,78.668
		s56.559,20.537,79.951,23.414C152.291,293.885,139.938,205.848,139.938,205.848z"/>
	<path fill="#F15D33" d="M64.584,252.578c0,0-24.535-43.037-32.233-78.666c-5.375-24.877,10.403-70.354,20.417-95.546
		c-5.044-1.932-8.055-2.969-8.055-2.969s-35.697,77.898-28,113.531c7.698,35.631,32.233,78.668,32.233,78.668
		s56.559,20.537,79.951,23.414c6.652,0.816,10.412-5.727,12.391-15.5C116.318,271.357,64.584,252.578,64.584,252.578z"/>
</g>
<path fill="#E7B38A" d="M54.859,68.731c0,0,2.255-27.743,4.162-38.414c1.906-10.672,5.707-9.018,13.049-15.297
	C79.412,8.744,85.412,1.988,89.568,2.75l-0.029,1.464c0,0,2.895-3.775,6.146-2.92c3.252,0.854,0.705,4.185-0.689,6.187
	c3.354-4.105,5.957-4.614,8.066-2.993c2.109,1.62,0.563,5.647-1.76,8.983c2.891-3.55,6.191-3.372,8.125-2.279
	c1.932,1.091,2.906,5.019-2.301,9.725c-5.207,4.708-16.422,20.412-16.422,20.412s14.473-13.235,15.398-14.345
	c0.924-1.107,6.723,1.999,0.502,8.608c-6.223,6.609-10.48,16.444-15.584,23.555c-5.105,7.115-14.23,16.495-19.576,16.79
	C58.049,70.119,54.859,68.731,54.859,68.731z"/>
</svg>
