<?xml version="1.0" encoding="utf-8"?>
<!-- Generator: Adobe Illustrator 15.0.0, SVG Export Plug-In . SVG Version: 6.00 Build 0)  -->
<!DOCTYPE svg PUBLIC "-//W3C//DTD SVG 1.1//EN" "http://www.w3.org/Graphics/SVG/1.1/DTD/svg11.dtd">
<svg version="1.1" id="Layer_1" xmlns="http://www.w3.org/2000/svg" xmlns:xlink="http://www.w3.org/1999/xlink" x="0px" y="0px"
	 width="139px" height="210px" viewBox="0 0 139 210" enable-background="new 0 0 139 210" xml:space="preserve">
<path fill="#F3AC3E" d="M124.213,170.744c0,21.551-17.472,39.024-39.024,39.024H54.584c-21.554,0-39.025-17.474-39.025-39.024v-2.76
	c0-21.553,17.472-39.024,39.025-39.024h30.604c21.553,0,39.024,17.472,39.024,39.024V170.744z"/>
<path fill="#E29A27" d="M85.188,128.96H69.887v80.809h15.302c21.552,0,39.023-17.474,39.023-39.024v-2.76
	C124.212,146.432,106.74,128.96,85.188,128.96"/>
<path fill="#E8AD86" d="M88.009,137.009c0.01,12.1-18.104,24.112-18.104,24.112s-18.133-11.984-18.143-24.087
	c-0.009-12.104,7.78-15.306,18.107-15.313C80.199,121.713,88.001,124.904,88.009,137.009"/>
<path fill="#F7B78F" d="M85.337,133.781c0,8.535-6.918,15.451-15.45,15.451c-8.534,0-15.451-6.916-15.451-15.451v-24.119
	c0-8.534,6.917-15.45,15.451-15.45c8.532,0,15.45,6.917,15.45,15.45V133.781z"/>
<path fill="#E8AD86" d="M69.886,94.212c-8.533,0-15.45,6.917-15.45,15.45v13.088c4.454,1.569,9.754,2.48,15.45,2.48
	c5.695,0,10.997-0.911,15.451-2.48v-13.088C85.337,101.128,78.418,94.212,69.886,94.212"/>
<path fill="#604118" d="M124.213,74.231c0,0-4,20.591-17.881,26.143c-1.28-4.632,9.916-55.355,17.242-51.581
	C123.916,51.677,124.896,71.842,124.213,74.231"/>
<path fill="#F7B78F" d="M122.413,63.684c0,31.683-25.685,57.367-57.367,57.367c-31.684,0-57.367-25.684-57.367-57.367
	c0-31.682,25.683-57.366,57.367-57.366C96.729,6.318,122.413,32.002,122.413,63.684"/>
<path fill="#F7B78F" d="M138.535,63.684c0,6.631-5.376,12.008-12.008,12.008c-6.63,0-12.007-5.377-12.007-12.008
	c0-6.63,5.377-12.006,12.007-12.006C133.159,51.677,138.535,57.053,138.535,63.684"/>
<path fill="#FFFFFF" d="M90.707,77.016c0,15.651-12.687,28.338-28.338,28.338c-15.651,0-28.337-12.687-28.337-28.338H90.707z"/>
<path fill="#272626" d="M34.488,57.4c-3.549,0-6.427,2.877-6.427,6.428c0,3.548,2.878,6.426,6.427,6.426
	c3.55,0,6.427-2.877,6.427-6.426C40.915,60.278,38.038,57.4,34.488,57.4"/>
<path fill="#272626" d="M86.923,57.4c-3.548,0-6.427,2.877-6.427,6.428c0,3.548,2.879,6.426,6.427,6.426
	c3.55,0,6.428-2.877,6.428-6.426C93.351,60.278,90.473,57.4,86.923,57.4"/>
<path fill="#604118" d="M100.957,33.896c0,0,14.942,20.102,23.075,18.664C121.54,19.772,101.243,0.231,65.037,0.231
	c-29.743,0-37.782,10.566-62.02,1.942C-15.502,77.016,71.829,58.858,100.957,33.896"/>
<polygon fill="#A64A34" points="61.735,146.896 69.905,161.121 52.581,150.62 "/>
<polygon fill="#F15E33" points="54.436,124.067 44.304,130.331 49.37,162.938 61.735,146.896 "/>
<polygon fill="#A64A34" points="78.058,146.896 69.888,161.121 87.21,150.62 "/>
<polygon fill="#F15E33" points="85.356,124.067 95.487,130.331 90.421,162.938 78.058,146.896 "/>
</svg>
