<?xml version="1.0" encoding="utf-8"?>
<!-- Generator: Adobe Illustrator 15.0.0, SVG Export Plug-In . SVG Version: 6.00 Build 0)  -->
<!DOCTYPE svg PUBLIC "-//W3C//DTD SVG 1.1//EN" "http://www.w3.org/Graphics/SVG/1.1/DTD/svg11.dtd">
<svg version="1.1" id="Layer_1" xmlns="http://www.w3.org/2000/svg" xmlns:xlink="http://www.w3.org/1999/xlink" x="0px" y="0px"
	 width="315px" height="120px" viewBox="0 0 315 120" enable-background="new 0 0 315 120" xml:space="preserve">
<g id="Elements">
	<g>
		<g id="shadow">
			<g opacity="0.25">
				<path opacity="0" fill-rule="evenodd" clip-rule="evenodd" fill="#010101" d="M299.408,23.52L3.266,10.399
					c-2.405-0.105-3.688,2.124-2.893,5.09H0.366c0.019,0.063,0.041,0.133,0.06,0.196c0.012,0.038,0.018,0.071,0.03,0.109l0.003,0
					c0.141,0.468,0.284,0.941,0.441,1.446l19.013,61.539l-0.026-0.001l2.624,8.555c1.04,3.397,4.798,6.306,8.346,6.463l57.888,2.564
					l-0.093,2.099c-0.406,9.183,6.705,16.954,15.887,17.361l84.229,3.73c9.18,0.407,16.955-6.705,17.36-15.887l0.093-2.1
					l56.173,2.489c3.55,0.158,7.599-2.386,9.001-5.65l3.566-8.323l0.035,0.002l26.205-61.069l0.534-1.198
					C302.646,25.873,301.752,23.624,299.408,23.52z"/>
				<path opacity="0.0625" fill-rule="evenodd" clip-rule="evenodd" fill="#010101" d="M300.217,22.837L4.074,9.716
					c-2.405-0.105-3.688,2.124-2.893,5.09H1.174c0.019,0.063,0.04,0.133,0.06,0.196c0.012,0.038,0.018,0.071,0.03,0.109l0.003,0
					c0.141,0.468,0.284,0.941,0.441,1.446l19.013,61.54l-0.026-0.001l2.624,8.555c1.04,3.397,4.798,6.305,8.346,6.462l57.888,2.564
					l-0.093,2.1c-0.406,9.182,6.705,16.953,15.887,17.361l84.229,3.73c9.18,0.406,16.955-6.706,17.36-15.887l0.093-2.1l56.173,2.489
					c3.55,0.158,7.599-2.386,9.001-5.651l3.566-8.322l0.035,0.002l26.205-61.069l0.534-1.198
					C303.454,25.19,302.561,22.941,300.217,22.837z"/>
				<path opacity="0.125" fill-rule="evenodd" clip-rule="evenodd" fill="#010101" d="M301.025,22.154L4.883,9.033
					c-2.405-0.105-3.688,2.124-2.893,5.09H1.983c0.018,0.063,0.041,0.133,0.06,0.196c0.011,0.038,0.018,0.071,0.029,0.109l0.003,0
					c0.141,0.468,0.284,0.941,0.441,1.446L21.53,77.412l-0.026-0.001l2.624,8.555c1.04,3.397,4.798,6.306,8.346,6.463l57.888,2.564
					l-0.093,2.099c-0.406,9.183,6.705,16.954,15.888,17.361l84.229,3.73c9.18,0.407,16.955-6.705,17.36-15.887l0.093-2.1
					l56.173,2.489c3.55,0.158,7.599-2.386,9.001-5.65l3.566-8.323l0.035,0.002l26.205-61.069l0.534-1.198
					C304.263,24.507,303.369,22.258,301.025,22.154z"/>
				<path opacity="0.1875" fill-rule="evenodd" clip-rule="evenodd" fill="#010101" d="M301.833,21.471L5.691,8.35
					c-2.405-0.105-3.688,2.124-2.893,5.09H2.791c0.019,0.063,0.041,0.133,0.06,0.196c0.011,0.037,0.018,0.071,0.029,0.108l0.003,0
					c0.141,0.468,0.284,0.941,0.441,1.446l19.014,61.54l-0.026-0.001l2.624,8.555c1.04,3.396,4.798,6.305,8.346,6.462l57.888,2.565
					l-0.093,2.098c-0.406,9.183,6.705,16.954,15.887,17.362l84.229,3.73c9.18,0.407,16.954-6.706,17.36-15.888l0.093-2.099
					l56.173,2.489c3.549,0.158,7.598-2.387,9.001-5.65l3.566-8.324l0.035,0.002l26.205-61.068l0.534-1.197
					C305.071,23.824,304.178,21.575,301.833,21.471z"/>
				<path opacity="0.25" fill-rule="evenodd" clip-rule="evenodd" fill="#010101" d="M302.642,20.788L6.5,7.667
					c-2.405-0.105-3.688,2.124-2.893,5.09H3.6c0.019,0.063,0.04,0.133,0.06,0.196c0.011,0.037,0.018,0.071,0.03,0.108l0.003,0
					c0.141,0.468,0.284,0.941,0.441,1.446l19.013,61.539l-0.026-0.001l2.624,8.555c1.041,3.397,4.798,6.306,8.347,6.463
					l57.888,2.564l-0.093,2.099c-0.406,9.183,6.705,16.954,15.887,17.361l84.229,3.73c9.18,0.407,16.954-6.705,17.359-15.887
					l0.094-2.1l56.172,2.489c3.55,0.158,7.599-2.386,9.002-5.65l3.566-8.323l0.035,0.002l26.205-61.069l0.533-1.197
					C305.879,23.141,304.986,20.892,302.642,20.788z"/>
				<path opacity="0.3125" fill-rule="evenodd" clip-rule="evenodd" fill="#010101" d="M303.45,20.105L7.308,6.984
					c-2.405-0.105-3.688,2.124-2.893,5.09H4.408c0.019,0.063,0.04,0.133,0.06,0.196c0.011,0.037,0.018,0.071,0.029,0.108l0.004,0
					c0.141,0.468,0.284,0.941,0.441,1.446l19.013,61.539l-0.026-0.001l2.624,8.555c1.04,3.397,4.798,6.305,8.347,6.462l57.887,2.564
					l-0.092,2.1c-0.406,9.182,6.705,16.953,15.887,17.361l84.229,3.73c9.179,0.406,16.954-6.706,17.359-15.887l0.093-2.1
					l56.173,2.489c3.55,0.158,7.599-2.386,9.001-5.651l3.566-8.322l0.035,0.002l26.205-61.069l0.534-1.197
					C306.688,22.458,305.794,20.208,303.45,20.105z"/>
				<path opacity="0.375" fill-rule="evenodd" clip-rule="evenodd" fill="#010101" d="M304.259,19.422L8.117,6.301
					c-2.405-0.105-3.688,2.124-2.893,5.09H5.217c0.019,0.063,0.04,0.133,0.06,0.196c0.012,0.037,0.018,0.071,0.029,0.108l0.004,0
					c0.141,0.468,0.284,0.941,0.441,1.446L24.764,74.68l-0.026-0.001l2.624,8.555c1.04,3.397,4.798,6.306,8.347,6.463l57.887,2.564
					l-0.092,2.099c-0.406,9.183,6.705,16.954,15.887,17.361l84.229,3.73c9.179,0.407,16.954-6.705,17.359-15.887l0.093-2.1
					l56.173,2.489c3.55,0.158,7.598-2.386,9.001-5.65l3.566-8.323l0.035,0.002l26.205-61.069l0.534-1.197
					C307.496,21.774,306.603,19.525,304.259,19.422z"/>
				<path opacity="0.4375" fill-rule="evenodd" clip-rule="evenodd" fill="#010101" d="M305.067,18.739L8.925,5.618
					c-2.405-0.105-3.688,2.124-2.894,5.09H6.025c0.018,0.063,0.04,0.133,0.06,0.196c0.011,0.037,0.018,0.071,0.029,0.108l0.003,0
					c0.141,0.468,0.284,0.941,0.441,1.446l19.013,61.539l-0.026-0.001l2.624,8.555c1.041,3.396,4.798,6.305,8.347,6.462
					l57.888,2.565l-0.093,2.098c-0.406,9.183,6.705,16.954,15.887,17.362l84.229,3.73c9.179,0.407,16.954-6.706,17.359-15.888
					l0.093-2.099l56.173,2.489c3.55,0.158,7.598-2.387,9.001-5.65l3.566-8.324l0.035,0.002L306.86,24.23l0.534-1.197
					C308.305,21.091,307.411,18.842,305.067,18.739z"/>
				<path opacity="0.5" fill-rule="evenodd" clip-rule="evenodd" fill="#010101" d="M305.875,18.056L9.733,4.935
					c-2.405-0.105-3.688,2.124-2.893,5.09H6.834c0.018,0.063,0.04,0.133,0.06,0.196c0.011,0.037,0.018,0.071,0.029,0.108
					l0.003-0.001c0.141,0.469,0.284,0.941,0.441,1.447l19.014,61.54l-0.026-0.002l2.624,8.555c1.041,3.397,4.798,6.305,8.347,6.463
					l57.887,2.564l-0.092,2.099c-0.406,9.183,6.705,16.954,15.887,17.362l84.229,3.73c9.179,0.406,16.953-6.707,17.359-15.888
					l0.093-2.099l56.173,2.488c3.549,0.158,7.598-2.386,9.001-5.65l3.566-8.323l0.035,0.002l26.205-61.069l0.534-1.196
					C309.113,20.408,308.22,18.159,305.875,18.056z"/>
				<path opacity="0.5625" fill-rule="evenodd" clip-rule="evenodd" fill="#010101" d="M306.684,17.373L10.542,4.251
					c-2.405-0.105-3.688,2.124-2.893,5.09H7.642c0.019,0.063,0.041,0.133,0.06,0.197C7.713,9.574,7.72,9.609,7.731,9.646l0.004,0
					c0.141,0.469,0.284,0.941,0.441,1.447l19.014,61.539l-0.026-0.001l2.624,8.555c1.04,3.397,4.798,6.305,8.347,6.462l57.887,2.564
					l-0.092,2.1c-0.406,9.182,6.705,16.953,15.887,17.361l84.229,3.73c9.18,0.406,16.954-6.706,17.36-15.887l0.093-2.1l56.173,2.489
					c3.549,0.158,7.598-2.386,9.001-5.651l3.566-8.322l0.035,0.002l26.205-61.07l0.534-1.196
					C309.922,19.725,309.028,17.476,306.684,17.373z"/>
				<path opacity="0.625" fill-rule="evenodd" clip-rule="evenodd" fill="#010101" d="M307.492,16.689L11.351,3.568
					c-2.405-0.105-3.688,2.124-2.894,5.09H8.451c0.018,0.063,0.041,0.133,0.06,0.197C8.521,8.891,8.528,8.926,8.54,8.962l0.003,0
					c0.141,0.469,0.284,0.941,0.441,1.447l19.014,61.54l-0.026-0.001l2.623,8.555c1.041,3.396,4.798,6.304,8.347,6.461l57.888,2.565
					l-0.093,2.099c-0.406,9.182,6.705,16.953,15.888,17.362l84.229,3.73c9.18,0.406,16.954-6.707,17.36-15.888l0.093-2.099
					l56.173,2.489c3.549,0.158,7.598-2.387,9.001-5.651l3.566-8.323l0.035,0.002l26.205-61.069l0.534-1.196
					C310.73,19.042,309.837,16.793,307.492,16.689z"/>
				<path opacity="0.6875" fill-rule="evenodd" clip-rule="evenodd" fill="#010101" d="M308.301,16.006L12.159,2.885
					C9.754,2.78,8.471,5.009,9.266,7.975H9.259C9.277,8.037,9.3,8.107,9.319,8.172C9.33,8.208,9.337,8.243,9.348,8.279l0.003,0
					C9.493,8.748,9.636,9.22,9.793,9.726l19.014,61.539l-0.027-0.001l2.624,8.555c1.041,3.396,4.798,6.305,8.347,6.462l57.888,2.565
					l-0.093,2.098c-0.406,9.183,6.705,16.954,15.887,17.362l84.229,3.73c9.18,0.407,16.954-6.706,17.36-15.888l0.093-2.099
					l56.173,2.489c3.549,0.158,7.597-2.387,9.001-5.65l3.566-8.324l0.035,0.002l26.205-61.069l0.534-1.196
					C311.539,18.358,310.646,16.11,308.301,16.006z"/>
				<path opacity="0.75" fill-rule="evenodd" clip-rule="evenodd" fill="#010101" d="M309.109,15.323L12.968,2.202
					c-2.405-0.105-3.688,2.124-2.894,5.09h-0.006c0.018,0.063,0.041,0.133,0.06,0.197c0.011,0.036,0.018,0.071,0.028,0.107l0.004,0
					c0.141,0.469,0.284,0.941,0.441,1.447l19.014,61.539l-0.027-0.001l2.624,8.555c1.04,3.396,4.798,6.304,8.347,6.461l57.887,2.565
					l-0.092,2.099c-0.406,9.182,6.705,16.953,15.887,17.362l84.229,3.73c9.179,0.406,16.954-6.707,17.36-15.888l0.092-2.099
					l56.174,2.489c3.549,0.158,7.597-2.387,9-5.651l3.566-8.323l0.035,0.002l26.205-61.069l0.535-1.196
					C312.348,17.675,311.453,15.427,309.109,15.323z"/>
				<path opacity="0.8125" fill-rule="evenodd" clip-rule="evenodd" fill="#010101" d="M309.918,14.641L13.776,1.519
					c-2.405-0.105-3.688,2.124-2.894,5.09h-0.006c0.018,0.063,0.04,0.133,0.06,0.197c0.011,0.036,0.018,0.071,0.029,0.107l0.004,0
					c0.141,0.469,0.284,0.941,0.441,1.447l19.013,61.539l-0.026-0.001l2.623,8.555c1.041,3.397,4.798,6.305,8.347,6.462
					l57.887,2.564l-0.092,2.1c-0.406,9.182,6.705,16.953,15.887,17.361l84.229,3.73c9.179,0.406,16.954-6.706,17.359-15.887
					l0.093-2.1l56.173,2.489c3.55,0.158,7.598-2.386,9.001-5.651l3.566-8.322l0.035,0.002l26.205-61.07l0.534-1.196
					C313.155,16.992,312.262,14.744,309.918,14.641z"/>
				<path opacity="0.875" fill-rule="evenodd" clip-rule="evenodd" fill="#010101" d="M310.726,13.958L14.584,0.835
					c-2.405-0.105-3.688,2.124-2.894,5.09h-0.006c0.019,0.063,0.04,0.133,0.06,0.198c0.011,0.036,0.018,0.07,0.029,0.107l0.004,0
					c0.141,0.469,0.284,0.941,0.441,1.447l19.014,61.539l-0.027-0.001l2.624,8.555c1.041,3.396,4.798,6.304,8.347,6.461
					l57.887,2.565l-0.092,2.099c-0.406,9.182,6.705,16.953,15.887,17.362l84.229,3.73c9.179,0.406,16.953-6.707,17.359-15.888
					l0.093-2.099l56.173,2.489c3.549,0.158,7.597-2.387,9.001-5.651l3.566-8.323l0.035,0.002l26.205-61.069l0.534-1.196
					C313.964,16.309,313.07,14.061,310.726,13.958z"/>
				<path opacity="0.9375" fill-rule="evenodd" clip-rule="evenodd" fill="#010101" d="M311.534,13.274L15.393,0.152
					c-2.405-0.105-3.688,2.124-2.894,5.09h-0.006c0.018,0.063,0.04,0.133,0.06,0.198c0.011,0.036,0.018,0.07,0.028,0.107l0.004,0
					c0.141,0.469,0.284,0.941,0.441,1.447l19.014,61.539l-0.027-0.001l2.623,8.555c1.041,3.396,4.798,6.305,8.347,6.462
					l57.887,2.565l-0.092,2.098c-0.406,9.183,6.705,16.954,15.887,17.362l84.229,3.73c9.179,0.407,16.953-6.706,17.359-15.888
					l0.093-2.099l56.173,2.489c3.549,0.158,7.597-2.387,9.001-5.65l3.566-8.324l0.035,0.002l26.205-61.069l0.534-1.196
					C314.772,15.626,313.879,13.377,311.534,13.274z"/>
				<path fill-rule="evenodd" clip-rule="evenodd" fill="#010101" d="M312.343,12.591L16.202-0.531
					c-2.405-0.105-3.688,2.124-2.894,5.09h-0.006c0.018,0.063,0.04,0.133,0.06,0.198c0.011,0.036,0.018,0.07,0.028,0.107l0.004,0
					c0.141,0.469,0.284,0.941,0.441,1.447L32.849,67.85l-0.027-0.001l2.623,8.555c1.041,3.396,4.798,6.304,8.347,6.461l57.887,2.565
					l-0.092,2.099c-0.406,9.182,6.705,16.953,15.887,17.362l84.229,3.73c9.179,0.406,16.953-6.707,17.359-15.888l0.093-2.099
					l56.173,2.489c3.549,0.158,7.597-2.387,9.001-5.651l3.566-8.323l0.035,0.002l26.205-61.069l0.534-1.196
					C315.581,14.943,314.688,12.694,312.343,12.591z"/>
			</g>
		</g>
		<g id="screen">
			<path fill-rule="evenodd" clip-rule="evenodd" fill="#FFFFFF" d="M219.063,92.733c-0.406,9.181-8.181,16.294-17.359,15.888
				l-84.229-3.73c-9.182-0.409-16.293-8.181-15.887-17.362l0.185-4.197c0.408-9.184,8.179-16.294,17.361-15.888l84.23,3.732
				c9.179,0.407,16.293,8.177,15.886,17.36L219.063,92.733z"/>
			<path fill-rule="evenodd" clip-rule="evenodd" fill="#050809" d="M13.302,4.559c0.167,0.56,0.343,1.139,0.534,1.751L32.849,67.85
				l255.083,11.302l26.287-61.26L13.302,4.559z"/>
			<path fill-rule="evenodd" clip-rule="evenodd" fill="#576774" d="M314.092,18.187l0.579-1.301
				c0.91-1.943,0.017-4.192-2.328-4.295L16.202-0.531c-2.488-0.108-3.782,2.276-2.812,5.395L314.092,18.187z"/>
			<polygon fill-rule="evenodd" clip-rule="evenodd" fill="#72B2C8" points="299.822,24.513 279.898,73.643 41.538,63.082 
				25.856,12.374 			"/>
			<path fill-rule="evenodd" clip-rule="evenodd" fill="#E7E7E7" d="M32.822,67.849l2.623,8.555
				c1.041,3.396,4.798,6.304,8.347,6.461l231.537,10.26c3.549,0.158,7.597-2.387,9.001-5.651l3.566-8.323L32.822,67.849z"/>
		</g>
		<g>
		</g>
	</g>
</g>
</svg>
