<?xml version="1.0" encoding="utf-8"?>
<!-- Generator: Adobe Illustrator 15.0.0, SVG Export Plug-In . SVG Version: 6.00 Build 0)  -->
<!DOCTYPE svg PUBLIC "-//W3C//DTD SVG 1.1//EN" "http://www.w3.org/Graphics/SVG/1.1/DTD/svg11.dtd">
<svg version="1.1" id="Layer_1" xmlns="http://www.w3.org/2000/svg" xmlns:xlink="http://www.w3.org/1999/xlink" x="0px" y="0px"
	 width="44px" height="62px" viewBox="0 0 44 62" enable-background="new 0 0 44 62" xml:space="preserve">
<g id="Elements">
	<g>
		<g id="shadow">
			<g opacity="0.25">
				<path opacity="0" fill="#010101" d="M32.775,48.021l-2.951-28.041c-0.678-6.45-6.463-11.137-12.916-10.458L13.799,9.85
					l-3.118,0.327C4.232,10.854-0.454,16.642,0.226,23.091l2.95,28.044c0.677,6.448,6.463,11.13,12.914,10.451l3.118-0.327
					l3.108-0.328C28.77,60.253,33.453,54.471,32.775,48.021z"/>
				<path opacity="0.0625" fill="#010101" d="M33.426,47.464l-2.951-28.041c-0.678-6.451-6.463-11.137-12.916-10.458l-3.109,0.328
					L11.332,9.62C4.883,10.297,0.197,16.085,0.876,22.535l2.95,28.043c0.677,6.448,6.463,11.13,12.914,10.451l3.118-0.327
					l3.108-0.328C29.42,59.696,34.104,53.914,33.426,47.464z"/>
				<path opacity="0.125" fill="#010101" d="M34.076,46.908l-2.951-28.042c-0.678-6.45-6.463-11.137-12.917-10.458L15.1,8.737
					l-3.118,0.327C5.533,9.741,0.847,15.529,1.526,21.978l2.95,28.044c0.677,6.448,6.463,11.13,12.914,10.451l3.118-0.328
					l3.109-0.327C30.07,59.141,34.754,53.357,34.076,46.908z"/>
				<path opacity="0.1875" fill="#010101" d="M34.726,46.352l-2.95-28.041c-0.678-6.45-6.464-11.137-12.917-10.458L15.75,8.18
					l-3.118,0.328C6.183,9.185,1.497,14.973,2.176,21.422l2.95,28.044c0.677,6.448,6.463,11.13,12.914,10.451l3.118-0.327
					l3.108-0.328C30.72,58.584,35.403,52.802,34.726,46.352z"/>
				<path opacity="0.25" fill="#010101" d="M35.376,45.795l-2.95-28.041c-0.678-6.45-6.464-11.137-12.917-10.458L16.4,7.624
					l-3.118,0.327C6.833,8.628,2.147,14.416,2.826,20.865l2.95,28.044c0.677,6.448,6.463,11.13,12.914,10.451l3.118-0.327
					l3.108-0.328C31.37,58.027,36.054,52.245,35.376,45.795z"/>
				<path opacity="0.3125" fill="#010101" d="M36.026,45.239l-2.95-28.042C32.397,10.747,26.612,6.061,20.159,6.74L17.05,7.067
					l-3.117,0.327C7.483,8.072,2.797,13.86,3.477,20.309l2.95,28.044c0.677,6.448,6.463,11.13,12.914,10.451l3.118-0.328
					l3.108-0.327C32.021,57.472,36.704,51.688,36.026,45.239z"/>
				<path opacity="0.375" fill="#010101" d="M36.677,44.683l-2.95-28.042c-0.679-6.45-6.464-11.137-12.917-10.458L17.7,6.511
					l-3.118,0.327C8.133,7.516,3.447,13.303,4.127,19.753l2.949,28.044c0.678,6.448,6.464,11.13,12.914,10.451l3.117-0.328
					l3.109-0.327C32.67,56.915,37.354,51.132,36.677,44.683z"/>
				<path opacity="0.4375" fill="#010101" d="M37.327,44.127l-2.95-28.042c-0.679-6.45-6.464-11.137-12.918-10.458L18.35,5.955
					l-3.118,0.328C8.783,6.959,4.098,12.747,4.777,19.196l2.95,28.044c0.677,6.448,6.463,11.13,12.914,10.451l3.118-0.328
					l3.109-0.326C33.32,56.358,38.005,50.575,37.327,44.127z"/>
				<path opacity="0.5" fill="#010101" d="M37.977,43.57l-2.949-28.042c-0.679-6.45-6.465-11.137-12.918-10.458L19,5.398
					l-3.117,0.327C9.434,6.403,4.748,12.19,5.427,18.64l2.95,28.043c0.677,6.449,6.463,11.131,12.914,10.451l3.118-0.328
					l3.109-0.326C33.971,55.803,38.654,50.02,37.977,43.57z"/>
				<path opacity="0.5625" fill="#010101" d="M38.627,43.014l-2.95-28.042C34.999,8.521,29.213,3.835,22.76,4.515L19.65,4.842
					l-3.117,0.327C10.084,5.847,5.398,11.634,6.078,18.084l2.949,28.044c0.678,6.448,6.464,11.13,12.914,10.451l3.118-0.328
					l3.108-0.327C34.621,55.246,39.305,49.463,38.627,43.014z"/>
				<path opacity="0.625" fill="#010101" d="M39.277,42.458l-2.95-28.042C35.649,7.965,29.863,3.279,23.41,3.958L20.3,4.285
					l-3.117,0.328C10.734,5.29,6.048,11.078,6.728,17.527l2.95,28.044c0.677,6.448,6.463,11.13,12.914,10.451l3.118-0.328
					l3.108-0.326C35.271,54.689,39.955,48.906,39.277,42.458z"/>
				<path opacity="0.6875" fill="#010101" d="M39.928,41.901l-2.95-28.042C36.3,7.409,30.514,2.723,24.06,3.402l-3.109,0.327
					l-3.118,0.328C11.384,4.734,6.698,10.521,7.378,16.971l2.949,28.043c0.678,6.448,6.464,11.13,12.914,10.451l3.117-0.328
					l3.109-0.326C35.921,54.133,40.605,48.35,39.928,41.901z"/>
				<path opacity="0.75" fill="#010101" d="M40.578,41.346l-2.95-28.042C36.949,6.853,31.164,2.167,24.71,2.846l-3.109,0.327
					L18.483,3.5C12.034,4.178,7.349,9.965,8.028,16.415l2.949,28.044c0.678,6.448,6.464,11.13,12.914,10.451l3.117-0.329
					l3.109-0.325C36.571,53.577,41.256,47.793,40.578,41.346z"/>
				<path opacity="0.8125" fill="#010101" d="M41.229,40.789l-2.95-28.042C37.6,6.296,31.814,1.61,25.36,2.289l-3.109,0.327
					l-3.117,0.327C12.685,3.621,7.999,9.409,8.678,15.858l2.949,28.044c0.678,6.448,6.464,11.13,12.915,10.451l3.117-0.329
					l3.109-0.325C37.222,53.021,41.906,47.236,41.229,40.789z"/>
				<path opacity="0.875" fill="#010101" d="M41.878,40.232L38.929,12.19C38.25,5.74,32.464,1.054,26.01,1.733L22.901,2.06
					l-3.117,0.328C13.334,3.065,8.649,8.853,9.329,15.302l2.949,28.043c0.678,6.448,6.464,11.13,12.914,10.451l3.117-0.328
					l3.109-0.326C37.871,52.464,42.556,46.681,41.878,40.232z"/>
				<path opacity="0.9375" fill="#010101" d="M42.528,39.677l-2.949-28.043C38.9,5.184,33.114,0.497,26.66,1.176l-3.109,0.327
					l-3.117,0.328C13.984,2.508,9.299,8.296,9.979,14.746l2.949,28.044c0.678,6.448,6.464,11.13,12.914,10.451l3.117-0.329
					l3.109-0.325C38.521,51.908,43.206,46.124,42.528,39.677z"/>
				<path fill="#010101" d="M43.179,39.12l-2.949-28.042C39.551,4.627,33.765-0.059,27.311,0.62l-3.109,0.327l-3.117,0.328
					C14.635,1.952,9.949,7.74,10.629,14.189l2.949,28.044c0.678,6.448,6.464,11.13,12.914,10.451l3.117-0.329l3.109-0.325
					C39.172,51.352,43.856,45.567,43.179,39.12z"/>
			</g>
		</g>
		<g id="mouse">
			<g>
				<path fill="#FFFFFF" d="M27.311,0.62c6.454-0.679,12.24,4.007,12.919,10.458l2.949,28.042c0.678,6.447-4.007,12.231-10.46,12.91
					l-3.109,0.325L24.201,0.947L27.311,0.62z"/>
				<path fill="#E7E7E7" d="M21.084,1.274l3.117-0.328l5.408,51.409l-3.117,0.329c-6.45,0.679-12.236-4.003-12.914-10.451
					l-2.949-28.044C9.949,7.74,14.635,1.952,21.084,1.274z"/>
			</g>
			<g>
				<path fill="#103754" d="M29.401,12.94l0.265,2.512c0.226,2.151-1.345,4.079-3.484,4.31L25.097,9.456
					C27.239,9.23,29.175,10.791,29.401,12.94z"/>
				<path fill="#0F303F" d="M25.097,9.456L25.097,9.456l1.085,10.305l0,0c-2.157,0.226-4.08-1.339-4.306-3.49l-0.266-2.512
					C21.385,11.61,22.941,9.682,25.097,9.456z"/>
			</g>
		</g>
		<g>
		</g>
	</g>
</g>
</svg>
