<?xml version="1.0" encoding="utf-8"?>
<!-- Generator: Adobe Illustrator 15.0.0, SVG Export Plug-In . SVG Version: 6.00 Build 0)  -->
<!DOCTYPE svg PUBLIC "-//W3C//DTD SVG 1.1//EN" "http://www.w3.org/Graphics/SVG/1.1/DTD/svg11.dtd">
<svg version="1.1" id="Layer_1" xmlns="http://www.w3.org/2000/svg" xmlns:xlink="http://www.w3.org/1999/xlink" x="0px" y="0px"
	 width="115px" height="210px" viewBox="0 0 115 210" enable-background="new 0 0 115 210" xml:space="preserve">
<path opacity="0.1" fill="#010101" enable-background="new    " d="M-26.802,209.607c0,0,37.707,13.668,61.913,6.416
	c24.208-7.252,26.409-76.748,3.787-124.993c0.516-0.229,1.01-0.447,1.518-0.668l-3.9-8.977l4.219-1.834
	c-5.425-1.224-13.808-9.937-18.619-16.644c-5.106-7.11-9.363-16.946-15.586-23.555c-6.221-6.609-0.42-9.715,0.504-8.607
	c0.924,1.109,15.397,14.344,15.397,14.344S11.216,29.383,6.009,24.676c-5.205-4.705-4.232-8.633-2.301-9.725
	c1.934-1.094,5.234-1.27,8.127,2.279c-2.324-3.336-3.869-7.363-1.76-8.982c2.109-1.621,4.713-1.113,8.064,2.992
	C16.746,9.238,14.2,5.908,17.45,5.052c3.254-0.854,6.147,2.922,6.147,2.922l-0.029-1.465c4.158-0.762,10.158,5.994,17.5,12.271
	c7.34,6.277,11.143,4.623,13.047,15.297c1.752,9.803,3.797,34.002,4.118,37.871l4.184-1.816l4.199,9.666
	c1.152-0.416,1.809-0.641,1.809-0.641s35.695,77.897,28,113.53c-7.699,35.629-32.234,78.666-32.234,78.666
	S7.63,291.893-15.763,294.77c-0.393,0.049-0.775,0.066-1.148,0.064c-0.117,0-0.23-0.014-0.346-0.021
	c-0.252-0.012-0.504-0.027-0.748-0.063c-0.129-0.018-0.254-0.049-0.383-0.074c-0.223-0.043-0.441-0.094-0.656-0.156
	c-0.125-0.037-0.25-0.08-0.373-0.123c-0.211-0.076-0.418-0.16-0.619-0.252c-0.115-0.053-0.229-0.105-0.34-0.166
	c-0.211-0.107-0.414-0.229-0.613-0.357c-0.098-0.063-0.195-0.121-0.289-0.188c-0.225-0.156-0.439-0.332-0.654-0.514
	c-0.063-0.053-0.129-0.102-0.189-0.156c-0.564-0.506-1.092-1.096-1.584-1.768c-0.01-0.014-0.018-0.027-0.027-0.039
	c-0.232-0.318-0.455-0.654-0.672-1.008c-0.041-0.066-0.08-0.139-0.121-0.207c-0.184-0.309-0.363-0.625-0.535-0.957
	c-0.047-0.09-0.09-0.18-0.135-0.27c-0.166-0.328-0.326-0.666-0.48-1.018c-0.041-0.094-0.082-0.188-0.123-0.281
	c-0.158-0.369-0.311-0.748-0.457-1.141c-0.031-0.08-0.063-0.16-0.092-0.236c-0.164-0.445-0.322-0.902-0.473-1.373
	c-0.01-0.029-0.02-0.063-0.029-0.094c-0.5-1.564-0.932-3.271-1.299-5.094c0-0.004-0.002-0.008-0.002-0.012l0,0
	C-33.124,254.68-26.802,209.607-26.802,209.607z"/>
<rect x="41.028" y="71.542" transform="matrix(0.9172 -0.3985 0.3985 0.9172 -26.1187 28.3549)" fill="#F8FCFF" width="28.241" height="10.93"/>
<g>
	<path fill="#F3AC3E" d="M-23.292,205.848c0,0,37.705,13.67,61.911,6.414c24.207-7.25,26.41-76.746,3.789-124.994
		c16.984-7.559,29.523-11.871,29.523-11.871s35.696,77.898,28,113.531c-7.697,35.631-32.232,78.668-32.232,78.668
		S11.14,288.133-12.253,291.01C-35.646,293.885-23.292,205.848-23.292,205.848z"/>
	<path fill="#F15D33" d="M52.062,252.578c0,0,24.536-43.037,32.232-78.666c5.375-24.877-10.401-70.354-20.418-95.547
		c5.045-1.932,8.056-2.969,8.056-2.969s35.696,77.898,28,113.531c-7.697,35.632-32.232,78.669-32.232,78.669
		s-56.559,20.536-79.952,23.413c-6.652,0.816-10.412-5.727-12.391-15.5C0.327,271.357,52.062,252.578,52.062,252.578z"/>
</g>
<path fill="#E7B38A" d="M61.786,68.73c0,0-2.257-27.742-4.162-38.414c-1.906-10.672-5.707-9.018-13.049-15.297
	C37.233,8.744,31.233,1.988,27.077,2.75l0.029,1.463c0,0-2.895-3.775-6.146-2.92s-0.705,4.186,0.689,6.188
	c-3.354-4.105-5.957-4.615-8.066-2.994c-2.109,1.621-0.563,5.648,1.76,8.984c-2.891-3.551-6.191-3.373-8.125-2.279
	c-1.932,1.09-2.906,5.018,2.301,9.725S25.94,41.328,25.94,41.328S11.467,28.092,10.542,26.982c-0.924-1.107-6.723,2-0.502,8.609
	c6.223,6.609,10.48,16.443,15.584,23.555c5.105,7.115,14.231,16.494,19.577,16.789C58.598,70.119,61.786,68.73,61.786,68.73z"/>
</svg>
