<?xml version="1.0" standalone="no"?>
<!DOCTYPE svg PUBLIC "-//W3C//DTD SVG 1.1//EN" "http://www.w3.org/Graphics/SVG/1.1/DTD/svg11.dtd" >
<svg xmlns="http://www.w3.org/2000/svg" xmlns:xlink="http://www.w3.org/1999/xlink" version="1.1">
<metadata>
Created by FontForge 20170731 at Fri Feb 10 11:01:08 2023
 By Aleksey,,,
Copyright 1996 DoubleAlex Team. All rights reserved.
</metadata>
<defs>
<font id="CopperplateCyrillic-Bold" horiz-adv-x="1361" vert-adv-y="2048" >
  <font-face 
    font-family="Copperplate Cyrillic"
    font-weight="700"
    font-stretch="normal"
    units-per-em="2048"
    panose-1="0 0 0 0 0 0 0 0 0 0"
    ascent="1638"
    descent="-410"
    x-height="1198"
    cap-height="1434"
    bbox="-154 -508 3400 1878"
    underline-thickness="102"
    underline-position="-302"
    unicode-range="U+0020-2265"
  />
<missing-glyph horiz-adv-x="2048" 
 />
    <glyph glyph-name=".notdef" horiz-adv-x="2048" 
 />
    <glyph glyph-name=".null" horiz-adv-x="0" vert-adv-y="0" 
 />
    <glyph glyph-name="nonmarkingreturn" horiz-adv-x="682" 
 />
    <glyph glyph-name="space" unicode=" " horiz-adv-x="679" 
 />
    <glyph glyph-name="exclam" unicode="!" horiz-adv-x="907" 
d="M539 485v-39h-158v39q16 3 16 37q0 30 -37 345t-55 444q-6 44 -20.5 61.5t-44.5 22.5v39h426v-39q-19 -5 -31.5 -23.5t-18.5 -60.5q-19 -133 -56.5 -446.5t-37.5 -342.5q0 -34 17 -37zM291 152q0 71 50.5 120.5t119.5 49.5q68 0 118 -49.5t50 -120.5q0 -69 -49.5 -116.5
t-118.5 -47.5t-119.5 47.5t-50.5 116.5z" />
    <glyph glyph-name="quotedbl" unicode="&#x22;" horiz-adv-x="907" 
d="M768 1229l-47 -555q-7 -86 -55 -86q-49 0 -56 86l-47 555q-19 221 103 221t102 -221zM344 1229l-47 -555q-7 -86 -55 -86q-43 0 -58 86l-45 555q-19 221 103 221t102 -221z" />
    <glyph glyph-name="numbersign" unicode="#" 
d="M999 858l-41 -283h187v-153h-207l-61 -422h-166l59 422h-240l-59 -422h-174l59 422h-200v153h223l41 283h-203v152h223l62 424h174l-60 -424h236l61 424h168l-59 -424h184v-152h-207zM553 575h240l41 283h-240z" />
    <glyph glyph-name="dollar" unicode="$" 
d="M745 0v-279h-129v279q-87 3 -168 27t-128 50.5t-88 48t-58 21.5t-29 -4t-16.5 -9t-10 -11t-9.5 -8l-27 10l147 295l21 -12q0 -42 45.5 -82.5t108 -66.5t121.5 -42t91 -16v436q-71 9 -135 27.5t-126 51t-107.5 76t-73 107t-27.5 139.5q0 93 39.5 171t106 129t150 80.5
t173.5 31.5v190h129v-190q91 -13 186 -43t152 -54t64 -24q9 0 17.5 3t12.5 5.5t11.5 8t9.5 6.5l16 -13l-151 -272l-23 12q-7 75 -79 110.5t-216 51.5v-375q80 -16 146.5 -37.5t132.5 -57.5t111.5 -82.5t73.5 -115t28 -151.5q0 -186 -139.5 -304t-352.5 -118zM616 897v344
q-108 -3 -182 -49t-74 -113q0 -84 61.5 -123t194.5 -59zM745 608v-407q99 0 181 57.5t82 147.5q0 47 -24 83.5t-66.5 59.5t-82 36t-90.5 23z" />
    <glyph glyph-name="percent" unicode="%" horiz-adv-x="2420" 
d="M1339 291q0 201 138.5 336t339.5 135t339 -135t138 -336q0 -132 -63.5 -239t-172.5 -167.5t-241 -60.5t-241.5 60.5t-173 167.5t-63.5 239zM1559 291q0 -113 70 -182.5t188 -69.5t188 69.5t70 182.5t-70.5 183.5t-187.5 70.5t-187.5 -70.5t-70.5 -183.5zM125 1108
q0 201 138 336t339 135t339 -135t138 -336q0 -200 -138.5 -335.5t-338.5 -135.5t-338.5 135.5t-138.5 335.5zM344 1108q0 -113 70 -182.5t188 -69.5t188 69.5t70 182.5q0 114 -70 184t-188 70t-188 -70t-70 -184zM580 -176l1073 1755h174l-1073 -1755h-174z" />
    <glyph glyph-name="ampersand" unicode="&#x26;" horiz-adv-x="1513" 
d="M1307 1047h39v-404h-39q-6 37 -29 37q-37 0 -96.5 -117t-59.5 -157q0 -23 58.5 -86.5t93.5 -63.5q17 0 25.5 13.5t13.5 41.5h39v-323q-110 0 -208.5 46.5t-160.5 131.5q-71 -86 -167 -132t-208 -46q-133 0 -243 52.5t-177 156t-67 239.5q0 135 78 241.5t207 147.5
q-132 114 -132 275q0 162 108 256t271 94q158 0 268.5 -98t110.5 -254q0 -93 -52 -166.5t-124 -97.5q54 -33 90.5 -80.5t69.5 -116.5q67 220 229 338q5 4 20.5 15t21 16.5t12.5 16.5t8 24zM393 449q0 -100 65 -174t163 -74q100 0 164.5 74t64.5 174q0 101 -64.5 174
t-164.5 73q-99 0 -163.5 -73t-64.5 -174zM504 1092q0 -69 42.5 -117.5t106.5 -48.5q65 0 107.5 48.5t42.5 117.5t-42.5 117t-107.5 48q-64 0 -106.5 -48.5t-42.5 -116.5z" />
    <glyph glyph-name="quotesingle" unicode="'" horiz-adv-x="604" 
d="M406 1229l-46 -555q0 -1 -1.5 -11.5t-3 -16t-4 -16t-6.5 -16.5t-9.5 -13t-13 -10t-17.5 -3q-50 0 -57 86l-47 555q-5 25 -3 63t7.5 73t31.5 60t68 25q121 0 101 -221z" />
    <glyph glyph-name="parenleft" unicode="(" horiz-adv-x="1058" 
d="M817 1450l8 -49q-191 -125 -267.5 -324t-76.5 -518q0 -320 76.5 -517.5t267.5 -320.5l-8 -49q-262 103 -424 339t-162 548q0 311 162 549t424 342z" />
    <glyph glyph-name="parenright" unicode=")" horiz-adv-x="1058" 
d="M242 -328l-9 49q192 123 268.5 320.5t76.5 517.5q0 319 -77 518t-268 324l9 49q263 -104 424 -342t161 -549q0 -312 -161 -548.5t-424 -338.5z" />
    <glyph glyph-name="asterisk" unicode="*" 
d="M616 965v20l-393 29l76 243l338 -210l12 10l-98 377h260l-92 -377l10 -10l334 210l76 -243l-387 -29v-20l297 -246l-209 -148l-148 355h-22l-148 -355l-203 148z" />
    <glyph glyph-name="plus" unicode="+" horiz-adv-x="1634" 
d="M217 504v190h504v504h192v-504h504v-190h-504v-504h-192v504h-504z" />
    <glyph glyph-name="comma" unicode="," horiz-adv-x="679" 
d="M121 -389v88q113 40 194.5 119.5t81.5 181.5q-8 0 -25 -1t-26 -1q-90 0 -142 44.5t-52 115.5q0 91 51 143.5t143 52.5q89 0 152 -74t63 -176q0 -91 -36.5 -172t-99.5 -142t-139.5 -105.5t-164.5 -73.5z" />
    <glyph glyph-name="hyphen" unicode="-" horiz-adv-x="907" 
d="M131 713h643v-228h-643v228z" />
    <glyph glyph-name="period" unicode="." horiz-adv-x="679" 
d="M156 168q0 79 53.5 132.5t130.5 53.5q78 0 132 -53.5t54 -132.5q0 -77 -53.5 -128.5t-132.5 -51.5q-77 0 -130.5 51.5t-53.5 128.5z" />
    <glyph glyph-name="slash" unicode="/" horiz-adv-x="757" 
d="M633 1450h192l-696 -1462h-190z" />
    <glyph glyph-name="zero" unicode="0" 
d="M369 717q0 -252 83.5 -378t227.5 -126q145 0 229 126t84 378t-84 378t-229 126q-144 0 -227.5 -126t-83.5 -378zM96 717q0 216 69 381.5t202.5 258.5t312.5 93q180 0 314 -93.5t203 -258.5t69 -381q0 -217 -69.5 -381t-202.5 -256t-314 -92q-180 0 -312.5 92t-202 256
t-69.5 381z" />
    <glyph glyph-name="one" unicode="1" 
d="M551 1395v39h358v-39q-53 0 -53 -72v-1214q0 -70 53 -70v-39h-391v39q66 0 66 70v915q-120 -25 -127 -92h-37v342h37q0 -22 16.5 -29.5t46.5 -7.5q32 0 53 28t21 72q0 49 -43 58z" />
    <glyph glyph-name="two" unicode="2" 
d="M344 948l-22 -16l-224 229l23 21q8 -2 20 -2q14 0 33 17.5t52 51t63 56.5q99 78 197.5 111.5t232.5 33.5q198 0 322 -103.5t124 -287.5q0 -80 -33 -152.5t-88 -131.5t-123.5 -113t-144.5 -106t-144 -101.5t-129.5 -108.5t-94.5 -117h714q34 0 50 16t22 52h37v-342h-37
q-6 25 -21.5 35t-50.5 10h-909q-35 0 -50.5 -10t-21.5 -35h-37q4 141 50 259.5t115.5 200t153 151t166.5 126.5t151 112t110.5 121.5t42.5 141.5q0 72 -56.5 113t-152.5 41q-68 0 -134 -26t-111 -63.5t-73 -78.5t-28 -72q0 -21 6 -33z" />
    <glyph glyph-name="three" unicode="3" 
d="M115 115l-39 20l157 305l23 -10q0 -67 66 -124.5t147.5 -86.5t146.5 -29q86 0 159 27.5t120 84t47 130.5q0 107 -86 175.5t-211 68.5q-105 0 -110 -76h-39v342h39q3 -41 36 -58.5t78 -17.5q119 0 176.5 54.5t57.5 144.5q0 176 -221 176q-65 0 -124 -19.5t-96 -47
t-58.5 -56.5t-21.5 -51q1 -6 3 -13q1 -9 7 -15q3 -4 5 -7l-23 -26l-233 235l20 23q2 -1 10 -4t13 -3q14 0 43 20t70 48.5t95 56.5t135 48t173 20q199 0 337 -104t138 -259q0 -107 -53.5 -181t-155.5 -140q125 -34 196.5 -128t71.5 -226q0 -183 -156.5 -303.5t-424.5 -120.5
q-190 0 -336 71q-32 16 -64 35.5t-48 30t-21 10.5q-7 0 -26 -9.5t-23 -10.5z" />
    <glyph glyph-name="four" unicode="4" 
d="M801 1149l-479 -686h485v686h-6zM1128 39v-39h-387v39q66 0 66 70v147h-623q-34 0 -48.5 -12.5t-20.5 -46.5h-39v266l561 803q6 8 17.5 24t18 25.5t14.5 21.5t11.5 20t3.5 13q0 13 -9 18t-34 7v39h469v-39q-37 0 -54 -16.5t-17 -55.5v-860h76q35 0 50 13.5t21 51.5h37
v-331h-37q-6 34 -21 46.5t-50 12.5h-76v-147q0 -38 17 -54t54 -16z" />
    <glyph glyph-name="five" unicode="5" 
d="M1051 1204h-611v-297q35 20 65 32.5t91.5 24t136.5 11.5q114 0 207.5 -40t153.5 -107t92.5 -152.5t32.5 -179.5q0 -229 -150 -368.5t-395 -139.5q-190 0 -338 78q-29 15 -67 37.5t-58.5 33t-34.5 10.5q-19 0 -47 -12l-33 29l187 293l32 -17q-26 -62 15.5 -115
t127.5 -82.5t191 -29.5q137 0 222 84t85 215q0 121 -83.5 196.5t-206.5 75.5q-57 0 -113.5 -18.5t-89.5 -53.5t-17 -75l-22 -10l-289 223v22q23 -10 39 -1.5t16 36.5v416q0 72 -55 72v39h916q34 0 49.5 11.5t21.5 37.5h39v-328h-39q-6 26 -21.5 37.5t-49.5 11.5z" />
    <glyph glyph-name="six" unicode="6" 
d="M1171 1368l23 -16l-176 -289l-33 18q5 60 -69 110t-183 50q-158 0 -248 -133t-88 -332q72 80 164 128t191 48q210 0 336 -125t126 -374q0 -88 -35 -170.5t-99 -148.5t-163 -106t-217 -40q-117 0 -212.5 36.5t-160 99t-108.5 148.5t-64 182.5t-20 202.5q0 165 37.5 306
t111 251t193 173t273.5 63q83 0 169.5 -24.5t144.5 -49t73 -24.5q18 0 34 16zM692 201q110 0 185 77.5t75 190.5t-75 189.5t-185 76.5t-186 -77t-76 -189q0 -113 76 -190.5t186 -77.5z" />
    <glyph glyph-name="seven" unicode="7" 
d="M240 1434h850q34 0 49.5 11.5t21.5 37.5h37v-236l-465 -1007q-3 -7 -24 -48.5t-32 -68t-11 -41.5q0 -18 14.5 -30t38.5 -13v-39h-414v39q24 2 41 14t24.5 25t18.5 39l520 1087h-669q-35 0 -50.5 -13.5t-21.5 -49.5h-37v342h37q6 -26 22 -37.5t50 -11.5z" />
    <glyph glyph-name="eight" unicode="8" 
d="M115 408q0 127 61.5 220t177.5 146q-83 32 -139.5 118t-56.5 175q0 77 34 145.5t97.5 122t162 84.5t218.5 31q255 0 397.5 -106.5t142.5 -262.5q0 -100 -56 -188.5t-148 -124.5q117 -44 179 -136.5t62 -219.5q0 -193 -147 -308.5t-412 -115.5q-133 0 -243.5 35t-181.5 94
t-109.5 134t-38.5 157zM387 438q0 -107 85 -166t208 -59q125 0 210 59t85 166t-85.5 167.5t-209.5 60.5q-123 0 -208 -60.5t-85 -167.5zM430 1057q0 -86 63.5 -135.5t190.5 -49.5t190.5 49.5t63.5 135.5q0 87 -63.5 135.5t-190.5 48.5t-190.5 -48.5t-63.5 -135.5z" />
    <glyph glyph-name="nine" unicode="9" 
d="M190 66l-22 16l176 289l33 -19q-5 -61 69 -111.5t183 -50.5q106 0 184 64.5t115.5 169t36.5 233.5q-71 -81 -163 -129.5t-192 -48.5q-210 0 -336.5 126.5t-126.5 375.5q0 88 35.5 171t99 150t163 107.5t217.5 40.5q117 0 212 -37t159.5 -100.5t108.5 -150t63.5 -183
t19.5 -203.5q0 -131 -23 -247t-71.5 -216t-120 -171.5t-173 -112.5t-225.5 -41q-83 0 -169.5 23.5t-144.5 47t-73 23.5q-19 0 -35 -16zM670 1231q-110 0 -186 -77t-76 -189q0 -113 76 -191t186 -78t186 78t76 191q0 112 -76 189t-186 77z" />
    <glyph glyph-name="colon" unicode=":" horiz-adv-x="679" 
d="M156 168q0 79 53.5 132.5t130.5 53.5q78 0 132 -53.5t54 -132.5q0 -77 -53.5 -128.5t-132.5 -51.5q-77 0 -130.5 51.5t-53.5 128.5zM156 909q0 79 53.5 133t130.5 54q78 0 132 -54t54 -133t-53.5 -131.5t-132.5 -52.5q-77 0 -130.5 52.5t-53.5 131.5z" />
    <glyph glyph-name="semicolon" unicode=";" horiz-adv-x="679" 
d="M121 -389v88q113 40 194.5 119.5t81.5 181.5q-8 0 -25 -1t-26 -1q-90 0 -142 44.5t-52 115.5q0 91 51 143.5t143 52.5q89 0 152 -74t63 -176q0 -91 -36.5 -172t-99.5 -142t-139.5 -105.5t-164.5 -73.5zM147 909q0 79 54 133t131 54q78 0 132 -54t54 -133t-53.5 -131.5
t-132.5 -52.5q-77 0 -131 52.5t-54 131.5z" />
    <glyph glyph-name="less" unicode="&#x3c;" horiz-adv-x="1634" 
d="M1417 1024l-956 -424l956 -426v-186l-1200 530v162l1200 534v-190z" />
    <glyph glyph-name="equal" unicode="=" horiz-adv-x="1634" 
d="M217 741v191h1200v-191h-1200zM217 266v191h1200v-191h-1200z" />
    <glyph glyph-name="greater" unicode="&#x3e;" horiz-adv-x="1634" 
d="M217 174l957 426l-957 424v190l1200 -534v-162l-1200 -530v186z" />
    <glyph glyph-name="question" unicode="?" horiz-adv-x="1210" 
d="M784 496v-39h-299v39q23 4 33 15.5t16.5 41t16.5 106.5q6 50 31.5 101t57 92.5t62.5 81t51.5 80.5t20.5 78q0 70 -42 109.5t-124 39.5q-73 0 -126.5 -28t-53.5 -85q0 -16 12 -28l-20 -21l-223 211l20 23q18 -6 23 -6q12 0 45.5 22.5t74.5 49t115.5 49t159.5 22.5
q158 0 268.5 -98.5t110.5 -243.5q0 -53 -15.5 -103t-39.5 -89.5t-53.5 -77t-59.5 -72t-54 -67t-39.5 -69t-15.5 -71.5q0 -33 10 -45t37 -18zM469 152q0 71 50 120.5t118 49.5q69 0 119.5 -49.5t50.5 -120.5q0 -69 -50.5 -116.5t-119.5 -47.5t-118.5 47.5t-49.5 116.5z" />
    <glyph glyph-name="at" unicode="@" horiz-adv-x="1634" 
d="M1038 848q0 71 -19.5 106t-66.5 35q-36 0 -80 -29t-83.5 -77t-66 -121t-26.5 -152q0 -83 31 -130.5t76 -47.5q79 0 147 107.5t88 308.5zM1081 997l23 70h153l-127 -516q-3 -25 -4 -57.5t16.5 -60t51.5 -27.5q60 0 114.5 67t85.5 163t31 187q0 71 -24.5 143t-73.5 137
t-116 115.5t-158.5 80.5t-194.5 30q-81 0 -157.5 -23.5t-148 -76t-124.5 -128.5t-85 -189t-32 -250q0 -149 77 -275.5t207 -199t282 -72.5q132 0 227 24t194 74l23 -100q-234 -125 -440 -125q-134 0 -252 31.5t-203.5 85.5t-152.5 123.5t-108 148t-62 156t-21 151.5
q0 167 62.5 311.5t168 243.5t247 155t298.5 56q193 0 352.5 -81.5t251.5 -225.5t92 -320q0 -65 -16.5 -134.5t-50 -135.5t-79 -118.5t-110 -84t-137.5 -31.5q-50 0 -90 18.5t-61 45t-31.5 49.5t-9.5 37h-4q-19 -38 -90 -92t-154 -58q-31 -1 -63 10.5t-65 38t-54 81.5
t-21 131q0 54 15.5 120t50 136.5t82 128.5t119 95.5t153.5 37.5q20 0 36.5 -2.5t29.5 -10t21.5 -12.5t18 -17.5t13.5 -18t13 -21t11 -19.5z" />
    <glyph glyph-name="A" unicode="A" 
d="M668 1128h-6l-177 -573h363zM393 39v-39h-360v39q35 2 57 65l397 1166q25 77 25 92q0 13 -12 21t-47 12v39h454v-39q-57 -3 -57 -47q0 -13 33 -111l389 -1133q12 -37 23 -49.5t34 -15.5v-39h-371v39q27 3 38.5 9.5t11.5 19.5q0 14 -11 47l-88 250h-489l-76 -226
q-12 -27 -12 -49q0 -48 61 -51z" />
    <glyph glyph-name="B" unicode="B" horiz-adv-x="1513" 
d="M868 0h-727v39q46 6 61 20.5t15 49.5v1214q0 36 -15 51t-61 21v39h676q114 0 208 -33t153.5 -88t92 -122.5t32.5 -139.5q0 -105 -66 -194t-172 -116v-6q144 -33 215.5 -118.5t71.5 -235.5q0 -164 -132 -272.5t-352 -108.5zM766 637h-277v-408h277q313 0 313 203
q0 205 -313 205zM776 1204h-287v-338h287q130 0 192 40.5t62 127.5q0 89 -62 129.5t-192 40.5z" />
    <glyph glyph-name="C" unicode="C" 
d="M1245 1337l12 -14l-178 -326l-24 11q2 8 2 26q0 73 -83.5 130t-189.5 57q-204 0 -311.5 -124.5t-107.5 -394.5q0 -217 113 -353t296 -136q112 0 200.5 59.5t88.5 128.5q0 32 -12 56l32 12l230 -297l-23 -25q-20 27 -45 27q-16 0 -41.5 -19t-61.5 -46.5t-85.5 -55
t-131.5 -46.5t-180 -19q-151 0 -276 57t-206.5 155t-126 227t-44.5 275q0 148 38 272.5t103 211t153 147t187 89t205 28.5q156 0 281 -70q24 -13 54.5 -31.5t46.5 -27t26 -8.5q22 0 59 24z" />
    <glyph glyph-name="D" unicode="D" horiz-adv-x="1513" 
d="M207 109v1214q0 35 -14 50.5t-52 21.5v39h600q133 0 242.5 -36.5t186 -101t129 -155t77.5 -197t25 -227.5q0 -359 -182 -538t-533 -179h-545v39q38 6 52 21t14 49zM637 1204h-158v-975h158q139 0 230 23.5t151 81t85 149.5t25 234t-25 234t-85 149t-151 80.5t-230 23.5z
" />
    <glyph glyph-name="E" unicode="E" 
d="M834 621h-349v-392h627q47 0 66.5 10t25.5 40h37v-324h-37q-6 29 -24.5 37t-67.5 8h-987v39q54 6 71 20.5t17 49.5v1214q0 37 -17.5 51.5t-74.5 20.5v39h952q49 0 67.5 9.5t24.5 39.5h39v-322h-39q-6 26 -25 34.5t-67 8.5h-588v-354h349q49 0 67.5 9.5t24.5 39.5h39v-321
h-39q-6 26 -25 34.5t-67 8.5z" />
    <glyph glyph-name="F" unicode="F" horiz-adv-x="1210" 
d="M547 39v-39h-455v39q54 6 71 20.5t17 49.5v1214q0 37 -17.5 51.5t-74.5 20.5v39h954q43 0 61.5 9.5t24.5 39.5h37v-328h-37q-6 30 -24.5 39.5t-61.5 9.5h-589v-354h370q48 0 67 10.5t25 44.5h37v-330h-37q-6 27 -25.5 36.5t-66.5 9.5h-370v-512q0 -36 17.5 -50t76.5 -20z
" />
    <glyph glyph-name="G" unicode="G" horiz-adv-x="1513" 
d="M1096 297v231h-207q-50 0 -69 -13t-25 -60h-37v368l37 2q10 -45 52.5 -67.5t137.5 -22.5h453v-39q-43 0 -56.5 -12.5t-13.5 -56.5v-314q0 -42 6.5 -53t28.5 -14v-23q-100 -115 -253.5 -175t-318.5 -60q-203 0 -364.5 91.5t-251.5 253t-90 363.5q0 209 87.5 380t251 272.5
t372.5 101.5q173 0 329 -72q29 -13 64 -32.5t54.5 -29t31.5 -9.5q16 0 63 28l23 -16l-236 -334l-26 12q10 18 10 62q0 60 -84 111t-231 51q-206 0 -321.5 -138t-115.5 -370q0 -113 28 -202t73.5 -143.5t107.5 -90.5t123.5 -50t128.5 -14q61 0 112 15t75 30.5t51 38.5z" />
    <glyph glyph-name="H" unicode="H" horiz-adv-x="1513" 
d="M1051 109v528h-588v-528q0 -34 15 -49t57 -21v-39h-414v39q41 6 55 21t14 49v1214q0 36 -14 51t-55 21v39h414v-39q-42 -6 -57 -21t-15 -51v-457h588v457q0 36 -14 51t-56 21v39h414v-39q-42 -6 -57 -21t-15 -51v-1214q0 -34 15 -49t57 -21v-39h-414v39q42 6 56 20.5
t14 49.5z" />
    <glyph glyph-name="I" unicode="I" horiz-adv-x="757" 
d="M608 39v-39h-458v39q58 6 75 20.5t17 49.5v1214q0 37 -17 51.5t-75 20.5v39h458v-39q-58 -6 -76 -20.5t-18 -51.5v-1214q0 -35 18 -49.5t76 -20.5z" />
    <glyph glyph-name="J" unicode="J" horiz-adv-x="1058" 
d="M35 66l-33 16l131 326l25 -7q-11 -50 34 -95t109.5 -69t118.5 -24q95 0 137.5 42.5t42.5 125.5v942q0 35 -13 50.5t-50 21.5v39h397v-39q-36 -6 -49 -21t-13 -51v-975q0 -181 -112 -270.5t-305 -89.5q-141 0 -248 47q-21 9 -48 24t-43 22t-28 7q-35 0 -53 -22z" />
    <glyph glyph-name="K" unicode="K" 
d="M528 39v-39h-407v39q37 6 50 20.5t13 49.5v1214q0 36 -13.5 51t-55.5 21v39h407v-39q-38 -6 -51.5 -21t-13.5 -51v-473h6l430 465q33 38 33 45q0 9 -3.5 15.5t-6.5 9t-10.5 6.5t-8.5 4v39h426v-39q-61 -9 -90 -41l-449 -496l379 -596q10 -16 27 -43t25.5 -39.5t22 -33
t21 -30.5t18.5 -24t19.5 -21t18.5 -14.5t20 -11.5t21 -6v-39h-416v39q29 3 29 37q0 16 -23 51l-350 547l-139 -146v-419q0 -34 14.5 -49t56.5 -21z" />
    <glyph glyph-name="L" unicode="L" horiz-adv-x="1210" 
d="M182 109v1214q0 36 -16 51t-66 21v39h447v-39q-57 -6 -74.5 -20.5t-17.5 -51.5v-1094h600q48 0 67 12.5t25 53.5h39v-340h-39q-6 29 -24.5 37t-67.5 8h-949v39q45 6 60.5 21t15.5 49z" />
    <glyph glyph-name="M" unicode="M" horiz-adv-x="1802" 
d="M512 39v-39h-371v39q56 3 56 53v1247q0 53 -56 56v39h484v-39q-41 -14 -41 -41q0 -14 16 -54l301 -694h6l312 699q14 37 14 47q0 18 -9.5 27.5t-33.5 15.5v39h477v-39q-59 -3 -59 -56v-1247q0 -27 15 -39.5t50 -13.5v-39h-383v39q36 1 51 13.5t15 39.5v987h-4l-439 -956
h-41l-419 956h-7v-987q0 -27 15 -39.5t51 -13.5z" />
    <glyph glyph-name="N" unicode="N" horiz-adv-x="1513" 
d="M514 39v-39h-371v39q37 6 50.5 21t13.5 49v1214q0 35 -11.5 50.5t-39.5 21.5v39h448v-39q-27 -1 -38 -7t-11 -18q0 -9 37 -76l463 -825h4v854q0 36 -12.5 51t-47.5 21v39h371v-39q-35 -6 -47 -21t-12 -51v-1214q0 -38 10 -51t39 -19v-39h-399v39q17 2 27 5t18 11t8 21
q0 6 -35 74l-516 901h-6v-942q0 -34 12.5 -49t44.5 -21z" />
    <glyph glyph-name="O" unicode="O" horiz-adv-x="1513" 
d="M104 717q0 206 75 370.5t225.5 263.5t353.5 99q122 0 227 -37t182.5 -103.5t133 -158t83 -202t27.5 -232.5q0 -154 -44 -287t-126 -231.5t-206.5 -154.5t-276.5 -56q-123 0 -228 36.5t-183 102.5t-133 156.5t-82.5 200.5t-27.5 233zM377 717q0 -243 99 -373.5t282 -130.5
q182 0 281.5 131t99.5 373t-99.5 373t-281.5 131q-183 0 -282 -130.5t-99 -373.5z" />
    <glyph glyph-name="P" unicode="P" 
d="M733 1204h-260v-381h260q143 0 205.5 43.5t62.5 147.5q0 103 -62 146.5t-206 43.5zM545 39v-39h-414v39q42 6 56 20.5t14 49.5v1214q0 36 -14 51t-56 21v39h651q126 0 223 -34t154.5 -93t86 -133t28.5 -160t-28.5 -160t-86 -133t-154.5 -93t-223 -34h-309v-485
q0 -34 15 -49t57 -21z" />
    <glyph glyph-name="Q" unicode="Q" horiz-adv-x="1513" 
d="M1370 10l23 -22l-263 -224l-32 23q26 16 26 37q-1 16 -29.5 52t-117.5 142q-102 -30 -219 -30q-123 0 -228 36.5t-183 102.5t-133 156.5t-82.5 200.5t-27.5 233q0 206 75 370.5t225.5 263.5t353.5 99q122 0 227 -37t182.5 -103.5t133 -158t83 -202t27.5 -232.5
q0 -186 -62 -339.5t-180 -252.5q93 -127 144 -127q35 0 57 12zM627 436l8 66q83 -6 186.5 -56t194.5 -131q123 123 123 402q0 242 -99.5 373t-281.5 131q-183 0 -282 -130.5t-99 -373.5t99 -373.5t282 -130.5q42 0 78 8q-55 86 -99.5 133t-109.5 82z" />
    <glyph glyph-name="R" unicode="R" horiz-adv-x="1513" 
d="M563 39v-39h-397v39q35 6 47 21t12 49v1214q0 36 -13 51t-52 21v39h682q223 0 351 -107.5t128 -292.5q0 -159 -77.5 -264.5t-229.5 -140.5l211 -414q9 -17 21 -42t17.5 -36.5t14.5 -28.5t14 -24.5t13 -17.5t14.5 -14t15.5 -7.5t19 -5.5v-39h-404v39q56 4 56 35
q0 19 -33 84l-228 436h-247v-485q0 -34 13.5 -49t51.5 -21zM811 1204h-313v-381h313q238 0 238 191q0 190 -238 190z" />
    <glyph glyph-name="S" unicode="S" 
d="M117 66l-27 16l164 338l37 -17q-4 -20 -4 -26q0 -45 63 -84t149.5 -59.5t166.5 -20.5q179 0 256 54.5t77 156.5q0 61 -47.5 101.5t-123.5 63t-167.5 41.5t-183 46t-167.5 67t-123.5 114t-47.5 177q0 83 31 156t91.5 132t161.5 93.5t230 34.5q179 0 328 -57
q27 -11 62.5 -27.5t53.5 -23.5t31 -7q36 0 62 33l22 -12l-202 -338l-37 16q0 3 1 20.5t1 26.5q0 55 -95 107.5t-251 52.5q-111 0 -164 -46.5t-53 -121.5q0 -46 29.5 -79t79 -53.5t114 -36t136 -31.5t143 -35.5t136 -51.5t114 -76t79 -114t29.5 -160q0 -86 -38.5 -164.5
t-112 -142.5t-195.5 -102.5t-275 -38.5q-165 0 -321 55q-32 12 -69.5 29t-58 24.5t-38.5 7.5q-17 0 -47 -38z" />
    <glyph glyph-name="T" unicode="T" 
d="M883 39v-39h-394v39q31 6 43.5 21.5t12.5 48.5v1095h-328q-48 0 -67 -11.5t-25 -51.5h-37v342h37q6 -30 25.5 -39.5t66.5 -9.5h928q47 0 66.5 9.5t25.5 39.5h37v-342h-37q-6 40 -25 51.5t-67 11.5h-328v-1095q0 -34 14 -49t52 -21z" />
    <glyph glyph-name="U" unicode="U" horiz-adv-x="1513" 
d="M117 1395v39h413v-39q-38 -6 -51.5 -21t-13.5 -51v-805q0 -142 79 -223.5t226 -81.5t226 81.5t79 223.5v805q0 36 -13 51t-52 21v39h387v-39q-42 -6 -56 -21t-14 -51v-801q0 -534 -567 -534t-567 534v801q0 36 -15 51t-61 21z" />
    <glyph glyph-name="V" unicode="V" 
d="M915 39v-39h-452v39q29 0 47 12.5t18 30.5q0 6 -24 80l-387 1124q-9 25 -14 39t-14 31.5t-18.5 26.5t-21.5 12v39h383v-39q-31 -6 -43 -16.5t-12 -30.5q0 -16 18 -72l299 -905h6l289 915q19 64 19 74q0 12 -13.5 20t-48.5 15v39h367v-39q-22 -7 -37.5 -27t-21.5 -35.5
t-17 -50.5l-369 -1137q-12 -35 -12 -65q0 -41 59 -41z" />
    <glyph glyph-name="W" unicode="W" horiz-adv-x="1966" 
d="M786 39v-39h-337v39q10 0 20 10t10 19t-47 161l-328 1086q-12 42 -24 58.5t-33 21.5v39h359v-39q-25 -5 -34.5 -13t-9.5 -26t21 -92l235 -824h7l221 834q18 70 18 80q0 19 -12 27.5t-43 13.5v39h354v-39q-29 -9 -42 -20t-13 -38q0 -15 16 -73l238 -861h6l231 859
q21 81 21 84q0 22 -12.5 32.5t-40.5 16.5v39h354v-39q-48 -13 -70 -90l-315 -1059q-35 -119 -35 -166q0 -13 8 -25.5t19 -15.5v-39h-348v39q23 3 31 12.5t8 30.5q0 6 -4.5 23.5t-12 45.5t-10.5 42l-207 784h-4l-209 -797q-4 -16 -11 -41t-11.5 -40.5t-4.5 -18.5
q0 -13 11.5 -25.5t29.5 -15.5z" />
    <glyph glyph-name="X" unicode="X" 
d="M485 39v-39h-428v39q55 5 78 45l389 641l-374 610q-33 57 -93 60v39h453v-39q-55 -3 -55 -35q0 -15 20 -51l199 -326l209 346q14 21 14 33q0 30 -66 33v39h418v-39q-50 -10 -78 -58l-352 -589l420 -689q13 -20 66 -20v-39h-447v39q55 0 55 41q0 7 -22 47l-225 369
l-213 -351q-25 -42 -25 -65q0 -38 57 -41z" />
    <glyph glyph-name="Y" unicode="Y" 
d="M883 39v-39h-404v39q38 6 52 21t14 49v485l-422 743q-27 48 -68 58v39h424v-39q-59 -3 -59 -39q0 -9 33 -68l247 -424l242 426q27 52 27 64q0 20 -13 28t-51 13v39h402v-39q-39 -12 -70 -64l-420 -737v-485q0 -34 14 -49t52 -21z" />
    <glyph glyph-name="Z" unicode="Z" 
d="M1112 0h-991v49l694 1155h-553q-50 0 -69 -12.5t-25 -54.5h-37v350h37q6 -33 25.5 -43t68.5 -10h969v-39l-705 -1166h586q48 0 67 12.5t25 53.5h37v-340h-37q-6 29 -24.5 37t-67.5 8z" />
    <glyph glyph-name="bracketleft" unicode="[" horiz-adv-x="1058" 
d="M901 -213v-98h-670v1745h670v-99h-420v-1548h420z" />
    <glyph glyph-name="backslash" unicode="\" horiz-adv-x="757" 
d="M915 -12h-190l-879 1462h187z" />
    <glyph glyph-name="bracketright" unicode="]" horiz-adv-x="1058" 
d="M158 1335v99h669v-1745h-669v98h420v1548h-420z" />
    <glyph glyph-name="asciicircum" unicode="^" horiz-adv-x="1634" 
d="M1090 686l-273 571l-272 -571h-174l370 748h152l371 -748h-174z" />
    <glyph glyph-name="underscore" unicode="_" 
d="M0 -201h1362v-135h-1362v135z" />
    <glyph glyph-name="grave" unicode="`" horiz-adv-x="757" 
d="M559 1346h-186l-355 380h301z" />
    <glyph glyph-name="a" unicode="a" horiz-adv-x="1210" 
d="M336 39v-39h-279v39q23 10 33 45l336 977q18 52 18 61q0 21 -22 39v37h338v-37q-19 -14 -19 -33q0 -1 21 -67l325 -928q21 -63 35 -78q12 -14 31 -16v-39h-336v39q33 14 33 43q0 19 -8 43l-58 197h-405l-57 -189q-9 -27 -9 -49q0 -39 23 -45zM737 473l-153 481h-4
l-156 -481h313z" />
    <glyph glyph-name="b" unicode="b" 
d="M217 109v981q0 71 -43 71v37h555q93 0 168 -19.5t123.5 -51.5t81 -75t46 -87.5t13.5 -92.5q0 -97 -48.5 -157t-143.5 -97q213 -71 213 -305q0 -139 -104 -226t-320 -87h-594v39q53 0 53 70zM670 535h-213v-355h213q154 0 218 46t64 130q0 85 -63.5 132t-218.5 47z
M686 1018h-229v-305h229q143 0 194.5 38.5t51.5 114.5q0 37 -10 62.5t-36 47t-75.5 32t-124.5 10.5z" />
    <glyph glyph-name="c" unicode="c" horiz-adv-x="1210" 
d="M1081 1116l19 -10l-166 -279l-27 15l6 30q0 45 -41 81t-96.5 53.5t-109.5 17.5q-149 0 -251 -116.5t-102 -329.5q0 -85 21 -156.5t64 -128t114 -88t164 -31.5q79 0 159 41t80 98q0 22 -8 35l23 14l178 -223l-12 -18q-16 4 -31 4t-46 -21.5t-69 -47t-116 -47t-175 -21.5
q-167 0 -298 77.5t-204 217t-73 317.5q0 269 161 441.5t414 172.5q134 0 242 -57q16 -8 40 -20.5t36.5 -19t27.5 -12t25 -5.5q32 0 51 16z" />
    <glyph glyph-name="d" unicode="d" 
d="M653 1008h-213v-818h213q181 0 271 93t90 317q0 223 -90 315.5t-271 92.5zM201 109v981q0 71 -49 71v37h528q274 0 417.5 -154t143.5 -444q0 -291 -143.5 -445.5t-417.5 -154.5h-528v39q49 0 49 70z" />
    <glyph glyph-name="e" unicode="e" horiz-adv-x="1210" 
d="M213 109v981q0 71 -49 71v37h794q34 0 50 11.5t22 37.5h37v-309h-37q-6 37 -22 53.5t-50 16.5h-505v-295h305q34 0 48.5 13t20.5 48h39v-311h-39q-6 35 -20.5 47t-48.5 12h-305v-332h505q34 0 50 16.5t22 51.5h37v-303h-37q-6 25 -21.5 35t-50.5 10h-794v39q49 0 49 70z
" />
    <glyph glyph-name="f" unicode="f" horiz-adv-x="1058" 
d="M444 39v-39h-321v39q6 0 13.5 6.5t14.5 23.5t7 40v981q0 35 -13 53t-28 18v37h743q34 0 50 11.5t22 37.5h37v-289h-37q-15 50 -72 50h-463v-295h279q32 0 47 12.5t22 36.5h39v-289h-39q-6 28 -20.5 38.5t-48.5 10.5h-279v-413q0 -35 14 -52.5t33 -17.5z" />
    <glyph glyph-name="g" unicode="g" 
d="M1145 1145l26 -23l-174 -288l-32 14q4 24 4 37q0 50 -80 94.5t-197 44.5q-83 0 -152 -38t-112 -100.5t-66.5 -140t-23.5 -159.5q0 -111 46.5 -204.5t134.5 -150.5t200 -57t229 74v192h-198q-47 0 -58 -37h-39v263h39q11 -45 58 -45h448v-37q-20 -5 -28.5 -14t-8.5 -31
v-291q0 -29 35 -35v-23q-66 -78 -200 -140t-312 -62q-165 0 -297.5 83t-205 222t-72.5 303q0 131 41 245t114.5 196.5t183 129.5t240.5 47q146 0 281 -57q25 -10 51.5 -23.5t41.5 -20.5t25 -7q12 0 32 14t26 25z" />
    <glyph glyph-name="h" unicode="h" 
d="M477 39v-39h-330v39q12 0 24.5 18t12.5 52v981q0 34 -12.5 52.5t-24.5 18.5v37h322v-37q-17 0 -31 -18t-14 -53v-381h502v381q0 35 -13.5 53t-29.5 18v37h327v-37q-17 0 -31 -18t-14 -53v-981q0 -36 14 -53t35 -17v-39h-325v39q12 0 24.5 18t12.5 52v409h-502v-409
q0 -70 53 -70z" />
    <glyph glyph-name="i" unicode="i" horiz-adv-x="757" 
d="M555 39v-39h-354v39q57 0 57 70v981q0 71 -57 71v37h354v-37q-57 0 -57 -71v-981q0 -70 57 -70z" />
    <glyph glyph-name="j" unicode="j" horiz-adv-x="907" 
d="M408 1161v37h354v-37q-60 0 -60 -71v-779q0 -154 -92.5 -238.5t-255.5 -84.5q-98 0 -190 43q-21 8 -41 20t-31 18.5t-16 6.5q-18 0 -49 -27l-21 10l92 285l33 -12q8 -68 57 -113t117 -45q71 0 114.5 32t43.5 93v791q0 71 -55 71z" />
    <glyph glyph-name="k" unicode="k" horiz-adv-x="1210" 
d="M489 39v-39h-342v39q24 0 39 17t15 53v981q0 36 -15 53.5t-39 17.5v37h338v-37q-17 0 -31 -18t-14 -53v-375h4l342 360q8 8 18 18.5t15.5 15.5t11 11.5t7.5 11t2 9.5q0 13 -33 20v37h358v-37q-35 -7 -67 -39l-410 -405l379 -570q57 -86 115 -108v-39h-359v39q26 0 34.5 4
t8.5 16q0 16 -39 80l-274 439l-113 -109v-360q0 -36 14 -53t35 -17z" />
    <glyph glyph-name="l" unicode="l" horiz-adv-x="1058" 
d="M913 0h-788v39q72 0 72 70v981q0 71 -72 71v37h373v-37q-62 0 -62 -71v-900h477q33 0 48.5 16.5t21.5 51.5h39v-303h-39q-6 25 -21.5 35t-48.5 10z" />
    <glyph glyph-name="m" unicode="m" horiz-adv-x="1630" 
d="M469 39v-39h-322v39q18 0 32 17.5t14 52.5v981q0 71 -56 71v37h453v-37q-20 -5 -29.5 -13t-9.5 -24q0 -28 37 -110l231 -539h6l238 539q37 78 37 110q0 16 -9.5 24t-29.5 13v37h430v-37q-24 0 -38.5 -17.5t-14.5 -53.5v-981q0 -70 53 -70v-39h-334v39q53 0 53 70v768h-6
l-366 -795h-45l-367 795h-6v-768q0 -36 14 -53t35 -17z" />
    <glyph glyph-name="n" unicode="n" 
d="M471 39v-39h-332v39q60 0 60 70v981q0 71 -60 71v37h398v-37q-39 -12 -39 -39q-1 -11 9.5 -31.5t30.5 -51.5t21 -33l391 -625h6v709q0 71 -55 71v37h322v-37q-24 0 -39 -17.5t-15 -53.5v-981q0 -36 15 -53t39 -17v-39h-342v39q11 1 18.5 10.5t7.5 18.5q0 18 -30 65
l-461 703h-4v-727q0 -70 59 -70z" />
    <glyph glyph-name="o" unicode="o" 
d="M106 600q0 177 73 317t204 218.5t297 78.5q253 0 414 -172.5t161 -441.5q0 -178 -73 -317.5t-204 -217t-298 -77.5q-252 0 -413 171t-161 441zM336 600q0 -195 98.5 -310.5t245.5 -115.5q149 0 247.5 115t98.5 311q0 194 -98.5 309t-247.5 115q-147 0 -245.5 -115
t-98.5 -309z" />
    <glyph glyph-name="p" unicode="p" horiz-adv-x="1210" 
d="M612 1018h-176v-359h176q146 0 205.5 41.5t59.5 139.5q0 96 -59.5 137t-205.5 41zM485 39v-39h-333v39q19 0 32 17t13 53v981q0 36 -14 53.5t-36 17.5v37h515q444 0 444 -350q0 -168 -110 -268.5t-334 -100.5h-226v-370q0 -70 49 -70z" />
    <glyph glyph-name="q" unicode="q" 
d="M1171 -6l17 -23l-203 -196l-27 22q11 18 11 43q0 18 -15.5 38.5t-53.5 58.5t-64 69q-74 -18 -156 -18q-252 0 -413 171t-161 441q0 177 73 317t204 218.5t297 78.5q253 0 414 -172.5t161 -441.5q0 -166 -64.5 -301t-180.5 -215q42 -57 69 -79.5t54 -22.5q8 0 21.5 5.5
t16.5 6.5zM555 379l33 43q95 -18 163 -59.5t132 -116.5q143 123 143 354q0 194 -98.5 309t-247.5 115q-147 0 -245.5 -115t-98.5 -309q0 -195 98.5 -310.5t245.5 -115.5q29 0 41 2q-21 40 -31 57.5t-31 47.5t-45.5 52.5t-58.5 45.5z" />
    <glyph glyph-name="r" unicode="r" 
d="M502 39v-39h-338v39q21 0 35 17t14 53v981q0 36 -14 53.5t-35 17.5v37h620q208 0 311 -99t103 -272q0 -118 -88.5 -217.5t-210.5 -111.5l225 -377q3 -6 10 -17t9 -15t7 -12t7.5 -10.5t7 -8t7.5 -7.5t7 -5t8.5 -4.5t10.5 -2.5v-39h-326v39q29 0 29 20q0 28 -20 62
l-213 352h-215v-364q0 -36 14 -53t35 -17zM694 1018h-241v-365h241q152 0 213.5 42t61.5 141t-61.5 140.5t-213.5 41.5z" />
    <glyph glyph-name="s" unicode="s" horiz-adv-x="1210" 
d="M1047 1139l20 -11l-141 -268l-27 12q0 69 -93 115.5t-237 46.5q-110 0 -169.5 -41.5t-59.5 -115.5q0 -44 31 -75t81.5 -47t115 -32.5t132 -30.5t132 -42.5t115 -66.5t81.5 -105t31 -156q0 -148 -125 -241t-307 -93q-99 0 -186 18t-133.5 40t-85.5 40t-56 18
q-15 0 -27 -13.5t-14 -14.5l-33 12l148 293l39 -21q-1 -2 -7 -15.5t-6 -20.5q0 -41 54.5 -78.5t138 -59.5t166.5 -22q118 0 180.5 46.5t62.5 133.5q0 36 -24.5 61.5t-66 41t-95.5 28t-113.5 25t-119 28.5t-113.5 43.5t-95.5 64.5t-66 96t-24.5 134q0 158 115.5 253t326.5 95
q84 0 179 -24.5t158 -49t70 -24.5q11 0 48 23z" />
    <glyph glyph-name="t" unicode="t" horiz-adv-x="1058" 
d="M98 958h-39v289h39q15 -49 70 -49h721q54 0 69 49h39v-295h-39q-7 27 -22 41.5t-47 14.5h-240v-899q0 -34 12.5 -52t24.5 -18v-39h-321v39q17 0 30 17.5t13 52.5v899h-240q-55 0 -70 -50z" />
    <glyph glyph-name="u" unicode="u" 
d="M143 1161v37h334v-37q-19 0 -32 -17.5t-13 -53.5v-687q0 -107 65.5 -168t186.5 -61t185.5 61t64.5 168v687q0 71 -43 71v37h328v-37q-19 0 -32 -17.5t-13 -53.5v-660q0 -442 -490 -442q-491 0 -491 442v660q0 71 -50 71z" />
    <glyph glyph-name="v" unicode="v" horiz-adv-x="1210" 
d="M49 1161v37h359v-37q-48 -9 -48 -41q0 -7 4.5 -22.5t11.5 -34.5t9 -25l227 -733h6l232 719q3 11 9 28t9.5 27t6 22t2.5 21q0 20 -8.5 27t-34.5 12v37h327v-37q-34 -3 -51 -22.5t-29 -55.5l-303 -907q-4 -13 -13 -37t-14.5 -40.5t-5.5 -24.5q0 -32 29 -35v-39h-338v39
q21 3 21 37q0 14 -27 100l-305 911q-13 38 -29 53t-47 21z" />
    <glyph glyph-name="w" unicode="w" horiz-adv-x="1665" 
d="M41 1161v37h338v-37q-49 0 -49 -45q0 -30 22 -117l168 -645h6l166 697q13 54 13 79q0 13 -9 19.5t-34 11.5v37h327v-41q-17 0 -29 -8.5t-12 -20.5q0 -4 21 -98l164 -676h6l190 660q19 71 19 100q0 40 -43 47v37h315v-37q-33 -4 -46 -19.5t-28 -66.5l-282 -907
q-25 -80 -25 -94q0 -28 43 -35v-39h-326v39q43 3 43 27q0 12 -22 98l-166 670h-4l-158 -666q-14 -60 -14 -86q0 -38 43 -43v-39h-326v39q33 7 33 35q0 12 -4.5 29t-14.5 50.5t-18 63.5l-242 887q-5 18 -23 35.5t-42 21.5z" />
    <glyph glyph-name="x" unicode="x" horiz-adv-x="1210" 
d="M412 39v-39h-332v39q15 0 33.5 11.5t27.5 25.5l346 540l-299 471q-24 38 -42 53.5t-40 20.5v37h365v-37q-39 -9 -39 -31q0 -9 3.5 -19t6.5 -16t10.5 -18.5l10.5 -17.5l155 -256l144 244q1 2 5 9t5.5 10t5 10.5t5 13t2.5 14.5t1 18q0 17 -11.5 26t-41.5 13v37h371v-37
q-13 -2 -23 -6t-18.5 -13.5t-12.5 -14.5t-13 -19.5t-11 -17.5l-291 -461l303 -479l18 -30t18 -29t16 -22t19.5 -20t20.5 -10v-39h-360v39q14 2 26.5 9.5t12.5 17.5q0 6 -1.5 12.5t-3 11.5t-5.5 13t-6 11.5t-8.5 14t-8.5 14.5l-176 285l-188 -295q-5 -9 -13 -21t-11.5 -17
t-6 -12.5t-2.5 -14.5q0 -25 33 -29z" />
    <glyph glyph-name="y" unicode="y" horiz-adv-x="1210" 
d="M770 39v-39h-315v39q16 0 29.5 17.5t13.5 52.5v452l-308 514q-32 55 -49 69t-61 17v37h364v-37q-38 -8 -38 -31q0 -11 26 -71l193 -324l174 320q32 67 32 84q0 16 -38 22v37h337v-37q-38 -3 -54.5 -18.5t-49.5 -71.5l-289 -504v-458q0 -23 7 -40t14 -23.5t12 -6.5z" />
    <glyph glyph-name="z" unicode="z" horiz-adv-x="1210" 
d="M969 0h-838v55l596 953h-487q-34 0 -50 -16.5t-22 -51.5h-37v307h37q15 -49 72 -49h839v-37l-606 -971h496q56 0 71 56h39v-291h-39q-13 45 -71 45z" />
    <glyph glyph-name="braceleft" unicode="{" horiz-adv-x="1058" 
d="M340 -18v337q0 106 -42 159t-165 81q123 27 165 79.5t42 160.5v340q0 92 26.5 151t85.5 90.5t133.5 42.5t190.5 11v-39q-99 -24 -141.5 -86t-42.5 -172v-306q0 -62 -8.5 -102.5t-31.5 -75.5t-67 -57t-114 -35v-6q69 -13 113.5 -35t67.5 -57t31.5 -75t8.5 -101v-301
q0 -111 42.5 -173.5t141.5 -86.5v-37q-93 0 -156.5 6.5t-120 24.5t-89.5 50.5t-51.5 85t-18.5 126.5z" />
    <glyph glyph-name="bar" unicode="|" horiz-adv-x="604" 
d="M397 1434v-1434h-190v1434h190z" />
    <glyph glyph-name="braceright" unicode="}" horiz-adv-x="1058" 
d="M719 1139v-340q0 -107 42.5 -160t164.5 -80q-122 -28 -164.5 -81t-42.5 -159v-337q0 -74 -18.5 -126.5t-51.5 -85t-89.5 -50.5t-120 -24.5t-156.5 -6.5v37q101 24 143.5 86.5t42.5 173.5v301q0 61 8 101t31.5 75t67 57t112.5 35v6q-69 13 -112.5 35t-67 57t-31.5 76
t-8 102v306q0 110 -43 172t-143 86v39q116 0 190.5 -11t133.5 -42.5t85.5 -90.5t26.5 -151z" />
    <glyph glyph-name="asciitilde" unicode="~" horiz-adv-x="1634" 
d="M1214 754l76 -127q-33 -40 -42.5 -52t-40.5 -43t-51.5 -42.5t-54.5 -23t-71 -11.5q-14 0 -29 2t-26.5 3.5t-27.5 7t-24.5 8.5t-27 11t-24.5 10.5t-26.5 12.5t-25.5 12q-51 25 -73 35t-68.5 22.5t-89.5 12.5q-107 0 -168 -148l-76 131q92 168 256 168q80 0 234 -67
q9 -4 36.5 -16t38.5 -16.5t32.5 -13.5t34 -12.5t28.5 -6.5t28 -3q29 0 54.5 11t50.5 37.5t38 43t39 54.5z" />
    <glyph glyph-name="uni00A0" unicode="&#xa0;" horiz-adv-x="679" 
 />
    <glyph glyph-name="sterling" unicode="&#xa3;" 
d="M98 -12v245q68 26 112 83t60.5 121.5t16.5 140.5q0 19 -6 100h-183v125h166q-1 9 -16 97t-15 134q0 107 37.5 188.5t103 130t149 73t182.5 24.5q134 0 241.5 -46.5t174.5 -144.5t67 -235h-240q0 110 -67 163.5t-179 53.5q-94 0 -155.5 -55.5t-61.5 -147.5q0 -36 6 -72.5
t19 -91t16 -71.5h209v-125h-198q0 -122 -50 -237t-139 -201l6 -7q70 26 115.5 36t122.5 10q46 0 162 -23t143 -23q61 0 91 42.5t36 148.5h240v-43q0 -194 -112.5 -293.5t-287.5 -99.5q-66 0 -234 42t-245 42q-56 0 -108 -21t-97 -42t-82 -21z" />
    <glyph glyph-name="currency" unicode="&#xa4;" 
d="M319 238l-135 -134l-116 117l137 135q-123 123 -123 361t123 358l-137 137l116 117l135 -133q65 56 161 87.5t200 31.5q105 0 200 -31t162 -88l136 133l116 -117l-137 -137q123 -120 123 -358t-123 -361l137 -135l-116 -117l-136 134q-67 -58 -162 -89.5t-200 -31.5
q-104 0 -200 31.5t-161 89.5zM297 717q0 -160 114 -277.5t269 -117.5q157 0 271 117.5t114 277.5t-114 277.5t-271 117.5q-155 0 -269 -117.5t-114 -277.5z" />
    <glyph glyph-name="brokenbar" unicode="&#xa6;" horiz-adv-x="604" 
d="M207 0v453h190v-453h-190zM207 881v452h190v-452h-190z" />
    <glyph glyph-name="section" unicode="&#xa7;" 
d="M1108 1288l-152 -147q-56 67 -135.5 106t-161.5 39q-71 0 -116 -36.5t-45 -102.5q0 -33 24 -60t65 -47t93.5 -38t111 -37.5t117 -41t111 -52.5t93.5 -68t65 -91.5t24 -119.5q0 -119 -73 -186t-191 -91q38 -26 59 -44t49 -49.5t41 -72t13 -90.5q0 -71 -34 -127.5
t-91.5 -91t-128.5 -52t-150 -17.5q-268 0 -483 178l147 117q80 -68 159.5 -101t176.5 -33q176 0 176 142q0 36 -39.5 66t-102 53.5t-138.5 48t-152 58t-138.5 76t-102 110t-39.5 151.5q0 112 79 187.5t191 84.5v6q-65 24 -107 92.5t-42 141.5q0 138 104 219.5t266 81.5
q131 0 254 -45.5t203 -116.5zM336 696q0 -48 37 -86t77.5 -58t140.5 -61q6 -3 9 -4q184 -73 260 -73q75 0 120.5 30t45.5 84q0 60 -65 112t-175 93q-203 78 -309 78q-67 0 -104 -31t-37 -84z" />
    <glyph glyph-name="copyright" unicode="&#xa9;" horiz-adv-x="1634" 
d="M817 -12q-151 0 -284.5 56t-228 152.5t-149.5 230.5t-55 286q0 205 93 374t257.5 266t366.5 97q152 0 285.5 -57t228 -155t149 -234.5t54.5 -290.5q0 -152 -54.5 -286t-149 -230.5t-228 -152.5t-285.5 -56zM817 98q157 0 286 83.5t201 224t72 307.5q0 170 -71.5 312
t-200 226t-287.5 84q-157 0 -286 -85t-201 -227t-72 -310q0 -167 72 -307.5t201 -224t286 -83.5zM1124 555h45l-32 -154q-4 -17 -17.5 -26t-44.5 -19q-108 -37 -217 -37q-209 0 -329.5 105.5t-120.5 312.5q0 56 14 111t49 110t86.5 96t133.5 67t183 26q105 0 216 -39
q49 -16 49 -43v-147h-49q-21 76 -72.5 128t-143.5 52q-119 0 -177 -93t-60 -255q-3 -176 54 -278.5t186 -102.5q165 0 247 186z" />
    <glyph glyph-name="guillemotleft" unicode="&#xab;" 
d="M735 201h-239l-322 399l322 397h239l-327 -397zM1188 201h-240l-321 399l321 397h240l-328 -397z" />
    <glyph glyph-name="logicalnot" unicode="&#xac;" horiz-adv-x="1634" 
d="M1417 932v-666h-192v475h-1008v191h1200z" />
    <glyph glyph-name="uni00AD" unicode="&#xad;" horiz-adv-x="907" 
d="M131 713h643v-228h-643v228z" />
    <glyph glyph-name="registered" unicode="&#xae;" horiz-adv-x="1634" 
d="M473 1083v39h408q101 0 166 -51t65 -149q0 -73 -44.5 -132t-117.5 -81l121 -172q62 -92 135 -172v-25h-174q-29 0 -61 48t-80 142.5t-84 149.5h-66v-203q0 -34 0.5 -44.5t10 -23t27 -15.5t55.5 -5v-49h-361v49q68 4 81 17.5t13 70.5v520q0 31 -1 43t-11 24t-27.5 14.5
t-54.5 4.5zM809 1073h-68v-344h66q63 0 91 53t28 131q0 86 -30 123t-87 37zM817 -12q-151 0 -284.5 56t-228 152.5t-149.5 230.5t-55 286q0 205 93 374t257.5 266t366.5 97q152 0 285.5 -57t228 -155t149 -234.5t54.5 -290.5q0 -152 -54.5 -286t-149 -230.5t-228 -152.5
t-285.5 -56zM817 98q157 0 286 83.5t201 224t72 307.5q0 170 -71.5 312t-200 226t-287.5 84q-157 0 -286 -85t-201 -227t-72 -310q0 -167 72 -307.5t201 -224t286 -83.5z" />
    <glyph glyph-name="degree" unicode="&#xb0;" horiz-adv-x="1089" 
d="M297 1059q0 -104 73 -181t175 -77q101 0 174.5 77.5t73.5 180.5q0 105 -73.5 182.5t-174.5 77.5q-102 0 -175 -77.5t-73 -182.5zM156 1059q0 164 113 277.5t276 113.5t276 -113.5t113 -277.5q0 -163 -113 -276t-276 -113t-276 113t-113 276z" />
    <glyph glyph-name="plusminus" unicode="&#xb1;" horiz-adv-x="1634" 
d="M217 641v190h504v367h192v-367h504v-190h-504v-369h-192v369h-504zM1417 190v-190h-1200v190h1200z" />
    <glyph glyph-name="mu" unicode="&#xb5;" 
d="M891 1161v37h328v-37q-19 0 -32 -17.5t-13 -53.5v-660q0 -442 -490 -442q-155 0 -252 47v-434q0 -36 13 -53t32 -17v-39h-334v39q50 0 50 70v1489q0 71 -50 71v37h334v-37q-19 0 -32 -17.5t-13 -53.5v-687q0 -107 65.5 -168t186.5 -61t185.5 61t64.5 168v687q0 71 -43 71
z" />
    <glyph glyph-name="paragraph" unicode="&#xb6;" horiz-adv-x="1634" 
d="M733 1434h596v-50q-104 -12 -132 -30t-28 -72v-1610h-163v1696h-164v-1696h-164v920q-182 0 -277.5 117.5t-95.5 316.5q0 217 99 312.5t329 95.5zM678 -328h164h-164z" />
    <glyph glyph-name="periodcentered" unicode="&#xb7;" horiz-adv-x="868" 
d="M270 700q0 71 51.5 121.5t120.5 50.5t120.5 -50.5t51.5 -121.5t-51.5 -121.5t-120.5 -50.5t-120.5 50.5t-51.5 121.5z" />
    <glyph glyph-name="guillemotright" unicode="&#xbb;" 
d="M174 997h240l321 -397l-321 -399h-240l328 399zM627 997h239l322 -397l-322 -399h-239l325 399z" />
    <glyph glyph-name="divide" unicode="&#xf7;" horiz-adv-x="1634" 
d="M217 694h1200v-190h-1200v190zM645 1090q0 71 51.5 121.5t120.5 50.5t120.5 -50.5t51.5 -121.5t-51.5 -121.5t-120.5 -50.5t-120.5 50.5t-51.5 121.5zM645 109q0 71 51.5 121.5t120.5 50.5t120.5 -50.5t51.5 -121.5q0 -69 -51.5 -118.5t-120.5 -49.5t-120.5 49.5
t-51.5 118.5z" />
    <glyph glyph-name="florin" unicode="&#x192;" 
d="M-94 -465l-23 12l88 273l35 -13q3 -67 38.5 -99t107.5 -32q41 0 72.5 17t53 44.5t39 75t29 94t23.5 116.5q56 310 116 669h-252v152h279q20 127 43 217.5t58 168t82 123.5t113 71.5t153 25.5q58 0 153 -31q15 -5 36.5 -13.5t33.5 -12.5t18 -4q4 0 6.5 2t7 6.5t9.5 7.5
l28 -10l-71 -262l-37 12q-3 55 -41 92t-90 37q-62 0 -102 -32t-73.5 -127t-60.5 -271h240v-152h-266q-20 -101 -50.5 -304.5t-66.5 -362t-98 -320.5q-39 -104 -133 -158.5t-205 -54.5q-76 0 -176 31q-16 5 -35.5 12.5t-31.5 11.5t-19 4q-19 0 -31 -16z" />
    <glyph glyph-name="uni0394" unicode="&#x394;" horiz-adv-x="1366" 
d="M4 2l723 1409l635 -1409h-1358zM647 907l-381 -739h719z" />
    <glyph glyph-name="uni03BC" unicode="&#x3bc;" 
d="M891 1161v37h328v-37q-19 0 -32 -17.5t-13 -53.5v-660q0 -442 -490 -442q-155 0 -252 47v-434q0 -36 13 -53t32 -17v-39h-334v39q50 0 50 70v1489q0 71 -50 71v37h334v-37q-19 0 -32 -17.5t-13 -53.5v-687q0 -107 65.5 -168t186.5 -61t185.5 61t64.5 168v687q0 71 -43 71
z" />
    <glyph glyph-name="afii10023" unicode="&#x401;" horiz-adv-x="1306" 
d="M874 631h-468v-395h741q25 0 37.5 14.5t23.5 52.5h25v-369h-25q-10 38 -23 52t-38 14h-1043v33q30 12 42 29t12 47v1214q0 32 -12 48.5t-42 27.5v35h1022q45 0 60 69h28v-373h-28q-7 38 -21 53t-39 15h-720v-340h468q25 0 39 15t21 51h29v-361h-29q-7 37 -21 52.5
t-39 15.5zM506 1729q47 0 79.5 -32t32.5 -79q0 -42 -33.5 -73.5t-78.5 -31.5q-43 0 -76 32.5t-33 76.5t32.5 75.5t76.5 31.5zM840 1729q45 0 77.5 -30.5t32.5 -74.5q0 -47 -31.5 -79t-78.5 -32q-44 0 -76.5 32.5t-32.5 76.5q0 43 32.5 75t76.5 32z" />
    <glyph glyph-name="afii10051" unicode="&#x402;" horiz-adv-x="1679" 
d="M1124 1204h-327v-379q43 22 137.5 44t159.5 22q221 0 344 -113t123 -299q0 -215 -106 -347t-302 -132h-72v311h39q10 -55 60 -55q43 0 75.5 47t32.5 137q0 228 -250 228q-55 0 -132 -19.5t-109 -42.5v-497q0 -34 13.5 -49t51.5 -21v-39h-393v39q31 6 43 21t12 49v1095
h-327q-48 0 -67.5 -12t-25.5 -51h-36v342h36q6 -30 25.5 -39.5t67.5 -9.5h927q48 0 67.5 9.5t25.5 39.5h36v-342h-36q-6 39 -25.5 51t-67.5 12z" />
    <glyph glyph-name="afii10052" unicode="&#x403;" horiz-adv-x="1157" 
d="M547 39v-39h-455v39q54 6 71 20.5t17 49.5v1214q0 37 -17.5 51.5t-74.5 20.5v39h903q43 0 61.5 9.5t24.5 39.5h37v-328h-37q-6 30 -24.5 39.5t-61.5 9.5h-538v-1095q0 -36 17.5 -50t76.5 -20zM920 1864l-353 -381h-186l240 381h299z" />
    <glyph glyph-name="afii10053" unicode="&#x404;" 
d="M1034 457l33 12l229 -297l-22 -25q-20 27 -45 27q-16 0 -41.5 -19t-61.5 -46.5t-85.5 -55t-131.5 -46.5t-180 -19q-151 0 -276 57t-206.5 155t-126 227t-44.5 275q0 149 34 272.5t94.5 210.5t144 147.5t182.5 89t210 28.5q176 0 301 -70q24 -13 54.5 -31.5t46.5 -27
t26 -8.5q23 0 60 24l12 -14l-178 -326l-25 11q2 8 2 26q0 73 -83 130t-189 57q-358 0 -410 -371h361q49 0 67.5 9.5t24.5 39.5h39v-321h-39q-6 26 -25 34.5t-67 8.5h-367q22 -184 132.5 -296t273.5 -112q112 0 200.5 59.5t88.5 128.5q0 30 -13 56z" />
    <glyph glyph-name="afii10054" unicode="&#x405;" 
d="M117 66l-27 16l164 338l37 -17q-4 -20 -4 -26q0 -45 63 -84t149.5 -59.5t166.5 -20.5q179 0 256 54.5t77 156.5q0 61 -47.5 101.5t-123.5 63t-167.5 41.5t-183 46t-167.5 67t-123.5 114t-47.5 177q0 83 31 156t91.5 132t161.5 93.5t230 34.5q179 0 328 -57
q27 -11 62.5 -27.5t53.5 -23.5t31 -7q36 0 62 33l22 -12l-202 -338l-37 16q0 3 1 20.5t1 26.5q0 55 -95 107.5t-251 52.5q-111 0 -164 -46.5t-53 -121.5q0 -46 29.5 -79t79 -53.5t114 -36t136 -31.5t143 -35.5t136 -51.5t114 -76t79 -114t29.5 -160q0 -86 -38.5 -164.5
t-112 -142.5t-195.5 -102.5t-275 -38.5q-165 0 -321 55q-32 12 -69.5 29t-58 24.5t-38.5 7.5q-17 0 -47 -38z" />
    <glyph glyph-name="afii10055" unicode="&#x406;" horiz-adv-x="757" 
d="M608 39v-39h-458v39q58 6 75 20.5t17 49.5v1214q0 37 -17 51.5t-75 20.5v39h458v-39q-58 -6 -76 -20.5t-18 -51.5v-1214q0 -35 18 -49.5t76 -20.5z" />
    <glyph glyph-name="afii10056" unicode="&#x407;" horiz-adv-x="757" 
d="M608 39v-39h-458v39q58 6 75 20.5t17 49.5v1214q0 37 -17 51.5t-75 20.5v39h458v-39q-58 -6 -76 -20.5t-18 -51.5v-1214q0 -35 18 -49.5t76 -20.5zM33 1788h250v-272h-250v272zM473 1788h252v-272h-252v272z" />
    <glyph glyph-name="afii10057" unicode="&#x408;" horiz-adv-x="1058" 
d="M35 66l-33 16l131 326l25 -7q-11 -50 34 -95t109.5 -69t118.5 -24q95 0 137.5 42.5t42.5 125.5v942q0 35 -13 50.5t-50 21.5v39h397v-39q-36 -6 -49 -21t-13 -51v-975q0 -181 -112 -270.5t-305 -89.5q-141 0 -248 47q-21 9 -48 24t-43 22t-28 7q-35 0 -53 -22z" />
    <glyph glyph-name="afii10058" unicode="&#x409;" horiz-adv-x="2101" 
d="M1503 0h-639v39q42 6 56 20.5t14 49.5v1095h-451v-559q0 -370 -80 -477q-68 -90 -141.5 -129t-179.5 -39h-51v311h39q5 -28 13.5 -41.5t25.5 -13.5q44 0 73 56.5t29 185.5v825q0 36 -14.5 51t-55.5 21v39h1137v-39q-42 -6 -57 -21t-15 -49v-459h297q131 0 230.5 -35
t159 -95.5t89 -136.5t29.5 -165q0 -70 -18 -133t-57.5 -118.5t-98 -95.5t-144 -63.5t-190.5 -23.5zM1739 434q0 110 -66 156.5t-219 46.5h-248v-408h248q153 0 219 47.5t66 157.5z" />
    <glyph glyph-name="afii10059" unicode="&#x40a;" horiz-adv-x="2220" 
d="M2128 434q0 -70 -18 -133t-57.5 -118.5t-98 -95.5t-144 -63.5t-190.5 -23.5h-639v39q42 6 56 20.5t14 49.5v528h-588v-528q0 -34 15 -49t57 -21v-39h-414v39q41 6 55 21t14 49v1214q0 36 -14 51t-55 21v39h414v-39q-42 -6 -57 -21t-15 -51v-457h588v457q0 36 -14 51
t-56 21v39h414v-39q-42 -6 -57 -21t-15 -49v-459h297q131 0 230.5 -35t159 -95.5t89 -136.5t29.5 -165zM1855 434q0 110 -65.5 156.5t-218.5 46.5h-248v-408h248q152 0 218 47.5t66 157.5z" />
    <glyph glyph-name="afii10060" unicode="&#x40b;" horiz-adv-x="1679" 
d="M1624 39v-39h-414v39q42 6 57 21t15 51v256q0 74 -11 120t-42 80.5t-88 49t-148 14.5h-196v-522q0 -34 13.5 -49t51.5 -21v-39h-393v39q31 6 43 21t12 49v1095h-327q-48 0 -67.5 -12t-25.5 -51h-36v342h36q6 -30 25.5 -39.5t67.5 -9.5h927q48 0 67.5 9.5t25.5 39.5h36
v-342h-36q-6 39 -25.5 51t-67.5 12h-327v-344h288q221 0 345 -113.5t124 -304.5v-331q0 -36 14.5 -51t55.5 -21z" />
    <glyph glyph-name="afii10061" unicode="&#x40c;" 
d="M528 39v-39h-407v39q37 6 50 20.5t13 49.5v1214q0 36 -13.5 51t-55.5 21v39h407v-39q-38 -6 -51.5 -21t-13.5 -51v-473h6l430 465q33 38 33 45q0 9 -3.5 15.5t-6.5 9t-10.5 6.5t-8.5 4v39h426v-39q-61 -9 -90 -41l-449 -496l379 -596q10 -16 27 -43t25.5 -39.5t22 -33
t21 -30.5t18.5 -24t19.5 -21t18.5 -14.5t20 -11.5t21 -6v-39h-416v39q29 3 29 37q0 16 -23 51l-350 547l-139 -146v-419q0 -34 14.5 -49t56.5 -21zM1042 1864l-352 -381h-186l239 381h299z" />
    <glyph glyph-name="afii10062" unicode="&#x40e;" 
d="M414 135l151 332l-364 756q-17 35 -26.5 53t-28 45.5t-40 45t-47.5 28.5v39h424v-39q-21 0 -40 -8.5t-19 -20.5q0 -7 3.5 -16t12 -25t11.5 -22l254 -529h4l239 533q17 34 17 53q0 18 -20 26.5t-44 8.5v39h408v-39q-55 -12 -74 -56l-535 -1179q-28 -62 -28 -80
q0 -20 13 -30.5t32 -10.5v-39h-426v39q43 5 71 24t52 72zM782 1778h269v-47q0 -119 -103 -197t-252 -78q-151 0 -253.5 78.5t-102.5 196.5v47h270v-39q-22 -3 -32.5 -15.5t-10.5 -23.5q0 -31 39 -49.5t90 -18.5q49 0 91 19t42 49q0 12 -12.5 24t-34.5 15v39z" />
    <glyph glyph-name="afii10145" unicode="&#x40f;" horiz-adv-x="1513" 
d="M1395 39v-39h-504v-172q0 -34 15 -49t57 -21v-39h-416v39q42 6 56.5 21t14.5 49v172h-497v39q41 6 55 21t14 49v1214q0 36 -14 51t-55 21v39h414v-39q-42 -6 -57 -21t-15 -51v-1094h588v1094q0 36 -14 51t-56 21v39h414v-39q-42 -6 -57 -21t-15 -51v-1214q0 -34 15 -49
t57 -21z" />
    <glyph glyph-name="afii10017" unicode="&#x410;" horiz-adv-x="1374" 
d="M1004 164l-76 203h-522l-78 -203q-17 -46 -17 -68q0 -42 58 -63v-33h-379v33q31 8 49 29.5t41 82.5l422 1102q18 53 18 84q0 50 -47 68v35h406v-35q-50 -15 -50 -60q0 -23 17 -69l436 -1106q29 -75 49.5 -99t54.5 -32v-33h-419v33q53 15 53 65q0 23 -16 66zM670 1067h-4
l-187 -504h373z" />
    <glyph glyph-name="afii10018" unicode="&#x411;" 
d="M1108 1198h-702v-346h450q228 0 339.5 -103.5t111.5 -324.5q0 -222 -111 -323t-340 -101h-752v33q30 11 42 27.5t12 48.5v1214q0 32 -12 48.5t-42 27.5v35h1004q27 0 39.5 14t19.5 55h27v-373h-27q-8 38 -20.5 53t-38.5 15zM827 614h-421v-378h421q112 0 166 32
q60 35 60 156q0 114 -54.5 152t-171.5 38z" />
    <glyph glyph-name="afii10019" unicode="&#x412;" horiz-adv-x="1390" 
d="M1126 752q191 -92 191 -340q0 -221 -121 -316q-122 -96 -307 -96h-785v33q30 12 42 29t12 47v1214q0 32 -12 48.5t-42 27.5v35h777q183 0 293 -84q108 -83 108 -295q0 -209 -156 -303zM848 1198h-442v-334h442q96 0 140 36t44 130q0 90 -42.5 129t-141.5 39zM834 627
h-428v-391h428q115 0 171 42t56 154q0 111 -55.5 153t-171.5 42z" />
    <glyph glyph-name="afii10020" unicode="&#x413;" horiz-adv-x="1179" 
d="M461 33v-33h-357v33q31 12 42.5 28.5t11.5 47.5v1214q0 32 -11.5 49t-42.5 27v35h971q25 0 38.5 14t23.5 55h24v-373h-24q-11 38 -24 53t-38 15h-667v-1089q0 -55 53 -76z" />
    <glyph glyph-name="afii10021" unicode="&#x414;" horiz-adv-x="1445" 
d="M524 1399v35h398v-35q-54 -9 -54 -62q0 -20 25 -90l377 -1014h65q44 0 60 70h26v-369h-26q-15 66 -60 66h-1220q-27 0 -41 -14.5t-21 -51.5h-28v369h28q7 -40 21 -55t41 -15h63l377 1014q25 70 25 90q0 53 -56 62zM434 233h563l-280 785z" />
    <glyph glyph-name="afii10022" unicode="&#x415;" horiz-adv-x="1306" 
d="M874 631h-468v-395h741q25 0 37.5 14.5t23.5 52.5h25v-369h-25q-10 38 -23 52t-38 14h-1043v33q30 12 42 29t12 47v1214q0 32 -12 48.5t-42 27.5v35h1022q45 0 60 69h28v-373h-28q-7 38 -21 53t-39 15h-720v-340h468q25 0 39 15t21 51h29v-361h-29q-7 37 -21 52.5
t-39 15.5z" />
    <glyph glyph-name="afii10024" unicode="&#x416;" horiz-adv-x="1988" 
d="M870 109v473l-88 88l-338 -518q-41 -65 -41 -78q0 -26 46 -41v-33h-449v33q56 12 84 47q33 46 74 108l440 666l-453 457q-19 19 -36.5 39.5t-24 26.5t-19 12t-34.5 10v35h467v-35q-49 -9 -49 -41q0 -21 32 -53l389 -396v414q0 61 -53 76v35h354v-35q-29 -10 -40 -27
t-11 -49v-414l387 396q31 31 31 53q0 32 -49 41v35h471v-35q-17 -3 -27 -6t-20 -10.5t-16 -14.5t-22 -24t-32 -33l-452 -457l442 -666l72 -108q28 -35 84 -47v-33h-449v33q45 15 45 41q0 13 -41 78l-338 518l-86 -88v-473q0 -56 51 -76v-33h-354v33q29 12 41 28.5t12 47.5z
" />
    <glyph glyph-name="afii10025" unicode="&#x417;" horiz-adv-x="1402" 
d="M82 174l-21 19l160 299l23 -19q0 -51 32 -92t117 -94q53 -34 138 -52t169 -18q367 0 367 215q0 122 -82 169.5t-272 47.5q-105 0 -143 -15.5t-38 -58.5h-26v359h26q0 -43 38 -59.5t143 -16.5q184 0 253.5 37.5t69.5 134.5q0 187 -305 187q-107 0 -207 -32.5t-164.5 -92
t-64.5 -129.5l-23 -21l-157 299l20 21q23 -29 39 -29q24 0 68 33q137 97 251 144.5t238 47.5q158 0 282 -45t198.5 -138t74.5 -220q0 -105 -32 -172t-111 -131q94 -62 137 -140.5t43 -199.5t-49 -208t-138 -135.5t-196 -70t-240 -21.5q-119 0 -212.5 24.5t-184.5 84.5
q-14 9 -59 40t-79 53t-42 22q-17 0 -41 -27z" />
    <glyph glyph-name="afii10026" unicode="&#x418;" horiz-adv-x="1476" 
d="M1069 109v833l-663 -754v-79q0 -55 55 -76v-33h-357v33q30 12 42 29t12 47v1214q0 61 -54 76v35h357v-35q-55 -15 -55 -76v-831l663 751v80q0 61 -53 76v35h356v-35q-53 -15 -53 -76v-1214q0 -31 12 -47.5t41 -28.5v-33h-356v33q53 21 53 76z" />
    <glyph glyph-name="afii10027" unicode="&#x419;" horiz-adv-x="1476" 
d="M1069 109v833l-663 -754v-79q0 -55 55 -76v-33h-357v33q30 12 42 29t12 47v1214q0 61 -54 76v35h357v-35q-55 -15 -55 -76v-831l663 751v80q0 61 -53 76v35h356v-35q-53 -15 -53 -76v-1214q0 -31 12 -47.5t41 -28.5v-33h-356v33q53 21 53 76zM479 1673v23h168v-23
q-15 0 -17.5 -2t-2.5 -11v-5q0 -41 31 -71t75 -30t75.5 30t31.5 71q0 15 -4 16q-4 2 -17 2v23h168v-23q-26 0 -26 -51q0 -82 -70 -135t-154 -53q-87 0 -158 53t-71 135q0 27 -9.5 39t-19.5 12z" />
    <glyph glyph-name="afii10028" unicode="&#x41a;" horiz-adv-x="1368" 
d="M918 152l-338 518l-174 -174v-387q0 -55 55 -76v-33h-357v33q30 12 42 29t12 47v1214q0 61 -54 76v35h357v-35q-55 -15 -55 -76v-500l475 482q32 32 32 53q0 32 -49 41v35h469v-35q-21 -4 -34 -10t-19.5 -12t-25.5 -27t-37 -39l-453 -457l442 -666l72 -108q28 -35 84 -47
v-33h-449v33q45 15 45 41q0 17 -40 78z" />
    <glyph glyph-name="afii10029" unicode="&#x41b;" horiz-adv-x="1327" 
d="M1333 33v-33h-409v33q55 15 55 59q0 30 -18 82l-304 844l-305 -844q-20 -59 -20 -82q0 -44 55 -59v-33h-391v33q52 9 61 37l39 104l398 1073q24 67 24 90q0 53 -53 62v35h397v-35q-53 -9 -53 -62q0 -20 25 -90l397 -1073q33 -89 52.5 -115t49.5 -26z" />
    <glyph glyph-name="afii10030" unicode="&#x41c;" horiz-adv-x="1665" 
d="M1561 33v-33h-359v33q53 21 53 76v882l-444 -971l-424 971v-882q0 -31 11.5 -47.5t41.5 -28.5v-33h-336v33q30 12 42 29t12 47v1214q0 61 -54 76v35h441v-35q-39 -12 -39 -56q0 -22 12 -49l313 -721l316 709q20 48 20 72q0 42 -41 45v35h435v-35q-56 -15 -56 -76v-1214
q0 -30 12.5 -47t43.5 -29z" />
    <glyph glyph-name="afii10031" unicode="&#x41d;" horiz-adv-x="1478" 
d="M1071 109v518h-663v-518q0 -55 53 -76v-33h-357v33q31 12 42.5 28.5t11.5 47.5v1214q0 32 -11.5 49t-42.5 27v35h357v-35q-30 -10 -41.5 -26.5t-11.5 -49.5v-461h663v461q0 58 -55 76v35h358v-35q-55 -15 -55 -76v-1214q0 -31 12 -47.5t43 -28.5v-33h-358v33q55 21 55 76
z" />
    <glyph glyph-name="afii10032" unicode="&#x41e;" horiz-adv-x="1468" 
d="M733 1458q188 0 338 -92t237 -263.5t87 -393.5q0 -166 -50.5 -304t-139 -231.5t-210 -145t-262.5 -51.5q-138 0 -258.5 52.5t-209.5 146.5t-140 234.5t-51 308.5q0 329 181 534t478 205zM733 1217q-177 0 -289 -141t-112 -357q0 -219 112 -359.5t289 -140.5
q176 0 290 140t114 352q0 225 -112.5 365.5t-291.5 140.5z" />
    <glyph glyph-name="afii10033" unicode="&#x41f;" horiz-adv-x="1476" 
d="M1069 109v1089h-663v-1089q0 -55 55 -76v-33h-357v33q30 12 42 29t12 47v1214q0 61 -54 76v35h1268v-35q-53 -15 -53 -76v-1214q0 -31 12 -47.5t41 -28.5v-33h-356v33q53 21 53 76z" />
    <glyph glyph-name="afii10034" unicode="&#x420;" horiz-adv-x="1314" 
d="M461 33v-33h-357v33q31 12 42.5 28.5t11.5 47.5v1214q0 32 -11.5 49t-42.5 27v35h717q227 0 339 -101.5t112 -324.5q0 -219 -112.5 -322.5t-338.5 -103.5h-413v-473q0 -55 53 -76zM791 1198h-383v-379h383q109 0 165 33q60 35 60 156q0 111 -54.5 150.5t-170.5 39.5z" />
    <glyph glyph-name="afii10035" unicode="&#x421;" horiz-adv-x="1449" 
d="M1188 473l24 19l158 -299l-20 -19q-21 27 -39 27q-10 0 -44.5 -22t-79 -53.5t-57.5 -39.5q-97 -63 -176 -86q-90 -23 -206 -23q-140 0 -262 49t-214 140.5t-145 234t-53 318.5q0 171 51 311t141.5 233.5t214.5 144t269 50.5q106 0 211 -30.5t174 -81.5q143 -105 170 -105
q30 0 45 21l20 -21l-158 -299l-24 21q0 70 -60 129.5t-154 92t-196 32.5q-197 0 -323.5 -136.5t-126.5 -361.5q0 -227 125.5 -363.5t324.5 -136.5q147 0 262 70q84 51 116 92t32 92z" />
    <glyph glyph-name="afii10036" unicode="&#x422;" horiz-adv-x="1175" 
d="M766 33v-33h-358v33q30 12 41.5 28.5t11.5 47.5v1089h-355q-26 0 -40 -15t-21 -53h-27v373h27q7 -40 20.5 -54.5t40.5 -14.5h961q26 0 38 14t23 55h29v-373h-29q-11 39 -23 53.5t-38 14.5h-354v-1089q0 -31 11.5 -47.5t41.5 -28.5z" />
    <glyph glyph-name="afii10037" unicode="&#x423;" horiz-adv-x="1363" 
d="M90 1399v35h408v-35q-56 -12 -56 -51q0 -26 21 -88l276 -773l279 773q18 52 18 81q0 46 -53 58v35h393v-35q-34 0 -50.5 -22t-51.5 -117l-354 -957q-68 -184 -159 -255t-251 -71q-91 0 -141 11.5t-162 56.5q-66 27 -107 27q-28 0 -51 -29l-24 12l106 363l27 -10
q0 -87 92.5 -140t216.5 -53q33 0 104 23l-381 1022l-17.5 50t-14 39t-13 23t-22 18.5t-33.5 8.5z" />
    <glyph glyph-name="afii10038" unicode="&#x424;" horiz-adv-x="1728" 
d="M1042 33v-33h-356v33q55 21 55 76v245h-247q-226 0 -338.5 104t-112.5 324q0 222 112 323t339 101h247v117q0 58 -55 76v35h356v-35q-55 -18 -55 -76v-117h248q227 0 339 -101t112 -323q0 -220 -112.5 -324t-338.5 -104h-248v-245q0 -55 55 -76zM1206 971h-219v-379h219
q117 0 170.5 38t53.5 152q0 112 -53 150.5t-171 38.5zM522 592h219v379h-219q-118 0 -170.5 -38.5t-52.5 -150.5q0 -59 14 -97.5t45 -58.5t69 -27t95 -7z" />
    <glyph glyph-name="afii10039" unicode="&#x425;" horiz-adv-x="1296" 
d="M821 1399v35h449v-35q-23 -2 -37 -6t-28 -18t-21 -25t-27 -43.5t-35 -55.5l-329 -503l348 -564l67 -106q20 -32 82 -45v-33h-454v33q51 15 51 55q0 21 -31 72l-221 354l-211 -342q-35 -55 -35 -80q0 -53 57 -59v-33h-440v33q34 0 56.5 23t89.5 128l346 547l-318 520
q-12 20 -32 54t-27 43.5t-22 25t-30.5 19.5t-39.5 6v35h463v-35q-52 -15 -52 -62q0 -25 37 -86l178 -288l185 288q41 63 41 92q0 47 -60 56z" />
    <glyph glyph-name="afii10040" unicode="&#x426;" horiz-adv-x="1452" 
d="M956 1399v35h357v-35q-30 -10 -41.5 -26.5t-11.5 -49.5v-1087h104q26 0 40 15.5t21 53.5h27v-371h-27q-7 38 -20.5 52t-40.5 14h-1260v33q30 12 42 29t12 47v1214q0 61 -54 76v35h357v-35q-53 -15 -53 -76v-1087h602v1087q0 61 -54 76z" />
    <glyph glyph-name="afii10041" unicode="&#x427;" horiz-adv-x="1298" 
d="M838 1399v35h356v-35q-30 -10 -41.5 -26.5t-11.5 -49.5v-1214q0 -31 11.5 -47.5t41.5 -28.5v-33h-356v33q53 21 53 76v473h-338q-226 0 -338.5 103.5t-112.5 322.5v315q0 33 -11.5 49.5t-41.5 26.5v35h357v-35q-31 -10 -42.5 -27t-11.5 -49v-315q0 -121 62 -156
q62 -33 170 -33h307v504q0 33 -11.5 49.5t-41.5 26.5z" />
    <glyph glyph-name="afii10042" unicode="&#x428;" horiz-adv-x="1769" 
d="M1665 33v-33h-1561v33q30 12 42 29t12 47v1214q0 61 -54 76v35h357v-35q-55 -15 -55 -76v-1087h354v1087q0 33 -11.5 49.5t-41.5 26.5v35h354v-35q-29 -10 -40 -27t-11 -49v-1087h352v1087q0 61 -55 76v35h358v-35q-55 -15 -55 -76v-1229q0 -44 55 -61z" />
    <glyph glyph-name="afii10043" unicode="&#x429;" horiz-adv-x="1804" 
d="M406 1323v-1087h354v1087q0 33 -11.5 49.5t-41.5 26.5v35h354v-35q-29 -10 -40 -27t-11 -49v-1087h352v1087q0 61 -55 76v35h358v-35q-55 -15 -55 -76v-1087h106q25 0 38 15t24 54h26v-371h-26q-10 38 -23.5 52t-38.5 14h-1612v33q30 12 42 29t12 47v1214q0 61 -54 76v35
h357v-35q-55 -15 -55 -76z" />
    <glyph glyph-name="afii10044" unicode="&#x42a;" horiz-adv-x="1390" 
d="M123 1434h481v-35q-53 -15 -53 -76v-471h352q226 0 338.5 -104t112.5 -324q0 -222 -112 -323t-339 -101h-655v33q30 10 41.5 26.5t11.5 49.5v1089h-178q-25 0 -39 -15t-21 -53h-26v373h26q7 -40 20.5 -54.5t39.5 -14.5zM874 614h-323v-378h323q112 0 166 32q58 34 58 156
q0 59 -14.5 97.5t-46 58.5t-69 27t-94.5 7z" />
    <glyph glyph-name="afii10045" unicode="&#x42b;" horiz-adv-x="1787" 
d="M104 1399v35h357v-35q-55 -18 -55 -76v-471h354q226 0 338 -104t112 -324q0 -222 -111.5 -323t-338.5 -101h-656v33q30 11 42 27.5t12 48.5v1214q0 32 -12 48.5t-42 27.5zM729 614h-323v-378h323q112 0 166 32q59 35 59 156q0 114 -54 152t-171 38zM1683 33v-33h-356v33
q30 12 41.5 28.5t11.5 47.5v1214q0 33 -11.5 49.5t-41.5 26.5v35h356v-35q-30 -10 -41.5 -26.5t-11.5 -49.5v-1214q0 -55 53 -76z" />
    <glyph glyph-name="afii10046" unicode="&#x42c;" horiz-adv-x="1308" 
d="M104 1399v35h357v-35q-53 -18 -53 -76v-471h413q226 0 338.5 -104t112.5 -324q0 -222 -112 -323t-339 -101h-717v33q31 10 42.5 27t11.5 49v1214q0 32 -11.5 49t-42.5 27zM791 614h-383v-378h383q111 0 165 32q60 35 60 156q0 114 -54 152t-171 38z" />
    <glyph glyph-name="afii10047" unicode="&#x42d;" horiz-adv-x="1452" 
d="M80 193l162 299l20 -19q0 -51 32.5 -91.5t117.5 -92.5q115 -70 260 -70q178 0 298 109t146 297h-448q-44 0 -62 -68h-26v361h26q7 -36 22 -51t40 -15h442q-35 167 -154 266t-284 99q-102 0 -196 -32.5t-154 -92t-60 -129.5l-20 -21l-162 299l22 21q17 -25 41 -25
q27 0 68 35q135 114 250 149q115 37 241 37q147 0 271.5 -50.5t214 -144t140 -233.5t50.5 -311q0 -176 -53 -318.5t-145.5 -234t-213.5 -140.5t-261 -49q-122 0 -204.5 23.5t-178.5 85.5q-12 8 -59 40.5t-80 53.5t-42 21q-15 0 -39 -27z" />
    <glyph glyph-name="afii10048" unicode="&#x42e;" horiz-adv-x="1794" 
d="M461 33v-33h-357v33q30 12 42 29t12 47v1214q0 61 -54 76v35h357v-35q-55 -15 -55 -76v-477h235q25 278 169 445t366 167q163 0 287 -95.5t190.5 -265.5t66.5 -390q0 -207 -66.5 -372.5t-191 -261.5t-286.5 -96q-226 0 -369 174.5t-168 462.5h-233v-505q0 -55 55 -76z
M1176 1214q-90 0 -157 -73t-98.5 -181.5t-31.5 -232.5q0 -127 31.5 -236.5t98.5 -182t157 -72.5q91 0 158 72t98.5 180t31.5 231q0 133 -30 242.5t-97 181t-161 71.5z" />
    <glyph glyph-name="afii10049" unicode="&#x42f;" horiz-adv-x="1372" 
d="M1268 33v-33h-357v33q54 22 54 76v477h-306l-231 -422q-41 -74 -41 -92q0 -30 43 -39v-33h-418v33q16 1 29 5t25.5 14t20.5 17.5t20 26t18 29t20.5 37t22.5 39.5l221 385q-311 71 -311 422q0 106 22 180.5t74.5 132t146.5 85.5t232 28h715v-35q-31 -10 -42.5 -27
t-11.5 -49v-1214q0 -31 11.5 -47.5t42.5 -28.5zM578 807h387v391h-387q-141 0 -196.5 -43t-55.5 -147q0 -103 57.5 -152t194.5 -49z" />
    <glyph glyph-name="afii10065" unicode="&#x430;" horiz-adv-x="1210" 
d="M336 39v-39h-279v39q23 10 33 45l336 977q18 52 18 61q0 21 -22 39v37h338v-37q-19 -14 -19 -33q0 -1 21 -67l325 -928q21 -63 35 -78q12 -14 31 -16v-39h-336v39q33 14 33 43q0 19 -8 43l-58 197h-405l-57 -189q-9 -27 -9 -49q0 -39 23 -45zM737 473l-153 481h-4
l-156 -481h313z" />
    <glyph glyph-name="afii10066" unicode="&#x431;" horiz-adv-x="1138" 
d="M920 1001h-617v-288h395q200 0 298 -87.5t98 -271.5q0 -186 -97.5 -270t-298.5 -84h-657v29q25 8 35 21.5t10 41.5v1014q0 27 -10 40.5t-35 22.5v29h879q24 0 35 12t18 47h22v-311h-22q-8 31 -19 43t-34 12zM674 514h-371v-317h371q91 0 145 28q53 27 53 129
q0 95 -47.5 127.5t-150.5 32.5z" />
    <glyph glyph-name="afii10067" unicode="&#x432;" horiz-adv-x="1193" 
d="M985 629q176 -77 176 -285q0 -184 -112 -264t-283 -80h-723v27q28 10 38.5 24t10.5 39v1016q0 26 -10.5 40t-38.5 23v29h715q167 0 270 -70q100 -71 100 -247q0 -173 -143 -252zM729 1001h-410v-278h410q88 0 128 29.5t40 107.5q0 76 -38.5 108.5t-129.5 32.5zM715 524
h-396v-327h396q106 0 157.5 35t51.5 128q0 94 -50.5 129t-158.5 35z" />
    <glyph glyph-name="afii10068" unicode="&#x433;" horiz-adv-x="1058" 
d="M471 39v-39h-321v39q6 0 13.5 6.5t14 23.5t6.5 40v981q0 35 -13 53t-28 18v37h731q34 0 50 11.5t22 37.5h37v-289h-37q-15 50 -72 50h-450v-899q0 -35 14 -52.5t33 -17.5z" />
    <glyph glyph-name="afii10069" unicode="&#x434;" horiz-adv-x="1445" 
d="M713 854l-256 -659h512zM539 1176v28h360v-28q-49 -9 -49 -54q0 -21 22 -75l342 -852h60q40 0 53 57h25v-307h-25q-12 55 -53 55h-1106q-24 0 -36.5 -12t-18.5 -43h-27v307h27q6 -34 18 -45.5t37 -11.5h57l342 852q23 56 23 75q0 45 -51 54z" />
    <glyph glyph-name="afii10070" unicode="&#x435;" horiz-adv-x="1210" 
d="M213 109v981q0 71 -49 71v37h794q34 0 50 11.5t22 37.5h37v-309h-37q-6 37 -22 53.5t-50 16.5h-505v-295h305q34 0 48.5 13t20.5 48h39v-311h-39q-6 35 -20.5 47t-48.5 12h-305v-332h505q34 0 50 16.5t22 51.5h37v-303h-37q-6 25 -21.5 35t-50.5 10h-794v39q49 0 49 70z
" />
    <glyph glyph-name="afii10072" unicode="&#x436;" horiz-adv-x="1818" 
d="M1776 39v-39h-359v39q26 0 34.5 4t8.5 16q0 16 -39 80l-274 439l-113 -109v-360q0 -35 17 -52.5t39 -17.5v-39h-351v39q22 0 39 17.5t17 52.5v360l-113 109l-274 -439q-39 -64 -39 -80q0 -12 8.5 -16t34.5 -4v-39h-359v39q58 22 115 108l379 570l-410 405q-32 32 -67 39
v37h358v-37q-33 -7 -33 -20q0 -5 2 -9.5t7.5 -11t11 -11.5t15.5 -15.5t18 -18.5l342 -362h4v377q0 35 -17 53t-35 18v37h342v-37q-18 0 -34.5 -18t-16.5 -53v-377h4l342 362q8 8 18 18.5t15.5 15.5t11 11.5t7.5 11t2 9.5q0 13 -33 20v37h358v-37q-35 -7 -67 -39l-410 -405
l379 -570q57 -86 115 -108z" />
    <glyph glyph-name="afii10073" unicode="&#x437;" horiz-adv-x="1064" 
d="M43 154l-16 16l127 246l16 -17q0 -41 26.5 -75t92.5 -76q41 -28 107.5 -43t133.5 -15q287 0 287 177q0 100 -64 139t-214 39q-83 0 -112.5 -13t-29.5 -49h-20v295h20q0 -35 29.5 -48t112.5 -13q145 0 199.5 30.5t54.5 110.5q0 154 -240 154q-130 0 -236 -61.5
t-106 -147.5l-18 -17l-123 246l16 17q18 -25 29 -25q13 0 53 29q110 80 199 118.5t186 38.5q191 0 313.5 -87.5t122.5 -243.5q0 -87 -25 -142t-87 -108q74 -51 108.5 -115.5t34.5 -163.5t-39 -170.5t-109 -111t-154 -57t-188 -17.5q-95 0 -168.5 19.5t-144.5 68.5
q-3 2 -44 31.5t-66 46t-31 16.5q-16 0 -33 -22z" />
    <glyph glyph-name="afii10074" unicode="&#x438;" horiz-adv-x="1110" 
d="M825 90v696l-549 -628v-68q0 -46 46 -61v-29h-295v29q25 9 35 22.5t10 38.5v1016q0 51 -45 63v29h295v-29q-46 -12 -46 -63v-694l549 626v68q0 51 -45 63v29h295v-29q-43 -12 -43 -63v-1016q0 -25 9.5 -38.5t33.5 -22.5v-29h-295v29q45 16 45 61z" />
    <glyph glyph-name="afii10075" unicode="&#x439;" horiz-adv-x="1110" 
d="M825 90v696l-549 -628v-68q0 -46 46 -61v-29h-295v29q25 9 35 22.5t10 38.5v1016q0 51 -45 63v29h295v-29q-46 -12 -46 -63v-694l549 626v68q0 51 -45 63v29h295v-29q-43 -12 -43 -63v-1016q0 -25 9.5 -38.5t33.5 -22.5v-29h-295v29q45 16 45 61zM336 1399v18h139v-18
q-12 0 -14 -2t-2 -11v-2v-2q0 -34 26 -59t62 -25t62 25t26 59q0 12 -2 14.5t-15 2.5v18h140v-18q-23 0 -23 -43q0 -68 -57.5 -113t-126.5 -45q-72 0 -131.5 45t-59.5 113q0 43 -24 43z" />
    <glyph glyph-name="afii10076" unicode="&#x43a;" horiz-adv-x="1210" 
d="M489 39v-39h-342v39q24 0 39 17t15 53v981q0 36 -15 53.5t-39 17.5v37h338v-37q-17 0 -31 -18t-14 -53v-375h4l342 360q8 8 18 18.5t15.5 15.5t11 11.5t7.5 11t2 9.5q0 13 -33 20v37h358v-37q-35 -7 -67 -39l-410 -405l379 -570q57 -86 115 -108v-39h-359v39q26 0 34.5 4
t8.5 16q0 16 -39 80l-274 439l-113 -109v-360q0 -36 14 -53t35 -17z" />
    <glyph glyph-name="afii10077" unicode="&#x43b;" horiz-adv-x="1236" 
d="M410 1165v33h417v-33q-27 0 -44 -10.5t-17 -24.5q0 -3 4 -13t10.5 -27t10.5 -27l356 -940q13 -32 18.5 -44t17.5 -27.5t27 -18.5v-33h-354v33q51 8 51 39q0 6 -16 59l-279 758h-4l-268 -766q-16 -46 -16 -62q0 -11 11.5 -16.5t45.5 -11.5v-33h-340v33q29 9 43 31t27 63
l342 950q10 30 10 56q0 32 -53 32z" />
    <glyph glyph-name="afii10078" unicode="&#x43c;" horiz-adv-x="1288" 
d="M1245 29v-27h-297v27q45 19 45 63v739l-368 -813l-353 813v-739q0 -26 9.5 -39t35.5 -24v-27h-278v27q25 11 35 24t10 39v1016q0 51 -45 63v29h364v-29q-32 -8 -32 -47q0 -14 10 -41l260 -598l262 590q17 39 17 60q0 33 -33 36v29h358v-29q-45 -12 -45 -63v-1016
q0 -26 10 -39t35 -24z" />
    <glyph glyph-name="afii10079" unicode="&#x43d;" 
d="M477 39v-39h-330v39q12 0 24.5 18t12.5 52v981q0 34 -12.5 52.5t-24.5 18.5v37h322v-37q-17 0 -31 -18t-14 -53v-381h502v381q0 35 -13.5 53t-29.5 18v37h327v-37q-17 0 -31 -18t-14 -53v-981q0 -36 14 -53t35 -17v-39h-325v39q12 0 24.5 18t12.5 52v409h-502v-409
q0 -70 53 -70z" />
    <glyph glyph-name="afii10080" unicode="&#x43e;" 
d="M106 600q0 177 73 317t204 218.5t297 78.5q253 0 414 -172.5t161 -441.5q0 -178 -73 -317.5t-204 -217t-298 -77.5q-252 0 -413 171t-161 441zM336 600q0 -195 98.5 -310.5t245.5 -115.5q149 0 247.5 115t98.5 311q0 194 -98.5 309t-247.5 115q-147 0 -245.5 -115
t-98.5 -309z" />
    <glyph glyph-name="afii10081" unicode="&#x43f;" 
d="M477 39v-39h-330v39q12 0 24.5 18t12.5 52v981q0 34 -12.5 52.5t-24.5 18.5v37h1063v-37q-17 0 -31 -18t-14 -53v-981q0 -36 14 -53t35 -17v-39h-325v39q12 0 24.5 18t12.5 52v899h-502v-899q0 -70 53 -70z" />
    <glyph glyph-name="afii10082" unicode="&#x440;" horiz-adv-x="997" 
d="M311 27v-27h-288v27q25 10 34 23.5t9 39.5v1016q0 27 -8.5 40.5t-34.5 22.5v29h579q184 0 274.5 -84.5t90.5 -271.5q0 -182 -91.5 -268.5t-273.5 -86.5h-334v-397q0 -45 43 -63zM578 1001h-310v-315h310q86 0 135 27q47 27 47 129q0 94 -44 126.5t-138 32.5z" />
    <glyph glyph-name="afii10083" unicode="&#x441;" horiz-adv-x="1124" 
d="M944 412l21 16l131 -248l-17 -14q-17 20 -32 20q-8 0 -36.5 -17.5t-67 -43.5t-48.5 -33q-86 -53 -147 -69q-68 -21 -173 -21q-118 0 -220 40.5t-179 116t-121.5 193t-44.5 262.5q0 142 42.5 258t118 193.5t179.5 119.5t225 42q88 0 176.5 -26t147.5 -68q117 -86 141 -86
q26 0 39 16l17 -16l-131 -248l-21 18q0 58 -50 106.5t-129 75.5t-165 27q-164 0 -270.5 -113t-106.5 -299q0 -187 105.5 -299t271.5 -112q125 0 219 57q70 42 97.5 76.5t27.5 75.5z" />
    <glyph glyph-name="afii10084" unicode="&#x442;" horiz-adv-x="1058" 
d="M98 958h-39v289h39q15 -49 70 -49h721q54 0 69 49h39v-295h-39q-7 27 -22 41.5t-47 14.5h-240v-899q0 -34 12.5 -52t24.5 -18v-39h-321v39q17 0 30 17.5t13 52.5v899h-240q-55 0 -70 -50z" />
    <glyph glyph-name="afii10085" unicode="&#x443;" horiz-adv-x="1210" 
d="M109 1178v30h342v-30q-48 -9 -48 -41q0 -19 19 -74l231 -639l234 639q16 46 16 67q0 39 -45 48v30h330v-30q-27 0 -41.5 -18.5t-44.5 -96.5l-297 -793q-58 -153 -133.5 -211.5t-210.5 -58.5q-75 0 -118.5 10t-135.5 47q-55 23 -90 23q-24 0 -43 -25l-21 11l90 301l23 -9
q0 -72 77.5 -115.5t180.5 -43.5q32 0 88 18l-319 846q-6 15 -13 36t-10 29t-9 19t-12 15.5t-16 8.5t-24 7z" />
    <glyph glyph-name="afii10086" unicode="&#x444;" horiz-adv-x="1380" 
d="M831 27v-27h-294v27q45 17 45 63v205h-205q-185 0 -278 87t-93 271t92 268.5t279 84.5h205v98q0 48 -45 63v29h294v-29q-47 -15 -47 -63v-98h205q188 0 280.5 -84.5t92.5 -268.5t-93 -271t-280 -87h-205v-205q0 -45 47 -63zM967 809h-183v-315h183q96 0 140 32t44 127
q0 93 -43.5 124.5t-140.5 31.5zM401 494h181v315h-181q-98 0 -141 -31.5t-43 -124.5q0 -95 44 -127t140 -32z" />
    <glyph glyph-name="afii10087" unicode="&#x445;" horiz-adv-x="1210" 
d="M412 39v-39h-332v39q15 0 33.5 11.5t27.5 25.5l346 540l-299 471q-24 38 -42 53.5t-40 20.5v37h365v-37q-39 -9 -39 -31q0 -9 3.5 -19t6.5 -16t10.5 -18.5l10.5 -17.5l155 -256l144 244q1 2 5 9t5.5 10t5 10.5t5 13t2.5 14.5t1 18q0 17 -11.5 26t-41.5 13v37h371v-37
q-13 -2 -23 -6t-18.5 -13.5t-12.5 -14.5t-13 -19.5t-11 -17.5l-291 -461l303 -479l18 -30t18 -29t16 -22t19.5 -20t20.5 -10v-39h-360v39q14 2 26.5 9.5t12.5 17.5q0 6 -1.5 12.5t-3 11.5t-5.5 13t-6 11.5t-8.5 14t-8.5 14.5l-176 285l-188 -295q-5 -9 -13 -21t-11.5 -17
t-6 -12.5t-2.5 -14.5q0 -25 33 -29z" />
    <glyph glyph-name="afii10088" unicode="&#x446;" 
d="M1165 190h156v-260h-35q-5 30 -26 50t-56 20h-1057v39q12 0 24.5 18t12.5 52v981q0 34 -12.5 52.5t-24.5 18.5v37h322v-37q-17 0 -31 -18t-14 -53v-900h502v900q0 35 -13.5 53t-29.5 18v37h327v-37q-17 0 -31 -18t-14 -53v-900z" />
    <glyph glyph-name="afii10089" unicode="&#x447;" horiz-adv-x="1210" 
d="M139 846v244q0 34 -12.5 52.5t-24.5 18.5v37h322v-37q-17 0 -31 -18t-14 -53v-183q0 -62 9 -100t35 -67.5t74 -41.5t124 -12h163v404q0 35 -13.5 53t-29.5 18v37h328v-37q-17 0 -31 -18t-14 -53v-981q0 -36 14 -53t35 -17v-39h-325v39q12 0 24 18t12 52v387h-254
q-185 0 -288 95.5t-103 254.5z" />
    <glyph glyph-name="afii10090" unicode="&#x448;" horiz-adv-x="1452" 
d="M1425 27v-27h-1376v27q26 11 36.5 24.5t10.5 38.5v1016q0 51 -47 63v29h316v-29q-50 -12 -50 -63v-909h312v909q0 28 -9.5 41t-37.5 22v29h313v-29q-26 -9 -35.5 -22t-9.5 -41v-909h311v909q0 51 -49 63v29h315v-29q-49 -12 -49 -63v-1028q0 -34 49 -51z" />
    <glyph glyph-name="afii10091" unicode="&#x449;" horiz-adv-x="1572" 
d="M303 1106v-909h313v909q0 27 -10 40.5t-37 22.5v29h316v-29q-26 -9 -35.5 -22.5t-9.5 -40.5v-909h311v909q0 51 -49 63v29h317v-29q-49 -12 -49 -63v-909h94q22 0 34.5 13.5t21.5 45.5h22v-309h-22q-9 31 -21 42t-35 11h-1427v29q26 9 36.5 23t10.5 40v1014q0 51 -47 63
v29h315v-29q-49 -12 -49 -63z" />
    <glyph glyph-name="afii10092" unicode="&#x44a;" horiz-adv-x="1404" 
d="M109 1188h487v-29q-53 -12 -53 -61v-391h356q228 0 341.5 -86.5t113.5 -268.5q0 -184 -112.5 -268t-342.5 -84h-663v27q30 9 41.5 22.5t11.5 40.5v903h-180q-25 0 -39 -12.5t-21 -42.5h-26v309h26q7 -34 20.5 -46.5t39.5 -12.5zM870 510h-327v-315h327q111 0 168 28
q58 27 58 129q0 93 -55.5 125.5t-170.5 32.5z" />
    <glyph glyph-name="afii10093" unicode="&#x44b;" horiz-adv-x="1439" 
d="M35 1169v29h309v-29q-47 -14 -47 -63v-393h307q196 0 293.5 -86.5t97.5 -270.5q0 -186 -97 -270t-294 -84h-569v27q26 9 36.5 22.5t10.5 40.5v1014q0 26 -11 40t-36 23zM578 514h-281v-315h281q95 0 143 26q51 26 51 131q0 94 -46.5 126t-147.5 32zM1405 29v-27h-309v27
q28 10 37.5 23.5t9.5 39.5v1014q0 27 -10 40.5t-37 22.5v29h309v-29q-26 -9 -35.5 -22.5t-9.5 -40.5v-1014q0 -46 45 -63z" />
    <glyph glyph-name="afii10094" unicode="&#x44c;" horiz-adv-x="1077" 
d="M39 1174v28h307v-28q-45 -16 -45 -64v-393h356q196 0 293 -87.5t97 -271.5q0 -186 -96.5 -270t-293.5 -84h-618v27q26 9 35.5 22t9.5 41v1016q0 27 -9.5 41t-35.5 23zM631 518h-330v-317h330q95 0 143 26q51 29 51 131q0 95 -46.5 127.5t-147.5 32.5z" />
    <glyph glyph-name="afii10095" unicode="&#x44d;" horiz-adv-x="1136" 
d="M33 178l131 246l16 -14q0 -42 27 -77t94 -75q89 -57 211 -57q144 0 241 88.5t119 242.5h-364q-34 0 -49 -55h-21v297h21q6 -30 17 -41.5t32 -11.5h358q-28 136 -124 217.5t-230 81.5q-129 0 -230.5 -60.5t-101.5 -148.5l-16 -16l-131 245l18 17q14 -21 33 -21q18 0 55 29
q109 95 203 123q95 31 195 31q244 0 395 -163.5t151 -445.5q0 -145 -43 -262t-117 -192.5t-172.5 -115.5t-211.5 -40q-100 0 -166.5 19.5t-143.5 70.5q-1 1 -45.5 32t-69.5 46.5t-32 15.5q-14 0 -31 -22z" />
    <glyph glyph-name="afii10096" unicode="&#x44e;" horiz-adv-x="1433" 
d="M317 27v-27h-303v27q25 11 35 24.5t10 38.5v1018q0 51 -45 63v29h303v-29q-47 -12 -47 -63v-399h201q22 233 144 372.5t311 139.5q139 0 245 -79.5t163 -222.5t57 -327q0 -173 -57 -311t-163.5 -218.5t-244.5 -80.5q-193 0 -314 145.5t-143 386.5h-199v-424q0 -45 47 -63
zM926 1016q-76 0 -133 -61t-84 -152t-27 -195q0 -106 27 -197.5t83.5 -152.5t133.5 -61t134.5 60.5t84 151t26.5 193.5q0 83 -15 156t-44 131.5t-77 92.5t-109 34z" />
    <glyph glyph-name="afii10097" unicode="&#x44f;" horiz-adv-x="1101" 
d="M1069 27v-27h-291v27q45 19 45 63v399h-250l-188 -352q-33 -68 -33 -78q0 -23 35 -32v-27h-340v27q13 1 23.5 4.5t20.5 12t16.5 14.5t16.5 21.5t14.5 24t17 31t18.5 33.5l180 321q-254 59 -254 353q0 88 18 150.5t61 110.5t119.5 71.5t188.5 23.5h582v-29
q-25 -9 -34 -22.5t-9 -40.5v-1016q0 -25 9.5 -39t33.5 -24zM508 674h315v327h-315q-115 0 -160 -36t-45 -123q0 -86 46.5 -127t158.5 -41z" />
    <glyph glyph-name="afii10071" unicode="&#x451;" horiz-adv-x="1003" 
d="M659 528h-391v-331h619q20 0 31 12.5t20 44.5h20v-309h-20q-9 32 -20 43.5t-31 11.5h-869v27q24 10 33.5 24t9.5 39v1018q0 27 -9 40.5t-34 22.5v29h852q38 0 50 57h22v-311h-22q-6 32 -17.5 45t-32.5 13h-602v-285h391q21 0 32.5 11.5t17.5 41.5h24v-301h-24
q-11 57 -50 57zM352 1446q40 0 67 -26t27 -66q0 -35 -28.5 -60.5t-65.5 -25.5q-36 0 -63 27t-27 63q0 37 26.5 62.5t63.5 25.5zM631 1446q37 2 64.5 -23.5t27.5 -62.5q0 -40 -26 -66t-66 -26q-37 0 -63.5 26.5t-26.5 63.5q0 35 26.5 61.5t63.5 26.5z" />
    <glyph glyph-name="afii10099" unicode="&#x452;" 
d="M889 1008h-240v-318q42 22 115 40t141 18q158 0 263.5 -106.5t105.5 -254.5q0 -176 -91 -281.5t-237 -105.5h-98v244h39q1 -18 14.5 -27.5t26.5 -9.5q53 0 79.5 47.5t26.5 132.5q0 79 -47.5 126.5t-140.5 47.5q-56 0 -111.5 -18t-85.5 -37v-397q0 -34 12.5 -52t24.5 -18
v-39h-321v39q17 0 30 17.5t13 52.5v899h-240q-55 0 -70 -50h-39v289h39q15 -49 70 -49h721q54 0 69 49h39v-295h-39q-7 27 -22 41.5t-47 14.5z" />
    <glyph glyph-name="afii10100" unicode="&#x453;" horiz-adv-x="1024" 
d="M444 39v-39h-321v39q6 0 13.5 6.5t14.5 23.5t7 40v981q0 35 -13 53t-28 18v37h731q34 0 50 11.5t22 37.5h36v-289h-36q-15 50 -72 50h-451v-899q0 -35 14 -52.5t33 -17.5zM860 1686l-352 -381h-186l239 381h299z" />
    <glyph glyph-name="afii10101" unicode="&#x454;" horiz-adv-x="1210" 
d="M915 348l23 14l178 -223l-12 -18q-16 4 -31 4t-46 -21.5t-68.5 -47t-115.5 -47t-175 -21.5q-167 0 -298.5 77.5t-204.5 217t-73 317.5q0 269 161.5 441.5t414.5 172.5q133 0 241 -57q16 -8 40 -20.5t36.5 -19t27.5 -12t25 -5.5q33 0 52 16l18 -10l-166 -279l-27 15
q0 2 3.5 12.5t3.5 17.5q0 45 -41.5 81t-97 53.5t-109.5 17.5q-123 0 -216 -80t-124 -231h334q34 0 48.5 13t20.5 48h39v-311h-39q-6 35 -20.5 47t-48.5 12h-344q13 -156 103 -252t257 -96q79 0 159.5 41t80.5 98q0 20 -9 35z" />
    <glyph glyph-name="afii10102" unicode="&#x455;" horiz-adv-x="1210" 
d="M1047 1139l20 -11l-141 -268l-27 12q0 69 -93 115.5t-237 46.5q-110 0 -169.5 -41.5t-59.5 -115.5q0 -44 31 -75t81.5 -47t115 -32.5t132 -30.5t132 -42.5t115 -66.5t81.5 -105t31 -156q0 -148 -125 -241t-307 -93q-99 0 -186 18t-133.5 40t-85.5 40t-56 18
q-15 0 -27 -13.5t-14 -14.5l-33 12l148 293l39 -21q-1 -2 -7 -15.5t-6 -20.5q0 -41 54.5 -78.5t138 -59.5t166.5 -22q118 0 180.5 46.5t62.5 133.5q0 36 -24.5 61.5t-66 41t-95.5 28t-113.5 25t-119 28.5t-113.5 43.5t-95.5 64.5t-66 96t-24.5 134q0 158 115.5 253t326.5 95
q84 0 179 -24.5t158 -49t70 -24.5q11 0 48 23z" />
    <glyph glyph-name="afii10103" unicode="&#x456;" horiz-adv-x="757" 
d="M555 39v-39h-354v39q57 0 57 70v981q0 71 -57 71v37h354v-37q-57 0 -57 -71v-981q0 -70 57 -70z" />
    <glyph glyph-name="afii10104" unicode="&#x457;" horiz-adv-x="757" 
d="M555 39v-39h-354v39q57 0 57 70v981q0 71 -57 71v37h354v-37q-57 0 -57 -71v-981q0 -70 57 -70zM33 1651h250v-273h-250v273zM473 1651h252v-273h-252v273z" />
    <glyph glyph-name="afii10105" unicode="&#x458;" horiz-adv-x="907" 
d="M408 1161v37h354v-37q-60 0 -60 -71v-779q0 -154 -92.5 -238.5t-255.5 -84.5q-98 0 -190 43q-21 8 -41 20t-31 18.5t-16 6.5q-18 0 -49 -27l-21 10l92 285l33 -12q8 -68 57 -113t117 -45q71 0 114.5 32t43.5 93v791q0 71 -55 71z" />
    <glyph glyph-name="afii10106" unicode="&#x459;" horiz-adv-x="1812" 
d="M166 1161v37h934v-39q-49 0 -49 -69v-367h225q223 0 333.5 -101t110.5 -270q0 -170 -108.5 -261t-335.5 -91h-502v39q12 0 24.5 18t12.5 52v899h-369v-471q0 -537 -327 -537h-99v244h39q1 -18 10.5 -27.5t18.5 -9.5q119 0 119 317v566q0 34 -12.5 52.5t-24.5 18.5z
M1491 360q0 94 -56 133t-196 39h-188v-342h188q140 0 196 38.5t56 131.5z" />
    <glyph glyph-name="afii10107" unicode="&#x45a;" horiz-adv-x="1935" 
d="M1391 0h-502v39q12 0 24.5 18t12.5 52v423h-502v-423q0 -70 53 -70v-39h-330v39q12 0 24.5 18t12.5 52v981q0 34 -12.5 52.5t-24.5 18.5v37h322v-37q-17 0 -31 -18t-14 -53v-367h502v367q0 35 -13.5 53t-29.5 18v37h331v-39q-49 0 -49 -69v-367h226q223 0 333.5 -101
t110.5 -270q0 -170 -108.5 -261t-335.5 -91zM1606 360q0 94 -56 133t-196 39h-189v-342h189q140 0 196 38.5t56 131.5z" />
    <glyph glyph-name="afii10108" unicode="&#x45b;" 
d="M1311 37v-37h-322v37q17 0 31 18.5t14 53.5v194q0 62 -9 100t-34.5 67.5t-73.5 41.5t-124 12h-144v-415q0 -34 12.5 -52t24.5 -18v-39h-321v39q17 0 30 17.5t13 52.5v899h-240q-55 0 -70 -50h-39v289h39q15 -49 70 -49h721q54 0 69 49h39v-295h-39q-7 27 -22 41.5
t-47 14.5h-240v-293h234q185 0 288 -95.5t103 -254.5v-256q0 -34 12.5 -53t24.5 -19z" />
    <glyph glyph-name="afii10109" unicode="&#x45c;" horiz-adv-x="1210" 
d="M489 39v-39h-342v39q24 0 39 17t15 53v981q0 36 -15 53.5t-39 17.5v37h338v-37q-17 0 -31 -18t-14 -53v-375h4l342 360q8 8 18 18.5t15.5 15.5t11 11.5t7.5 11t2 9.5q0 13 -33 20v37h358v-37q-35 -7 -67 -39l-410 -405l379 -570q57 -86 115 -108v-39h-359v39q26 0 34.5 4
t8.5 16q0 16 -39 80l-274 439l-113 -109v-360q0 -36 14 -53t35 -17zM1044 1686l-352 -381h-186l239 381h299z" />
    <glyph glyph-name="afii10110" unicode="&#x45e;" horiz-adv-x="1138" 
d="M383 1090l215 -453h4l205 455q14 28 14 43q0 26 -51 26v37h332v-37q-54 -9 -68 -41l-444 -987q-23 -48 -23 -65q0 -29 41 -29v-39h-354v39q30 4 64 28.5t55 71.5l108 238l-309 645q-18 36 -32.5 59.5t-39 47.5t-53.5 32v37h365v-37q-19 0 -35.5 -5t-16.5 -13
q0 -6 3 -13.5t10.5 -21.5t9.5 -18zM676 1612h256v-43q0 -114 -98 -188t-240 -74q-144 0 -242 74.5t-98 187.5v43h258v-37q-21 -3 -31 -15t-10 -22q0 -29 37 -46t86 -17q48 0 87.5 17t39.5 46q0 12 -12.5 23t-32.5 14v37z" />
    <glyph glyph-name="afii10193" unicode="&#x45f;" 
d="M1214 39v-39h-413v-174q0 -70 53 -70v-39h-346v39q53 0 53 70v174h-414v39q12 0 24.5 18t12.5 52v981q0 34 -12.5 52.5t-24.5 18.5v37h322v-37q-17 0 -31 -18t-14 -53v-900h502v900q0 35 -13.5 53t-29.5 18v37h327v-37q-17 0 -31 -18t-14 -53v-981q0 -36 14 -53t35 -17z
" />
    <glyph glyph-name="afii10050" unicode="&#x490;" horiz-adv-x="1157" 
d="M547 39v-39h-455v39q54 6 71 20.5t17 49.5v1214q0 37 -17.5 51.5t-74.5 20.5v39h903q68 0 86 90h37v-369h-37q-6 30 -24.5 39.5t-61.5 9.5h-538v-1095q0 -36 17.5 -50t76.5 -20z" />
    <glyph glyph-name="afii10098" unicode="&#x491;" horiz-adv-x="1058" 
d="M471 39v-39h-321v39q6 0 13.5 6.5t14 23.5t6.5 40v981q0 35 -13 53t-28 18v37h731q61 0 72 90h37v-330h-37q-15 50 -72 50h-450v-899q0 -35 14 -52.5t33 -17.5z" />
    <glyph glyph-name="endash" unicode="&#x2013;" 
d="M0 694h1362v-190h-1362v190z" />
    <glyph glyph-name="emdash" unicode="&#x2014;" horiz-adv-x="2723" 
d="M0 694h2724v-190h-2724v190z" />
    <glyph glyph-name="quoteleft" unicode="&#x2018;" horiz-adv-x="757" 
d="M600 1477v-88q-114 -38 -196 -118.5t-82 -187.5q28 7 51 7q90 0 142 -46.5t52 -117.5q0 -90 -51.5 -143.5t-142.5 -53.5q-89 0 -152 74.5t-63 177.5q0 92 36.5 174t100 143t140 105.5t165.5 73.5z" />
    <glyph glyph-name="quoteright" unicode="&#x2019;" horiz-adv-x="757" 
d="M158 702v89q52 18 100 45.5t88.5 65.5t65 88.5t24.5 105.5q-24 -6 -51 -6q-90 0 -142.5 46t-52.5 117q0 90 52 143.5t143 53.5q89 0 152 -74.5t63 -177.5q0 -92 -36.5 -174t-100 -143t-140 -105.5t-165.5 -73.5z" />
    <glyph glyph-name="quotesinglbase" unicode="&#x201a;" horiz-adv-x="757" 
d="M135 -389v88q114 40 196.5 119.5t82.5 181.5q-8 0 -25.5 -1t-26.5 -1q-90 0 -142 44.5t-52 115.5q0 91 51 143.5t143 52.5q89 0 152.5 -74t63.5 -176q0 -91 -36.5 -172t-100 -142t-140.5 -105.5t-166 -73.5z" />
    <glyph glyph-name="quotedblleft" unicode="&#x201c;" 
d="M569 1477v-88q-113 -38 -195.5 -118.5t-82.5 -187.5q28 7 53 7q89 0 141 -46.5t52 -117.5q0 -90 -51.5 -143.5t-141.5 -53.5t-152.5 74t-62.5 178q0 92 36.5 174t99.5 143t139.5 105.5t164.5 73.5zM1225 1477v-88q-113 -38 -195 -118.5t-82 -187.5q28 7 51 7
q90 0 142.5 -46.5t52.5 -117.5q0 -90 -52 -143.5t-143 -53.5q-89 0 -152 74.5t-63 177.5q0 92 36.5 174t100 143t140 105.5t164.5 73.5z" />
    <glyph glyph-name="quotedblright" unicode="&#x201d;" 
d="M135 702v89q53 18 101 45.5t89 65.5t65 88.5t24 105.5q-24 -6 -52 -6q-90 0 -142 46t-52 117q0 90 51.5 143.5t142.5 53.5q89 0 152.5 -74.5t63.5 -177.5q0 -92 -36.5 -174t-100.5 -143t-140.5 -105.5t-165.5 -73.5zM793 702v89q52 18 100 45.5t88.5 65.5t65 88.5
t24.5 105.5q-24 -6 -53 -6q-89 0 -141 46t-52 117q0 90 51.5 143.5t141.5 53.5t152.5 -74t62.5 -178q0 -92 -36.5 -174t-99.5 -143t-139.5 -105.5t-164.5 -73.5z" />
    <glyph glyph-name="quotedblbase" unicode="&#x201e;" 
d="M135 -389v88q114 40 196.5 119.5t82.5 181.5q-8 0 -25.5 -1t-26.5 -1q-90 0 -142 44.5t-52 115.5q0 91 51 143.5t143 52.5q89 0 152.5 -74t63.5 -176q0 -91 -36.5 -172t-100 -142t-140.5 -105.5t-166 -73.5zM793 -389v88q113 40 195.5 119.5t82.5 181.5q-7 0 -25 -1
t-28 -1q-89 0 -141 44.5t-52 115.5q0 91 51.5 143.5t141.5 52.5t152.5 -74t62.5 -176q0 -91 -36.5 -172t-99.5 -142t-139.5 -105.5t-164.5 -73.5z" />
    <glyph glyph-name="dagger" unicode="&#x2020;" 
d="M727 -285h-92q-45 489 -105 807q60 140 111 361l-448 -105v285l448 -105l-111 476h301l-110 -476l448 105v-285l-448 105q52 -226 110 -361q-58 -308 -104 -807z" />
    <glyph glyph-name="bullet" unicode="&#x2022;" 
d="M322 717q0 149 103.5 252.5t254.5 103.5q152 0 255 -103t103 -253t-103.5 -255.5t-254.5 -105.5q-150 0 -254 105.5t-104 255.5z" />
    <glyph glyph-name="ellipsis" unicode="&#x2026;" horiz-adv-x="2723" 
d="M270 168q0 79 54 132.5t131 53.5q78 0 132 -53.5t54 -132.5q0 -77 -53.5 -128.5t-132.5 -51.5q-77 0 -131 51.5t-54 128.5zM1178 168q0 79 53 132.5t131 53.5t131 -53.5t53 -132.5q0 -78 -53 -129t-131 -51t-131 51t-53 129zM2083 168q0 79 54 132.5t132 53.5
q77 0 131 -53.5t54 -132.5q0 -77 -54 -128.5t-131 -51.5q-79 0 -132.5 51.5t-53.5 128.5z" />
    <glyph glyph-name="perthousand" unicode="&#x2030;" horiz-adv-x="3522" 
d="M1339 291q0 201 138.5 336t339.5 135t339 -135t138 -336q0 -132 -63.5 -239t-172.5 -167.5t-241 -60.5t-241.5 60.5t-173 167.5t-63.5 239zM1559 291q0 -113 70 -182.5t188 -69.5t188 69.5t70 182.5t-70.5 183.5t-187.5 70.5t-187.5 -70.5t-70.5 -183.5zM125 1108
q0 201 138 336t339 135t339 -135t138 -336q0 -200 -138.5 -335.5t-338.5 -135.5t-338.5 135.5t-138.5 335.5zM344 1108q0 -113 70 -182.5t188 -69.5t188 69.5t70 182.5q0 114 -70 184t-188 70t-188 -70t-70 -184zM580 -176l1073 1755h174l-1073 -1755h-174zM2445 291
q0 201 138 336t339 135t339.5 -135t138.5 -336q0 -132 -63.5 -239t-173 -167.5t-241.5 -60.5t-241 60.5t-172.5 167.5t-63.5 239zM2664 291q0 -113 70 -182.5t188 -69.5t188.5 69.5t70.5 182.5t-70.5 183.5t-188.5 70.5t-188 -70.5t-70 -183.5z" />
    <glyph glyph-name="guilsinglleft" unicode="&#x2039;" horiz-adv-x="909" 
d="M735 201h-239l-322 399l322 397h239l-327 -397z" />
    <glyph glyph-name="guilsinglright" unicode="&#x203a;" horiz-adv-x="909" 
d="M174 997h240l321 -397l-321 -399h-240l328 399z" />
    <glyph glyph-name="Euro" unicode="&#x20ac;" 
d="M1237 1331l14 -196h-49q-19 116 -103 170.5t-214 54.5q-102 0 -177 -35.5t-122 -103.5t-73.5 -154t-39.5 -201h643l-41 -90h-608q0 -10 -1 -32.5t-1 -32.5q0 -48 2 -64h547l-43 -90h-498q19 -231 126 -357t288 -126q57 0 107.5 12.5t94 38.5t73 71t40.5 105h49l-14 -188
q-119 -123 -403 -123q-560 0 -623 567h-164l43 90h107q-4 36 -4 68q0 7 1 30t1 31h-148l43 90h115q19 137 61 240.5t115 182.5t186.5 120t266.5 41q284 0 403 -119z" />
    <glyph glyph-name="afii61352" unicode="&#x2116;" horiz-adv-x="2222" 
d="M514 39v-39h-371v39q37 6 50.5 21t13.5 49v1214q0 35 -11.5 50.5t-39.5 21.5v39h448v-39q-27 -1 -38 -7t-11 -18q0 -9 37 -76l463 -825h4v854q0 36 -12.5 51t-47.5 21v39h371v-39q-35 -6 -47 -21t-12 -51v-1214q0 -38 10 -51t39 -19v-39h-399v39q17 2 27 5t18 11t8 21
q0 6 -35 74l-516 901h-6v-942q0 -34 12.5 -49t44.5 -21zM1454 588q0 145 95.5 239.5t242.5 94.5t242.5 -94.5t95.5 -239.5t-95.5 -239.5t-242.5 -94.5t-242.5 94.5t-95.5 239.5zM1640 588q0 -80 43.5 -127t108.5 -47q63 0 106.5 47.5t43.5 126.5t-43.5 126.5t-106.5 47.5
q-65 0 -108.5 -47t-43.5 -127zM1454 190h676v-190h-676v190z" />
    <glyph glyph-name="trademark" unicode="&#x2122;" horiz-adv-x="2152" 
d="M651 1384h-96v-632q0 -68 13 -82t89 -21v-49h-383v49q79 7 93 21t14 82v632h-92q-106 0 -137 -131h-43v181h718v-181h-43q-31 131 -133 131zM1755 1214l-305 -614h-23l-294 614h-5v-428q0 -77 18.5 -104t86.5 -33v-49h-275v49q71 6 90 33t19 104v484q0 42 -46.5 78
t-94.5 36v50h276l295 -609l318 609h227v-50q-63 -3 -86 -26.5t-23 -77.5v-528v-39t4.5 -25t9 -18t19.5 -9.5t30 -7t46 -4.5v-49h-383v49q29 3 42.5 4.5t27.5 7t18 9.5t8 18t4 25v39v462v-2z" />
    <glyph glyph-name="Delta" unicode="&#x2206;" horiz-adv-x="1366" 
d="M4 2l723 1409l635 -1409h-1358zM647 907l-381 -739h719z" />
    <glyph glyph-name="uni2219" unicode="&#x2219;" horiz-adv-x="868" 
d="M270 700q0 71 51.5 121.5t120.5 50.5t120.5 -50.5t51.5 -121.5t-51.5 -121.5t-120.5 -50.5t-120.5 50.5t-51.5 121.5z" />
    <glyph glyph-name="radical" unicode="&#x221a;" horiz-adv-x="1124" 
d="M702 465l248 1413l154 -18l-336 -1934l-537 1010l-196 -86l-68 129l373 168z" />
    <glyph glyph-name="infinity" unicode="&#x221e;" horiz-adv-x="1718" 
d="M1583 545q0 -82 -40.5 -161.5t-116.5 -133t-166 -53.5q-67 -1 -130.5 18.5t-117 55t-87 64t-71.5 66.5q-38 -39 -70 -66.5t-84 -62.5t-115 -54.5t-132 -20.5q-91 0 -168 52.5t-118.5 132t-41.5 163.5q0 139 100.5 242.5t241.5 103.5q96 0 173 -42.5t216 -166.5
q131 122 209.5 165.5t175.5 43.5q141 0 241.5 -103.5t100.5 -242.5zM1378 532q0 53 -37 102.5t-100 49.5q-17 0 -30.5 -1t-28 -5.5t-24 -7t-24 -12t-22 -14.5t-25 -20t-26 -22.5t-31.5 -28.5t-35 -32q85 -85 131 -114.5t115 -29.5q54 0 95.5 39t41.5 96zM713 541
q-105 92 -135 111q-52 32 -111 32q-63 0 -100 -50.5t-37 -101.5q0 -59 44.5 -97t102.5 -38q36 0 63 7t57.5 29t50.5 41.5t65 66.5z" />
    <glyph glyph-name="approxequal" unicode="&#x2248;" horiz-adv-x="1124" 
d="M993 807l142 -76q-79 -111 -201.5 -154t-231.5 -16l-307 74q-40 10 -75.5 9t-58 -6.5t-47 -22t-34.5 -26t-29.5 -31.5t-23.5 -26l-156 82q201 221 467 162l310 -69q60 -14 135 12q51 19 110 88zM993 553l142 -78q-79 -109 -201 -151t-232 -17l-307 72q-35 8 -65 9.5
t-54 -5t-42 -13.5t-36 -22t-27.5 -24t-24 -26t-19.5 -22l-156 82q202 226 467 164l310 -71q56 -14 135 14q55 20 110 88z" />
    <glyph glyph-name="notequal" unicode="&#x2260;" horiz-adv-x="1634" 
d="M795 457h622v-191h-772l-225 -278h-199l225 278h-229v191h379l227 284h-606v191h758l172 217h199l-172 -217h243v-191h-395z" />
    <glyph glyph-name="lessequal" unicode="&#x2264;" horiz-adv-x="1634" 
d="M1417 1311l-956 -424l956 -426v-191l-1200 535v162l1200 534v-190zM217 0v178h1200v-178h-1200z" />
    <glyph glyph-name="greaterequal" unicode="&#x2265;" horiz-adv-x="1634" 
d="M215 1501l1200 -534v-162l-1200 -535v191l956 426l-956 424v190zM215 178h1200v-178h-1200v178z" />
    <glyph glyph-name="_189" horiz-adv-x="2048" 
 />
    <glyph glyph-name="_190" horiz-adv-x="2048" 
 />
    <glyph glyph-name="_191" horiz-adv-x="2048" 
 />
    <glyph glyph-name="_218" horiz-adv-x="2048" 
 />
    <glyph glyph-name="_219" horiz-adv-x="2048" 
 />
    <glyph glyph-name="_220" horiz-adv-x="2048" 
 />
    <glyph glyph-name="nbspace" 
 />
    <glyph glyph-name="hyphenminus" horiz-adv-x="907" 
d="M131 713h643v-228h-643v228z" />
    </font>
</defs>
</svg>
