<?xml version="1.0" standalone="no"?>
<!DOCTYPE svg PUBLIC "-//W3C//DTD SVG 1.1//EN" "http://www.w3.org/Graphics/SVG/1.1/DTD/svg11.dtd" >
<svg xmlns="http://www.w3.org/2000/svg" xmlns:xlink="http://www.w3.org/1999/xlink" version="1.1">
<metadata>
Created by FontForge 20170731 at Tue Oct  5 12:57:07 2004
 By Aleksey,,,
Copyright (c) Elnur Mehdi, 2003. All rights reserved.
</metadata>
<defs>
<font id="Copperplate-Bold" horiz-adv-x="1024" >
  <font-face 
    font-family="Copperplate"
    font-weight="700"
    font-stretch="normal"
    units-per-em="2048"
    panose-1="2 0 8 4 0 0 0 2 0 4"
    ascent="1638"
    descent="-410"
    x-height="1120"
    cap-height="1365"
    bbox="-273 -512 2575 1813"
    underline-thickness="174"
    underline-position="-467"
    unicode-range="U+0020-F002"
  />
<missing-glyph horiz-adv-x="512" 
d="M51 0h410v1365h-410v-1365zM410 51h-308v1263h308v-1263z" />
    <glyph glyph-name=".notdef" horiz-adv-x="512" 
d="M51 0h410v1365h-410v-1365zM410 51h-308v1263h308v-1263z" />
    <glyph glyph-name=".null" horiz-adv-x="0" 
 />
    <glyph glyph-name="nonmarkingreturn" horiz-adv-x="682" 
 />
    <glyph glyph-name="space" unicode=" " horiz-adv-x="512" 
 />
    <glyph glyph-name="space" unicode="&#xa0;" horiz-adv-x="512" 
 />
    <glyph glyph-name="exclam" unicode="!" horiz-adv-x="774" 
d="M518 480v32q-42 11 -52 24q-11 14 -11 49q0 21 3 45l73 615q6 54 16 67t50 21v32h-420v-32q38 -7 49 -21t17 -67l73 -615q3 -24 3 -45q0 -36 -11 -49t-52 -24v-32h262zM387 304q-70 -2 -117 -49t-47 -114t48 -117q48 -48 116 -48q67 0 115 48q49 48 49 115q0 69 -48 117
q-46 48 -116 48z" />
    <glyph glyph-name="quotedbl" unicode="&#x22;" horiz-adv-x="1137" 
d="M403 803q-38 11 -48 22q-9 13 -9 50q0 19 3 34l66 348q8 51 15 61t44 18v29h-378v-29q36 -8 43 -18q8 -10 16 -61l66 -348q3 -17 3 -32q0 -39 -10 -52q-8 -11 -47 -22v-29h236v29zM971 803q-38 11 -48 22q-9 13 -9 50q0 19 3 34l66 348q8 51 15 61q9 10 44 18v29h-378
v-29q36 -8 43 -18q8 -10 16 -61l66 -348q3 -15 3 -32q0 -39 -10 -52q-8 -11 -47 -22v-29h236v29z" />
    <glyph glyph-name="numbersign" unicode="#" horiz-adv-x="1570" 
d="M1235 1054l38 201q6 30 23.5 46.5t55.5 25.5l6 33h-340l-6 -33q30 -8 40.5 -19.5t10.5 -35.5q0 -13 -1 -17l-39 -201h-328l39 201q6 30 23.5 46.5t54.5 25.5l7 33h-340l-6 -33q30 -8 40.5 -19.5t10.5 -35.5q0 -9 -2 -17l-38 -201h-167q-31 0 -44 14.5t-16 51.5h-34
l-66 -341h34q17 36 35.5 49.5t49.5 13.5h166l-63 -326h-167q-31 0 -44 13.5t-16 49.5h-34l-66 -340h34q17 36 36 50.5t49 14.5h167l-39 -201q-6 -31 -23 -46.5t-56 -26.5l-6 -34h340l6 34q-31 10 -41 21t-10 36q0 13 1 16l39 201h328l-39 -201q-6 -31 -23 -46.5t-55 -26.5
l-7 -34h340l7 34q-31 10 -41 21t-10 36q0 13 1 16l39 201h166q31 0 44 -14.5t16 -50.5h34l64 340h-32q-16 -35 -35 -49t-50 -14h-166l63 326h167q30 0 43.5 -14t16.5 -49h34l64 341h-32q-16 -36 -35 -51t-50 -15h-166zM918 516h-328l64 326h328z" />
    <glyph glyph-name="dollar" unicode="$" horiz-adv-x="1461" 
d="M821 837v313q117 -9 246 -74q129 -64 129 -115q0 -11 -1 -16l28 -16l164 321l-29 15q-29 -23 -49 -23q-14 0 -41 11q-160 68 -255 95q-97 28 -192 36v54q0 30 14.5 46t50.5 26v32h-279v-32q36 -10 50 -26t14 -46v-49q-252 -7 -400 -125q-146 -117 -146 -310
q0 -103 47 -186q51 -88 143 -135q65 -32 137 -48q74 -17 219 -30v-341q-91 8 -191 42q-102 35 -165 79q-63 43 -63 98v14l-29 13l-148 -335l29 -14q28 22 41 22q11 0 35 -11q250 -125 491 -143v-65q0 -31 -14 -47t-50 -26v-32h278v32q-36 10 -50 26t-14 47v65q129 6 254 51
q151 54 230.5 156t79.5 240q0 90 -40 169q-39 80 -107 127q-130 89 -381 112zM671 854q-114 9 -177 26q-43 12 -68 40t-25 64q0 47 36 87t97 60q56 18 137 24v-301zM821 538q143 -13 202 -34q32 -11 52.5 -38.5t20.5 -59.5q0 -96 -114 -152q-63 -31 -161 -41v325z" />
    <glyph glyph-name="percent" unicode="%" horiz-adv-x="1809" 
d="M416 1377q-143 -1 -240 -88q-108 -97 -108 -265q0 -166 108 -266q95 -88 241 -88t241 88q108 99 108 261q0 171 -108 270q-95 88 -242 88zM417 1234q80 -1 128 -59t48 -154q0 -91 -50 -150q-49 -58 -126 -58q-78 0 -127 58t-49 152t49 152q50 59 127 59zM1391 695
q-143 -1 -240 -88q-108 -97 -108 -265q0 -167 108 -266q95 -88 241 -88t241 88q108 99 108 261q0 171 -108 270q-95 88 -242 88zM1392 552q80 -1 128 -59t48 -154q0 -91 -50 -150q-49 -58 -126 -58q-78 0 -127 58t-49 152t49 152q50 59 127 59zM1380 1192q71 93 95 114
q24 20 75 27v32h-355v-32q60 -17 60 -60q0 -25 -44 -81l-788 -1016q-70 -90 -99 -113q-30 -24 -80 -31v-32h356v32q-60 12 -60 52q0 22 36 68z" />
    <glyph glyph-name="ampersand" unicode="&#x26;" horiz-adv-x="1584" 
d="M1530 940q-139 -40 -229 -121q-93 -82 -188 -247q-56 122 -161 190q101 72 141 134q40 61 40 151q0 160 -135 250q-139 92 -322 92q-163 0 -291 -77q-156 -96 -156 -259q0 -139 135 -258q-304 -148 -304 -406q0 -192 163 -309q145 -104 362 -104q279 0 482 198
q62 -65 145 -114q84 -48 142 -53q147 -9 176 -15v315h-32q-10 -48 -54 -48q-48 0 -93 26.5t-108 89.5q22 75 82 141q32 37 77 66q44 29 66 29q24 0 30 -50h32v379zM683 1185q94 -2 150 -49q57 -48 57 -125q0 -84 -73 -132q-56 -37 -134 -37q-89 0 -148 48q-58 49 -58 123
q0 89 73 135q56 37 133 37zM612 672q128 -2 219 -76q42 -33 69 -83q28 -49 28 -90q0 -87 -90 -150q-89 -64 -218 -64q-124 0 -204 66q-79 66 -79 169q0 98 81 163q83 65 194 65z" />
    <glyph glyph-name="quotesingle" unicode="'" horiz-adv-x="569" 
d="M403 803q-38 11 -48 22q-9 13 -9 50q0 19 3 34l66 348q8 51 15 61t44 18v29h-378v-29q36 -8 43 -18q8 -10 16 -61l66 -348q3 -17 3 -32q0 -39 -10 -52q-8 -11 -47 -22v-29h236v29z" />
    <glyph glyph-name="parenleft" unicode="(" horiz-adv-x="683" 
d="M556 1529q-195 -139 -308 -367q-114 -230 -114 -480q0 -332 197 -616q97 -139 225 -230l110 91q-142 167 -204 339q-60 172 -60 416q0 302 97 508q52 115 167 248z" />
    <glyph glyph-name="parenright" unicode=")" horiz-adv-x="683" 
d="M127 1529l-111 -91q143 -167 203 -339q61 -171 61 -417q0 -300 -96 -508q-53 -114 -168 -247l111 -91q195 141 307 367q114 228 114 479q0 333 -197 617q-96 138 -224 230z" />
    <glyph glyph-name="asterisk" unicode="*" horiz-adv-x="1033" 
d="M365 1502v-38q50 -12 65 -60q15 -43 20 -203q-122 40 -173.5 73t-51.5 72q0 10 1 17l-36 11l-94 -288l36 -11q29 44 73 44q55 0 204 -45q-128 -173 -184 -173q-15 0 -39 10l-23 -31l246 -178l22 31q-24 30 -24 52q0 53 110 211q110 -158 110 -211q0 -22 -24 -52l22 -31
l245 179l-22 30q-23 -10 -38 -10q-32 0 -70 35q-41 39 -116 139q146 44 203 44q47 0 74 -44l36 12l-94 288l-36 -12q1 -7 1 -15q0 -42 -46 -72q-44 -28 -179 -75q3 154 19 202q16 49 66 61v38h-303z" />
    <glyph glyph-name="plus" unicode="+" horiz-adv-x="1570" 
d="M687 585v-357q0 -28 -14 -43t-50 -23v-30h324v29q-36 9 -50 24t-14 43v357h357q28 0 42.5 -14t23.5 -50h30v324h-30q-9 -36 -23.5 -50t-42.5 -14h-357v356q0 29 14 43t50 24v29h-324v-30q36 -9 50 -23.5t14 -42.5v-356h-357q-28 0 -43 14t-23 50h-30v-324h29q9 36 24 50
t43 14h357z" />
    <glyph glyph-name="comma" unicode="," horiz-adv-x="628" 
d="M197 -250l48 -64q233 164 233 384q0 92 -42 160q-48 74 -138 74q-67 0 -107.5 -44t-40.5 -118t40 -120t106 -46q20 0 70 11q-15 -81 -51 -132q-36 -52 -118 -105z" />
    <glyph glyph-name="hyphen" unicode="-" horiz-adv-x="455" 
d="M455 733h-32q-10 -37 -26 -51t-47 -14h-246q-30 0 -46.5 14.5t-25.5 50.5h-32v-346h32q9 35 25.5 49.5t46.5 14.5h246q31 0 47 -14t26 -50h32v346z" />
    <glyph glyph-name="period" unicode="." horiz-adv-x="628" 
d="M314 304q-70 -2 -117 -49t-47 -114t48 -117q48 -48 116 -48q67 0 115 48q49 48 49 115q0 69 -48 117q-46 48 -116 48z" />
    <glyph glyph-name="slash" unicode="/" horiz-adv-x="1555" 
d="M1317 1192q71 93 95 114q24 20 75 27v32h-468v-32q60 -17 60 -60q0 -25 -44 -81l-788 -1016q-69 -89 -98 -113q-30 -24 -81 -31v-32h468v32q-60 12 -60 52q0 22 37 68z" />
    <glyph glyph-name="zero" unicode="0" horiz-adv-x="1461" 
d="M729 1389q-167 -2 -293 -66q-151 -76 -240 -218q-112 -178 -112 -422q0 -180 68 -339q46 -106 132 -192q178 -176 446 -176q162 0 294 66q148 75 240 219q52 82 82 193t30 219q0 344 -200 541q-178 175 -447 175zM729 1157q162 -1 255 -141q87 -128 87 -331
q0 -189 -87 -319q-93 -141 -254 -141q-160 0 -254 141q-87 130 -87 325q0 194 87 325q94 141 253 141z" />
    <glyph glyph-name="one" unicode="1" horiz-adv-x="1461" 
d="M441 872h32q10 36 24.5 51t47.5 23l94 23v-864q0 -31 -14 -47t-50 -26v-32h417v32q-36 10 -50 26t-14 47v1156q0 31 14 46.5t50 25.5v32h-417v-32q36 -10 50 -26t14 -46v-59l-86 -22q-16 -4 -28 -4q-21 0 -31 11t-21 48h-32v-363z" />
    <glyph glyph-name="two" unicode="2" horiz-adv-x="1461" 
d="M439 246q37 49 78 74q41 26 146 69q88 36 109 46l154 69q152 68 239 148q135 124 135 314q0 194 -141 309q-140 114 -371 114q-322 0 -543 -191q-37 -32 -49 -40q-11 -7 -28 -7q-18 0 -56 18l-24 -22l266 -287l22 23q-16 45 -16 63q0 73 121 140q125 71 270 71
q119 0 181.5 -47.5t62.5 -138.5q0 -80 -52 -138.5t-172 -113.5l-169 -77q-188 -86 -271 -146q-162 -118 -220 -285q-29 -84 -29 -211q0 -31 1 -64h32q9 40 27 52t69 12h1063q31 0 47 -14t26 -50h32v374h-32q-10 -36 -26 -50t-47 -14h-835z" />
    <glyph glyph-name="three" unicode="3" horiz-adv-x="1461" 
d="M1151 716q172 100 172 280q0 101 -49 181q-48 78 -133 127q-148 85 -364 85q-311 0 -561 -169q-35 -23 -54 -23q-16 0 -55 17l-25 -20l230 -283l25 20q-13 25 -13 45q0 48 74 92q154 89 355 89q143 0 220 -46t77 -131q0 -84 -69 -127q-79 -52 -227 -52q-96 0 -128 13
q-32 14 -44 59h-32v-335h32q11 42 46 55q39 14 133 14q320 0 320 -194q0 -111 -114 -163q-91 -41 -216 -41q-135 0 -265 37q-133 38 -203 96q-55 45 -55 99q0 8 5 21l-30 13l-160 -369l29 -15q43 37 68 37q27 0 120 -45q223 -107 495 -107q256 0 428 101q195 115 195 337
q0 216 -227 302z" />
    <glyph glyph-name="four" unicode="4" horiz-adv-x="1461" 
d="M943 230v-125q0 -31 -14 -47t-50 -26v-32h417v32q-36 10 -50 26t-14 47v125h75q31 0 47 -14.5t26 -50.5h32v353h-32q-10 -35 -26 -49t-47 -14h-75v806q0 30 14 46t50 26v32h-535v-32q51 -7 51 -43q0 -21 -44 -73l-678 -762v-290h31q8 42 26 53q19 12 77 12h719zM943 455
h-527l527 599v-599z" />
    <glyph glyph-name="five" unicode="5" horiz-adv-x="1461" 
d="M57 162l26 -20q41 23 59 23q35 0 76 -25q102 -60 140 -78q177 -86 417 -86q375 0 531 210q91 121 91 276q0 202 -151 325q-163 133 -448 133q-219 0 -383 -82v294h779q31 0 46.5 -13.5t26.5 -49.5h32v361h-32q-11 -37 -26.5 -51t-46.5 -14h-1082v-32q35 -9 49.5 -26
t14.5 -50v-289q0 -61 -48 -61q-8 0 -13 1l-21 -24l352 -354l24 21q-14 26 -14 40q0 41 99 77q101 36 212 36q152 0 242 -66q91 -66 91 -177q0 -120 -94 -189q-87 -63 -238 -63q-202 0 -370 108q-81 51 -81 102q0 20 7 44l-26 18z" />
    <glyph glyph-name="six" unicode="6" horiz-adv-x="1461" 
d="M1386 1286l-27 17q-2 -1 -8 -6t-11 -9q-16 -13 -33 -13q-25 0 -66 19q-122 54 -213 74q-91 21 -206 21q-325 0 -529 -204q-197 -197 -197 -516q0 -157 51 -301q54 -150 162 -246q164 -146 453 -146q270 0 442 126q179 131 179 344q0 108 -48 200q-50 93 -138 152
q-157 104 -374 104q-137 0 -239 -40q-104 -39 -204 -129q11 133 47 210q37 81 114 138q119 87 284 87q79 0 161 -21q85 -22 137 -55q64 -40 64 -80q0 -11 -5 -39l28 -14zM769 674q157 -2 252 -75q80 -63 80 -164q0 -96 -80 -159q-95 -75 -250 -75t-250 75q-80 63 -80 162
t80 161q96 75 248 75z" />
    <glyph glyph-name="seven" unicode="7" horiz-adv-x="1461" 
d="M1041 1140l-611 -983q-36 -60 -67 -87q-30 -27 -71 -38v-32h489v32q-56 20 -56 49q0 18 36 76l614 1012v261h-32q-10 -37 -26 -51t-47 -14h-1080q-31 0 -47 14t-26 51h-32v-353h32q10 36 26 49.5t47 13.5h851z" />
    <glyph glyph-name="eight" unicode="8" horiz-adv-x="1461" 
d="M1081 730q246 98 246 292q0 102 -59 179q-60 78 -150 118q-155 70 -388 70q-332 0 -484 -132q-112 -97 -112 -235q0 -194 246 -292q-305 -80 -305 -322q0 -114 69 -214q70 -99 173 -145q162 -73 414 -73q368 0 526 149q129 121 129 284q0 241 -305 321zM728 1175
q147 0 229 -44t82 -123q0 -74 -84 -118q-83 -44 -225 -44t-225 44t-83 120q0 77 82 120q82 45 224 45zM728 618q168 -1 260 -55t92 -152q0 -85 -75 -136q-99 -66 -275 -66q-162 0 -256 54q-93 55 -93 150q0 89 75 139q100 66 272 66z" />
    <glyph glyph-name="nine" unicode="9" horiz-adv-x="1461" 
d="M75 79l27 -17q2 1 8 6.5t11 8.5q16 13 34 13q24 0 65 -19q126 -55 214 -74q92 -21 205 -21q325 0 529 204q197 197 197 516q0 157 -51 301q-52 150 -162 246q-164 146 -454 146q-266 0 -440 -126q-179 -129 -179 -345q0 -108 48 -199q49 -95 138 -153q154 -103 372 -103
q135 0 239 39q106 42 205 130q-9 -129 -47 -210q-38 -80 -114 -138q-118 -87 -285 -87q-76 0 -160 21q-86 23 -137 55q-64 40 -64 80q0 13 6 39l-28 14zM690 1164q157 -1 250 -75q80 -63 80 -164q0 -96 -80 -159q-94 -75 -250 -75q-154 0 -249 75q-80 63 -80 161
q0 100 80 162q96 75 249 75z" />
    <glyph glyph-name="colon" unicode=":" horiz-adv-x="628" 
d="M314 304q-70 -2 -117 -49t-47 -114t48 -117q48 -48 116 -48q67 0 115 48q49 48 49 115q0 69 -48 117q-46 48 -116 48zM314 1144q-70 -2 -117 -49t-47 -114t48 -117q48 -48 116 -48q67 0 115 48q49 48 49 115q0 69 -48 117q-46 48 -116 48z" />
    <glyph glyph-name="semicolon" unicode=";" horiz-adv-x="628" 
d="M197 -250l48 -64q233 164 233 384q0 92 -42 160q-48 74 -138 74q-67 0 -107.5 -44t-40.5 -118t40 -120t106 -46q20 0 70 11q-15 -81 -51 -132q-36 -52 -118 -105zM314 1144q-70 -2 -117 -49t-47 -114t48 -117q48 -48 116 -48q67 0 115 48q49 48 49 115q0 69 -48 117
q-46 48 -116 48z" />
    <glyph glyph-name="less" unicode="&#x3c;" 
d="M955 1266l-887 -461v-243l887 -462v288l-580 295l580 294v289z" />
    <glyph glyph-name="equal" unicode="=" horiz-adv-x="1570" 
d="M234 753h29q10 36 24 50t43 14h910q28 0 42.5 -14t23.5 -50h30v324h-30q-9 -36 -23.5 -50t-42.5 -14h-910q-28 0 -43 14t-23 50h-30v-324zM234 288h29q10 37 24 51t43 14h910q28 0 42.5 -14t23.5 -51h30v324h-30q-9 -36 -23.5 -49.5t-42.5 -13.5h-910q-28 0 -43 14
t-23 49h-30v-324z" />
    <glyph glyph-name="greater" unicode="&#x3e;" 
d="M69 1266v-289l580 -294l-580 -295v-288l887 462v243z" />
    <glyph glyph-name="question" unicode="?" horiz-adv-x="1000" 
d="M213 980l27 18q-9 23 -9 34q0 32 35 69q75 76 181 76q71 0 113.5 -39.5t42.5 -104.5q0 -41 -20 -81q-19 -38 -75 -108q-64 -81 -82 -116q-20 -38 -30 -101q-11 -71 -24 -92q-14 -20 -53 -33v-32h329v32q-34 9 -46 21t-12 39q0 61 20 99q20 37 89 106q97 96 138 168
q40 71 40 151q0 151 -125 238q-94 65 -231 65q-84 0 -159 -26q-71 -25 -167 -87q-64 -41 -86 -41q-12 0 -42 15l-26 -18zM500 304q-70 -2 -117 -49t-47 -114t48 -117q48 -48 116 -48q67 0 115 48q49 48 49 115q0 69 -48 117q-46 48 -116 48z" />
    <glyph glyph-name="at" unicode="@" horiz-adv-x="1682" 
d="M1274 968h-136l-22 -72q-104 98 -244 98q-103 0 -196.5 -39t-155.5 -108q-94 -103 -94 -234q0 -115 84 -183q76 -60 199 -60q90 0 175 26t145 70q41 -67 86 -93q47 -26 122 -26q97 0 193 87q144 130 144 358q0 250 -186 414q-204 180 -504 180q-164 0 -320 -59
q-222 -85 -343 -269q-112 -170 -112 -390q0 -313 232 -512q205 -177 500 -177q135 0 341 53q22 6 35 6q29 0 54 -48l24 6l-67 234l-24 -6q1 -6 1 -16q0 -24 -24 -31q-59 -21 -151 -36q-96 -14 -164 -14q-373 0 -532 276q-77 134 -77 283q0 132 63 242q79 135 236 223
q156 87 319 87q105 0 212 -39q116 -43 206 -128q132 -125 132 -314q0 -87 -24 -161q-24 -73 -64 -104q-61 -49 -118 -49q-62 0 -62 45q0 10 3 21zM842 867q97 -1 149 -44t52 -122q0 -81 -84 -143q-83 -61 -214 -61q-76 0 -121.5 41t-42.5 106q4 103 89 168q71 55 172 55z
" />
    <glyph glyph-name="A" unicode="A" horiz-adv-x="1666" 
d="M1123 348l94 -192q20 -42 20 -62q0 -52 -66 -62v-32h502v32q-41 7 -67 32q-25 25 -58 92l-520 1052q-19 37 -19 66q0 42 59 59v32h-484v-32q58 -19 58 -66q0 -31 -24 -80l-502 -1049q-27 -58 -48 -78q-22 -21 -61 -28v-32h452v32q-67 16 -67 61q0 24 19 63l92 192h620z
M1037 535h-445l224 486z" />
    <glyph glyph-name="B" unicode="B" horiz-adv-x="1651" 
d="M1339 715q185 89 185 288q0 180 -121 274q-63 49 -142 68q-83 20 -214 20h-924v-32q36 -10 50 -26t14 -47v-1155q0 -31 -14 -47t-50 -26v-32h933q132 0 221.5 23.5t157.5 76.5q134 107 134 293q0 235 -230 322zM485 822v318h523q119 0 169 -36.5t50 -122.5
q0 -83 -53 -124q-47 -35 -166 -35h-523zM485 225v372h506q141 0 203 -39q71 -47 71 -147q0 -102 -71 -147q-62 -39 -203 -39h-506z" />
    <glyph glyph-name="C" unicode="C" horiz-adv-x="1718" 
d="M1446 469l-27 -19q2 -20 2 -26q0 -29 -25 -54.5t-89 -61.5q-176 -100 -375 -100q-234 0 -373 117q-164 137 -164 358t164 358q139 117 373 117q199 0 375 -100q64 -36 89 -61.5t25 -54.5q0 -5 -2 -27l27 -18l190 285l-26 18q-29 -26 -46 -26q-18 0 -101 47
q-170 98 -290 134q-114 34 -278 34q-441 0 -659 -275q-145 -182 -145 -431q0 -181 81 -333q71 -133 192 -221q207 -153 530 -153q164 0 279 34q115 33 290 134q83 48 101 48q17 0 46 -26l26 18z" />
    <glyph glyph-name="D" unicode="D" horiz-adv-x="1717" 
d="M187 105q0 -31 -14 -47t-50 -26v-32h761q190 0 311 33q122 35 213 112q217 184 217 538q0 202 -73 351q-92 191 -284 274q-134 57 -384 57h-761v-32q36 -10 50 -26t14 -47v-1155zM485 225v915h374q137 0 218 -28q80 -26 140 -92q104 -118 104 -337q0 -304 -193 -409
q-89 -49 -269 -49h-374z" />
    <glyph glyph-name="E" unicode="E" horiz-adv-x="1556" 
d="M485 599h554q30 0 46 -14.5t26 -49.5h32v345h-32q-10 -36 -26 -50t-46 -14h-554v324h854q30 0 46 -14t26 -49h32v353h-32q-10 -36 -26 -50.5t-46 -14.5h-1216v-32q36 -10 50 -26t14 -47v-1155q0 -31 -14 -47t-50 -26v-32h1240q30 0 46 -14t26 -50h32v353h-32
q-10 -36 -26 -50t-46 -14h-878v374z" />
    <glyph glyph-name="F" unicode="F" horiz-adv-x="1490" 
d="M485 597h553q31 0 47 -14t26 -49h32v345h-32q-10 -36 -26 -50.5t-47 -14.5h-553v326h846q30 0 46 -13.5t26 -49.5h32v353h-32q-10 -36 -26 -50.5t-46 -14.5h-1208v-32q36 -10 50 -26t14 -47v-1155q0 -31 -14 -47t-50 -26v-32h426v32q-35 9 -49.5 25.5t-14.5 47.5v492z
" />
    <glyph glyph-name="G" unicode="G" horiz-adv-x="1757" 
d="M1337 491v-186q-80 -45 -190 -71q-112 -26 -223 -26q-231 0 -374 122q-155 134 -155 349q0 223 159 359q141 120 355 120q104 0 223 -33q117 -31 179 -78q29 -21 36 -36q7 -13 9 -47l29 -15l160 327l-28 15q-29 -23 -49 -23q-30 0 -97 27q-131 51 -236 72
q-101 22 -220 22q-369 0 -590 -184q-234 -193 -234 -522q0 -352 263 -550q208 -157 540 -157q366 0 754 222v25q-37 10 -51 26t-14 47v280q0 31 14.5 47t50.5 26v32h-648q-31 0 -46.5 14t-25.5 50h-32v-318h32q10 36 25.5 50t46.5 14h337z" />
    <glyph glyph-name="H" unicode="H" horiz-adv-x="1757" 
d="M1272 596v-492q0 -30 -14.5 -46.5t-49.5 -25.5v-32h426v32q-36 10 -50 26t-14 46v1157q0 30 14 46t50 26v32h-426v-32q36 -9 50 -25.5t14 -46.5v-440h-787v440q0 30 14 46.5t50 25.5v32h-426v-32q36 -10 50 -26t14 -46v-1157q0 -30 -14 -46t-50 -26v-32h426v32
q-35 9 -49.5 25.5t-14.5 46.5v492h787z" />
    <glyph glyph-name="I" unicode="I" horiz-adv-x="671" 
d="M187 105q0 -31 -14 -47t-50 -26v-32h426v32q-35 9 -49.5 25.5t-14.5 47.5v1156q0 30 14 46.5t50 25.5v32h-426v-32q36 -10 50 -26t14 -46v-1156z" />
    <glyph glyph-name="J" unicode="J" horiz-adv-x="1238" 
d="M6 52l30 -12q28 28 61 28q36 0 128 -26q147 -44 209 -54q64 -12 151 -12q152 0 266 50.5t172 143.5q55 88 55 286v804q0 31 14 47t50 26v32h-426v-32q36 -10 50 -26t14 -47v-789q0 -83 -11 -129q-10 -41 -42 -73q-61 -61 -195 -61q-82 0 -174 24q-89 24 -144 59
q-51 35 -51 76q0 12 1 20l-30 11z" />
    <glyph glyph-name="K" unicode="K" horiz-adv-x="1642" 
d="M690 638l403 -494q48 -60 48 -74q0 -27 -53 -38v-32h533v32q-49 7 -82 33q-31 25 -105 114l-526 633l464 373l77 64q74 60 87 68t50 16v32h-558v-32q58 -10 58 -40q0 -19 -39 -51l-562 -459v478q0 30 14 46.5t50 25.5v32h-426v-32q36 -10 50 -26t14 -46v-1156
q0 -31 -14 -47t-50 -26v-32h426v32q-35 9 -49.5 25.5t-14.5 47.5v366z" />
    <glyph glyph-name="L" unicode="L" horiz-adv-x="1449" 
d="M485 225v1035q0 31 14 47.5t50 25.5v32h-426v-32q36 -10 50 -26t14 -47v-1155q0 -31 -14 -47t-50 -26v-32h1201q31 0 47 -14t26 -50h32v353h-32q-10 -36 -26 -50t-47 -14h-839z" />
    <glyph glyph-name="M" unicode="M" horiz-adv-x="1979" 
d="M963 19l531 924v-838q0 -31 -14.5 -47.5t-49.5 -25.5v-32h426v32q-36 10 -50 26t-14 47v1156q0 30 14 46t50 26v32h-516v-32q50 -5 50 -46q0 -21 -25 -67l-377 -674l-372 686q-14 26 -14 46q0 43 47 55v32h-526v-32q36 -10 50 -26t14 -46v-1156q0 -31 -14 -47t-50 -26
v-32h401v32q-36 10 -50 26t-14 47v838z" />
    <glyph glyph-name="N" unicode="N" horiz-adv-x="1785" 
d="M460 935l765 -790q49 -49 49 -70q0 -34 -42 -43v-32h430v32q-36 10 -50 26t-14 47v1156q0 30 14 46t50 26v32h-401v-32q36 -10 50 -26t14 -46v-810l-753 783q-28 28 -28 53q0 36 43 46v32h-464v-32q36 -10 50 -26t14 -46v-1156q0 -31 -14 -47t-50 -26v-32h401v32
q-36 10 -50 26t-14 47v830z" />
    <glyph glyph-name="O" unicode="O" horiz-adv-x="1752" 
d="M873 1389q-476 -6 -677 -331q-105 -170 -105 -375q0 -139 51 -267q59 -145 170 -247q208 -193 563 -193q472 0 679 332q106 169 106 366q0 319 -221 522q-208 193 -566 193zM874 1158q197 -2 328 -116q154 -133 154 -365q0 -95 -36 -184q-40 -98 -118 -169
q-130 -116 -326 -116t-327 116q-154 136 -154 359t154 359q131 116 325 116z" />
    <glyph glyph-name="P" unicode="P" horiz-adv-x="1567" 
d="M485 554h490q190 0 294 37t170 127q74 104 74 242q0 97 -39 182q-39 83 -108 134q-68 50 -155 69q-89 20 -236 20h-852v-32q36 -10 50 -26t14 -47v-1156q0 -30 -14 -46t-50 -26v-32h426v32q-35 9 -49.5 25.5t-14.5 46.5v450zM485 779v361h455q136 0 191 -29
q35 -19 56.5 -60.5t21.5 -90.5q0 -50 -21.5 -91.5t-56.5 -60.5q-56 -29 -191 -29h-455z" />
    <glyph glyph-name="Q" unicode="Q" horiz-adv-x="1752" 
d="M1447 176q213 206 213 507q0 139 -51 267q-59 144 -170 246q-208 193 -563 193q-473 0 -679 -332q-106 -169 -106 -374q0 -139 51 -267q59 -145 170 -247q208 -193 558 -193q212 0 360 60l118 -144q56 -68 56 -85q0 -15 -20 -49l22 -24l292 266l-21 24q-30 -13 -46 -13
t-30 8q-10 8 -48 47zM1250 375q-98 80 -163 111q-66 32 -131 32q-91 0 -164 -56v-28q144 -35 250 -170q3 -4 10 -12.5t9 -11.5q-91 -32 -184 -32q-197 0 -328 116q-154 136 -154 359q0 221 154 359q130 116 327 116q196 0 326 -116q154 -136 154 -358q0 -178 -106 -309z" />
    <glyph glyph-name="R" unicode="R" horiz-adv-x="1656" 
d="M485 557h364l276 -402q47 -70 47 -87q0 -28 -51 -36v-32h494v32q-48 3 -80 31q-30 28 -102 128l-265 377q371 57 371 391q0 100 -37 184q-39 89 -118 141q-67 45 -160 63q-91 18 -247 18h-854v-32q36 -10 50 -26t14 -47v-1156q0 -30 -14 -46t-50 -26v-32h426v32
q-35 9 -49.5 25.5t-14.5 46.5v453zM485 782v358h460q103 0 144 -6q39 -4 77 -25q76 -40 76 -148t-76 -148q-33 -19 -77 -25q-42 -6 -144 -6h-460z" />
    <glyph glyph-name="S" unicode="S" horiz-adv-x="1475" 
d="M1393 1250l-28 15q-29 -23 -49 -23q-11 0 -71 23q-175 73 -282 97q-113 27 -244 27q-311 0 -468 -149q-119 -113 -119 -286q0 -104 47 -186q53 -91 143 -135q67 -33 128 -47q64 -14 219 -30l154 -16q152 -16 206 -37q73 -28 73 -97q0 -45 -31 -86.5t-83 -66.5
q-95 -45 -227 -45q-121 0 -258 42t-201 100q-43 37 -43 83v13l-29 14l-148 -335l29 -15q28 22 41 22q10 0 67 -26q263 -130 535 -130q153 0 283 37q178 50 261 151q93 112 93 256q0 91 -39.5 171t-107.5 129q-70 48 -154 73q-88 26 -226 41l-157 16q-158 17 -206 30
q-93 28 -93 105q0 47 36 87t96 60q83 26 187 26q240 0 418 -124q58 -39 58 -73q0 -9 -1 -16l28 -16z" />
    <glyph glyph-name="T" unicode="T" horiz-adv-x="1381" 
d="M840 1140h423q31 0 47 -13.5t26 -49.5h32v353h-32q-10 -37 -26 -51t-47 -14h-1145q-30 0 -45.5 14t-26.5 51h-32v-353h32q10 36 26 49.5t46 13.5h424v-1035q0 -31 -14 -47t-50 -26v-32h426v32q-36 10 -50 26t-14 47v1035z" />
    <glyph glyph-name="U" unicode="U" horiz-adv-x="1671" 
d="M1512 1260q0 31 14 47t50 26v32h-402v-32q36 -10 50 -26t14 -47v-681q0 -120 -13 -175q-14 -57 -48 -94q-96 -102 -329 -102q-232 0 -328 102q-35 36 -49 94q-13 55 -13 175v681q0 31 14.5 47.5t50.5 25.5v32h-427v-32q36 -10 50 -26t14 -47v-765q0 -143 38 -248
q39 -104 140 -166q172 -105 499 -105q451 0 595 194q80 109 80 325v765z" />
    <glyph glyph-name="V" unicode="V" horiz-adv-x="1577" 
d="M797 396l-362 802q-23 52 -23 79q0 43 66 56v32h-485v-32q45 -6 61 -25q19 -22 59 -110l473 -1021q30 -65 30 -84q0 -52 -63 -61v-32h470v32q-63 9 -63 60q0 20 30 85l473 1021q40 88 59 110q16 19 61 25v32h-467v-32q66 -13 66 -56q0 -27 -23 -79z" />
    <glyph glyph-name="W" unicode="W" horiz-adv-x="2311" 
d="M1157 961l301 -772q31 -69 31 -90q0 -57 -70 -67v-32h445v32q-71 12 -71 61q0 25 28 96l391 1007q32 80 50 101q20 23 69 36v32h-469v-32q72 -14 72 -58q0 -27 -21 -79l-269 -713l-278 725q-17 45 -17 60q0 47 68 65v32h-496v-32q67 -13 67 -59q0 -17 -19 -62l-292 -726
l-270 722q-16 42 -16 66q0 46 63 59v32h-474v-32q46 -9 68 -36q25 -26 53 -101l391 -1007q28 -72 28 -89q0 -55 -67 -68v-32h439v32q-74 20 -74 65q0 16 27 76z" />
    <glyph glyph-name="X" unicode="X" horiz-adv-x="1541" 
d="M943 711l393 481q83 100 105 119q22 18 69 22v32h-533v-32q69 -10 69 -55q0 -24 -48 -86l-217 -275l-214 275q-43 55 -43 80q0 44 60 61v32h-548l1 -32q53 -4 78 -25q27 -21 99 -116l379 -496l-412 -520q-74 -94 -103 -118q-26 -22 -71 -26v-32h524v32q-67 6 -67 56
q0 22 41 75l250 327l263 -338q36 -46 36 -68q0 -40 -60 -52v-32h541v32q-51 7 -82 32q-32 27 -97 112z" />
    <glyph glyph-name="Y" unicode="Y" horiz-adv-x="1460" 
d="M879 571l441 621q57 80 89 107q32 28 78 34v32h-528v-32q31 -5 49 -21.5t18 -39.5q0 -21 -41 -80l-253 -366l-246 366q-41 62 -41 79q0 52 67 62v32h-539v-32q46 -6 77 -34q32 -26 90 -107l441 -621v-466q0 -31 -15 -47t-51 -26v-32h429v32q-36 10 -50.5 26t-14.5 47v466
z" />
    <glyph glyph-name="Z" unicode="Z" horiz-adv-x="1462" 
d="M566 225l803 1083v57h-1176q-31 0 -46.5 14t-26.5 51h-32v-353h32q10 36 26 49.5t47 13.5h683l-794 -1070v-70h1194q30 0 46 -14t26 -50h32v353h-32q-10 -36 -26 -50t-46 -14h-710z" />
    <glyph glyph-name="bracketleft" unicode="[" horiz-adv-x="683" 
d="M134 1475v-25q35 -9 49.5 -25t14.5 -45v-1396q0 -29 -14.5 -44.5t-49.5 -24.5v-25l430 1q31 0 48 -14.5t27 -49.5h27v268h-27q-11 -39 -28.5 -52t-59.5 -13h-134v1306h147q32 0 48.5 -14.5t26.5 -50.5h27v268h-27q-11 -36 -27 -50t-48 -14h-430z" />
    <glyph glyph-name="backslash" unicode="\" horiz-adv-x="1555" 
d="M519 1192q-44 56 -44 80q0 44 60 61v32h-467v-32q52 -8 74 -27q24 -20 96 -114l804 -1040q36 -46 36 -68q0 -40 -60 -52v-32h468v32q-50 7 -80 31q-27 23 -99 113z" />
    <glyph glyph-name="bracketright" unicode="]" horiz-adv-x="683" 
d="M548 1475h-430q-32 0 -48 14t-27 50h-27v-268h27q10 36 26.5 50.5t48.5 14.5h147v-1306h-134q-42 0 -59.5 13t-28.5 52h-27v-268h27q10 35 27 49.5t48 14.5l430 -1v25q-36 10 -50 25t-14 44v1396q0 29 14.5 45t49.5 25v25z" />
    <glyph glyph-name="asciicircum" unicode="^" 
d="M293 723l219 453l219 -453h259l-316 650h-323l-316 -650h258z" />
    <glyph glyph-name="underscore" unicode="_" 
d="M0 -119v-174h1024v174h-1024z" />
    <glyph glyph-name="grave" unicode="`" 
d="M246 1533v-27q40 -2 59 -27l142 -174q6 -7 6 -16q0 -16 -20 -16h-5v-27h217v27q-24 0 -34 7t-19 29l-66 163q-4 8 -4 15q0 16 28 19v27h-304z" />
    <glyph glyph-name="a" unicode="a" horiz-adv-x="1421" 
d="M947 280l62 -115q25 -46 25 -77q0 -50 -65 -61v-27h457v27q-42 8 -61 27q-21 21 -55 86l-424 803q-25 47 -25 81q0 46 55 68v28h-435v-28q56 -23 56 -64q0 -34 -23 -82l-409 -828q-27 -53 -44 -67q-19 -17 -56 -23v-28h412v28q-64 13 -64 61q0 25 21 69l58 122h515z
M866 437h-357l174 359z" />
    <glyph glyph-name="b" unicode="b" horiz-adv-x="1387" 
d="M1127 602q89 48 123 99q36 51 36 131q0 136 -102 214q-97 74 -302 74h-784v-28q36 -11 50 -27t14 -47v-916q0 -31 -14.5 -48t-49.5 -26v-28h797q194 0 303 79q124 88 124 253q0 122 -73 194q-41 39 -122 76zM430 700v217h407q97 0 136.5 -24.5t39.5 -83.5
q0 -60 -40 -84.5t-136 -24.5h-407zM430 203v294h417q202 0 202 -147t-202 -147h-417z" />
    <glyph glyph-name="c" unicode="c" horiz-adv-x="1427" 
d="M1193 401l-22 -17q3 -25 3 -28q0 -42 -110 -98q-142 -71 -283 -71q-181 0 -300 95q-135 108 -135 278q0 169 135 277q119 96 300 96q129 0 258 -59q135 -62 135 -111q0 -7 -1 -13l-2 -15l22 -16l169 245l-23 18q-25 -17 -38 -17q-18 0 -79 37q-136 80 -243 111
q-105 31 -243 31q-370 0 -549 -236q-114 -152 -114 -348q0 -143 62 -265q59 -113 156 -188q173 -131 447 -131q139 0 242 31q106 32 242 111q61 37 79 37q13 0 38 -17l23 17z" />
    <glyph glyph-name="d" unicode="d" horiz-adv-x="1441" 
d="M162 102q0 -31 -14.5 -48t-49.5 -26v-28h657q156 0 260.5 29.5t181.5 95.5q171 149 171 435q0 156 -51 271q-73 166 -239 238q-118 51 -323 51h-657v-28q36 -11 50 -27t14 -47v-916zM430 203v714h286q104 0 172 -21.5t114 -68.5q93 -95 93 -267t-93 -267
q-88 -90 -286 -90h-286z" />
    <glyph glyph-name="e" unicode="e" horiz-adv-x="1314" 
d="M430 476h422q32 0 48.5 -14.5t26.5 -50.5h27v324h-27q-11 -36 -27.5 -50t-47.5 -14h-422v246h680q32 0 48.5 -14t26.5 -51h27v332h-27q-10 -36 -26.5 -50t-48.5 -14h-1012v-28q36 -11 50 -27t14 -47v-916q0 -31 -14.5 -48t-49.5 -26v-28h1043q31 0 48 -14.5t26 -49.5h28
v332h-28q-10 -36 -26.5 -50.5t-47.5 -14.5h-711v273z" />
    <glyph glyph-name="f" unicode="f" horiz-adv-x="1248" 
d="M430 476h422q32 0 48.5 -14.5t26.5 -50.5h27v324h-27q-11 -36 -27 -50t-48 -14h-422v246h672q32 0 48.5 -14.5t26.5 -50.5h27v332h-27q-10 -36 -26.5 -50t-48.5 -14h-1004v-28q36 -11 50 -27t14 -47v-916q0 -31 -14.5 -48t-49.5 -26v-28h396v27q-36 11 -50 27.5t-14 47.5
v374z" />
    <glyph glyph-name="g" unicode="g" horiz-adv-x="1474" 
d="M1108 432v-171q-134 -73 -331 -73q-205 0 -320 101q-111 99 -111 264q0 176 122 280q116 99 297 99q158 0 294 -73q74 -39 74 -76v-6l24 -12l133 282l-24 13q-22 -16 -40 -16q-16 0 -97 28q-209 72 -372 72q-372 0 -562 -238q-122 -155 -122 -352q0 -144 67 -269
q57 -106 150 -178q173 -131 450 -131q321 0 646 179v23q-35 10 -49.5 27t-14.5 48v236q0 35 14.5 54t49.5 29v29h-533q-32 0 -48.5 14t-26.5 49h-27v-296h27q10 36 26.5 50t48.5 14h255z" />
    <glyph glyph-name="h" unicode="h" horiz-adv-x="1486" 
d="M1055 487v-385q0 -31 -14.5 -48t-49.5 -26v-28h396v27q-36 11 -50 27.5t-14 47.5v916q0 31 14 47.5t50 26.5v28h-396v-28q37 -11 50.5 -27t13.5 -47v-328h-625v328q0 31 14 47.5t50 26.5v28h-396v-28q36 -11 50 -27t14 -47v-916q0 -31 -14.5 -48t-49.5 -26v-28h396v27
q-36 11 -50 27.5t-14 47.5v385h625z" />
    <glyph glyph-name="i" unicode="i" horiz-adv-x="593" 
d="M430 1018q0 31 14 47.5t50 26.5v28h-396v-28q36 -11 50 -27t14 -47v-916q0 -31 -14.5 -48t-49.5 -26v-28h396v27q-36 11 -50 27.5t-14 47.5v916zM299 1534q-59 -2 -98 -41q-40 -39 -40 -95q0 -58 40 -98t98 -40q57 0 97 40q41 41 41 96q0 58 -40 98t-98 40z" />
    <glyph glyph-name="j" unicode="j" horiz-adv-x="1035" 
d="M5 30l27 -8q23 26 45 26q11 0 31 -6q206 -66 346 -66q127 0 227 36.5t151 102.5q62 80 62 264v639q0 31 14 47.5t50 26.5v28h-396v-28q36 -11 50 -27t14 -47v-634q0 -100 -51.5 -148t-158.5 -48q-73 0 -152 25q-82 26 -112 56q-22 21 -22 57l-26 9z" />
    <glyph glyph-name="k" unicode="k" horiz-adv-x="1403" 
d="M589 511l309 -369q41 -47 46 -56q7 -8 7 -19q0 -27 -55 -40v-27h490v27q-47 11 -80 38q-36 30 -114 121l-416 478l378 301q100 89 126 105q26 17 64 23v27h-504v-28q58 -10 58 -40q0 -27 -47 -65l-421 -336v367q0 31 14 47.5t50 26.5v28h-396v-28q36 -11 50 -27t14 -47
v-916q0 -31 -14.5 -48t-49.5 -26v-28h396v27q-36 11 -50 27.5t-14 47.5v279z" />
    <glyph glyph-name="l" unicode="l" horiz-adv-x="1176" 
d="M430 203v815q0 31 14 47.5t50 26.5v28h-396v-28q36 -11 50 -27t14 -47v-916q0 -31 -14.5 -48t-49.5 -26v-28h959q32 0 48.5 -14t26.5 -50h27v332h-27q-11 -37 -27 -51t-48 -14h-627z" />
    <glyph glyph-name="m" unicode="m" horiz-adv-x="1677" 
d="M814 35l432 701v-634q0 -31 -14.5 -48t-49.5 -26v-28h396v27q-36 10 -50 27t-14 48v916q0 31 14 47.5t50 26.5v28h-461v-28q49 -10 49 -52q0 -32 -48 -112l-281 -464l-279 471q-34 58 -34 100t47 57v28h-473v-28q36 -10 50 -26.5t14 -47.5v-916q0 -31 -14.5 -48
t-49.5 -26v-28h372v27q-36 11 -50 27.5t-14 47.5v634z" />
    <glyph glyph-name="n" unicode="n" horiz-adv-x="1523" 
d="M406 738l594 -586q39 -39 55 -59q12 -15 12 -29q0 -28 -44 -37v-27h401v27q-36 11 -50 27.5t-14 47.5v916q0 31 14 47.5t50 26.5v28h-372v-28q36 -10 50 -26.5t14 -47.5v-617l-600 596q-32 32 -32 56q0 28 44 39v28h-430v-28q36 -11 50 -27t14 -47v-916q0 -31 -14.5 -48
t-49.5 -26v-28h372v27q-35 10 -49.5 27t-14.5 48v636z" />
    <glyph glyph-name="o" unicode="o" horiz-adv-x="1460" 
d="M728 1144q-265 -3 -441 -136q-214 -160 -214 -448q0 -285 214 -448q175 -136 443 -136t443 136q213 164 213 439q0 293 -213 457q-178 136 -445 136zM729 932q174 -2 283 -111q101 -101 101 -266q0 -151 -101 -255q-109 -112 -282 -112q-174 0 -283 112
q-101 104 -101 260q0 157 101 261q109 111 282 111z" />
    <glyph glyph-name="p" unicode="p" horiz-adv-x="1335" 
d="M430 460h398q235 0 349 81.5t114 248.5q0 87 -36 157t-100 108q-110 65 -327 65h-730v-28q36 -11 50 -27t14 -47v-916q0 -31 -14.5 -48t-49.5 -26v-28h396v27q-36 11 -50 27.5t-14 47.5v358zM430 663v254h382q104 0 146 -20q60 -29 60 -107t-60 -107q-42 -20 -146 -20
h-382z" />
    <glyph glyph-name="q" unicode="q" horiz-adv-x="1480" 
d="M1215 147q172 160 172 413q0 283 -214 448q-175 136 -443 136q-267 0 -443 -136q-214 -165 -214 -448t214 -448q175 -136 442 -136q173 0 307 57l113 -130q46 -52 46 -70q0 -17 -18 -38l18 -20l242 222l-18 20q-21 -17 -36 -18q-27 -1 -68 41zM1037 329
q-136 113 -243 113q-66 0 -130 -46v-17q107 -26 218 -164q-76 -27 -153 -27q-173 0 -282 112q-101 104 -101 260q0 157 101 261q109 111 283 111q175 0 283 -111q101 -104 101 -259q0 -135 -77 -233z" />
    <glyph glyph-name="r" unicode="r" horiz-adv-x="1406" 
d="M430 460h269l224 -321q32 -46 32 -67q0 -32 -52 -45v-27h470v27q-43 7 -79 37q-33 29 -92 112l-212 296q166 34 240.5 110.5t74.5 212.5q0 179 -121 258q-60 39 -134 52q-75 15 -218 15h-734v-28q36 -11 50 -27t14 -47v-916q0 -31 -14.5 -48t-49.5 -26v-28h396v27
q-36 11 -50 27.5t-14 47.5v358zM430 663v254h404q111 0 154 -28q44 -29 44 -99q0 -80 -62 -107q-45 -20 -136 -20h-404z" />
    <glyph glyph-name="s" unicode="s" horiz-adv-x="1261" 
d="M1175 1019l-24 13q-25 -22 -41 -22q-18 0 -57 19q-134 63 -238 89q-101 26 -214 26q-213 0 -356 -88q-158 -98 -158 -281q0 -82 36 -151t100 -109q47 -30 117 -47q62 -15 194 -26l157 -13q125 -11 173 -27q72 -24 72 -85q0 -75 -104 -110q-83 -28 -190 -28
q-118 0 -243 32q-123 33 -173 77q-20 18 -20 44v8l-25 10l-115 -274l25 -10q17 24 37 24q12 0 27 -7q237 -107 489 -107q250 0 398 95q154 99 154 270q0 95 -49 169q-39 60 -99 96q-106 63 -315 80l-158 12q-147 12 -201 32q-52 21 -52 70q0 74 108 113q75 27 172 27
q114 0 225 -33t168 -84q21 -19 21 -52l24 -13z" />
    <glyph glyph-name="t" unicode="t" horiz-adv-x="1165" 
d="M716 917h330q32 0 48.5 -14.5t26.5 -50.5h27v332h-27q-10 -36 -26.5 -50t-48.5 -14h-928q-32 0 -48.5 14.5t-25.5 49.5h-28v-332h27q10 36 26.5 50.5t48.5 14.5h330v-815q0 -31 -14.5 -48t-49.5 -26v-28h396v27q-36 11 -50 27.5t-14 47.5v815z" />
    <glyph glyph-name="u" unicode="u" horiz-adv-x="1414" 
d="M1273 1018q0 31 14 47.5t50 26.5v28h-373v-28q37 -11 50.5 -27t13.5 -47v-539q0 -96 -16 -144q-17 -52 -56 -82q-83 -65 -237 -65t-237 65q-41 32 -58 82q-16 48 -16 144v539q0 31 14.5 47.5t50.5 26.5v28h-397v-28q36 -11 50 -27t14 -47v-593q0 -135 36 -225
q40 -99 145 -151q146 -73 386 -73q357 0 486 151q80 95 80 298v593z" />
    <glyph glyph-name="v" unicode="v" horiz-adv-x="1331" 
d="M674 354l-269 593q-25 53 -25 76q0 50 64 69v28h-449v-28q43 -14 58 -32q17 -17 46 -78l392 -825q21 -44 21 -67q0 -49 -65 -63v-27h439v27q-66 13 -66 63q0 24 21 67l392 825q29 60 46 78t58 32v28h-433v-28q65 -20 65 -69q0 -25 -24 -76z" />
    <glyph glyph-name="w" unicode="w" horiz-adv-x="1965" 
d="M980 778l233 -609q22 -54 22 -69q0 -55 -64 -73v-27h434v27q-68 12 -68 70q0 33 16 72l300 764q36 89 56 113q22 28 72 46v28h-436v-28q37 -11 51 -26t14 -43t-13 -61l-204 -534l-204 529q-17 45 -17 65q0 49 65 70v28h-498v-28q67 -16 67 -67q0 -27 -19 -72l-209 -525
l-210 529q-20 52 -20 72q0 43 62 63v28h-426v-28q48 -12 70 -42q23 -27 58 -117l296 -764q18 -46 18 -74q0 -53 -60 -68v-27h417v27q-66 12 -66 68q0 29 18 74z" />
    <glyph glyph-name="x" unicode="x" horiz-adv-x="1300" 
d="M799 580l295 376q65 85 90 104q26 22 80 32v28h-488v-28q66 -14 66 -59q0 -25 -41 -81l-140 -190l-152 203q-31 41 -31 67q0 42 65 60v28h-512v-28q72 -12 164 -136l290 -388l-330 -427q-49 -63 -75 -83q-29 -21 -75 -31v-27h477v27q-65 20 -65 56q0 27 27 61l183 239
l182 -239q33 -43 33 -64q0 -40 -63 -53v-27h515v27q-47 6 -84 31.5t-80 82.5z" />
    <glyph glyph-name="y" unicode="y" horiz-adv-x="1226" 
d="M747 491l332 457q55 75 89 105q35 29 80 39v28h-480l1 -28q64 -18 64 -60q0 -21 -47 -89l-159 -226l-163 226q-47 67 -47 88q0 44 65 61v28h-504v-28q46 -10 79 -39q35 -29 90 -105l332 -457v-389q0 -32 -14 -48.5t-50 -26.5v-27h396v27q-36 11 -50 27.5t-14 47.5v389z
" />
    <glyph glyph-name="z" unicode="z" horiz-adv-x="1247" 
d="M511 203l660 868v49h-985q-32 0 -48.5 14t-26.5 50h-27v-332h27q11 37 27 51t48 14h543l-653 -857v-60h1003q32 0 48.5 -14.5t25.5 -49.5h28v332h-27q-11 -37 -27 -51t-48 -14h-568z" />
    <glyph glyph-name="braceleft" unicode="{" horiz-adv-x="683" 
d="M669 -173v279h-27q-10 -39 -27 -52t-59 -13h-82q-110 11 -108 144v354q0 46 -18 76q-17 30 -65 68q48 38 65 68q18 30 18 75v355q-2 133 108 144h82q42 0 59 -13t27 -52h27v279h-27q-9 -38 -26.5 -51t-59.5 -13h-232q-68 0 -125 -48q-56 -48 -56 -106v-374
q-1 -109 -13 -142q-10 -30 -49 -30h-62q-23 0 -34 13.5t-19 50.5h-24v-313h24q8 37 19.5 51t33.5 14h62q39 0 49 -31q12 -33 13 -142v-373q-2 -62 65 -112q56 -42 116 -42h232q41 0 58.5 -13t27.5 -51h27z" />
    <glyph glyph-name="bar" unicode="|" 
d="M366 1365v-1706h292v1706h-292z" />
    <glyph glyph-name="braceright" unicode="}" horiz-adv-x="683" 
d="M14 -173h27q10 38 27.5 51t58.5 13h233q69 0 124 49q57 48 57 105v373q1 112 12 142q10 31 49 31h62q23 0 34 -13.5t19 -51.5h24v313h-24q-8 -37 -19 -50.5t-34 -13.5h-62q-38 0 -49 30t-12 142v374q0 62 -65 112q-56 42 -116 42h-233q-42 0 -59 13t-27 51h-27v-279h27
q10 39 27.5 52t58.5 13h82q111 -10 109 -144v-355q0 -44 17 -75q19 -31 66 -68q-47 -37 -66 -68q-17 -31 -17 -76v-354q2 -134 -109 -144h-82q-42 0 -59 13t-27 52h-27v-279z" />
    <glyph glyph-name="asciitilde" unicode="~" horiz-adv-x="1365" 
d="M332 484q40 72 73 101t76 29q45 0 117 -31q155 -66 201 -82q38 -13 78 -13q120 0 209 110q45 56 93 165l-142 118q-72 -129 -150 -129q-43 0 -172 56q-154 68 -225 68q-124 0 -213 -116q-46 -61 -87 -158z" />
    <glyph glyph-name="exclamdown" unicode="&#xa1;" horiz-adv-x="774" 
d="M518 885h-262v-32q42 -13 52 -25q11 -14 11 -48q0 -21 -3 -45l-73 -615q-6 -53 -17 -67t-49 -21v-32h420v32q-40 8 -50 21t-16 67l-73 615q-3 24 -3 45q0 35 11 49q10 13 52 24v32zM387 1389q-70 -2 -117 -49q-47 -49 -47 -116t48 -115t116 -48q66 0 115 47q49 48 49 114
q0 70 -48 118q-48 49 -116 49z" />
    <glyph glyph-name="cent" unicode="&#xa2;" horiz-adv-x="1461" 
d="M706 105v-59q0 -32 -14 -48t-50 -27v-27h273v27q-36 10 -50 26.5t-14 48.5v58q116 11 197 36q85 27 177 80q106 61 120 61q16 0 39 -17l23 17l-169 246l-22 -17q3 -26 3 -28q0 -42 -110 -98q-117 -59 -258 -70v744q90 -7 155 -27q60 -18 151 -70q61 -34 61 -78
q0 -3 -2 -21l22 -17l169 245l-22 18q-26 -17 -39 -17t-33 11q-171 98 -261 129q-88 31 -201 36v52q0 32 14 48t50 27v27h-273v-27q36 -10 50 -26.5t14 -48.5v-53q-287 -23 -442 -194q-146 -161 -146 -386q0 -170 87 -308q80 -129 215 -197q123 -62 286 -76zM706 326
q-109 28 -178 83q-134 108 -134 277q0 167 134 277q69 55 178 83v-720z" />
    <glyph glyph-name="sterling" unicode="&#xa3;" horiz-adv-x="1461" 
d="M309 805h-56q-31 0 -47 14t-26 50h-32v-324h32q10 36 26 50.5t47 14.5h81q5 -75 5 -109q0 -123 -43 -193q-42 -69 -154 -129l96 -217q158 81 356 81q86 0 139 -10q170 -30 186 -32q29 -4 74 -4q68 0 126 20q55 19 129 68q85 58 111 58q15 0 37 -12l19 23l-288 221
l-22 -23q21 -18 21 -41q0 -34 -40 -61q-39 -27 -86 -27q-36 0 -121 22q-109 26 -177 26q-81 0 -186 -30q66 63 89 117q22 51 22 144q0 45 -7 108h206q31 0 47 -14.5t26 -50.5h32v324h-32q-10 -36 -26 -50t-47 -14h-228q-10 110 -10 150q0 96 70.5 149t199.5 53
q132 0 220 -60q63 -44 63 -80q0 -21 -18 -33l20 -26l292 211l-20 25q-16 -10 -29 -10q-32 0 -84 39q-92 70 -152 99q-135 67 -319 67q-132 0 -246 -39t-187 -108q-104 -101 -104 -262q0 -55 15 -175z" />
    <glyph glyph-name="currency" unicode="&#xa4;" horiz-adv-x="1570" 
d="M1305 306q109 155 109 376q0 224 -108 378l101 101q24 24 48 24q17 0 49 -18l23 23l-235 234l-23 -22q18 -32 18 -50q0 -23 -24 -47l-120 -121q-154 82 -357 82q-204 0 -359 -81l-121 120q-23 23 -23 47q0 20 18 50l-23 22l-235 -234l23 -23q30 18 49 18q25 0 47 -24
l103 -102q-109 -157 -109 -377t109 -375l-103 -103q-23 -23 -47 -23q-18 0 -49 17l-23 -22l235 -235l23 23q-18 30 -18 49q0 24 23 47l120 120q158 -81 360 -81q196 0 357 81l120 -120q24 -22 24 -47q0 -19 -18 -49l23 -23l235 235l-23 22q-31 -17 -50 -17q-24 0 -47 23z
M784 1054q164 -2 263 -111q94 -103 94 -265q0 -154 -94 -255q-100 -112 -262 -112t-262 112q-94 103 -94 260t94 260q101 111 261 111z" />
    <glyph glyph-name="yen" unicode="&#xa5;" horiz-adv-x="1461" 
d="M582 404v-299q0 -31 -14.5 -47t-51.5 -26v-32h429v32q-36 10 -50.5 26t-14.5 47v299h290q30 0 46.5 -17.5t25.5 -61.5h32v340h-32q-9 -35 -25 -49.5t-47 -14.5h-271l119 236h234q30 0 46.5 -17.5t25.5 -61.5h32v340h-32q-9 -35 -25.5 -49.5t-46.5 -14.5h-139l98 158
q82 130 167 141v32h-527v-32q67 -10 67 -61q0 -11 -5 -23q-6 -15 -31 -60l-148 -363l-143 363q-31 58 -32 61q-4 9 -4 22q0 51 67 61v32h-540v-32q85 -11 167 -141l99 -158h-139q-31 0 -47 14t-26 50h-32v-340h32q10 44 26 61.5t47 17.5h235l119 -236h-272q-31 0 -47 14
t-26 50h-32v-340h32q10 44 26 61.5t47 17.5h291z" />
    <glyph glyph-name="brokenbar" unicode="&#xa6;" 
d="M366 1365v-716h292v716h-292zM366 314v-655h292v655h-292z" />
    <glyph glyph-name="section" unicode="&#xa7;" horiz-adv-x="1374" 
d="M1137 457q69 37 106 105.5t37 158.5q0 181 -152 261q-120 62 -345 86l-192 21q-121 13 -169 36q-47 23 -47 68q0 62 83 103q74 37 214 37q103 0 169 -12t141 -44q76 -33 76 -62q0 -11 -6 -33l23 -11l137 278l-23 10q-26 -25 -39 -25q-20 0 -55 11q-133 47 -231 66
q-95 19 -204 19q-232 0 -362 -96q-130 -94 -130 -263q0 -97 53 -164q32 -41 112 -83q-59 -34 -89 -63q-77 -75 -77 -203q0 -67 29 -124.5t80 -91.5q101 -68 298 -89l197 -20q166 -18 228 -46q64 -27 64 -82q0 -64 -73 -113q-89 -59 -260 -59q-234 0 -371 87q-76 48 -76 85
q0 13 9 35l-22 14l-174 -266l21 -13q32 23 44 23q13 0 35 -13q137 -82 259 -115q120 -34 276 -34q303 0 438 123q111 100 111 253q0 86 -29 136q-28 49 -114 109zM881 535l-289 42q-121 16 -153 29q-65 26 -65 84q0 105 188 177l263 -30q139 -17 186 -44q51 -27 51 -86
q0 -61 -51 -105q-37 -31 -130 -67z" />
    <glyph glyph-name="dieresis" unicode="&#xa8;" 
d="M311 1510q-52 -1 -91 -40q-37 -37 -37 -91t38 -92q40 -38 92 -38q55 0 93 38t38 90q0 55 -38 95q-38 38 -95 38zM710 1510q-56 -2 -93 -39t-37 -91q0 -55 37 -93q38 -38 91 -38q57 0 95 38t38 95q0 50 -38 90q-38 38 -93 38z" />
    <glyph glyph-name="copyright" unicode="&#xa9;" horiz-adv-x="1808" 
d="M907 1389q-208 -3 -364 -62q-220 -85 -340 -270q-110 -172 -110 -374q0 -137 51 -261q62 -150 186 -257q220 -189 579 -189q204 0 367 62q217 82 339 271q111 170 111 365q0 144 -51 269q-62 152 -186 257q-221 189 -582 189zM907 1271q166 -2 292 -44q116 -39 217 -134
q170 -159 170 -419q0 -238 -170 -402q-184 -178 -507 -178q-322 0 -506 178q-170 164 -170 410q0 247 170 411q184 178 504 178zM1240 566l-25 -17q2 -18 2 -20q0 -25 -64 -61q-103 -58 -217 -58q-140 0 -226 74q-85 75 -85 199q0 126 95 206q79 67 216 67q114 0 217 -58
q64 -36 64 -61q0 -2 -2 -20l25 -17l119 179l-25 18q-19 -17 -26 -17q-10 0 -56 27l-20 11q-87 49 -158 69q-72 20 -161 20q-195 0 -317 -91q-164 -122 -164 -333t164 -333q122 -91 317 -91q96 0 168 21q76 24 171 80q46 27 56 27t26 -18l25 18z" />
    <glyph glyph-name="ordfeminine" unicode="&#xaa;" horiz-adv-x="1046" 
d="M194 1337l81 -117l29 17q-9 18 -9 20q0 15 63 29q67 14 128 14q89 0 143 -32t54 -85v-52q-43 42 -82 56q-39 15 -100 15q-124 0 -212 -58q-86 -56 -86 -145q0 -90 86 -146q91 -58 208 -58q63 0 103.5 17t82.5 62v-63h169v27q-29 4 -38.5 11.5t-9.5 25.5v300q0 98 -88 156
q-86 58 -234 58q-141 0 -228 -41q-8 -4 -13 -4q-7 0 -18 11zM513 1106q77 -1 124 -32t47 -80q0 -44 -50 -74q-50 -29 -123 -29q-79 0 -134 30t-55 73q0 46 42 74q56 38 149 38zM848 771h-24q-7 -35 -19 -49.5t-34 -14.5h-502q-22 0 -33.5 13.5t-19.5 50.5h-23v-258h23
q8 37 19.5 50.5t33.5 13.5h502q23 0 34 -13.5t19 -50.5h24v258z" />
    <glyph glyph-name="guillemotleft" unicode="&#xab;" horiz-adv-x="997" 
d="M847 983h-173l-194 -403l194 -403h173l-197 403zM490 983h-173l-194 -403l194 -403h173l-196 403z" />
    <glyph glyph-name="logicalnot" unicode="&#xac;" 
d="M672 0h283v592h-887v-254h604v-338z" />
    <glyph glyph-name="sfthyphen" unicode="&#xad;" horiz-adv-x="455" 
d="M455 733h-32q-10 -37 -26 -51t-47 -14h-246q-30 0 -46.5 14.5t-25.5 50.5h-32v-346h32q9 35 25.5 49.5t46.5 14.5h246q31 0 47 -14t26 -50h32v346z" />
    <glyph glyph-name="registered" unicode="&#xae;" horiz-adv-x="1818" 
d="M907 1389q-208 -3 -364 -62q-220 -85 -340 -270q-110 -172 -110 -374q0 -137 51 -261q62 -150 186 -257q220 -189 579 -189q204 0 367 62q217 82 339 271q111 170 111 365q0 144 -51 269q-62 152 -186 257q-221 189 -582 189zM907 1271q166 -2 292 -44q116 -39 217 -134
q170 -159 170 -419q0 -238 -170 -402q-184 -178 -507 -178q-322 0 -506 178q-170 164 -170 410q0 247 170 411q184 178 504 178zM710 601h205l160 -234q27 -40 27 -47q0 -12 -30 -15v-32h305v32q-30 2 -49 16q-18 17 -60 75l-150 213q214 34 214 236q0 135 -95 198
q-40 27 -95 38t-149 11l-510 1v-31q23 -6 30.5 -13.5t7.5 -24.5v-683q0 -16 -8 -24t-30 -13v-31h265v31q-22 5 -30 13t-8 24v260zM710 748v197h265q95 0 127 -17q41 -23 41 -81q0 -59 -41 -82q-32 -17 -127 -17h-265z" />
    <glyph glyph-name="overscore" unicode="&#xaf;" 
d="M0 1659v-174h1024v174h-1024z" />
    <glyph glyph-name="degree" unicode="&#xb0;" horiz-adv-x="945" 
d="M473 1404q-120 -1 -213 -79q-51 -43 -80.5 -109t-29.5 -136q0 -124 83 -216q96 -105 239 -105q131 0 225 91q97 94 97 228q0 131 -86 223q-97 103 -235 103zM470 1287q86 -2 147 -65q56 -59 56 -146q0 -80 -61 -140q-60 -60 -141 -60q-92 0 -151 71q-49 58 -49 134
q0 88 66 151q56 55 133 55z" />
    <glyph glyph-name="plusminus" unicode="&#xb1;" horiz-adv-x="1570" 
d="M687 585v-289q0 -28 -14 -43t-50 -23v-30h324v29q-36 9 -50 24t-14 43v289h357q28 0 42.5 -14t23.5 -50h30v324h-30q-9 -36 -23.5 -50t-42.5 -14h-357v356q0 28 14 42.5t50 24.5v29h-324v-30q36 -9 50 -23.5t14 -42.5v-356h-357q-28 0 -43 14t-23 50h-30v-324h29
q10 36 24.5 50t42.5 14h357zM234 -190h29q10 37 24 51t43 14h910q28 0 42.5 -14t23.5 -51h30v324h-30q-9 -36 -23.5 -49.5t-42.5 -13.5h-910q-28 0 -43 14t-23 49h-30v-324z" />
    <glyph glyph-name="twosuperior" unicode="&#xb2;" horiz-adv-x="969" 
d="M313 705q30 34 131 71q60 22 70 27l99 41q126 52 184.5 119t58.5 160q0 116 -92 187q-92 69 -243 69q-209 0 -351 -115q-34 -26 -45 -26t-37 12l-24 -20l180 -179l22 21q-11 31 -11 38q0 40 73 77q80 41 171 41q148 0 148 -102q0 -45 -32 -78t-107 -65l-108 -45
q-116 -50 -174 -87q-58 -38 -100 -92q-63 -83 -63 -207q0 -20 1 -43h33q5 25 14.5 31t41.5 6h680q19 0 27 -7.5t15 -29.5h32v234h-32q-7 -23 -15 -30.5t-27 -7.5h-520z" />
    <glyph glyph-name="threesuperior" unicode="&#xb3;" horiz-adv-x="969" 
d="M771 977q101 59 101 164q0 124 -120 187q-98 51 -237 51q-199 0 -363 -101q-20 -12 -31 -12q-9 0 -36 11l-25 -19l156 -177l26 19q-10 17 -10 29q0 36 85 67q87 32 183 32q89 0 136.5 -25.5t47.5 -72.5q0 -46 -48 -72t-132 -26q-65 0 -83 7q-19 8 -26 36h-32v-211h32
q6 26 27 33q24 8 85 8q195 0 195 -108q0 -52 -54.5 -82.5t-149.5 -30.5q-127 0 -226 40q-101 41 -101 90q0 7 4 16l-31 12l-108 -229l29 -14q29 24 42 24q15 0 75 -26q141 -64 319 -64q165 0 277 61q128 69 128 204q0 130 -135 179z" />
    <glyph glyph-name="acute" unicode="&#xb4;" 
d="M778 1533h-304v-27q28 -3 28 -19q0 -7 -4 -15l-66 -163q-9 -22 -19 -29t-34 -7v-27h217v27h-4q-21 0 -21 16q0 9 6 16l142 174q19 25 59 27v27z" />
    <glyph glyph-name="mu" unicode="&#xb5;" horiz-adv-x="984" 
d="M1032 110q-33 -11 -56 -11q-52 0 -69 33q-16 33 -16 138v666h-267v-731q-48 -61 -85 -86t-79 -25q-27 0 -53 14.5t-39 35.5q-31 53 -31 204v588h-269v-439q-3 -357 -64 -647q-18 -86 -18 -134q0 -54 36.5 -86t97.5 -32q62 0 100 44q26 29 26 68t-23 110q-37 111 -50 168
q-13 59 -13 121q0 15 1 31q40 -97 88 -133q50 -38 134 -38q95 0 171 63q28 22 88 87q28 -84 45 -108q29 -36 72 -36q2 0 12 2l261 93v40z" />
    <glyph glyph-name="paragraph" unicode="&#xb6;" horiz-adv-x="1307" 
d="M641 635v-681q0 -42 -12.5 -59t-51.5 -27v-32h255v1406h165v-1406h255v32q-38 10 -51 27t-13 59v1293q0 42 13 59t51 27v32h-775q-19 0 -123 -17q-81 -13 -138.5 -45.5t-105.5 -92.5q-69 -86 -69 -200q0 -188 163 -300q42 -30 120 -53q73 -22 136 -22h181z" />
    <glyph glyph-name="periodcentered" unicode="&#xb7;" horiz-adv-x="628" 
d="M314 669q-70 -2 -117 -49t-47 -114q0 -68 48 -117q48 -48 116 -48q67 0 115 48q49 48 49 115q0 69 -48 117q-46 48 -116 48z" />
    <glyph glyph-name="periodcentered" unicode="&#x2219;" horiz-adv-x="628" 
d="M314 669q-70 -2 -117 -49t-47 -114q0 -68 48 -117q48 -48 116 -48q67 0 115 48q49 48 49 115q0 69 -48 117q-46 48 -116 48z" />
    <glyph glyph-name="cedilla" unicode="&#xb8;" 
d="M378 -224l30 -18q32 35 76 35q30 0 51 -20.5t21 -49.5q0 -39 -38 -61.5t-103 -22.5q-48 0 -102 16l-23 -47q83 -28 202 -28q121 0 183 49q59 47 59 118q0 75 -69 116t-196 41q-16 0 -21 -4t-17 -25z" />
    <glyph glyph-name="onesuperior" unicode="&#xb9;" horiz-adv-x="969" 
d="M293 1061h32q7 23 14.5 31t28.5 13l51 11v-501q0 -17 -8 -24.5t-33 -13.5v-31h281v31q-24 6 -32.5 13.5t-8.5 24.5v682q0 17 8.5 24.5t32.5 12.5v31h-281v-31q24 -5 32.5 -13t8.5 -24v-29l-50 -11q-11 -3 -16 -3q-17 0 -23 21l-5 14h-32v-228z" />
    <glyph glyph-name="ordmasculine" unicode="&#xba;" horiz-adv-x="1046" 
d="M522 1390q-143 -1 -232 -80q-87 -78 -87 -204q0 -139 104 -219q85 -66 216 -66q129 0 215 66q104 80 104 214q0 143 -104 223q-87 66 -216 66zM522 1278q80 -1 129.5 -49t49.5 -126q0 -73 -51 -122q-50 -48 -127 -48q-78 0 -129 48q-50 50 -50 125t50 123q49 49 128 49z
M850 771h-24q-7 -35 -19 -49.5t-34 -14.5h-502q-22 0 -33.5 13.5t-19.5 50.5h-23v-258h23q8 37 19.5 50.5t33.5 13.5h502q23 0 34 -13.5t19 -50.5h24v258z" />
    <glyph glyph-name="guillemotright" unicode="&#xbb;" horiz-adv-x="997" 
d="M150 983l196 -403l-196 -403h173l194 403l-194 403h-173zM507 983l196 -403l-196 -403h172l195 403l-195 403h-172z" />
    <glyph glyph-name="onequarter" unicode="&#xbc;" horiz-adv-x="2526" 
d="M293 1061h32q7 23 14.5 31t28.5 13l51 11v-501q0 -17 -8 -24.5t-33 -13.5v-31h281v31q-24 6 -32.5 13.5t-8.5 24.5v682q0 17 8.5 24.5t32.5 12.5v31h-281v-31q24 -5 32.5 -13t8.5 -24v-29l-50 -11q-11 -3 -16 -3q-17 0 -23 21l-5 14h-32v-228zM1832 1365h-420v-32
q33 -5 55 -24.5t22 -43.5q0 -23 -30 -73l-609 -1016q-55 -91 -79 -113q-25 -24 -74 -31v-32h420v32q-36 4 -56.5 19.5t-20.5 39.5q0 20 25 61l618 1040q62 100 81 116q19 18 68 25v32zM2171 136v-67q0 -17 -8 -24.5t-33 -13.5v-31h281v31q-24 6 -32.5 13.5t-8.5 24.5v67h42
q18 0 26 -7.5t15 -30.5h32v222h-32q-7 -23 -15 -30.5t-26 -7.5h-42v469q0 16 8.5 23.5t32.5 13.5v31h-356v-32q33 -5 33 -19q0 -10 -27 -38l-436 -452v-180h32q5 26 15 32t46 6h453zM2171 282h-314l314 330v-330z" />
    <glyph glyph-name="onehalf" unicode="&#xbd;" horiz-adv-x="2527" 
d="M293 1061h32q7 24 14.5 31.5t28.5 12.5l51 11v-501q0 -17 -8 -24.5t-33 -13.5v-31h281v31q-24 6 -32.5 13.5t-8.5 24.5v682q0 17 8 24.5t33 12.5v31h-281v-31q25 -6 33 -13t8 -24v-29l-50 -11q-11 -3 -16 -3q-15 0 -23 21l-5 14h-32v-228zM1832 1365h-420v-32
q33 -5 55 -24.5t22 -43.5q0 -23 -30 -73l-609 -1016q-55 -91 -79 -113q-25 -24 -74 -31v-32h420v32q-36 4 -56.5 19.5t-20.5 39.5q0 20 25 61l618 1040q62 100 81 116q19 18 68 25v32zM1870 159q25 30 131 71q69 26 70 26l99 41q126 52 184.5 119t58.5 160q0 117 -92 188
q-91 69 -243 69q-208 0 -351 -114q-33 -27 -45 -27q-10 0 -37 12l-24 -21l180 -179l22 21q-11 33 -11 38q0 40 74 78q80 41 170 41q148 0 148 -103q0 -44 -32.5 -77.5t-106.5 -64.5l-108 -46q-117 -49 -174 -87q-59 -38 -99 -92q-64 -82 -64 -206q0 -21 1 -44h33q5 26 14 32
t42 6h680q19 0 27 -7.5t15 -30.5h32v234h-32q-7 -22 -15 -29.5t-27 -7.5h-520z" />
    <glyph glyph-name="threequarters" unicode="&#xbe;" horiz-adv-x="2526" 
d="M771 977q101 59 101 164q0 124 -120 187q-98 51 -237 51q-202 0 -363 -101q-20 -12 -31 -12q-9 0 -36 11l-25 -19l156 -177l26 19q-10 17 -10 29q0 36 85 67q87 32 183 32q89 0 136.5 -25.5t47.5 -72.5q0 -46 -47.5 -72t-132.5 -26q-65 0 -83 7q-19 8 -26 36h-32v-211h32
q6 26 27 33q24 8 85 8q195 0 195 -108q0 -52 -54.5 -82.5t-149.5 -30.5q-127 0 -226 40q-101 41 -101 90q0 7 4 16l-31 12l-108 -229l29 -14q29 24 42 24q15 0 75 -26q141 -64 319 -64q165 0 277 61q128 69 128 204q0 130 -135 179zM1832 1365h-420v-32q33 -5 55 -24.5
t22 -43.5q0 -23 -30 -73l-609 -1016q-56 -92 -79 -112q-25 -23 -74 -32v-32h420v32q-36 4 -56.5 19.5t-20.5 39.5q0 20 25 61l618 1040q64 100 81 116q17 17 68 25v32zM2171 136v-67q0 -17 -8 -24.5t-33 -13.5v-31h281v31q-25 6 -33 13.5t-8 24.5v67h42q18 0 26 -7.5
t15 -30.5h32v222h-32q-7 -23 -15 -30.5t-26 -7.5h-42v469q0 16 8.5 23.5t32.5 13.5v31h-356v-32q33 -5 33 -19q0 -10 -27 -38l-436 -452v-180h32q5 26 15 32t46 6h453zM2171 282h-314l314 330v-330z" />
    <glyph glyph-name="questiondown" unicode="&#xbf;" horiz-adv-x="1000" 
d="M787 385l-27 -18q9 -23 9 -34q0 -32 -35 -69q-75 -76 -181 -76q-71 0 -113.5 39.5t-42.5 104.5q0 43 19 80q17 34 76 109q62 79 81 115q21 40 31 102q11 72 24 91q13 21 53 34v32h-329v-32q34 -9 46 -21.5t12 -38.5q0 -61 -21 -100q-18 -35 -88 -105q-97 -96 -138 -168
q-40 -71 -40 -151q0 -151 125 -238q94 -65 231 -65q86 0 158 25q70 24 168 88q64 41 86 41q10 0 34 -11l8 -4l26 18zM500 1389q-69 -2 -116 -49q-48 -46 -48 -114t47 -117q48 -48 117 -48q68 0 116 48t48 115q0 68 -48 116q-48 49 -116 49z" />
    <glyph glyph-name="Agrave" unicode="&#xc0;" horiz-adv-x="1666" 
d="M1123 348l94 -192q20 -42 20 -62q0 -52 -66 -62v-32h502v32q-41 7 -67 32q-25 25 -58 92l-520 1052q-19 37 -19 66q0 42 59 59v32h-484v-32q58 -19 58 -66q0 -31 -24 -80l-502 -1049q-27 -58 -48 -78q-22 -21 -61 -28v-32h452v32q-67 16 -67 61q0 24 19 63l92 192h620z
M1037 535h-445l224 486zM543 1765v-27q40 -2 59 -28l142 -173q6 -7 6 -16q0 -16 -20 -16h-5v-27h217v27q-24 0 -34 7t-19 29l-66 163q-4 8 -4 15q0 16 28 19v27h-304z" />
    <glyph glyph-name="Aacute" unicode="&#xc1;" horiz-adv-x="1666" 
d="M1123 348l94 -192q20 -42 20 -62q0 -52 -66 -62v-32h502v32q-41 7 -67 32q-25 25 -58 92l-520 1052q-19 37 -19 66q0 42 59 59v32h-484v-32q58 -19 58 -66q0 -31 -24 -80l-502 -1049q-27 -58 -48 -78q-22 -21 -61 -28v-32h452v32q-67 16 -67 61q0 24 19 63l92 192h620z
M1037 535h-445l224 486zM1108 1765h-304v-27q28 -3 28 -19q0 -7 -4 -15l-66 -163q-9 -22 -19 -29t-34 -7v-27h217v27h-4q-21 0 -21 16q0 9 6 16l142 173q19 26 59 28v27z" />
    <glyph glyph-name="Acircumflex" unicode="&#xc2;" horiz-adv-x="1666" 
d="M1123 348l94 -192q20 -42 20 -62q0 -52 -66 -62v-32h502v32q-41 7 -67 32q-25 25 -58 92l-520 1052q-19 37 -19 66q0 42 59 59v32h-484v-32q58 -19 58 -66q0 -31 -24 -80l-502 -1049q-27 -58 -48 -78q-22 -21 -61 -28v-32h452v32q-67 16 -67 61q0 24 19 63l92 192h620z
M1037 535h-445l224 486zM737 1478v27q-29 2 -29 17q0 9 9 18l92 106l84 -103q16 -19 16 -23q0 -14 -31 -15v-27h287v27q-29 2 -45 20l-150 167q-16 16 -16 28q0 15 30 18v27h-316v-27q33 0 33 -17q0 -12 -11 -25l-134 -149q-36 -35 -38 -37q-6 -3 -31 -5v-27h250z" />
    <glyph glyph-name="Atilde" unicode="&#xc3;" horiz-adv-x="1666" 
d="M1123 348l94 -192q20 -42 20 -62q0 -52 -66 -62v-32h502v32q-41 7 -67 32q-25 25 -58 92l-520 1052q-19 37 -19 66q0 42 59 59v32h-484v-32q58 -19 58 -66q0 -31 -24 -80l-502 -1049q-27 -58 -48 -78q-22 -21 -61 -28v-32h452v32q-67 16 -67 61q0 24 19 63l92 192h620z
M1037 535h-445l224 486zM1042 1749l-21 -15q17 -20 17 -33q0 -18 -18 -34t-38 -16q-27 0 -51 10l-149 59q-33 13 -65 13q-90 0 -152 -80q-17 -23 -38 -23q-8 0 -34 8l-14 -17l149 -138l18 14q-15 19 -15 31q0 17 19 33.5t39 16.5t44 -8l148 -57q46 -17 85 -17q75 0 142 91
q14 17 26 17q8 0 37 -9l16 20z" />
    <glyph glyph-name="Adieresis" unicode="&#xc4;" horiz-adv-x="1753" 
d="M829 229q-147 -3 -278 82t-148 212l931 1v205h-1244q2 -62 4 -92q6 -111 19 -171q18 -88 66 -176.5t98 -126.5q221 -191 596 -191q323 0 526 159q108 87 174 216q79 151 79 326q0 238 -143 425q-223 288 -657 288q-190 0 -434 -87q-96 -34 -113 -34q-21 0 -47 19l-28 -15
l155 -342l28 15v7q0 46 88 92q160 89 343 89q211 0 346 -120q143 -126 143 -339q0 -200 -130 -320q-133 -122 -374 -122z" />
    <glyph glyph-name="Aring" unicode="&#xc5;" horiz-adv-x="1666" 
d="M1123 348l94 -192q20 -42 20 -62q0 -52 -66 -62v-32h502v32q-41 7 -67 32q-25 25 -58 92l-520 1052q-19 37 -19 66q0 42 59 59v32h-484v-32q58 -19 58 -66q0 -31 -24 -80l-502 -1049q-27 -58 -48 -78q-22 -21 -61 -28v-32h452v32q-67 16 -67 61q0 24 19 63l92 192h620z
M1037 535h-445l224 486zM826 1813q-98 -2 -163 -55t-65 -132t67 -134t162 -55q93 0 162 54q67 52 67 133q0 79 -67 134q-65 55 -163 55zM827 1709q45 0 73 -24t28 -61q0 -34 -30 -58.5t-71 -24.5q-42 0 -71.5 24.5t-29.5 59.5q0 37 28.5 60.5t72.5 23.5z" />
    <glyph glyph-name="AE" unicode="&#xc6;" horiz-adv-x="2381" 
d="M1013 348v-243q0 -31 -14 -47t-50 -26v-32h1239q31 0 47 -14t26 -50h32v353h-32q-10 -36 -26 -50t-47 -14h-877v374h553q30 0 46 -14t26 -50h32v345h-32q-10 -36 -26 -50t-46 -14h-553v324h853q31 0 47 -14t26 -49h32v353h-32q-10 -36 -26 -50.5t-47 -14.5h-1493v-32
q60 -19 60 -61q0 -30 -33 -85l-604 -1049q-36 -60 -56 -78q-22 -19 -64 -28v-32h472v32q-60 17 -60 56q0 24 26 68l112 192h489zM1013 535h-381l338 605h43v-605z" />
    <glyph glyph-name="Ccedilla" unicode="&#xc7;" horiz-adv-x="1718" 
d="M1446 469l-27 -19q2 -20 2 -26q0 -29 -25 -54.5t-89 -61.5q-176 -100 -375 -100q-234 0 -373 117q-164 137 -164 358t164 358q139 117 373 117q199 0 375 -100q64 -36 89 -61.5t25 -54.5q0 -5 -2 -27l27 -18l190 285l-26 18q-29 -26 -46 -26q-18 0 -101 47
q-170 98 -290 134q-114 34 -278 34q-441 0 -659 -275q-145 -182 -145 -431q0 -181 81 -333q71 -133 192 -221q207 -153 530 -153q164 0 279 34q115 33 290 134q83 48 101 48q17 0 46 -26l26 18zM712 -246l32 -21q34 39 83 39q32 0 55 -23t23 -55q0 -43 -41 -68t-110 -25
q-54 0 -112 16l-25 -52q87 -31 220 -31q129 0 196 55q64 52 64 132q0 84 -75 130t-212 46q-18 0 -23 -4q-6 -6 -18 -29z" />
    <glyph glyph-name="Egrave" unicode="&#xc8;" horiz-adv-x="1556" 
d="M485 599h554q30 0 46 -14.5t26 -49.5h32v345h-32q-10 -36 -26 -50t-46 -14h-554v324h854q30 0 46 -14t26 -49h32v353h-32q-10 -36 -26 -50.5t-46 -14.5h-1216v-32q36 -10 50 -26t14 -47v-1155q0 -31 -14 -47t-50 -26v-32h1240q30 0 46 -14t26 -50h32v353h-32
q-10 -36 -26 -50t-46 -14h-878v374zM534 1765v-27q40 -2 59 -28l142 -173q6 -7 6 -16q0 -16 -20 -16h-5v-27h217v27q-24 0 -34 7t-19 29l-66 163q-4 8 -4 15q0 16 28 19v27h-304z" />
    <glyph glyph-name="Eacute" unicode="&#xc9;" horiz-adv-x="1556" 
d="M485 599h554q30 0 46 -14.5t26 -49.5h32v345h-32q-10 -36 -26 -50t-46 -14h-554v324h854q30 0 46 -14t26 -49h32v353h-32q-10 -36 -26 -50.5t-46 -14.5h-1216v-32q36 -10 50 -26t14 -47v-1155q0 -31 -14 -47t-50 -26v-32h1240q30 0 46 -14t26 -50h32v353h-32
q-10 -36 -26 -50t-46 -14h-878v374zM1070 1765h-304v-27q28 -3 28 -19q0 -7 -4 -15l-66 -163q-9 -22 -19 -29t-34 -7v-27h217v27h-4q-21 0 -21 16q0 9 6 16l142 173q19 26 59 28v27z" />
    <glyph glyph-name="Ecircumflex" unicode="&#xca;" horiz-adv-x="1556" 
d="M485 599h554q30 0 46 -14.5t26 -49.5h32v345h-32q-10 -36 -26 -50t-46 -14h-554v324h854q30 0 46 -14t26 -49h32v353h-32q-10 -36 -26 -50.5t-46 -14.5h-1216v-32q36 -10 50 -26t14 -47v-1155q0 -31 -14 -47t-50 -26v-32h1240q30 0 46 -14t26 -50h32v353h-32
q-10 -36 -26 -50t-46 -14h-878v374zM713 1478v27q-29 2 -29 17q0 9 9 18l92 106l84 -103q16 -19 16 -23q0 -14 -31 -15v-27h287v27q-29 2 -45 20l-150 167q-16 16 -16 28q0 15 30 18v27h-316v-27q33 0 33 -17q0 -12 -11 -25l-134 -149q-35 -35 -38 -37q-6 -3 -31 -5v-27h250
z" />
    <glyph glyph-name="Edieresis" unicode="&#xcb;" horiz-adv-x="1556" 
d="M485 599h554q30 0 46 -14.5t26 -49.5h32v345h-32q-10 -36 -26 -50t-46 -14h-554v324h854q30 0 46 -14t26 -49h32v353h-32q-10 -36 -26 -50.5t-46 -14.5h-1216v-32q36 -10 50 -26t14 -47v-1155q0 -31 -14 -47t-50 -26v-32h1240q30 0 46 -14t26 -50h32v353h-32
q-10 -36 -26 -50t-46 -14h-878v374zM601 1742q-52 -1 -91 -40q-37 -37 -37 -91t38 -92q40 -38 92 -38q55 0 93 38t38 89q0 56 -38 96q-38 38 -95 38zM1000 1742q-56 -2 -93 -39t-37 -91q0 -55 37 -93q38 -38 91 -38q57 0 95 38t38 95q0 50 -38 90q-38 38 -93 38z" />
    <glyph glyph-name="Igrave" unicode="&#xcc;" horiz-adv-x="672" 
d="M187 105q0 -31 -14 -47t-50 -26v-32h426v32q-35 9 -49.5 25.5t-14.5 47.5v1156q0 30 14 46.5t50 25.5v32h-426v-32q36 -10 50 -26t14 -46v-1156zM54 1765v-27q40 -2 59 -28l142 -173q6 -7 6 -16q0 -16 -20 -16h-5v-27h217v27q-24 0 -34 7t-19 29l-66 163q-4 8 -4 15
q0 16 28 19v27h-304z" />
    <glyph glyph-name="Iacute" unicode="&#xcd;" horiz-adv-x="672" 
d="M187 105q0 -31 -14 -47t-50 -26v-32h426v32q-35 9 -49.5 25.5t-14.5 47.5v1156q0 30 14 46.5t50 25.5v32h-426v-32q36 -10 50 -26t14 -46v-1156zM621 1765h-304v-27q28 -3 28 -19q0 -7 -4 -15l-66 -163q-9 -22 -19 -29t-34 -7v-27h217v27h-4q-21 0 -21 16q0 9 6 16
l142 173q19 26 59 28v27z" />
    <glyph glyph-name="Icircumflex" unicode="&#xce;" horiz-adv-x="671" 
d="M187 105q0 -31 -14 -47t-50 -26v-32h426v32q-35 9 -49.5 25.5t-14.5 47.5v1156q0 30 14 46.5t50 25.5v32h-426v-32q36 -10 50 -26t14 -46v-1156zM255 1478v27q-29 2 -29 17q0 9 9 18l92 106l84 -103q16 -19 16 -23q0 -14 -31 -15v-27h287v27q-29 2 -45 20l-150 167
q-16 16 -16 28q0 15 30 18v27h-316v-27q33 0 33 -17q0 -12 -11 -25l-134 -149q-36 -35 -38 -37q-6 -3 -31 -5v-27h250z" />
    <glyph glyph-name="Idieresis" unicode="&#xcf;" horiz-adv-x="671" 
d="M187 105q0 -31 -14 -47t-50 -26v-32h426v32q-35 9 -49.5 25.5t-14.5 47.5v1156q0 30 14 46.5t50 25.5v32h-426v-32q36 -10 50 -26t14 -46v-1156zM171 1742q-52 -1 -91 -40q-37 -37 -37 -91t38 -92q40 -38 92 -38q55 0 93 38t38 89q0 56 -38 96q-38 38 -95 38zM502 1742
q-56 -2 -93 -39t-37 -91q0 -55 37 -93q38 -38 90 -38q58 0 96 38t38 95q0 50 -38 90q-38 38 -93 38z" />
    <glyph glyph-name="Eth" unicode="&#xd0;" horiz-adv-x="1717" 
d="M188 608v-503q0 -31 -14 -47t-50 -26v-32h760q190 0 312 33q122 35 213 112q217 184 217 538q0 201 -72 351q-94 192 -285 274q-133 57 -385 57h-760v-32q36 -10 50 -26t14 -47v-454h-66q-31 0 -46.5 13.5t-26.5 50.5h-32v-327h32q11 37 26.5 51t46.5 14h66zM486 806v334
h373q137 0 218 -28q82 -27 141 -92q104 -118 104 -337q0 -304 -193 -409q-89 -49 -270 -49h-373v383h305q30 0 46 -14.5t26 -50.5h32v327h-32q-10 -35 -26 -49.5t-46 -14.5h-305z" />
    <glyph glyph-name="Ntilde" unicode="&#xd1;" horiz-adv-x="1785" 
d="M460 935l765 -790q49 -49 49 -70q0 -34 -42 -43v-32h430v32q-36 10 -50 26t-14 47v1156q0 30 14 46t50 26v32h-401v-32q36 -10 50 -26t14 -46v-810l-753 783q-28 28 -28 53q0 36 43 46v32h-464v-32q36 -10 50 -26t14 -46v-1156q0 -31 -14 -47t-50 -26v-32h401v32
q-36 10 -50 26t-14 47v830zM1115 1749l-21 -15q17 -20 17 -33q0 -18 -18 -34t-38 -16q-27 0 -51 10l-149 59q-33 13 -65 13q-90 0 -152 -80q-17 -23 -38 -23q-8 0 -34 8l-14 -17l149 -138l18 14q-15 19 -15 31q0 17 19 33.5t39 16.5t44 -8l148 -57q46 -17 85 -17
q75 0 142 91q14 17 26 17q9 0 37 -9l16 20z" />
    <glyph glyph-name="Ograve" unicode="&#xd2;" horiz-adv-x="1752" 
d="M873 1389q-476 -6 -677 -331q-105 -170 -105 -375q0 -139 51 -267q59 -145 170 -247q208 -193 563 -193q472 0 679 332q106 169 106 366q0 319 -221 522q-208 193 -566 193zM874 1158q197 -2 328 -116q154 -133 154 -365q0 -95 -36 -184q-40 -98 -118 -169
q-130 -116 -326 -116t-327 116q-154 136 -154 359t154 359q131 116 325 116zM608 1765v-27q40 -2 59 -28l142 -173q6 -7 6 -16q0 -16 -20 -16h-5v-27h217v27q-24 0 -34 7t-19 29l-66 163q-4 8 -4 15q0 16 28 19v27h-304z" />
    <glyph glyph-name="Oacute" unicode="&#xd3;" horiz-adv-x="1752" 
d="M873 1389q-476 -6 -677 -331q-105 -170 -105 -375q0 -139 51 -267q59 -145 170 -247q208 -193 563 -193q472 0 679 332q106 169 106 366q0 319 -221 522q-208 193 -566 193zM874 1158q197 -2 328 -116q154 -133 154 -365q0 -95 -36 -184q-40 -98 -118 -169
q-130 -116 -326 -116t-327 116q-154 136 -154 359t154 359q131 116 325 116zM1150 1765h-304v-27q28 -3 28 -19q0 -7 -4 -15l-66 -163q-9 -22 -19 -29t-34 -7v-27h217v27h-4q-21 0 -21 16q0 9 6 16l142 173q19 26 59 28v27z" />
    <glyph glyph-name="Ocircumflex" unicode="&#xd4;" horiz-adv-x="1752" 
d="M873 1389q-476 -6 -677 -331q-105 -170 -105 -375q0 -139 51 -267q59 -145 170 -247q208 -193 563 -193q472 0 679 332q106 169 106 366q0 319 -221 522q-208 193 -566 193zM874 1158q197 -2 328 -116q154 -133 154 -365q0 -95 -36 -184q-40 -98 -118 -169
q-130 -116 -326 -116t-327 116q-154 136 -154 359t154 359q131 116 325 116zM787 1478v27q-29 2 -29 17q0 9 9 18l92 106l84 -103q16 -19 16 -23q0 -14 -31 -15v-27h287v27q-29 2 -45 20l-150 167q-16 16 -16 28q0 15 30 18v27h-316v-27q33 0 33 -17q0 -12 -11 -25
l-134 -149q-36 -35 -38 -37q-6 -3 -31 -5v-27h250z" />
    <glyph glyph-name="Otilde" unicode="&#xd5;" horiz-adv-x="1752" 
d="M873 1389q-476 -6 -677 -331q-105 -170 -105 -375q0 -139 51 -267q59 -145 170 -247q208 -193 563 -193q472 0 679 332q106 169 106 366q0 319 -221 522q-208 193 -566 193zM874 1158q197 -2 328 -116q154 -133 154 -365q0 -95 -36 -184q-40 -98 -118 -169
q-130 -116 -326 -116t-327 116q-154 136 -154 359t154 359q131 116 325 116zM1099 1749l-21 -15q17 -20 17 -33q0 -18 -18 -34t-38 -16q-27 0 -51 10l-149 59q-33 13 -65 13q-90 0 -152 -80q-17 -23 -38 -23q-8 0 -34 8l-14 -17l149 -138l18 14q-15 19 -15 31q0 17 19 33.5
t39 16.5t44 -8l148 -57q46 -17 85 -17q75 0 142 91q14 17 26 17q9 0 37 -9l16 20z" />
    <glyph glyph-name="Odieresis" unicode="&#xd6;" horiz-adv-x="1752" 
d="M873 1389q-476 -6 -677 -331q-105 -170 -105 -375q0 -139 51 -267q59 -145 170 -247q208 -193 563 -193q472 0 679 332q106 169 106 366q0 319 -221 522q-208 193 -566 193zM874 1158q197 -2 328 -116q154 -133 154 -365q0 -95 -36 -184q-40 -98 -118 -169
q-130 -116 -326 -116t-327 116q-154 136 -154 359t154 359q131 116 325 116zM675 1742q-52 -1 -91 -40q-37 -37 -37 -91t38 -92q40 -38 92 -38q55 0 93 38t38 89q0 56 -38 96q-38 38 -95 38zM1074 1742q-56 -2 -93 -39t-37 -91q0 -55 37 -93q38 -38 90 -38q58 0 96 38t38 95
q0 50 -38 90q-38 38 -93 38z" />
    <glyph glyph-name="multiply" unicode="&#xd7;" horiz-adv-x="1570" 
d="M785 544l276 -276q21 -21 21 -43q0 -19 -19 -50l21 -21l229 230l-20 21q-32 -19 -51 -19q-20 0 -42 20l-276 277l276 276q21 21 42 21q20 0 51 -19l20 21l-229 229l-21 -21q19 -31 19 -50q0 -22 -21 -43l-276 -276l-276 277q-21 20 -21 42q0 19 19 50l-21 21l-229 -229
l21 -21q32 18 50 18q22 0 42 -20l277 -276l-277 -277q-20 -20 -42 -20q-19 0 -50 19l-21 -21l229 -230l21 21q-19 31 -19 50q0 22 21 43z" />
    <glyph glyph-name="Oslash" unicode="&#xd8;" horiz-adv-x="1752" 
d="M1244 1502v-39q58 -7 58 -52q0 -22 -19 -47l-33 -43q-102 40 -181 53q-80 15 -193 15q-473 0 -679 -332q-106 -169 -106 -374q0 -332 262 -549l-45 -59q-74 -97 -111 -129q-38 -34 -90 -44v-39h401v39q-61 1 -61 42q0 19 25 53l34 45q99 -38 178 -51q80 -15 192 -15
q471 0 678 333q106 169 106 374q0 330 -257 545l50 66q82 108 113 136q28 26 78 33v39h-400zM664 250l572 758q120 -144 120 -325q0 -223 -154 -359q-130 -116 -328 -116q-108 0 -210 42zM1093 1114l-574 -760q-124 142 -124 330q0 220 154 358q128 115 328 115
q111 0 216 -43z" />
    <glyph glyph-name="Ugrave" unicode="&#xd9;" horiz-adv-x="1671" 
d="M1512 1260q0 31 14 47t50 26v32h-402v-32q36 -10 50 -26t14 -47v-681q0 -120 -13 -175q-14 -57 -48 -94q-96 -102 -329 -102q-232 0 -328 102q-35 36 -49 94q-13 55 -13 175v681q0 31 14.5 47.5t50.5 25.5v32h-427v-32q36 -10 50 -26t14 -47v-765q0 -143 38 -248
q39 -104 140 -166q172 -105 499 -105q451 0 595 194q80 109 80 325v765zM575 1765v-27q40 -2 59 -28l142 -173q6 -7 6 -16q0 -16 -20 -16h-5v-27h217v27q-24 0 -34 7t-19 29l-66 163q-4 8 -4 15q0 16 28 19v27h-304z" />
    <glyph glyph-name="Uacute" unicode="&#xda;" horiz-adv-x="1671" 
d="M1512 1260q0 31 14 47t50 26v32h-402v-32q36 -10 50 -26t14 -47v-681q0 -120 -13 -175q-14 -57 -48 -94q-96 -102 -329 -102q-232 0 -328 102q-35 36 -49 94q-13 55 -13 175v681q0 31 14.5 47.5t50.5 25.5v32h-427v-32q36 -10 50 -26t14 -47v-765q0 -143 38 -248
q39 -104 140 -166q172 -105 499 -105q451 0 595 194q80 109 80 325v765zM1110 1765h-304v-27q28 -3 28 -19q0 -7 -4 -15l-66 -163q-9 -22 -19 -29t-34 -7v-27h217v27h-4q-21 0 -21 16q0 9 6 16l142 173q19 26 59 28v27z" />
    <glyph glyph-name="Ucircumflex" unicode="&#xdb;" horiz-adv-x="1671" 
d="M1512 1260q0 31 14 47t50 26v32h-402v-32q36 -10 50 -26t14 -47v-681q0 -120 -13 -175q-14 -57 -48 -94q-96 -102 -329 -102q-232 0 -328 102q-35 36 -49 94q-13 55 -13 175v681q0 31 14.5 47.5t50.5 25.5v32h-427v-32q36 -10 50 -26t14 -47v-765q0 -143 38 -248
q39 -104 140 -166q172 -105 499 -105q451 0 595 194q80 109 80 325v765zM754 1478v27q-29 2 -29 17q0 9 9 18l92 106l84 -103q16 -19 16 -23q0 -14 -31 -15v-27h287v27q-29 2 -45 20l-150 167q-16 16 -16 28q0 15 30 18v27h-316v-27q33 0 33 -17q0 -12 -11 -25l-134 -149
q-35 -35 -38 -37q-6 -3 -31 -5v-27h250z" />
    <glyph glyph-name="Udieresis" unicode="&#xdc;" horiz-adv-x="1671" 
d="M1512 1260q0 31 14 47t50 26v32h-402v-32q36 -10 50 -26t14 -47v-681q0 -120 -13 -175q-14 -57 -48 -94q-96 -102 -329 -102q-232 0 -328 102q-35 36 -49 94q-13 55 -13 175v681q0 31 14.5 47.5t50.5 25.5v32h-427v-32q36 -10 50 -26t14 -47v-765q0 -143 38 -248
q39 -104 140 -166q172 -105 499 -105q451 0 595 194q80 109 80 325v765zM642 1742q-52 -1 -91 -40q-37 -37 -37 -91t38 -92q40 -38 92 -38q55 0 93 38t38 89q0 56 -38 96q-38 38 -95 38zM1041 1742q-55 -2 -93 -39q-37 -37 -37 -91q0 -55 37 -93q38 -38 90 -38q58 0 96 38
t38 95q0 50 -38 90q-38 38 -93 38z" />
    <glyph glyph-name="Yacute" unicode="&#xdd;" horiz-adv-x="1460" 
d="M879 571l441 621q57 80 89 107q32 28 78 34v32h-528v-32q31 -5 49 -21.5t18 -39.5q0 -21 -41 -80l-253 -366l-246 366q-41 62 -41 79q0 52 67 62v32h-539v-32q46 -6 77 -34q32 -26 90 -107l441 -621v-466q0 -31 -15 -47t-51 -26v-32h429v32q-36 10 -50.5 26t-14.5 47v466
zM998 1765h-304v-27q28 -3 28 -19q0 -7 -4 -15l-66 -163q-9 -22 -19 -29t-34 -7v-27h217v27h-4q-21 0 -21 16q0 9 6 16l142 173q19 26 59 28v27z" />
    <glyph glyph-name="Thorn" unicode="&#xde;" horiz-adv-x="1465" 
d="M485 1161v100q0 30 14 46.5t50 25.5v32h-426v-32q36 -10 50 -26t14 -46v-1156q0 -31 -14 -47t-50 -26v-32h426v32q-35 9 -49.5 25.5t-14.5 47.5v244h388q189 0 294 37t169 127q74 104 74 242q0 97 -39 182q-37 84 -108 135q-66 50 -154 69q-89 20 -236 20h-388zM485 574
v362h360q136 0 189 -29q36 -19 57 -60t21 -92t-21 -92t-57 -60q-55 -29 -189 -29h-360z" />
    <glyph glyph-name="germandbls" unicode="&#xdf;" horiz-adv-x="2522" 
d="M1175 1019l-24 13q-25 -22 -41 -22q-18 0 -57 19q-134 63 -238 89q-101 26 -214 26q-213 0 -356 -88q-158 -98 -158 -281q0 -82 36 -151t100 -109q47 -30 117 -47q62 -15 194 -26l157 -13q125 -11 173 -27q72 -24 72 -85q0 -75 -104 -110q-83 -28 -190 -28
q-118 0 -243 32q-123 33 -173 77q-20 18 -20 44v8l-25 10l-115 -274l25 -10q17 24 37 24q12 0 27 -7q237 -107 489 -107q250 0 398 95q154 99 154 270q0 95 -49 169q-39 60 -99 96q-106 63 -315 80l-158 12q-147 12 -201 32q-52 21 -52 70q0 74 108 113q75 27 172 27
q114 0 225 -33t168 -84q21 -19 21 -52l24 -13zM2437 1019l-25 13q-25 -22 -41 -22q-18 0 -57 19q-134 63 -238 89q-101 26 -214 26q-213 0 -356 -88q-158 -98 -158 -281q0 -82 36 -151t100 -109q47 -30 117 -47q62 -15 194 -26l157 -13q125 -11 173 -27q72 -24 72 -85
q0 -75 -104 -110q-83 -28 -190 -28q-118 0 -243 32q-123 33 -173 77q-20 18 -20 44q0 4 1 8l-26 10l-115 -274l25 -10q16 24 37 24q13 0 28 -7q237 -107 489 -107q249 0 398 95q153 99 153 270q0 95 -49 169q-39 59 -98 96q-108 63 -316 80l-157 12q-148 12 -202 32
q-52 21 -52 70q0 74 108 113q75 27 172 27q108 0 207 -28q99 -27 168 -74q40 -28 40 -56q0 -6 -1 -11l24 -13z" />
    <glyph glyph-name="agrave" unicode="&#xe0;" horiz-adv-x="1421" 
d="M947 280l62 -115q25 -46 25 -77q0 -50 -65 -61v-27h457v27q-42 8 -61 27q-21 21 -55 86l-424 803q-25 47 -25 81q0 46 55 68v28h-435v-28q56 -23 56 -64q0 -34 -23 -82l-409 -828q-27 -53 -44 -67q-19 -17 -56 -23v-28h412v28q-64 13 -64 61q0 25 21 69l58 122h515z
M866 437h-357l174 359zM413 1533v-27q40 -2 59 -27l142 -174q6 -7 6 -16q0 -16 -20 -16h-5v-27h217v27q-24 0 -34 7t-19 29l-66 163q-4 8 -4 15q0 16 28 19v27h-304z" />
    <glyph glyph-name="aacute" unicode="&#xe1;" horiz-adv-x="1421" 
d="M947 280l62 -115q25 -46 25 -77q0 -50 -65 -61v-27h457v27q-42 8 -61 27q-21 21 -55 86l-424 803q-25 47 -25 81q0 46 55 68v28h-435v-28q56 -23 56 -64q0 -34 -23 -82l-409 -828q-27 -53 -44 -67q-19 -17 -56 -23v-28h412v28q-64 13 -64 61q0 25 21 69l58 122h515z
M866 437h-357l174 359zM980 1533h-304v-27q28 -3 28 -19q0 -7 -4 -15l-66 -163q-9 -22 -19 -29t-34 -7v-27h217v27h-4q-21 0 -21 16q0 9 6 16l142 174q19 25 59 27v27z" />
    <glyph glyph-name="acircumflex" unicode="&#xe2;" horiz-adv-x="1421" 
d="M947 280l62 -115q25 -46 25 -77q0 -50 -65 -61v-27h457v27q-42 8 -61 27q-21 21 -55 86l-424 803q-25 47 -25 81q0 46 55 68v28h-435v-28q56 -23 56 -64q0 -34 -23 -82l-409 -828q-27 -53 -44 -67q-19 -17 -56 -23v-28h412v28q-64 13 -64 61q0 25 21 69l58 122h515z
M866 437h-357l174 359zM609 1246v27q-29 2 -29 17q0 9 9 18l92 106l84 -103q16 -19 16 -23q0 -12 -31 -15v-27h287v27q-29 2 -45 20l-150 167q-16 16 -16 28q0 15 30 18v27h-316v-27q33 0 33 -17q0 -12 -11 -25l-134 -149q-36 -36 -38 -37q-6 -3 -31 -5v-27h250z" />
    <glyph glyph-name="atilde" unicode="&#xe3;" horiz-adv-x="1421" 
d="M947 280l62 -115q25 -46 25 -77q0 -50 -65 -61v-27h457v27q-42 8 -61 27q-21 21 -55 86l-424 803q-25 47 -25 81q0 46 55 68v28h-435v-28q56 -23 56 -64q0 -34 -23 -82l-409 -828q-27 -53 -44 -67q-19 -17 -56 -23v-28h412v28q-64 13 -64 61q0 25 21 69l58 122h515z
M866 437h-357l174 359zM918 1517l-21 -16q17 -20 17 -33q0 -18 -18 -34t-38 -16q-21 0 -51 11l-149 58q-30 13 -65 13q-90 0 -152 -80q-16 -22 -38 -22q-10 0 -34 8l-14 -17l149 -139l18 15q-15 18 -15 30q0 17 19 33.5t39 16.5q26 0 44 -7l148 -57q46 -18 85 -18
q74 0 142 92q14 17 26 17q9 0 37 -9l16 20z" />
    <glyph glyph-name="adieresis" unicode="&#xe4;" horiz-adv-x="1478" 
d="M705 188q-128 -2 -240 68q-113 71 -126 175l800 1v169h-1070q0 -39 3 -76q6 -88 17 -142q16 -72 57 -145.5t84 -104.5q188 -157 512 -157q279 0 452 131q93 72 150 178q68 127 68 269q0 198 -123 352q-190 238 -564 238q-164 0 -374 -72q-81 -28 -97 -28q-18 0 -40 16
l-24 -13l133 -282l24 12v6q0 37 75 76q136 73 295 73q183 0 298 -99q123 -103 123 -280q0 -165 -112 -264q-115 -101 -321 -101z" />
    <glyph glyph-name="aring" unicode="&#xe5;" horiz-adv-x="1421" 
d="M947 280l62 -115q25 -46 25 -77q0 -50 -65 -61v-27h457v27q-42 8 -61 27q-21 21 -55 86l-424 803q-25 47 -25 81q0 46 55 68v28h-435v-28q56 -23 56 -64q0 -34 -23 -82l-409 -828q-27 -53 -44 -67q-19 -17 -56 -23v-28h412v28q-64 13 -64 61q0 25 21 69l58 122h515z
M866 437h-357l174 359zM701 1581q-98 -2 -163 -55t-65 -132t67 -134t162 -55q93 0 162 54q67 52 67 133q0 79 -67 134q-65 55 -163 55zM702 1477q45 0 73 -24t28 -61q0 -34 -30 -58.5t-71 -24.5q-42 0 -71.5 24.5t-29.5 59.5q0 37 28.5 60.5t72.5 23.5z" />
    <glyph glyph-name="ae" unicode="&#xe6;" horiz-adv-x="2090" 
d="M953 280v-178q-2 -60 -64 -74v-28h1043q31 0 47.5 -14.5t26.5 -49.5h27v332h-27q-10 -36 -26.5 -50.5t-47.5 -14.5h-711v273h421q32 0 48.5 -14.5t26.5 -50.5h27v324h-27q-9 -35 -26.5 -49.5t-48.5 -14.5h-421v246h680q32 0 48.5 -14.5t25.5 -50.5h28v332h-27
q-10 -36 -26.5 -50t-48.5 -14h-1250v-28q56 -24 56 -58q0 -31 -36 -91l-501 -825q-31 -51 -51 -67q-21 -17 -61 -24v-27h441v27q-57 13 -57 57q0 23 28 69l77 127h406zM953 437h-309l276 480h33v-480z" />
    <glyph glyph-name="ccedilla" unicode="&#xe7;" horiz-adv-x="1427" 
d="M1193 401l-22 -17q3 -25 3 -28q0 -42 -110 -98q-142 -71 -283 -71q-181 0 -300 95q-135 108 -135 278q0 169 135 277q119 96 300 96q129 0 258 -59q135 -62 135 -111q0 -7 -1 -13l-2 -15l22 -16l169 245l-23 18q-25 -17 -38 -17q-18 0 -79 37q-136 80 -243 111
q-105 31 -243 31q-370 0 -549 -236q-114 -152 -114 -348q0 -143 62 -265q59 -113 156 -188q173 -131 447 -131q139 0 242 31q106 32 242 111q61 37 79 37q13 0 38 -17l23 17zM570 -224l30 -18q32 35 76 35q30 0 51 -20.5t21 -49.5q0 -39 -38 -61.5t-103 -22.5q-48 0 -102 16
l-23 -47q83 -28 202 -28q121 0 183 49q59 47 59 118q0 75 -69 116t-196 41q-16 0 -21 -4t-17 -25z" />
    <glyph glyph-name="egrave" unicode="&#xe8;" horiz-adv-x="1314" 
d="M430 476h422q32 0 48.5 -14.5t26.5 -50.5h27v324h-27q-11 -36 -27.5 -50t-47.5 -14h-422v246h680q32 0 48.5 -14t26.5 -51h27v332h-27q-10 -36 -26.5 -50t-48.5 -14h-1012v-28q36 -11 50 -27t14 -47v-916q0 -31 -14.5 -48t-49.5 -26v-28h1043q31 0 48 -14.5t26 -49.5h28
v332h-28q-10 -36 -26.5 -50.5t-47.5 -14.5h-711v273zM403 1533v-27q40 -2 59 -27l142 -174q6 -7 6 -16q0 -16 -20 -16h-5v-27h217v27q-24 0 -34 7t-19 29l-66 163q-4 8 -4 15q0 16 28 19v27h-304z" />
    <glyph glyph-name="eacute" unicode="&#xe9;" horiz-adv-x="1314" 
d="M430 476h422q32 0 48.5 -14.5t26.5 -50.5h27v324h-27q-11 -36 -27.5 -50t-47.5 -14h-422v246h680q32 0 48.5 -14t26.5 -51h27v332h-27q-10 -36 -26.5 -50t-48.5 -14h-1012v-28q36 -11 50 -27t14 -47v-916q0 -31 -14.5 -48t-49.5 -26v-28h1043q31 0 48 -14.5t26 -49.5h28
v332h-28q-10 -36 -26.5 -50.5t-47.5 -14.5h-711v273zM945 1533h-304v-27q28 -3 28 -19q0 -7 -4 -15l-66 -163q-9 -22 -19 -29t-34 -7v-27h217v27h-4q-21 0 -21 16q0 9 6 16l142 174q19 25 59 27v27z" />
    <glyph glyph-name="ecircumflex" unicode="&#xea;" horiz-adv-x="1314" 
d="M430 476h422q32 0 48.5 -14.5t26.5 -50.5h27v324h-27q-11 -36 -27.5 -50t-47.5 -14h-422v246h680q32 0 48.5 -14t26.5 -51h27v332h-27q-10 -36 -26.5 -50t-48.5 -14h-1012v-28q36 -11 50 -27t14 -47v-916q0 -31 -14.5 -48t-49.5 -26v-28h1043q31 0 48 -14.5t26 -49.5h28
v332h-28q-10 -36 -26.5 -50.5t-47.5 -14.5h-711v273zM588 1246v27q-29 2 -29 17q0 9 9 18l92 106l84 -103q16 -19 16 -23q0 -12 -31 -15v-27h287v27q-29 2 -45 20l-150 167q-16 16 -16 28q0 15 30 18v27h-316v-27q33 0 33 -17q0 -12 -11 -25l-134 -149q-36 -36 -38 -37
q-6 -3 -31 -5v-27h250z" />
    <glyph glyph-name="edieresis" unicode="&#xeb;" horiz-adv-x="1314" 
d="M430 476h422q32 0 48.5 -14.5t26.5 -50.5h27v324h-27q-11 -36 -27.5 -50t-47.5 -14h-422v246h680q32 0 48.5 -14t26.5 -51h27v332h-27q-10 -36 -26.5 -50t-48.5 -14h-1012v-28q36 -11 50 -27t14 -47v-916q0 -31 -14.5 -48t-49.5 -26v-28h1043q31 0 48 -14.5t26 -49.5h28
v332h-28q-10 -36 -26.5 -50.5t-47.5 -14.5h-711v273zM476 1510q-52 -1 -91 -40q-37 -37 -37 -91t38 -92q40 -38 92 -38q55 0 93 38t38 90q0 55 -38 95q-38 38 -95 38zM875 1510q-56 -2 -93 -39t-37 -91q0 -55 37 -93q38 -38 91 -38q57 0 95 38t38 95q0 50 -38 90
q-38 38 -93 38z" />
    <glyph glyph-name="igrave" unicode="&#xec;" horiz-adv-x="593" 
d="M431 1018q0 31 14 47.5t50 26.5v28h-396v-28q36 -11 50 -27t14 -47v-916q0 -31 -14.5 -48t-49.5 -26v-28h396v27q-36 11 -50 27.5t-14 47.5v916zM17 1533v-27q40 -2 59 -27l142 -174q6 -7 6 -16q0 -16 -20 -16h-5v-27h217v27q-24 0 -34 7t-19 29l-66 163q-4 8 -4 15
q0 16 28 19v27h-304z" />
    <glyph glyph-name="iacute" unicode="&#xed;" horiz-adv-x="593" 
d="M430 1018q0 31 14 47.5t50 26.5v28h-396v-28q36 -11 50 -27t14 -47v-916q0 -31 -14.5 -48t-49.5 -26v-28h396v27q-36 11 -50 27.5t-14 47.5v916zM579 1533h-304v-27q28 -3 28 -19q0 -7 -4 -15l-66 -163q-9 -22 -19 -29t-34 -7v-27h217v27h-4q-21 0 -21 16q0 9 6 16
l142 174q19 25 59 27v27z" />
    <glyph glyph-name="icircumflex" unicode="&#xee;" horiz-adv-x="592" 
d="M431 1018q0 31 14 47.5t50 26.5v28h-396v-28q36 -11 50 -27t14 -47v-916q0 -31 -14.5 -48t-49.5 -26v-28h396v27q-35 10 -49.5 27t-14.5 48v916zM221 1246v27q-29 2 -29 17q0 5 8 18l80 113l70 -110l2 -1q1 -2 3 -4.5t4 -4.5q7 -7 7 -13q1 -6 -7 -9.5t-24 -5.5v-27h280
v27q-29 0 -46 20l-129 167q-16 19 -16 28q0 15 30 18v27h-316v-27q34 0 34 -17q0 -10 -12 -25l-113 -149q-19 -25 -32 -33t-37 -9v-27h243z" />
    <glyph glyph-name="idieresis" unicode="&#xef;" horiz-adv-x="593" 
d="M430 1018q0 31 14 47.5t50 26.5v28h-396v-28q36 -11 50 -27t14 -47v-916q0 -31 -14.5 -48t-49.5 -26v-28h396v27q-36 11 -50 27.5t-14 47.5v916zM131 1510q-52 -1 -91 -40q-37 -37 -37 -91t38 -92q40 -38 92 -38q55 0 93 38t38 90q0 55 -38 95q-38 38 -95 38zM462 1510
q-56 -2 -93 -39t-37 -91q0 -55 37 -93q38 -38 90 -38q58 0 96 38t38 95q0 50 -38 90q-38 38 -93 38z" />
    <glyph glyph-name="eth" unicode="&#xf0;" horiz-adv-x="1463" 
d="M184 502v-400q0 -31 -14.5 -48t-49.5 -26v-28h657q156 0 260.5 29.5t181.5 95.5q171 149 171 435q0 154 -51 271q-73 166 -239 238q-118 51 -323 51h-657v-28q36 -11 50 -27t14 -47v-345h-53q-30 0 -46.5 14.5t-25.5 49.5h-32v-299h32q9 35 25.5 49.5t46.5 14.5h53z
M452 673v244h286q104 0 172 -21.5t114 -69.5q93 -95 93 -266q0 -172 -93 -267q-88 -90 -286 -90h-286v299h209q31 0 47 -14t26 -50h32v299h-32q-10 -36 -26 -50t-47 -14h-209z" />
    <glyph glyph-name="ntilde" unicode="&#xf1;" horiz-adv-x="1523" 
d="M406 738l594 -586q39 -39 55 -59q12 -15 12 -29q0 -28 -44 -37v-27h401v27q-36 11 -50 27.5t-14 47.5v916q0 31 14 47.5t50 26.5v28h-372v-28q36 -10 50 -26.5t14 -47.5v-617l-600 596q-32 32 -32 56q0 28 44 39v28h-430v-28q36 -11 50 -27t14 -47v-916q0 -31 -14.5 -48
t-49.5 -26v-28h372v27q-35 10 -49.5 27t-14.5 48v636zM984 1517l-21 -16q17 -20 17 -33q0 -18 -18 -34t-38 -16q-21 0 -51 11l-149 58q-30 13 -65 13q-90 0 -152 -80q-16 -22 -38 -22q-10 0 -34 8l-14 -17l149 -139l18 15q-15 18 -15 30q0 17 19 33.5t39 16.5q26 0 44 -7
l148 -57q46 -18 85 -18q74 0 142 92q14 17 26 17q9 0 37 -9l16 20z" />
    <glyph glyph-name="ograve" unicode="&#xf2;" horiz-adv-x="1460" 
d="M728 1144q-265 -3 -441 -136q-214 -160 -214 -448q0 -285 214 -448q175 -136 443 -136t443 136q213 164 213 439q0 293 -213 457q-178 136 -445 136zM729 932q174 -2 283 -111q101 -101 101 -266q0 -151 -101 -255q-109 -112 -282 -112q-174 0 -283 112
q-101 104 -101 260q0 157 101 261q109 111 282 111zM455 1533v-27q40 -2 59 -27l142 -174q6 -7 6 -16q0 -16 -20 -16h-5v-27h217v27q-24 0 -34 7t-19 29l-66 163q-4 8 -4 15q0 16 28 19v27h-304z" />
    <glyph glyph-name="oacute" unicode="&#xf3;" horiz-adv-x="1460" 
d="M728 1144q-265 -3 -441 -136q-214 -160 -214 -448q0 -285 214 -448q175 -136 443 -136t443 136q213 164 213 439q0 293 -213 457q-178 136 -445 136zM729 932q174 -2 283 -111q101 -101 101 -266q0 -151 -101 -255q-109 -112 -282 -112q-174 0 -283 112
q-101 104 -101 260q0 157 101 261q109 111 282 111zM1018 1533h-304v-27q28 -3 28 -19q0 -7 -4 -15l-66 -163q-9 -22 -19 -29t-34 -7v-27h217v27h-4q-21 0 -21 16q0 9 6 16l142 174q19 25 59 27v27z" />
    <glyph glyph-name="ocircumflex" unicode="&#xf4;" horiz-adv-x="1460" 
d="M728 1144q-265 -3 -441 -136q-214 -160 -214 -448q0 -285 214 -448q175 -136 443 -136t443 136q213 164 213 439q0 293 -213 457q-178 136 -445 136zM729 932q174 -2 283 -111q101 -101 101 -266q0 -151 -101 -255q-109 -112 -282 -112q-174 0 -283 112
q-101 104 -101 260q0 157 101 261q109 111 282 111zM647 1246v27q-29 2 -29 17q0 9 9 18l92 106l84 -103q16 -19 16 -23q0 -12 -31 -15v-27h287v27q-29 2 -45 20l-150 167q-16 16 -16 28q0 15 30 18v27h-316v-27q33 0 33 -17q0 -12 -11 -25l-134 -149q-36 -36 -38 -37
q-6 -3 -31 -5v-27h250z" />
    <glyph glyph-name="otilde" unicode="&#xf5;" horiz-adv-x="1460" 
d="M728 1144q-265 -3 -441 -136q-214 -160 -214 -448q0 -285 214 -448q175 -136 443 -136t443 136q213 164 213 439q0 293 -213 457q-178 136 -445 136zM729 932q174 -2 283 -111q101 -101 101 -266q0 -151 -101 -255q-109 -112 -282 -112q-174 0 -283 112
q-101 104 -101 260q0 157 101 261q109 111 282 111zM952 1517l-21 -16q17 -20 17 -33q0 -18 -18 -34t-38 -16q-21 0 -51 11l-149 58q-30 13 -65 13q-90 0 -152 -80q-16 -22 -38 -22q-10 0 -34 8l-14 -17l149 -139l18 15q-15 18 -15 30q0 17 19 33.5t39 16.5q26 0 44 -7
l148 -57q46 -18 85 -18q74 0 142 92q14 17 26 17q9 0 37 -9l16 20z" />
    <glyph glyph-name="odieresis" unicode="&#xf6;" horiz-adv-x="1460" 
d="M728 1144q-265 -3 -441 -136q-214 -160 -214 -448q0 -285 214 -448q175 -136 443 -136t443 136q213 164 213 439q0 293 -213 457q-178 136 -445 136zM729 932q174 -2 283 -111q101 -101 101 -266q0 -151 -101 -255q-109 -112 -282 -112q-174 0 -283 112
q-101 104 -101 260q0 157 101 261q109 111 282 111zM536 1510q-52 -1 -91 -40q-37 -37 -37 -91t38 -92q40 -38 92 -38q55 0 93 38t38 90q0 55 -38 95q-38 38 -95 38zM935 1510q-56 -2 -93 -39t-37 -91q0 -55 37 -93q38 -38 91 -38q57 0 95 38t38 95q0 50 -38 90
q-38 38 -93 38z" />
    <glyph glyph-name="divide" unicode="&#xf7;" horiz-adv-x="1570" 
d="M234 521h29q9 36 23.5 50t43.5 14h910q28 0 42.5 -14t23.5 -50h30v324h-30q-9 -36 -23.5 -50t-42.5 -14h-910q-28 0 -43 14t-23 50h-30v-324zM785 427q-70 -2 -117 -49t-47 -114q0 -68 48 -117q48 -48 116 -48q67 0 115 48q49 48 49 115q0 69 -48 117q-47 48 -116 48z
M785 1267q-70 -2 -117 -49t-47 -114q0 -68 48 -117q48 -48 116 -48q67 0 115 48q49 48 49 115q0 69 -48 117q-47 48 -116 48z" />
    <glyph glyph-name="oslash" unicode="&#xf8;" horiz-adv-x="1460" 
d="M1002 1242v-24q26 -6 43 -22.5t17 -35.5q0 -23 -17 -46l-17 -24q-147 54 -296 54q-270 0 -445 -136q-214 -165 -214 -449q0 -188 98 -325q46 -64 130 -133l-42 -58q-58 -78 -88 -102q-31 -28 -81 -41v-23h368v23q-60 12 -60 54q0 19 24 52l16 21q144 -51 291 -51
q269 0 444 136q213 164 213 447q0 301 -231 462l47 64q64 89 92 111q26 22 76 22v24h-368zM574 217l438 605q101 -110 101 -262q0 -156 -101 -260q-108 -112 -285 -112q-72 0 -153 29zM890 902l-443 -602q-101 110 -101 261q0 155 101 261q109 111 291 111q83 0 152 -31z
" />
    <glyph glyph-name="ugrave" unicode="&#xf9;" horiz-adv-x="1414" 
d="M1273 1018q0 31 14 47.5t50 26.5v28h-373v-28q37 -11 50.5 -27t13.5 -47v-539q0 -96 -16 -144q-17 -52 -56 -82q-83 -65 -237 -65t-237 65q-41 32 -58 82q-16 48 -16 144v539q0 31 14.5 47.5t50.5 26.5v28h-397v-28q36 -11 50 -27t14 -47v-593q0 -135 36 -225
q40 -99 145 -151q146 -73 386 -73q357 0 486 151q80 95 80 298v593zM439 1533v-27q40 -2 59 -27l142 -174q6 -7 6 -16q0 -16 -20 -16h-5v-27h217v27q-24 0 -34 7t-19 29l-66 163q-4 8 -4 15q0 16 28 19v27h-304z" />
    <glyph glyph-name="uacute" unicode="&#xfa;" horiz-adv-x="1414" 
d="M1273 1018q0 31 14 47.5t50 26.5v28h-373v-28q37 -11 50.5 -27t13.5 -47v-539q0 -96 -16 -144q-17 -52 -56 -82q-83 -65 -237 -65t-237 65q-41 32 -58 82q-16 48 -16 144v539q0 31 14.5 47.5t50.5 26.5v28h-397v-28q36 -11 50 -27t14 -47v-593q0 -135 36 -225
q40 -99 145 -151q146 -73 386 -73q357 0 486 151q80 95 80 298v593zM981 1533h-304v-27q28 -3 28 -19q0 -7 -4 -15l-66 -163q-9 -22 -19 -29t-34 -7v-27h217v27h-4q-21 0 -21 16q0 9 6 16l142 174q19 25 59 27v27z" />
    <glyph glyph-name="ucircumflex" unicode="&#xfb;" horiz-adv-x="1414" 
d="M1273 1018q0 31 14 47.5t50 26.5v28h-373v-28q37 -11 50.5 -27t13.5 -47v-539q0 -96 -16 -144q-17 -52 -56 -82q-83 -65 -237 -65t-237 65q-41 32 -58 82q-16 48 -16 144v539q0 31 14.5 47.5t50.5 26.5v28h-397v-28q36 -11 50 -27t14 -47v-593q0 -135 36 -225
q40 -99 145 -151q146 -73 386 -73q357 0 486 151q80 95 80 298v593zM624 1246v27q-29 2 -29 17q0 9 9 18l92 106l84 -103q16 -19 16 -23q0 -12 -31 -15v-27h287v27q-29 2 -45 20l-150 167q-16 16 -16 28q0 15 30 18v27h-316v-27q33 0 33 -17q0 -12 -11 -25l-134 -149
q-36 -36 -38 -37q-6 -3 -31 -5v-27h250z" />
    <glyph glyph-name="udieresis" unicode="&#xfc;" horiz-adv-x="1414" 
d="M1273 1018q0 31 14 47.5t50 26.5v28h-373v-28q37 -11 50.5 -27t13.5 -47v-539q0 -96 -16 -144q-17 -52 -56 -82q-83 -65 -237 -65t-237 65q-41 32 -58 82q-16 48 -16 144v539q0 31 14.5 47.5t50.5 26.5v28h-397v-28q36 -11 50 -27t14 -47v-593q0 -135 36 -225
q40 -99 145 -151q146 -73 386 -73q357 0 486 151q80 95 80 298v593zM512 1510q-52 -1 -91 -40q-37 -37 -37 -91t38 -92q40 -38 92 -38q55 0 93 38t38 90q0 55 -38 95q-38 38 -95 38zM911 1510q-56 -2 -93 -39t-37 -91q0 -55 37 -93q38 -38 91 -38q57 0 95 38t38 95
q0 50 -38 90q-38 38 -93 38z" />
    <glyph glyph-name="yacute" unicode="&#xfd;" horiz-adv-x="1226" 
d="M747 491l332 457q55 75 89 105q35 29 80 39v28h-480l1 -28q64 -18 64 -60q0 -21 -47 -89l-159 -226l-163 226q-47 67 -47 88q0 44 65 61v28h-504v-28q46 -10 79 -39q35 -29 90 -105l332 -457v-389q0 -32 -14 -48.5t-50 -26.5v-27h396v27q-36 11 -50 27.5t-14 47.5v389z
M894 1533h-304v-27q28 -3 28 -19q0 -7 -4 -15l-66 -163q-9 -22 -19 -29t-34 -7v-27h217v27h-4q-21 0 -21 16q0 9 6 16l142 174q19 25 59 27v27z" />
    <glyph glyph-name="thorn" unicode="&#xfe;" horiz-adv-x="1239" 
d="M430 942v76q0 31 14 47.5t50 26.5v28h-396v-28q36 -11 50 -27t14 -47v-916q0 -31 -14.5 -48t-49.5 -26v-28h396v27q-36 11 -50 27.5t-14 47.5v180h295q235 0 349.5 81.5t114.5 248.5q0 87 -36 157t-100 108q-110 65 -328 65h-295zM430 485v254h286q105 0 147 -20
q60 -28 60 -107q0 -77 -60 -107q-42 -20 -147 -20h-286z" />
    <glyph glyph-name="ydieresis" unicode="&#xff;" horiz-adv-x="1226" 
d="M747 491l332 457q55 75 89 105q35 29 80 39v28h-480l1 -28q64 -18 64 -60q0 -21 -47 -89l-159 -226l-163 226q-47 67 -47 88q0 44 65 61v28h-504v-28q46 -10 79 -39q35 -29 90 -105l332 -457v-389q0 -32 -14 -48.5t-50 -26.5v-27h396v27q-36 11 -50 27.5t-14 47.5v389z
M412 1510q-52 -1 -91 -40q-37 -37 -37 -91t38 -92q40 -38 92 -38q55 0 93 38t38 90q0 55 -38 95q-38 38 -95 38zM811 1510q-56 -2 -93 -39t-37 -91q0 -55 37 -93q38 -38 91 -38q57 0 95 38t38 95q0 50 -38 90q-38 38 -93 38z" />
    <glyph glyph-name="Gbreve" unicode="&#x11e;" horiz-adv-x="1757" 
d="M1004 1718v-27q29 -2 29 -17q0 -8 -8 -18l-93 -107l-84 104q-16 19 -16 23q0 12 31 15v27h-287v-27q29 -2 45 -20l150 -166q16 -17 16 -29q0 -15 -30 -18v-27h316v27q-33 0 -33 17q0 12 11 25l134 149q31 32 37 36q7 4 32 6v27h-250zM1337 491v-186q-80 -45 -190 -71
q-112 -26 -223 -26q-231 0 -374 122q-155 134 -155 349q0 223 159 359q141 120 355 120q104 0 223 -33q117 -31 179 -78q29 -21 36 -36q7 -13 9 -47l29 -15l160 327l-28 15q-29 -23 -49 -23q-30 0 -97 27q-131 51 -236 72q-101 22 -220 22q-369 0 -590 -184
q-234 -193 -234 -522q0 -352 263 -550q208 -157 540 -157q366 0 754 222v25q-37 10 -51 26t-14 47v280q0 31 14.5 47t50.5 26v32h-648q-31 0 -46.5 14t-25.5 50h-32v-318h32q10 36 25.5 50t46.5 14h337z" />
    <glyph glyph-name="gbreve" unicode="&#x11f;" horiz-adv-x="1474" 
d="M827 1466v-27q29 -2 29 -17q0 -8 -8 -18l-93 -106l-84 103q-16 19 -16 23q0 12 31 15v27h-287v-27q29 -2 45 -20l150 -166q16 -17 16 -29q0 -15 -30 -18v-27h316v27q-33 0 -33 17q0 12 11 25l134 149q31 32 37 36q7 4 32 6v27h-250zM1108 432v-171q-134 -73 -331 -73
q-205 0 -320 101q-111 99 -111 264q0 176 122 280q116 99 297 99q158 0 294 -73q74 -39 74 -76v-6l24 -12l133 282l-24 13q-22 -16 -40 -16q-16 0 -97 28q-209 72 -372 72q-372 0 -562 -238q-122 -155 -122 -352q0 -144 67 -269q57 -106 150 -178q173 -131 450 -131
q321 0 646 179v23q-35 10 -49.5 27t-14.5 48v236q0 35 14.5 54t49.5 29v29h-533q-32 0 -48.5 14t-26.5 49h-27v-296h27q10 36 26.5 50t48.5 14h255z" />
    <glyph glyph-name="uni0130" unicode="&#x130;" horiz-adv-x="671" 
d="M187 105q0 -31 -14 -47t-50 -26v-32h426v32q-35 9 -49.5 25.5t-14.5 47.5v1156q0 30 14 46.5t50 25.5v32h-426v-32q36 -10 50 -26t14 -46v-1156zM335 1770q-56 -2 -92 -38q-37 -37 -37 -90q0 -54 37 -92q38 -38 92 -38q53 0 91 38t38 90q0 54 -38 92t-91 38z" />
    <glyph glyph-name="dotlessi" unicode="&#x131;" horiz-adv-x="593" 
d="M430 1018q0 31 14 47.5t50 26.5v28h-396v-28q36 -11 50 -27t14 -47v-916q0 -31 -14.5 -48t-49.5 -26v-28h396v27q-36 11 -50 27.5t-14 47.5v916z" />
    <glyph glyph-name="OE" unicode="&#x152;" horiz-adv-x="2435" 
d="M1364 599h553q31 0 47 -14t26 -50h32v345h-32q-10 -36 -26 -50t-47 -14h-553v324h854q31 0 46.5 -13.5t25.5 -49.5h32v353h-32q-10 -36 -26 -50.5t-46 -14.5h-1152l-202 8q-169 0 -313 -52q-233 -83 -354 -272q-106 -166 -106 -367q0 -136 51 -260q59 -142 170 -241
q212 -189 544 -189q40 0 157 6q12 0 24.5 0.5t19 1t9.5 0.5h1176q31 0 46.5 -14t25.5 -50h32v353h-32q-10 -36 -25.5 -50t-46.5 -14h-878v374zM1066 1140v-915q-102 -11 -170 -11q-239 0 -369 127q-132 129 -132 341t132 342q128 127 373 127q73 0 166 -11z" />
    <glyph glyph-name="oe" unicode="&#x153;" horiz-adv-x="2007" 
d="M1138 476h421q32 0 48.5 -14.5t26.5 -50.5h27v324h-27q-10 -36 -26.5 -50t-48.5 -14h-421v246h683q32 0 48 -14t27 -51h27v332h-27q-10 -36 -26.5 -50t-48.5 -14h-954l-166 8q-140 0 -264 -44q-163 -57 -261 -183q-119 -152 -119 -341q0 -138 67 -262q57 -107 152 -179
q166 -127 424 -127q38 0 75 3q82 5 92 5h981q32 0 48.5 -14t26.5 -50h27v332h-27q-11 -37 -27 -51t-48 -14h-710v273zM870 917v-714q-75 -11 -142 -11q-176 0 -280 93q-118 106 -118 275t118 275q104 93 282 93q66 0 140 -11z" />
    <glyph glyph-name="Scedilla" unicode="&#x15e;" horiz-adv-x="1475" 
d="M632 -245l32 -21q34 39 83 39q32 0 55 -23t23 -55q0 -43 -41 -68t-110 -25q-54 0 -112 16l-25 -52q87 -31 220 -31q129 0 196 55q64 52 64 132q0 84 -75 130t-212 46q-18 0 -23 -4q-6 -6 -18 -29zM1393 1250l-28 15q-29 -23 -49 -23q-11 0 -71 23q-175 73 -282 97
q-113 27 -244 27q-311 0 -468 -149q-119 -113 -119 -286q0 -104 47 -186q53 -91 143 -135q67 -33 128 -47q64 -14 219 -30l154 -16q152 -16 206 -37q73 -28 73 -97q0 -45 -31 -86.5t-83 -66.5q-95 -45 -227 -45q-121 0 -258 42t-201 100q-43 37 -43 83v13l-29 14l-148 -335
l29 -15q28 22 41 22q10 0 67 -26q263 -130 535 -130q153 0 283 37q178 50 261 151q93 112 93 256q0 91 -39.5 171t-107.5 129q-70 48 -154 73q-88 26 -226 41l-157 16q-158 17 -206 30q-93 28 -93 105q0 47 36 87t96 60q83 26 187 26q240 0 418 -124q58 -39 58 -73
q0 -9 -1 -16l28 -16z" />
    <glyph glyph-name="scedilla" unicode="&#x15f;" horiz-adv-x="1261" 
d="M1175 1019l-24 13q-25 -22 -41 -22q-18 0 -57 19q-134 63 -238 89q-101 26 -214 26q-213 0 -356 -88q-158 -98 -158 -281q0 -82 36 -151t100 -109q47 -30 117 -47q62 -15 194 -26l157 -13q125 -11 173 -27q72 -24 72 -85q0 -75 -104 -110q-83 -28 -190 -28
q-118 0 -243 32q-123 33 -173 77q-20 18 -20 44v8l-25 10l-115 -274l25 -10q17 24 37 24q12 0 27 -7q237 -107 489 -107q250 0 398 95q154 99 154 270q0 95 -49 169q-39 60 -99 96q-106 63 -315 80l-158 12q-147 12 -201 32q-52 21 -52 70q0 74 108 113q75 27 172 27
q114 0 225 -33t168 -84q21 -19 21 -52l24 -13zM511 -224l30 -18q32 35 76 35q30 0 51 -20.5t21 -49.5q0 -39 -38 -61.5t-103 -22.5q-48 0 -102 16l-23 -47q83 -28 202 -28q121 0 183 49q59 47 59 118q0 75 -69 116t-196 41q-16 0 -21 -4t-17 -25z" />
    <glyph glyph-name="Scaron" unicode="&#x160;" horiz-adv-x="1475" 
d="M1393 1250l-28 15q-29 -23 -49 -23q-11 0 -71 23q-175 73 -282 97q-113 27 -244 27q-311 0 -468 -149q-119 -113 -119 -286q0 -104 47 -186q53 -91 143 -135q67 -33 128 -47q64 -14 219 -30l154 -16q152 -16 206 -37q73 -28 73 -97q0 -45 -31 -86.5t-83 -66.5
q-95 -45 -227 -45q-121 0 -258 42t-201 100q-43 37 -43 83v13l-29 14l-148 -335l29 -15q28 22 41 22q10 0 67 -26q263 -130 535 -130q153 0 283 37q178 50 261 151q93 112 93 256q0 91 -39.5 171t-107.5 129q-70 48 -154 73q-88 26 -226 41l-157 16q-158 17 -206 30
q-93 28 -93 105q0 47 36 87t96 60q83 26 187 26q240 0 418 -124q58 -39 58 -73q0 -9 -1 -16l28 -16zM868 1765v-27q29 -2 29 -17q0 -8 -8 -18l-93 -107l-84 104q-16 19 -16 23q0 12 31 15v27h-287v-27q29 -2 45 -20l150 -166q16 -17 16 -29q0 -15 -30 -18v-27h316v27
q-33 0 -33 17q0 12 11 25l134 149q31 32 37 36q7 4 32 6v27h-250z" />
    <glyph glyph-name="scaron" unicode="&#x161;" horiz-adv-x="1261" 
d="M1175 1019l-24 13q-25 -22 -41 -22q-18 0 -57 19q-134 63 -238 89q-101 26 -214 26q-213 0 -356 -88q-158 -98 -158 -281q0 -82 36 -151t100 -109q47 -30 117 -47q62 -15 194 -26l157 -13q125 -11 173 -27q72 -24 72 -85q0 -75 -104 -110q-83 -28 -190 -28
q-118 0 -243 32q-123 33 -173 77q-20 18 -20 44v8l-25 10l-115 -274l25 -10q17 24 37 24q12 0 27 -7q237 -107 489 -107q250 0 398 95q154 99 154 270q0 95 -49 169q-39 60 -99 96q-106 63 -315 80l-158 12q-147 12 -201 32q-52 21 -52 70q0 74 108 113q75 27 172 27
q114 0 225 -33t168 -84q21 -19 21 -52l24 -13zM734 1533v-27q29 -2 29 -17q0 -8 -8 -18l-93 -106l-84 103q-16 19 -16 23q0 12 31 15v27h-287v-27q29 -2 45 -20l150 -166q16 -17 16 -29q0 -15 -30 -18v-27h316v27q-33 0 -33 17q0 12 11 25l134 149q31 32 37 36q7 4 32 6v27
h-250z" />
    <glyph glyph-name="Ydieresis" unicode="&#x178;" horiz-adv-x="1460" 
d="M879 571l441 621q57 80 89 107q32 28 78 34v32h-528v-32q31 -5 49 -21.5t18 -39.5q0 -21 -41 -80l-253 -366l-246 366q-41 62 -41 79q0 52 67 62v32h-539v-32q46 -6 77 -34q32 -26 90 -107l441 -621v-466q0 -31 -15 -47t-51 -26v-32h429v32q-36 10 -50.5 26t-14.5 47v466
zM529 1742q-55 -2 -92 -39.5t-37 -91.5t38 -92q40 -38 92 -38q55 0 93 38t38 89q0 56 -38 96q-38 38 -94 38zM928 1742q-56 -2 -93 -39t-37 -91q0 -55 37 -93q38 -38 91 -38q57 0 95 38t38 95q0 50 -38 90q-38 38 -93 38z" />
    <glyph glyph-name="uni018F" unicode="&#x18f;" horiz-adv-x="1753" 
d="M829 229q-147 -3 -278 82t-148 212l931 1v205h-1244q2 -62 4 -92q6 -111 19 -171q18 -88 66 -176.5t98 -126.5q221 -191 596 -191q323 0 526 159q108 87 174 216q79 151 79 326q0 238 -143 425q-223 288 -657 288q-190 0 -434 -87q-96 -34 -113 -34q-21 0 -47 19l-28 -15
l155 -342l28 15v7q0 46 88 92q160 89 343 89q211 0 346 -120q143 -126 143 -339q0 -200 -130 -320q-133 -122 -374 -122z" />
    <glyph glyph-name="florin" unicode="&#x192;" horiz-adv-x="1461" 
d="M5 -55l23 -11q26 23 46 23q12 0 37 -18q88 -61 219 -61q222 0 346 130q49 52 67 100q21 58 40 175l63 400h185q31 0 45 -14t18 -50h32l55 346h-33q-15 -36 -33.5 -50.5t-48.5 -14.5h-185l25 155q15 97 53 147q25 33 72.5 54t97.5 21q49 0 102 -19q54 -18 54 -35
q0 -10 -15 -49l33 -15l153 256l-32 16q-25 -28 -47 -28q-9 0 -19 7q-63 45 -115 61q-49 15 -142 15q-247 0 -360 -129q-42 -50 -74 -124q-32 -77 -44 -150l-28 -183h-90q-30 0 -44 14.5t-18 50.5h-32l-55 -346h32q16 36 34 50t49 14h89l-59 -373q-18 -110 -50 -155
q-49 -67 -147 -67q-45 0 -88 26q-41 26 -41 55q0 9 7 22l-24 11z" />
    <glyph glyph-name="uni0259" unicode="&#x259;" horiz-adv-x="1478" 
d="M705 188q-128 -2 -240 68q-113 71 -126 175l800 1v169h-1070q0 -39 3 -76q6 -88 17 -142q16 -72 57 -145.5t84 -104.5q188 -157 512 -157q279 0 452 131q93 72 150 178q68 127 68 269q0 198 -123 352q-190 238 -564 238q-164 0 -374 -72q-81 -28 -97 -28q-18 0 -40 16
l-24 -13l133 -282l24 12v6q0 37 75 76q136 73 295 73q183 0 298 -99q123 -103 123 -280q0 -165 -112 -264q-115 -101 -321 -101z" />
    <glyph glyph-name="uni0259" unicode="&#x4d9;" horiz-adv-x="1478" 
d="M705 188q-128 -2 -240 68q-113 71 -126 175l800 1v169h-1070q0 -39 3 -76q6 -88 17 -142q16 -72 57 -145.5t84 -104.5q188 -157 512 -157q279 0 452 131q93 72 150 178q68 127 68 269q0 198 -123 352q-190 238 -564 238q-164 0 -374 -72q-81 -28 -97 -28q-18 0 -40 16
l-24 -13l133 -282l24 12v6q0 37 75 76q136 73 295 73q183 0 298 -99q123 -103 123 -280q0 -165 -112 -264q-115 -101 -321 -101z" />
    <glyph glyph-name="circumflex" unicode="&#x2c6;" 
d="M423 1246v27q-29 2 -29 17q0 9 9 18l92 106l84 -103q16 -19 16 -23q0 -12 -31 -15v-27h287v27q-29 2 -45 20l-150 167q-16 16 -16 28q0 15 30 18v27h-316v-27q33 0 33 -17q0 -12 -11 -25l-134 -149q-36 -36 -38 -37q-6 -3 -31 -5v-27h250z" />
    <glyph glyph-name="caron" unicode="&#x2c7;" 
d="M601 1533v-27q29 -2 29 -17q0 -8 -8 -18l-93 -106l-84 103q-16 19 -16 23q0 12 31 15v27h-287v-27q29 -2 45 -20l150 -166q16 -17 16 -29q0 -15 -30 -18v-27h316v27q-33 0 -33 17q0 12 11 25l134 149q31 32 37 36q7 4 32 6v27h-250z" />
    <glyph glyph-name="macron" unicode="&#x2c9;" 
d="M819 1503h-27q-11 -31 -27.5 -43.5t-45.5 -12.5h-414q-29 0 -45 12.5t-28 43.5h-27v-262h27q12 33 27.5 44.5t45.5 11.5h414q31 0 46.5 -12t26.5 -44h27v262z" />
    <glyph glyph-name="breve" unicode="&#x2d8;" 
d="M194 1504q27 -1 28 -22q3 -66 42 -123q80 -117 248 -117t248 117q39 55 42 123q1 21 28 22v25h-210v-25q19 0 24 -3t5 -15q0 -41 -41 -73q-40 -30 -96 -30t-97 30q-40 31 -40 73q0 12 5 15t24 3v25h-210v-25z" />
    <glyph glyph-name="dotaccent" unicode="&#x2d9;" 
d="M510 1510q-52 -1 -91 -40q-37 -37 -37 -91t38 -92q40 -38 92 -38q55 0 93 38t38 90q0 55 -38 95q-38 38 -95 38z" />
    <glyph glyph-name="ring" unicode="&#x2da;" 
d="M511 1581q-98 -2 -163 -55t-65 -132t67 -134t162 -55q93 0 162 54q67 52 67 133q0 79 -67 134q-65 55 -163 55zM512 1477q45 0 73 -24t28 -61q0 -34 -30 -58.5t-71 -24.5q-42 0 -71.5 24.5t-29.5 59.5q0 37 28.5 60.5t72.5 23.5z" />
    <glyph glyph-name="ogonek" unicode="&#x2db;" 
d="M927 0q-72 -38 -100 -60q-63 -46 -63 -118q0 -79 71 -121q55 -33 162 -33q79 0 165 26l-16 42q-52 -11 -73 -11q-60 0 -95 27.5t-35 74.5q0 88 112 173h-128z" />
    <glyph glyph-name="tilde" unicode="&#x2dc;" 
d="M721 1517l-21 -16q17 -20 17 -33q0 -18 -18 -34t-38 -16q-21 0 -51 11l-149 58q-30 13 -65 13q-90 0 -152 -80q-16 -22 -38 -22q-10 0 -34 8l-14 -17l149 -139l18 15q-15 18 -15 30q0 17 19 33.5t39 16.5q26 0 44 -7l148 -57q46 -18 85 -18q74 0 142 92q14 17 26 17
q9 0 37 -9l16 20z" />
    <glyph glyph-name="hungarumlaut" unicode="&#x2dd;" 
d="M622 1533h-295v-27q15 -2 22.5 -6.5t6.5 -12.5q0 -3 -5 -15l-66 -163q-9 -22 -19 -29t-34 -7v-27h208v27h-4q-21 0 -21 16q0 9 6 16l142 174q19 25 59 27v27zM997 1533h-295v-27q29 -3 29 -19q0 -6 -4 -15l-67 -163q-9 -22 -19 -29t-33 -7v-27h208v27h-4q-21 0 -21 16
q0 9 6 16l141 174q19 25 59 27v27z" />
    <glyph glyph-name="pi" unicode="&#x3c0;" horiz-adv-x="1252" 
d="M190 0h257v778h360v-778h257v778h148v204h-1171v-204h149v-778z" />
    <glyph glyph-name="endash" unicode="&#x2013;" horiz-adv-x="1577" 
d="M1489 730h-32q-9 -36 -25.5 -50t-46.5 -14h-1193q-31 0 -47 14t-26 50h-32v-340h32q10 36 26 50t47 14h1193q30 0 46.5 -14.5t25.5 -49.5h32v340z" />
    <glyph glyph-name="emdash" unicode="&#x2014;" horiz-adv-x="1361" 
d="M1361 730h-32q-10 -36 -26 -50t-46 -14h-1152q-31 0 -47 14t-26 50h-32v-340h32q10 36 26 50t47 14h1152q30 0 46 -14.5t26 -49.5h32v340z" />
    <glyph glyph-name="quoteleft" unicode="&#x2018;" horiz-adv-x="628" 
d="M430 1325l-48 64q-232 -163 -232 -383q0 -94 42 -160q48 -74 138 -74q67 0 107.5 44t40.5 118t-40 120t-106 46q-24 0 -70 -12q13 80 50 132q38 52 118 105z" />
    <glyph glyph-name="quoteright" unicode="&#x2019;" horiz-adv-x="628" 
d="M197 836l48 -65q233 165 233 384q0 104 -50 169t-130 65q-67 0 -107.5 -44t-40.5 -118t40 -120t106 -46q24 0 70 12q-15 -82 -51 -133q-37 -52 -118 -104z" />
    <glyph glyph-name="quotesinglbase" unicode="&#x201a;" horiz-adv-x="628" 
d="M197 -250l48 -64q233 164 233 384q0 92 -42 160q-48 74 -138 74q-67 0 -107.5 -44t-40.5 -118t40 -120t106 -46q20 0 70 11q-15 -81 -51 -132q-36 -52 -118 -105z" />
    <glyph glyph-name="quotedblleft" unicode="&#x201c;" horiz-adv-x="1106" 
d="M430 1325l-48 64q-232 -163 -232 -383q0 -94 42 -160q48 -74 138 -74q67 0 107.5 44t40.5 118t-40 120t-106 46q-24 0 -70 -12q13 80 50 132q38 52 118 105zM908 1325l-48 64q-232 -163 -232 -383q0 -94 42 -160q48 -74 138 -74q67 0 107.5 44t40.5 118q0 75 -40 120.5
t-106 45.5q-24 0 -71 -12q15 81 51 132q38 52 118 105z" />
    <glyph glyph-name="quotedblright" unicode="&#x201d;" horiz-adv-x="1106" 
d="M197 836l48 -65q233 165 233 384q0 104 -50 169t-130 65q-67 0 -107.5 -44t-40.5 -118t40 -120t106 -46q24 0 70 12q-15 -82 -51 -133q-37 -52 -118 -104zM675 836l48 -65q233 165 233 384q0 104 -50 169t-130 65q-67 0 -107.5 -44t-40.5 -118t40 -120t106 -46
q24 0 70 12q-15 -82 -51 -133q-37 -52 -118 -104z" />
    <glyph glyph-name="quotedblbase" unicode="&#x201e;" horiz-adv-x="1106" 
d="M197 -250l48 -64q233 164 233 384q0 92 -42 160q-48 74 -138 74q-67 0 -107.5 -44t-40.5 -118t40 -120t106 -46q20 0 70 11q-15 -81 -51 -132q-36 -52 -118 -105zM675 -250l48 -64q233 165 233 384q0 92 -42 160q-48 74 -138 74q-67 0 -107.5 -44t-40.5 -118t40 -120
t106 -46q20 0 70 11q-15 -81 -51 -132q-36 -52 -118 -105z" />
    <glyph glyph-name="dagger" unicode="&#x2020;" horiz-adv-x="1104" 
d="M640 1074l41 323q3 35 15.5 49t48.5 24v32h-385v-32q36 -10 48 -23.5t16 -49.5l41 -323h-237q-52 0 -71 11q-17 12 -29 53h-32v-316h32q10 36 26 50t47 14h264l-41 -918q-1 -32 -14 -46.5t-50 -26.5v-32h385v32q-37 11 -50 25.5t-14 47.5l-41 918h264q31 0 47 -14t26 -50
h32v316h-32q-10 -36 -26 -50t-47 -14h-264z" />
    <glyph glyph-name="daggerdbl" unicode="&#x2021;" horiz-adv-x="1104" 
d="M640 1074l41 323q3 35 15.5 49t48.5 24v32h-385v-32q36 -10 48 -23.5t16 -49.5l41 -323h-237q-52 0 -71 11q-17 12 -29 53h-32v-316h32q10 36 26 50t47 14h264l-9 -407h-255q-31 0 -46.5 13.5t-26.5 50.5h-32v-316h32q12 41 29 52q18 12 71 12h228l-32 -323
q-3 -35 -15.5 -49t-48.5 -24v-32h385v32q-36 10 -48.5 24t-15.5 49l-31 323h254q31 0 47 -14t26 -50h32v316h-32q-10 -36 -26 -50t-47 -14h-254l-10 407h264q31 0 47 -14t26 -50h32v316h-32q-10 -36 -26 -50t-47 -14h-264z" />
    <glyph glyph-name="bullet" unicode="&#x2022;" horiz-adv-x="1365" 
d="M689 978q-119 0 -204 -83q-84 -81 -84 -202q0 -117 84 -200q83 -83 200 -83t200 83q84 83 84 201t-84 201q-83 83 -196 83z" />
    <glyph glyph-name="ellipsis" unicode="&#x2026;" horiz-adv-x="1884" 
d="M314 304q-70 -2 -117 -49t-47 -114t48 -117q48 -48 116 -48q67 0 115 48q49 48 49 115q0 69 -48 117q-46 48 -116 48zM942 304q-70 -2 -117 -49t-47 -114t48 -117q48 -48 116 -48q67 0 115 48q49 48 49 115q0 69 -48 117q-47 48 -116 48zM1570 304q-70 -2 -117 -49
t-47 -114t48 -117q48 -48 116 -48q67 0 115 48q49 48 49 115q0 69 -48 117q-46 48 -116 48z" />
    <glyph glyph-name="perthousand" unicode="&#x2030;" horiz-adv-x="2644" 
d="M416 1377q-143 -1 -240 -88q-108 -97 -108 -265q0 -166 108 -266q95 -88 241 -88t241 88q108 99 108 261q0 171 -108 270q-95 88 -242 88zM417 1234q80 -1 128 -59t48 -154q0 -91 -50 -150q-49 -58 -126 -58q-78 0 -127 58t-49 152t49 152q50 59 127 59zM1391 695
q-143 -1 -240 -88q-108 -97 -108 -265q0 -167 108 -266q95 -88 241 -88t241 88q108 99 108 261q0 171 -108 270q-95 88 -242 88zM1392 552q80 -1 128 -59t48 -154q0 -91 -50 -150q-49 -58 -126 -58q-78 0 -127 58t-49 152t49 152q50 59 127 59zM1380 1192q71 93 95 114
q24 20 75 27v32h-355v-32q60 -17 60 -60q0 -25 -44 -81l-788 -1016q-70 -90 -99 -113q-30 -24 -80 -31v-32h356v32q-60 12 -60 52q0 22 36 68zM2225 695q-143 -1 -240 -88q-108 -97 -108 -265q0 -167 108 -266q95 -88 241 -88t241 88q108 99 108 261q0 171 -108 270
q-95 88 -242 88zM2226 552q80 -1 128 -59t48 -154q0 -91 -50 -150q-49 -58 -126 -58q-78 0 -127 58t-49 152t49 152q50 59 127 59z" />
    <glyph glyph-name="guilsinglleft" unicode="&#x2039;" horiz-adv-x="640" 
d="M490 983h-173l-194 -403l194 -403h173l-196 403z" />
    <glyph glyph-name="guilsinglright" unicode="&#x203a;" horiz-adv-x="640" 
d="M150 983l196 -403l-196 -403h173l194 403l-194 403h-173z" />
    <glyph glyph-name="trademark" unicode="&#x2122;" horiz-adv-x="2083" 
d="M528 1225h256q17 0 25 -7t14 -28h32v211h-32q-6 -22 -14 -29t-25 -7h-710q-18 0 -26 7t-14 29h-32v-211h32q6 21 14 28t26 7h256v-573q0 -15 -8 -22t-32 -13v-30h278v30q-24 6 -32 13t-8 22v573zM1454 591l322 508v-447q0 -15 -8 -22t-31 -13v-30h277v30q-24 6 -32 13
t-8 22v648q0 15 8 22.5t32 12.5v30h-333v-31q31 -1 31 -20q0 -10 -15 -34l-227 -368l-225 375q-8 14 -8 23q0 19 29 25v30h-340v-30q24 -5 32 -12.5t8 -22.5v-648q0 -15 -8 -22t-32 -13v-30h263v30q-24 6 -32 13t-8 22v446z" />
    <glyph glyph-name="Omega" unicode="&#x2126;" horiz-adv-x="1365" 
d="M56 0h549v221q-276 145 -276 482q0 198 102 327q101 128 254 128q150 0 248 -128q103 -133 103 -325q0 -185 -101 -334q-61 -89 -175 -150v-221h548v239h-298q157 94 230.5 218.5t73.5 295.5q0 279 -189 467q-181 179 -445 179q-257 0 -436 -176q-194 -192 -194 -471
q0 -209 112 -348q75 -94 192 -165h-298v-239z" />
    <glyph glyph-name="partialdiff" unicode="&#x2202;" 
d="M134 1146q246 -25 419 -146q58 -41 84 -74q25 -31 69 -122q6 -12 12 -23q-16 11 -22 16q-14 10 -30.5 22t-23.5 17.5t-9 6.5q-61 40 -163 40q-109 0 -202 -46.5t-150 -130.5q-79 -113 -79 -256q0 -184 117 -321q129 -152 344 -152q224 0 361 156q124 143 124 394
q0 327 -176 536q-127 150 -310 220q-144 55 -333 77zM520 679q94 -1 154 -69q61 -65 61 -168q0 -104 -63 -175t-156 -71q-91 0 -156 65q-71 73 -71 176q0 115 83 187q61 55 148 55z" />
    <glyph glyph-name="Delta" unicode="&#x2206;" horiz-adv-x="1320" 
d="M16 0h1288l-503 1365h-285zM367 239l293 835l287 -835h-580z" />
    <glyph glyph-name="product" unicode="&#x220f;" horiz-adv-x="1365" 
d="M41 1536v-221h150v-1606h-150v-221h528v221h-133v1606h494v-1606h-136v-221h530v221h-147v1606h147v221h-1283z" />
    <glyph glyph-name="summation" unicode="&#x2211;" horiz-adv-x="1365" 
d="M1265 1536h-1196v-290l480 -702l-480 -764v-292h1215v523h-261l-17 -270h-627l496 804l-498 738h610l30 -262h248v515z" />
    <glyph glyph-name="fraction" unicode="&#x2215;" horiz-adv-x="588" 
d="M862 1365h-420v-32q33 -5 55 -24.5t22 -43.5q0 -23 -30 -73l-609 -1016q-55 -91 -78 -112q-26 -23 -75 -32v-32h420v32q-36 4 -56.5 19.5t-20.5 39.5q0 20 25 61l618 1040q62 100 81 116q19 18 68 25v32z" />
    <glyph glyph-name="radical" unicode="&#x221a;" horiz-adv-x="1365" 
d="M1365 1693h-553l-208 -785q-55 -209 -88 -355q-28 -125 -57 -307h-15q-31 229 -47 288l-61 229h-336v-228h179l130 -535h318l386 1465h352v228z" />
    <glyph glyph-name="infinity" unicode="&#x221e;" horiz-adv-x="1365" 
d="M687 570q77 -103 154.5 -149.5t170.5 -46.5q138 0 230 92q87 88 87 230q0 129 -74 215q-91 106 -244 106q-186 0 -333 -194q-147 194 -325 194q-137 0 -228 -90q-89 -89 -89 -229q0 -137 83 -226q92 -98 235 -98q137 0 244 98q35 32 89 98zM777 696q0 1 19 26
q5 6 11.5 15t10.5 14t7 9q75 86 159 86q63 0 105 -43q43 -43 43 -107t-42 -108q-42 -43 -105 -43q-108 0 -208 151zM587 695q1 -1 -19 -27q-23 -31 -29 -37q-72 -85 -158 -85q-65 0 -106.5 42t-41.5 107q0 66 40.5 108.5t103.5 42.5q110 0 210 -151z" />
    <glyph glyph-name="integral" unicode="&#x222b;" 
d="M110 -491q4 -1 24 -5q53 -14 101 -14q185 0 283 71q97 69 123 173q19 75 19 274v1071q0 107 18 142q27 54 101 54q37 0 88 -20l48 260q-109 21 -168 21q-131 0 -214 -49q-117 -69 -147 -188q-12 -45 -17 -119q-4 -60 -4 -240v-906q-1 -142 -3 -169q-1 -27 -9 -50
q-11 -30 -41 -48t-69 -18q-31 0 -85 20z" />
    <glyph glyph-name="approxequal" unicode="&#x2248;" 
d="M159 713q40 61 73 86t75 25q49 0 192 -61q89 -39 132 -52q40 -12 76 -12q117 0 204 105q44 54 95 170l-142 100q-38 -62 -72 -87.5t-77 -25.5q-47 0 -178 58q-150 67 -220 67q-125 0 -214 -117q-45 -57 -86 -156zM159 281q72 111 148 111q45 0 192 -62q87 -37 133 -52
q39 -12 75 -12q117 0 204 105q44 54 95 170l-142 100q-38 -61 -72 -86t-77 -25q-49 0 -178 58q-151 66 -219 66q-126 0 -215 -117q-41 -53 -86 -156z" />
    <glyph glyph-name="notequal" unicode="&#x2260;" horiz-adv-x="1570" 
d="M831 1013h-501q-28 0 -43 14t-23 50h-30v-324h29q10 36 24 50t43 14h409l-125 -268h-284q-28 0 -43 14t-23 49h-30v-324h29q10 37 24.5 51t42.5 14h193l-54 -115q-16 -37 -53 -37q-16 0 -33 4l-13 -27l294 -137l13 26q-37 30 -37 55q0 19 7 33l92 198h501q28 0 42.5 -14
t23.5 -51h30v324h-30q-9 -36 -23.5 -49.5t-42.5 -13.5h-409l125 268h284q28 0 42.5 -14t23.5 -50h30v324h-30q-9 -36 -23.5 -50t-42.5 -14h-193l54 114q17 38 54 38q15 0 32 -4l13 27l-295 136l-12 -26q37 -31 37 -55q0 -19 -7 -33z" />
    <glyph glyph-name="lessequal" unicode="&#x2264;" 
d="M955 1307l-887 -338v-244l887 -339v271l-571 189l571 190v271zM955 330h-887v-254h887v254z" />
    <glyph glyph-name="greaterequal" unicode="&#x2265;" 
d="M68 1307v-271l571 -190l-571 -189v-271l887 339v244zM68 330v-254h887v254h-887z" />
    <glyph glyph-name="lozenge" unicode="&#x25ca;" horiz-adv-x="1365" 
d="M683 1419l-532 -736l532 -736l532 736zM683 1237l403 -554l-403 -555l-404 555z" />
    <glyph glyph-name="fi" unicode="&#xf001;" horiz-adv-x="1841" 
d="M430 476h422q32 0 48.5 -14.5t26.5 -50.5h27v324h-27q-11 -36 -27 -50t-48 -14h-422v246h672q32 0 48.5 -14.5t26.5 -50.5h27v332h-27q-10 -36 -26.5 -50t-48.5 -14h-1004v-28q36 -11 50 -27t14 -47v-916q0 -31 -14.5 -48t-49.5 -26v-28h396v27q-36 11 -50 27.5t-14 47.5
v374zM1678 1018q0 31 14 47.5t50 26.5v28h-396v-28q37 -11 50.5 -27t13.5 -47v-916q0 -31 -14.5 -48t-49.5 -26v-28h396v27q-36 10 -50 27t-14 48v916z" />
    <glyph glyph-name="fl" unicode="&#xf002;" horiz-adv-x="2424" 
d="M430 476h422q32 0 48.5 -14.5t26.5 -50.5h27v324h-27q-11 -36 -27.5 -50t-47.5 -14h-422v246h672q32 0 48 -14t27 -51h27v332h-27q-10 -36 -26.5 -50t-48.5 -14h-1004v-28q36 -11 50 -27t14 -47v-916q0 -31 -14.5 -48t-49.5 -26v-28h396v27q-36 11 -50 27.5t-14 47.5v374
zM1678 203v815q0 31 14 47.5t50 26.5v28h-396v-28q37 -11 50.5 -27t13.5 -47v-916q0 -31 -14.5 -48t-49.5 -26v-28h959q32 0 48.5 -14t26.5 -50h27v332h-27q-11 -37 -27 -51t-48 -14h-627z" />
    <glyph glyph-name="NULL" horiz-adv-x="0" 
 />
    <glyph glyph-name="CR" horiz-adv-x="512" 
 />
    <glyph glyph-name="_242" 
d="M311 1742q-52 -1 -91 -40q-37 -37 -37 -91t38 -92q40 -38 92 -38q55 0 93 38t38 89q0 56 -38 96q-38 38 -95 38zM710 1742q-56 -2 -93 -39t-37 -91q0 -55 37 -93q38 -38 91 -38q57 0 95 38t38 95q0 50 -38 90q-38 38 -93 38z" />
    <glyph glyph-name="_243" 
d="M511 1813q-98 -2 -163 -55t-65 -132t67 -134t162 -55q93 0 162 54q67 52 67 133q0 79 -67 134q-65 55 -163 55zM512 1709q45 0 73 -24t28 -61q0 -34 -30 -58.5t-71 -24.5q-42 0 -71.5 24.5t-29.5 59.5q0 37 28.5 60.5t72.5 23.5z" />
    <glyph glyph-name="_244" 
d="M601 1765v-27q29 -2 29 -17q0 -8 -8 -18l-93 -107l-84 104q-16 19 -16 23q0 12 31 15v27h-287v-27q29 -2 45 -20l150 -166q16 -17 16 -29q0 -15 -30 -18v-27h316v27q-33 0 -33 17q0 12 11 25l134 149q31 32 37 36q7 4 32 6v27h-250z" />
    <glyph glyph-name="_245" 
d="M367 -246l32 -21q35 39 83 39q32 0 55 -23t23 -55q0 -43 -41 -68t-110 -25q-54 0 -112 16l-25 -52q87 -31 220 -31q129 0 196 55q64 52 64 132q0 84 -75 130t-212 46q-18 0 -23 -4q-6 -6 -18 -29z" />
    <glyph glyph-name="_246" 
d="M423 1478v27q-29 2 -29 17q0 9 9 18l92 106l84 -103q16 -19 16 -23q0 -14 -31 -15v-27h287v27q-29 2 -45 20l-150 167q-16 16 -16 28q0 15 30 18v27h-316v-27q33 0 33 -17q0 -12 -11 -25l-134 -149q-36 -35 -38 -37q-6 -3 -31 -5v-27h250z" />
    <glyph glyph-name="_247" 
d="M778 1765h-304v-27q28 -3 28 -19q0 -7 -4 -15l-66 -163q-9 -22 -19 -29t-34 -7v-27h217v27h-4q-21 0 -21 16q0 9 6 16l142 173q19 26 59 28v27z" />
    <glyph glyph-name="_248" 
d="M345 1510q-52 -1 -91 -40q-37 -37 -37 -91t38 -92q40 -38 92 -38q55 0 93 38t38 90q0 55 -38 95q-38 38 -95 38zM676 1510q-56 -2 -93 -39t-37 -91q0 -55 37 -93q38 -38 90 -38q58 0 96 38t38 95q0 50 -38 90q-38 38 -93 38z" />
    <glyph glyph-name="_249" 
d="M721 1749l-21 -15q17 -20 17 -33q0 -18 -18 -34t-38 -16q-27 0 -51 10l-149 59q-33 13 -65 13q-90 0 -152 -80q-17 -23 -38 -23q-8 0 -34 8l-14 -17l149 -138l18 14q-15 19 -15 31q0 17 19 33.5t39 16.5t44 -8l148 -57q46 -17 85 -17q75 0 142 91q14 17 26 17q9 0 37 -9
l16 20z" />
    <glyph glyph-name="_250" 
d="M345 1742q-52 -1 -91 -40q-37 -37 -37 -91t38 -92q40 -38 92 -38q55 0 93 38t38 89q0 56 -38 96q-38 38 -95 38zM676 1742q-56 -2 -93 -39t-37 -91q0 -55 37 -93q38 -38 90 -38q58 0 96 38t38 95q0 50 -38 90q-38 38 -93 38z" />
    <glyph glyph-name="_251" 
d="M246 1765v-27q40 -2 59 -28l142 -173q6 -7 6 -16q0 -16 -20 -16h-5v-27h217v27q-24 0 -34 7t-19 29l-66 163q-4 8 -4 15q0 16 28 19v27h-304z" />
    <glyph glyph-name="_258" 
 />
    </font>
</defs>
</svg>
